<?xml version="1.0" encoding="UTF-8"?>
<svg id="Calque_1" data-name="Calque 1" xmlns="http://www.w3.org/2000/svg" viewBox="0 0 800 800">
  <defs>
    <style>
      .cls-1 {
        fill: #ba4b44;
      }

      .cls-2 {
        fill: #f0b09f;
      }

      .cls-3 {
        fill: #d41b19;
      }

      .cls-4 {
        fill: #f3beb1;
      }

      .cls-5 {
        fill: #f6cdc4;
      }

      .cls-6 {
        fill: #fff;
      }

      .cls-7 {
        fill: #f7d3cd;
      }

      .cls-8 {
        fill: #eda18e;
      }

      .cls-9 {
        fill: #e78871;
      }

      .cls-10 {
        fill: #f8d8d3;
      }

      .cls-11 {
        fill: #e36e54;
      }

      .cls-12 {
        fill: #f5c5b9;
      }

      .cls-13 {
        fill: #d62b20;
      }

      .cls-14 {
        fill: #bf443b;
      }

      .cls-15 {
        fill: #d93c2a;
      }

      .cls-16 {
        fill: #de563d;
      }
    </style>
  </defs>
  <path class="cls-3" d="M216.72,69.31c-6.08-.85-11.23-3.82-17.18-4.8.57,1.12,2.96,1.86,4.14,2.37,1.77.77,13.13,5.04,13.72,4.48.13-.76-.2-1.51-.68-2.06,9.17,1.27,29.81-2.94,39.03-5.99,3.2-1.06,5.83-3.12,9.08-3.62.25,1.52-2.14,2.54-3.22,3.3-3.32,2.34-7.11,4.05-10.83,5.66l-23.74,4.76c7.89,1.44,15.47,6.2,22.83,8.44,13.6,4.15,28.31,1.86,42.12,3.29l17.85-2.11c2.24.59,3.47,2.55,3.11,4.81-3.85-.28-7.59,1.01-11.35,1.37-9.01.86-21.79.59-30.95.04-25.66-1.54-50.78-16.49-75.34-22.92-18.28-4.78-37.88-6.31-56.6-8-3-.27-5.93-.2-9.12-.5-.76-.07-2.34-.81-2.2.48,10.21,2.29,20.67,3.93,30.79,6.67,53.79,14.56,106.07,40.96,145.42,80.61,18.36,18.5,25.54,34.65,38.35,56.44,9.82,16.7,17.44,29.8,32.53,42.34,29.27,24.33,69.25,42.6,107.2,47.39,10.39,1.31,22.04,2.17,32.41,2.49,17.84.55,38.24-8.32,55.86-12.47,5.6-1.32,11.56-1.63,17.51-3.11,13.91-3.46,19.17-6.8,34.39-6.78,8.66,0,17.21.33,25.84.95,1.06.75,1.15,4.59-.48,5.1l-27.51-1.02c-16.18,2.88-32.35,6.69-48.49,10.23-12.18,2.67-23.73,7.28-35.55,10.48-3.69,1-7.91,1.06-11.71,1.01l9.33,2c11.26.27,21.93,3.68,31.85,8.69.67.57,4.68,6.29,1.76,5.8-1.74-.29-2.87-2.69-4.65-3.59-8.97-4.54-41.56-10.69-51.73-10.86-40.55-.65-73.5-5.3-110.45-22.8-.95-.45-5.14-4.11-6-3.27-.3,1.29.73,1.63,1.37,2.4,5.65,6.81,18.08,15.98,25.48,21.24,43.78,31.12,95.99,43.19,148.38,52.94,12.02,2.24,24.26,3.09,36.45,3.75-.16.04-.78.99-1.85,1.21-4.49.96-9.46,1.36-13.96.16-.27,1.32.98,2.1,2.03,2.43,2.98.95,21.32-.39,23.37-2.12,4.19-3.53-3.16-1.85-4.47-1.79-.52.02-.93-.59-1.01-.59,10.46-3.02,20.83-6.56,30.92-10.65,40.34-16.38,87.79-52.23,133.21-38.31,4,1.23,10.57,3.03,11.13,7.76-.91.83-10.35-3.45-12.21-3.93-31.06-8.03-84.4,15.79-110.88,32.39-.68.43-1.74.23-1.99.39.96-.41,8.68-6.27,10.12-7.4.84-.65,1.86-.8,1.56-2.21-1.65-1.42-12.48,7.2-13.05,8.59-.45,1.11.66,1.32,1.37,1.02-.11.07-1.47,1.98-1.37,2.05,8.6-1.07,17.1-3.21,25.78-4.11,2.25-.23,4.6.19,6.86-.01,9.6-.86,29.67-3.75,38.16.34,1.3.62,3.93,2.93,2.06,4.15-.68.45-10.67-1.63-12.73-1.72-20.43-.9-47.82,5.06-68.38,8.23,2.18-1.09,4.93-3.38.4-2.69-5.87.89-12.47,3.31-18.27,4.76,1.06,2.57,4.64-.09,6.73-.49,2.47-.47,4.69-.55,7.01-.89l-26.8,8.93.67,1.03c22.92,3.9,45.68,8.35,67.36,16.82l-4.12,1.36c9.18-.14,17.53,5.7,25.1,10.3,2.42.06.09-1.76-.36-2.73.97-.17,1.69.16,2.55.54,19.27,8.43,40.43,26.83,54.85,42.02,2.71,2.85,12.71,13.95,11.95,17.46-.24,1.09-1.85,1.43-2.69.75l-16.12-18.92c-33.07-26.55-72.28-46.97-114.21-55.49l-28.42-2.5c5.07,2.7,10.43,6.03,15.54,8.5,22.56,10.92,45.07,21.66,65.08,36.57,8.46,6.3,24.76,23.59,26.44,34.06.24,1.51.52,1.76-1.21,1.55-6.19-10.36-13.08-20.28-22-28.5-2.25-2.07-7.71-6.8-10.09-8.46-3.95-2.77-10.15-5.7-14.66-7.66,7.22,9.01,16.85,20.64,14.78,32.95-3.34-4.49-4.53-10.01-7.1-14.87-1.67-3.15-5.47-9.22-7.68-11.9,2.29.18,1.09-.38.55-1.58-.6-1.33-3.59-5.63-3.3-5.97.21-.25,1.52.92,2.06.68.21-1.46-1.57-.64-2.06-.68-.58-.05-2.33-1.78-2.06.34,2.36,1.25,3.27,4.07,4.12,6.53-2.9-3.34-12.94-11.37-16.85-14.4-29.87-23.18-83.29-32.94-120.34-38.39-18.74-2.75-28.87-5.02-46.99-10.05-11.19-3.1-22.88-4.71-33.35-9.93-.29.85.85,2.12,1.36,2.75,6.45,8.07,23.83,24.8,32.53,29.48,5.69,3.06,13.37,4.86,19.38,7.58-.1,0-.54.66-1.08.66-1.49,0-3.52-1.49-4.42.02-5.92-2.36-11.87-4.91-17.87-6.86-.22,1.03.22,1.62.64,2.45,1.33,2.64,12.06,9.47,15.17,11.28-.15,2.04,1.39,1.6,2.06,2.06.81.55,1,.77,2.06,1.37.15.31-.16,1.13,0,1.37-13.31-4.78-19.03-12.51-28.87-21.62-10.47-9.7-20.71-18.91-30.9-28.87-18.04-17.63-37.32-28.21-56.38-43.92-2.03-1.67-3.81-4.04-5.85-5.82-7.11-6.2-14.73-11.06-20.25-19.25.58,3.84,1.83,7.87,3.31,11.45,3.06,7.38,8.06,16.59,11.68,24.03,5.96,12.25,13.47,19.72,21.04,30.48,12.12,17.24,21.18,36.17,34.08,53.15,10.5,13.82,23.72,30.21,36.4,41.91,4.22,3.89,9,7.26,13.07,11.32-7.17-3.36-7.65-3.32-13.75-8.93-.95-.88-1.87-1.2-2.06-1.37-.1-.09.09-2.82-1.37-1.37s1.27,1.28,1.37,1.37c.09.08,1.3,1.29,1.37,1.37.68.78,1.62,3.17,2.77,4.44,3.85,4.25,9.85,7.9,15.49,9.25,2.05.49-.11-1.79.99-2.02,37.87,15.4,60.71,3.34,95.28-10.9,1.24-.51,2.29-.99,3.69-.77-2.39,1.34-7.01,3.79-6.87,6.87-7.88,3.81-15.73,7.48-24.24,9.78l-12.87,5.32c13.27,1.32,26.75.58,39.86,2.75l-3.43,1.36c4.48,1.55,9.73,1.82,14.12,3.41,1.19.43,6.22,4.51,5.81,1.41,4.01,2.19,10.65,2.89,14.07,6.19,1.77,1.7,2.4,2.46.69,4.81-3.32-2.85-7.13-3.51-10.63-5.17-18.9-8.94-23.3-9.2-44.36-9.92-16.03-.55-32.48-1.54-48.44-4.48-6.45-1.19-12.74-3.38-19.22-4.47l24.51,17.73c9.47,4.57,19.3,8,29.09,11.79l-1.37.7c-.12.76.63.62.68.67,2.28,2.15,6.91,3.59,9.83,4.94.15.07,3.55,1.53,1.85,1.92-8.53-3.11-18.01-5.82-26.31-9.08-19.88-7.82-32.67-21.48-49.36-33.77-6.22-4.58-13.03-8.55-19.53-12.76-.83,3.01,2.85,5.73,4.1,8.3.51,1.04.2,2.3.37,2.68-1.35.7-.45,2.28-.2,3.28.94,3.71,2.68,7.26,2.96,11.13,1.66-.32.14-3.38.09-4.48-.02-.52.6-.93.59-1.01,2.32,7.01,3.2,14.9.68,21.97-.22.17-.89-.39-1.03-.68-1.37-2.75-1.18-11.03-2.05-15.12-5.22-24.83-22.34-40.57-37.83-59-15.36-18.29-23.13-29.55-35.01-50.18-8.48-14.73-19.74-27.53-27.06-43-4.31-9.1-10.51-22.81-13.98-32.03-1.55-4.12-1.72-8.68-3.48-13-5.2-12.76-14.22-29.99-20.75-42.44-21.55-41.14-39.9-57.39-76.6-84.14-3.11-2.27-5.83-5.61-9.46-7.71-5.77-3.34-16.97-7.43-23.6-10.07s-13.03-4.29-19.23-7.22l-1.7-.7-.36.69h1.37c6.71,7.9,17.34,13.98,23.65,22.04,21.83,27.89,28.64,72.03,34,106.11,4.78,30.4,6.32,60.63,18.51,89.31,13.38,31.49,29.22,45.03,58.33,61.89,2.78,1.61,13.48,4.65,5.53,7.59l-31.42-15.01c7.48,10.19,17.99,17.84,27.49,26.09v.69c-.12-.07-4.38-1.89-2.75-.34,1.54.23,3.92,3.86,5.5,2.4.5.44,1.63.69,2.39,1.37,4.25,3.77,8.42,7.64,12.77,11.3,1.15,2.5,1.55,4.56-1.59,3.65-1.59-.46-17.32-14.57-20.13-16.97-1.16-.99-1.56-2.67-1.68-2.78.53.5,2.01-.37,1.37-.68-.72-.35-1.73.35-1.37.68-7.83-6.93-16.73-12.73-24.74-20.95-1.17-1.2-3.33-5.34-4.48-5.82-1.25-.53-1.13.45-.73,1.42,3.87,9.59,11.94,20.51,17.28,29.43,15.97,26.67,37.38,50.39,54.48,76.72,9.73,14.98,17.99,30.97,27.25,46.25,15.72,6.7,35.28,12.24,52.26,14.4,2.2.28,4.65-.27,6.86.02,24.9,3.19,48.39,13.05,67.01,29.87,3.45,3.12,9.14,5.63,8.6,11.32-3.59-4.77-8.39-9.27-13.08-13.02-8.27-6.61-16.24-10.4-26.42-13.43-9.85-2.93-20.33-3.4-29.91-7.2l10.24,10.37c1.49,2.26,3.45,4.56,3.15,7.49-.45-.72-1.93-3.29-2.07-3.43-.4-.36-1.81-.17-1.35,1.01.38.97,2.75,4.12,3.55,5.41.55.89.23,2.2,1.94,1.81,2.99,9.16,8.34,29.16,14.85,35.63,3.63,3.61,9.52,5.2,14.41,6.2,2.14.44,5.26-.9,6.39,1.86.39.96.47,1.76-.9,1.59-4.65-.58-10.28-1.46-14.61-3.27-14.54-6.09-17.33-28.94-24.15-41.79-3.41-6.43-11.9-18.47-18.49-21.35-12.35-5.38-22.11-5.3-34.8-7.11-4.77-.68-9.32-2.79-14.17-2.66,4.56,5.18,10.1,9.33,14.79,14.4,19.67,21.27,39.75,48.31,53.94,73.48h-.69c-.72-.54-1.14-.54-1.37-.69-.37-.79.37-1.85-2.05-1.72.7,2.24,1.63,1.45,2.05,1.72,2.57,5.5,3.68,9.44,5.5,15.11-4.27-8.71-9.21-16.9-14.41-25.08-7.48-11.77-17.19-26.52-26.16-37.04-8.73-10.23-20.38-19.16-28.84-29.89-.92,4.65,2.66,7.34,4.49,10.96,10.42,20.64,16.8,37.45,21.45,60.28,1.6,7.86,3.76,19.09,4.3,26.95-3.6.09-.18-5.96-4.12-4.81-3.07-19.2-11.14-39.08-19.11-56.78-2.52-5.61-8.63-14.83-9.76-20.12-.24-1.12.04-2.62-.3-4.15-.86-3.79-5.69-11.92-9.3-13.37,3.16,4.75,5.69,8.58,7.55,14.08-2.91-3.26-4.62-7.31-6.87-10.99-.56-.91-.75-2.07-1.72-2.73-.47.88.83,2.04,1.04,2.73,4.72,15.54,12.27,29.4,15.49,45.29,2.48,12.24,3.26,25.32,2.38,37.79-.43-.08-1.03.11-1.37,0-.05-.01-.08-.85-.68-.69-.07,5.04-1.37,9.96-2.77,14.75,1.08,1.28,1.53-.27,2.07-1.02-.8,2.77-1.21,5.71-2.22,8.43-.63,1.69-6.19,13.87-8.78,11.48,1.21-4.67,4.17-8.56,5.82-13.06,9.28-25.27,4.06-59.46-7.32-83.29l-3.99-10.07-2.93,35.87c-3.99,18.13-10.04,35.81-13.57,54.08-1.55-.51-2.4,3.15-2.58,3.95-.45,2.08-.84,5.56-.86,7.72,0,.69,0,1.37,0,2.06-.72,2.17-.58,2.54-.69,4.81-.08,1.72-.13,3.8,0,5.49.16,2.07-.67,2.29,2.06,2.06.56,7.18,5.46,21.28,9.32,27.42,1.46,2.32,8.74,9.59,8.6,11.36-.18,2.23-2.24,2.04-3.87,1.08-1.5-.89-8.12-9.62-9.12-11.49-3.32-6.21-8.48-19.8-9.05-26.67-3.18-38.61,19.85-72.57,16.47-113.28-.61-7.38-3.02-25.29-5.16-31.92-3.03-9.37-12.29-19.35-17.53-27.81-5.17-8.35-9.3-17.48-14.94-25.58-7.14-10.24-15.21-20.16-22.56-30.34-11.77-16.32-24.91-31.06-35.9-47.91-9.17-14.06-20.5-32.02-27.73-47.14-2.96-6.19-4.89-12.94-6.07-19.68-1.02-.17-.86,1.29-1.02,2.05-2.21,9.88-1.78,19.14-1.74,29.22.04,14,.11,27.26,3.13,40.82.91,4.09,9.29,29.49,11.04,31.54,3.77,4.44,2.69,4.27,5.2,8.53,1.26,2.15,8.64,9.14,10.89,11.09,1.51,1.31,13.79,7.9,6.89,9.68-1.32.34-7.55-4.38-8.95-5.56-16.4-13.87-22.08-31.5-28.49-51.19-1.17-3.58-3.01-6.67-3.81-10.27l-4.86,20.05c-3.65,2.8-.59,2.69-.63,2.91-.7,3.88-4.93,14.08-6.75,18-.7,1.5-7.74,15.38-10.42,12.58.14-5.79,4.46-10.93,6.77-16.23,11.86-27.25,17.13-74.34,13.77-103.51-3.27-28.3-7.19-56.97-13.29-84.91-6.02-27.56-12.82-51.11-22.02-77.56-1.57-4.52-2.75-9.84-4.48-14.42-1.59.78-1.82,4.8-1.97,6.61-1.29,15.46-4.2,28.29-6.96,43.51-1.91-1.31-1.03-.5-1.7.67-2.62,4.57-4.36,10.54-5.65,15.67-.26,1.05-1.19,3.48-.21,4.26-.04.22.04.46,0,.69-3.1,18.5,7.23,51.92,22.34,63.86,2.07,1.63,5.93,1.94,5.84,5.14-.72,2.56-6.07-.87-7.21-1.71-14.13-10.31-21.64-30.83-24.4-47.38-.13-.79.37-3.43-.34-3.44-.68.85-.7,2.34-1.03,3.44-4.84,16.01-7.72,30.76-4.65,47.56.63,3.45,3.74,6.84,3.28,10.8-2.61-2.99-3.75-9.89-4.13-10.3-1.97-2.09-.82,4.91-.68,5.49-1.55-.78-2.31-3.08-2.59-4.63-2.74-15.38-1.05-32.45,2.59-47.56,2.13.32,1.66.02,2.4-1.36s4.33-11.07,4.36-12.17c.03-.81-.45-1.46-1.25-1.57l-3.46,10.99c-.29-.11-.56-.69-.67-.7.31-7.64,4.32-14.38,6.29-21.53,1.41-5.11,1.72-10.43,3-15.55,3.87-15.52,14.45-31.66,9.99-47.76-3.77-13.64-21.51-38.26-33.94-45.06-27.88-15.25-61.12-28.41-92.39-34.72-15.2-3.07-25.54-5.03-40.57-9.59-6.16-1.87-10.09-1.31-16.17-5.13-9.1-5.71-9.92-12.07-4.04-20.96,5.2-7.85,20.56-9.27,29.38-9.16,5.66.07,12.08,1.57,17.87,1.42,4.28-.11,9.98-2.06,13.75-2.11,37.36-.49,77.05.82,113.37,11.68,3.64,1.09,22.03,7.72,23.7,9.62ZM144.9,51.46c-4.77-.74-11.18.55-16.15,0l5.16,1.37c6.17-.66,11.65.95,17.52,2.06.86-.63-5.84-3.32-6.53-3.43ZM51.78,52.84h-2.74v.67h2.74v-.67ZM57.28,54.2c-1.56-.07-3.43-1.17-4.82-.34,1.45.62,3.25.82,4.82,1.03,1.29.17,2.81-.15,4.12,0,8.31.94,14.17,2.48,22.94,1.29.99-.13,6.64-.98,6.62-1.63-5.19-2.59-10.43.29-15.46.39-4.09.08-9.67-.58-14.1-.73-1.37-.05-2.75.06-4.12,0ZM253.83,65.2l-3.24.53-6.38,2.89,3.99-.46,5.62-2.96ZM150.75,67.94c-1.14-.25-5.61-2.55-5.5-.35,1.74.77,3.68,1.17,5.5,1.72,23.1,7.05,43.38,16.28,65.62,24.05.48.17,4.32,2.14,3.8.34-21.57-12.01-45.26-20.53-69.42-25.76ZM103.33,96.1c-14.48-4.52-28.77-10.08-43.98-11.67.69,1.21,3.63,1.9,4.96,2.25,2.69.71,5.61.81,8.12,1.5,10.24,2.82,20.13,7.09,30.58,9.28l.33-1.35ZM299.2,86.48c-1.03.15-2.71-.43-3.44.34,0,.63,2.66.34,3.44.34,2.53.02,5.27.21,7.57-1.03,0-1.31-6.75.23-7.57.34ZM251.09,130.41c-3.6-4.1-10.49-6.74-15.62-8.76-7.24-2.85-14.33-5.07-22.18-5.65l37.8,14.41ZM192.66,140.03c.09-1.07-.5-1.88-1.07-2.7-2.37-3.38-19.04-14.89-23.19-16.65-1.69-.72-3.38-1.41-5.28-1.24l9.56,5.21,19.99,15.38ZM268.95,122.19c-.97-.49-1.83.43-1.37.67.97.49,1.83-.43,1.37-.67ZM272.79,124.54c-.59-.41-1.66-1.48-2.13-1.65-1.33-.48-1.24,1.16-1.01,1.35.11.09,1.12-.26,2.02.47,3.71,3.01,7.13,6.89,10.69,9.83.77.64,1.11,1.66,2.4,1.37.3-1.29-.73-1.63-1.37-2.4-2.97-3.58-6.84-6.33-10.6-8.97ZM294.38,146.21c.75-.75-5.67-6.85-6.52-7.55-.77-.64-1.11-1.67-2.4-1.37-.75.75,5.67,6.85,6.52,7.55.77.64,1.11,1.67,2.4,1.37ZM297.82,150.33c.75-.74-2.67-4.18-3.43-3.43s2.67,4.18,3.43,3.43ZM298.51,151.02l22.34,28.82c-1.82-6.07-6.41-12.1-10.39-17.08-2.76-3.46-6.17-7.55-9.55-10.37-.77-.64-1.11-1.66-2.4-1.37ZM245.58,219.68c1.88-18.26-2.03-40.52-10.87-56.76-1.41-2.58-3.32-7.16-6.3-7.77-.03,1.09,1.24.66,1.94,1.83,1.71,2.87,4.2,9.7,5.45,13.1,3.88,10.59,6.26,22.35,7.64,33.56.59,4.77-.04,8.9,1.12,14,.17.76,0,2.22,1.03,2.05ZM217.4,171.62c-.69-.69-1.43-.12-1.38,1.03.15,3.18,4.39,14.01,5.86,17.5.49,1.15,1.3,3.57,2.39,4.13-.13-2.22-.54-4.59-1.16-6.73-.55-1.9-5.12-15.33-5.72-15.93ZM321.53,180.55v.69c.45-.23.45-.46,0-.69ZM380.98,256.76c.96-.93-4.75-5.18-5.56-5.77-8.02-5.91-13.11-8.43-19.48-16.93l-6.57-10.94c3.95,15.9,16.01,28.6,31.61,33.64ZM199.54,278.05l-.53-3.24-2.89-7.74c-.29,3.81.29,8.43,3.42,10.98ZM625.65,273.93c-8.51-1.12-19.23-1.96-26.12,4.11,4.27.51,7.97-2.16,12.1-2.67,3.83-.47,8.09-.14,11.81-.24,1.07-.03,1.86.2,2.2-1.2ZM253.83,319.93c-.17-6.86-2.14-13.6-3.35-20.34-1.08-6-.65-12.45-3.69-18.29l-3.26-7.38c.47,4.87,3,9.54,3.93,14.26,1.5,7.65,1.47,15.68,3.26,23.52.58,2.54,1.08,6.6,3.11,8.22ZM418.78,280.8l-19.92-6.54c6.17,3.41,13.01,5.46,19.59,7.89.58.1.38-1.3.33-1.35ZM363.79,278.73c.34-2.86-1.01-2.86-.67,0h.67ZM394.03,277.37c-1.15-.99-1.74.51-1,2.04.87,1.8,7.52,9.91,9.28,12.02.73.87,1.69,1.95,2.73,2.42-1.09-5.55-6.5-10.67-10.32-14.78-.5-.54-.59-1.62-.68-1.7ZM377.12,279.81l-.86-.14c.41,2.83,3.4,3.12,4.5,4.1,2.94,2.62,8.26,9.35,11.89,10.44,1.15.35,2.27.41,3.46.32-1.49-1.96-4.03-2.31-6.13-3.83-4.14-3-8.33-8.03-12.85-10.89ZM367.92,288.35c.04-1.73-.88-3.4-1.57-4.95-.47-1.05-1.59-3.37-2.54-3.97,1.31,2.9,1.51,6.83,4.11,8.92ZM443.52,286.29c-.97-.49-1.83.43-1.37.67.97.49,1.83-.43,1.37-.67ZM460.01,289.73l-15.8-2.75c2.22,2.67,6.92,2.31,10.05,3.34l5.75-.59ZM550.05,304.84c-4.3-.85-8.61-2.29-13.05-2.06-.16.99,1.21.95,1.92,1.15,2.23.62,5.82,1.27,8.13,1.5.77.08,3.1.69,3-.59ZM282.01,356.32c-1.66-6.44-6.06-11.62-8.83-17.6-3.23-6.95-6.26-16.1-8.02-23.57-.71-2.99-.25-7.59-2.38-9.63.57,14.98,6.66,38.05,17.03,49.24.68.73.71,1.92,2.21,1.57ZM704,317.87c8.51-2.64,16.83-7.15,25.78-8.23,1.52-.18,8.48.87,7.89-1.72-.46-2.02-6.2-1.82-7.83-1.65-3.32.35-21.96,7.28-24.43,9.23-.81.65-1.66,1.13-1.41,2.36ZM373.43,313.75c.44,5.21,4.95,8.78,7.43,12.82,2.7,4.4,5.25,8.9,7.97,13.33,3.35,5.44,5.4,12.26,11.06,15.72-3.59-11.7-12.8-20.43-18.34-31.11l-8.12-10.76ZM450.74,320.62v.69c.45-.23.45-.46,0-.69ZM455.9,323.37c-.67-.26-3.27-2.77-4.12-2.06-1.29,1.08,2.95,2.5,3.43,2.74,2.49,1.27,23.12,11.22,24.05,10.3.18-1.95-2.47-2.64-3.87-3.33-6.16-3.06-13.08-5.16-19.49-7.65ZM452.8,337.1v.69c.45-.23.45-.46,0-.69ZM454.17,337.8l-.32.32,1.71,1.71.32-.32-1.71-1.71ZM459.33,348.77l-6.16-8.6-2.77-1.01c.77,1.36,7.25,11.18,8.93,9.6ZM703.31,341.22h-14.78c-.12,0-1.08.93-1.03,1.37,4.34-.83,10.5,1.27,14.31.21,1.22-.34,1.78.21,1.49-1.57ZM503.32,350.14c-3.08-4.09-9.08-2.77-13.23-3.6-6.17-1.24-11.59-4.4-17.7-4.63l14.14,5.43,16.79,2.79ZM258.65,346.72c-1.98-.33-1.14.43-1.46,1.59-.65,2.28-1.09,4.96-1.28,7.33,2.52-1.9,1.68-6.19,2.74-8.92ZM265.51,350.83c-.74-.79-1.39-.05-1.39,1.04-.03,6.98,10.17,21.53,14.59,27.33,1.34,1.76,2.3,3.48,4.35,4.58-2.49-9.64-10.56-16.2-14.9-24.93-.82-1.64-2.35-7.71-2.63-8.02ZM631.84,368.69l-14.43-.68c-.16.99,1.21.95,1.92,1.15,1.67.47,11.87,2.26,12.51,1.58v-2.05ZM620.84,376.24l-13.06-4.12c1.74,2.1,5.77,3.5,8.4,4.31.58.18,7.08,2.09,4.66-.19ZM295.07,377.61c-.15.15.11.7.34.69.75-.05-.02-1.01-.34-.69l-1.72-2.73c-.42.7,1.38,3.09,1.72,2.73ZM298.51,381.73c.8-.8-1.72-2.73-2.73-2.41.56.54,1.73,3.4,2.73,2.41ZM313.63,383.78l-1.37-1.37c-.2,1.43-.07,1.56,1.37,1.37ZM315,385.16c4.98,1.92,8.05,7.89,14.43,6.86-.17-1.02-1.26-1.33-2.06-1.71-3.94-1.89-8.43-4.51-12.37-5.84-.23-.08-1.69-1.6,0,.69ZM711.55,389.98c-.21-.13-.94.03-1.36-.01-.5,1.72,1.22,1.76,2.74,2.05-.5-.4-1.28-1.97-1.38-2.04ZM464.83,429.11c-.8-.78-2.21.29-.34,1.37.6.09.39-1.32.34-1.37ZM466.55,431.85v.69c.45-.23.45-.46,0-.69ZM356.24,474.42l-1.37-1.37c-.2,1.43-.07,1.56,1.37,1.37ZM359.68,478.55c-.71-1.76-1.46-2.79-3.42-3.1.58,1.54,2.96,2.64,3.42,3.1.29.72.18,1.8.77,2.99,4.06,8.26,9.61,17.75,15.72,24.48-.78-5.14-4.81-9.21-7.42-13.52-2.84-4.69-5.15-10.07-9.07-13.94ZM394.71,536.23c-.73-.66-2.07.44-1.35,1.35.04.06.71-.22,1.29.58.7.98,1.46,3.03,2.82,3.54-.02-.93-2.41-5.17-2.76-5.48ZM408.47,546.53l-9.62-4.13c-1.61,1.56,7.1,5.44,8.58,5.51,1.14.05,1.73-.7,1.04-1.39ZM393.35,568.49l-1.71-20.59c-2.23,4.59-1.33,11.81-.14,16.61.22.87.96,3.65,1.85,3.98ZM465.52,555.45c-.86-.05-5.51-.23-5.51.34,1.82.24,3.71.77,5.51,1.03,3.7.55,7.47.67,11.13,1.58,1.3.32,14.24,5.79,14.3,4.26-7.87-4.62-16.32-6.73-25.44-7.21ZM472.39,570.55l-1.37-1.37c-.2,1.43-.07,1.56,1.37,1.37ZM473.08,571.93c.31.4.45,1.05,1.04,1.36l-.35-1.36c-1.01-1.07-1.73-1.35-.69,0Z"/>
  <path class="cls-3" d="M504.69,388.6c7.23,3.98,21.34,10.6,29.17,13.08,2.78.88,14.49,2.12,15.32,2.89.35.32,1.44,2.26.52,2.58-5.4-1.11-11.54-.94-16.86-2.38-5.19-1.41-18.33-6.96-22.65-9.99.21-.25.46-.46.69-.69.04-.04.68.08.67-.34-.12-.45-.46-.26-.67-.34-.2-.07-.49.07-.69,0,.39-1.64-.95-1.49-2.06-2.06-.45-.23-.93-.43-1.37-.69-.51-1.02-.93-1.28-2.06-1.37v-.69ZM513.62,394.1c-.97-.49-1.83.43-1.37.67.97.49,1.83-.43,1.37-.67Z"/>
  <path class="cls-13" d="M441.46,677.67c.23-2.09.33-4.45.71-6.52.21-1.12-.45-1.18,1.35-1.03-.56,10.14.8,21.1-.09,31.15-.77,8.65-8,43.62-13.63,48.87-7.07,6.6-1.1-5.57-.52-7.39,6.47-20.16,11.48-41.64,10.8-63.02,2.06.33,1.21-.54,1.37-2.06Z"/>
  <path class="cls-13" d="M482.01,657.76c.71.53,2.24,1.57,2.04-.31s-1.4-5.97-2.04-7.93h.69c5.84,13.33,11.33,29.6,12.36,44.3.19,2.7.8,13.38-2.4,14.06s-1.03-7.13-1.09-8.51c-.64-13.99-5.4-28.48-9.55-41.62Z"/>
  <path class="cls-15" d="M510.19,379.67c3.93.26,5.02,1.73,8.09,2.56,11.13,2.97,23.73,4.68,35.21,5,.11,1.64.23,3.28-1.72,3.43-10.98-1.07-22.81-2.27-33.49-4.99-4.69-1.19-9.39-3.63-13.59-5.31.9-1.51,2.93-.02,4.42-.02.54,0,.98-.67,1.08-.66Z"/>
  <path class="cls-13" d="M191.98,322.68c3.65,4.87,7.86,10.02,11.7,14.75,1.02,1.25,8.26,7.27,6.85,8.6-1.19-.02-2.45.2-3.63-.14-3.87-1.15-15.78-17.69-18.36-21.82l.69-.69c.55.69.92,1.55,1.73,2.05h1.02s0-2.74,0-2.74Z"/>
  <path class="cls-13" d="M560.36,489.53c7.98,2.89,16.34,4.65,24.33,7.5,1.17.73-.07,2.74-.98,3.17-7.88-1.58-15.94-3.89-23.55-6.72-.72-.27-1.08-1.16-1.18-1.2,2.11.43,1.55-1.2.69-2.75.2.07.48-.07.69,0Z"/>
  <path class="cls-13" d="M589.23,438.72c4.72-2.69,7.51-5.5,13.92-3.95l.51-1.55c1.66.09,3.33-.18,4.99.16,2.1.44,10.17,3.26,10.15,5.67-.03,4.58-5.94.29-7.91-.36-8.46-2.75-13.1-2.17-21.66.01Z"/>
  <path class="cls-7" d="M609.84,354.26c.08,0,.49.61,1.01.59,1.3-.06,8.66-1.73,4.47,1.79-2.06,1.73-20.39,3.06-23.37,2.12-1.05-.33-2.29-1.11-2.03-2.43,4.49,1.2,9.47.8,13.96-.16,1.06-.23,1.68-1.17,1.85-1.21,1.26-.32,2.82-.55,4.12-.69Z"/>
  <path class="cls-15" d="M437.34,655.01c3.94-1.16.53,4.9,4.12,4.81.24,3.57-.76,1.56-.75,3.04,0,1.24.77,2.64.77,4.14,0,3.66-1.49,7.52-.03,10.67-.17,1.52.68,2.39-1.37,2.06-.23-7.23-1.56-17.3-2.75-24.72Z"/>
  <path class="cls-5" d="M484.07,444.9c1.57.74,4.1,2.46,4.81,2.75-1.1.24,1.06,2.52-.99,2.02-5.64-1.35-11.64-5-15.49-9.25-1.15-1.27-2.1-3.66-2.77-4.44h.69c6.09,5.61,6.57,5.57,13.75,8.93Z"/>
  <path class="cls-9" d="M600.22,466.87c.42,3.1-4.62-.97-5.81-1.41-4.38-1.59-9.64-1.86-14.12-3.41l3.43-1.36c4.66.77,10.78,1.74,14.8,4.11.79.47,1.46,1.94,1.69,2.07Z"/>
  <path class="cls-16" d="M380.98,663.25c-1.43,7.41-2.64,18.58-2.06,26.09-2.73.23-1.9,0-2.06-2.06,1.16-1.08,1.15-4.44,0-5.49.1-2.27-.03-2.64.69-4.81.12-.36,1.77-1.54,0-2.06.02-2.16.41-5.64.86-7.72.17-.8,1.03-4.46,2.58-3.95Z"/>
  <path class="cls-5" d="M476.51,639.22c.5.37.94,1.87,2.06,2.06.58,1.07.87,1.74,1.37,2.75-.32.97.49,1.52.69,2.06.43,1.13,1.04,2.42,1.37,3.43.64,1.96,1.85,6.04,2.04,7.93s-1.33.84-2.04.31c-.39-1.23-.95-2.8-1.37-4.12-1.81-5.67-2.93-9.61-5.5-15.11.23.15.66.15,1.37.69Z"/>
  <path class="cls-12" d="M185.11,315.13c-.14-.58-1.29-7.58.68-5.49.39.41,1.53,7.31,4.13,10.3,1.21,1.38,1.07,1.42,2.06,2.75v2.74s-1.02,0-1.02,0c-.81-.5-1.18-1.36-1.73-2.05-1.1-1.38-2.88-4.57-3.44-6.18-.24-.71-.51-1.31-.69-2.06Z"/>
  <path class="cls-1" d="M646.27,351.52c-2.32.34-4.54.43-7.01.89-2.09.39-5.67,3.06-6.73.49,5.8-1.45,12.4-3.87,18.27-4.76,4.53-.68,1.78,1.6-.4,2.69-.22.03-.46-.03-.69,0l-2.75.69c-.22.03-.46-.03-.69,0Z"/>
  <path class="cls-1" d="M408.47,578.11c-2.23.44-1.62-2.13-2.06-3.43-1.85-5.51-4.38-9.34-7.55-14.08,3.61,1.44,8.44,9.58,9.3,13.37.35,1.53.07,3.03.3,4.15Z"/>
  <path class="cls-7" d="M555.55,487.47c1.49.81,2.4,1.42,4.12,2.06.87,1.55,1.42,3.18-.69,2.75-.64-.24-1.36-.43-2.06-.69,1.69-.39-1.7-1.85-1.85-1.92-2.92-1.35-7.55-2.79-9.83-4.94,3.46.77,6.9,1.78,10.31,2.75Z"/>
  <path class="cls-14" d="M186.48,258.14c.11.01.38.59.67.7l3.46-10.99c.8.12,1.28.76,1.25,1.57-.04,1.1-3.61,10.75-4.36,12.17s-.27,1.68-2.4,1.36c.31-1.27.14-3.08.7-4.45.14-.33.35-.38.67-.35Z"/>
  <path class="cls-4" d="M203.67,220.37c-.18,1-.61,1.67-.69,2.06-2.15,1.69-2,4.76-2.75,6.87-1.36,3.86-3.31,7.61-4.12,11.67-.98-.78-.05-3.21.21-4.26,1.29-5.13,3.03-11.09,5.65-15.67.67-1.17-.21-1.98,1.7-.67Z"/>
  <path class="cls-2" d="M469.64,455.89c0,.07-.61.49-.59,1.01.05,1.1,1.56,4.16-.09,4.48-.28-3.87-2.02-7.42-2.96-11.13-.25-1-1.15-2.59.2-3.28,1.45,3.21,2.91,4.71,3.44,8.93Z"/>
  <path class="cls-12" d="M415.35,646.77c.72,3.17-1.26,7.12,0,9.61-.51,1.78-.08,1.64-1.37,3.43-.54.75-1,2.3-2.07,1.02,1.4-4.79,2.69-9.71,2.77-14.75.6-.16.63.67.68.69Z"/>
  <path class="cls-16" d="M555.55,487.47c-3.41-.96-6.85-1.98-10.31-2.75-.06-.05-.8.09-.68-.67l1.37-.7c4.09,1.59,5.72,2,9.62,4.12Z"/>
  <path class="cls-16" d="M200.92,229.98c-1.32,4.02-2.18,8.24-4.81,11.67.04-.22-.04-.47,0-.69.81-4.06,2.76-7.82,4.12-11.67l.69.69Z"/>
  <path class="cls-2" d="M479.95,582.23c-1.7.39-1.38-.92-1.94-1.81-.8-1.3-3.17-4.44-3.55-5.41-.46-1.18.95-1.38,1.35-1.01.15.13,1.62,2.7,2.07,3.43,1.41,2.24,1.32,2.52,2.06,4.81Z"/>
  <path class="cls-16" d="M416.72,646.77c-.26,3.76-.3,5.87-1.37,9.61-1.26-2.5.72-6.44,0-9.61.35.11.95-.08,1.37,0Z"/>
  <path class="cls-3" d="M200.92,229.98l-.69-.69c.75-2.11.6-5.18,2.75-6.87-.67,3.42-1.02,4.37-2.06,7.55Z"/>
  <path class="cls-2" d="M672.39,405.76c-.28.34,2.71,4.64,3.3,5.97.54,1.2,1.74,1.76-.55,1.58-.2-.24-.48-.44-.69-.69-.85-2.46-1.76-5.28-4.12-6.53-.28-2.12,1.48-.39,2.06-.34Z"/>
  <path class="cls-16" d="M189.23,323.37l-.69.69c-1.32-2.11-3.55-3.44-2.75-6.87.55,1.61,2.34,4.8,3.44,6.18Z"/>
  <path class="cls-12" d="M192.67,261.57h-1.37c.33-1.1.36-2.59,1.03-3.44.72,0,.21,2.65.34,3.44Z"/>
  <path class="cls-2" d="M506.75,390.66c-1.06-.61-1.25-.82-2.06-1.37,1.13.1,1.56.36,2.06,1.37Z"/>
  <path class="cls-2" d="M504.69,388.6v.69c-.67-.46-2.21-.02-2.06-2.06.86.5,1.69,1.17,2.06,1.37Z"/>
  <path class="cls-2" d="M508.13,391.34v.69c-.38-.12-1.03.12-1.37,0-.16-.24.15-1.07,0-1.37.44.25.92.45,1.37.69Z"/>
  <path class="cls-9" d="M335.62,411.94c.34.19.78,1.67,2.06,1.37.24.21.45.48.69.69-1.58,1.46-3.96-2.18-5.5-2.4-1.63-1.55,2.63.28,2.75.34Z"/>
  <path class="cls-2" d="M399.54,563.69h-.69c-.21-.69-1.5-1.85-1.04-2.73.97.66,1.16,1.82,1.72,2.73Z"/>
  <path class="cls-9" d="M481.32,646.09h-.69c-.2-.54-1-1.09-.69-2.06.28.55.94,1.15,1.37,2.06Z"/>
  <path class="cls-15" d="M508.13,392.03c.12.04.58.83,2.06,1.37.2.07.48-.07.69,0v.69c-.23.23-.48.44-.69.69-.96-.67-2.87-1.88-3.44-2.75.35.12,1-.12,1.37,0Z"/>
  <path class="cls-3" d="M649.71,350.83c-.45.07-1.56.51-2.75.69l2.75-.69Z"/>
  <polygon class="cls-2" points="200.23 113.25 199.54 113.25 198.17 113.25 198.53 112.56 200.23 113.25"/>
  <path class="cls-11" d="M478.58,641.28c-1.12-.19-1.57-1.69-2.06-2.06h.69c.35.62.92,1.22,1.37,2.06Z"/>
  <path class="cls-9" d="M560.36,489.53c-.2-.07-.49.07-.69,0-1.72-.64-2.63-1.25-4.12-2.06,1.65.47,3.64.61,4.81,2.06Z"/>
  <path class="cls-15" d="M335.62,411.26c.66.57,1.28,1.38,2.06,2.06-1.28.3-1.72-1.18-2.06-1.37v-.69Z"/>
  <path class="cls-11" d="M482.7,649.52h-.69c-.33-1.01-.95-2.3-1.37-3.43h.69c.45.96.88,2.31,1.37,3.43Z"/>
  <path class="cls-3" d="M707.09,386.54c.45.23.45.46,0,.69v-.69Z"/>
  <path class="cls-10" d="M150.75,67.94c24.16,5.23,47.85,13.75,69.42,25.76.52,1.8-3.32-.17-3.8-.34-22.24-7.77-42.52-17-65.62-24.05v-1.37Z"/>
  <path class="cls-10" d="M245.58,219.68c-1.02.17-.85-1.29-1.03-2.05-1.16-5.1-.53-9.23-1.12-14-1.38-11.21-3.76-22.98-7.64-33.56-1.25-3.4-3.74-10.23-5.45-13.1-.7-1.17-1.97-.74-1.94-1.83,2.98.62,4.89,5.19,6.3,7.77,8.84,16.24,12.75,38.5,10.87,56.76Z"/>
  <path class="cls-7" d="M282.01,356.32c-1.49.35-1.52-.83-2.21-1.57-10.37-11.19-16.46-34.26-17.03-49.24,2.13,2.04,1.67,6.64,2.38,9.63,1.76,7.47,4.79,16.62,8.02,23.57,2.78,5.98,7.18,11.16,8.83,17.6Z"/>
  <path class="cls-7" d="M380.98,256.76c-15.59-5.04-27.65-17.74-31.61-33.64l6.57,10.94c6.37,8.5,11.46,11.02,19.48,16.93.8.59,6.52,4.84,5.56,5.77Z"/>
  <path class="cls-10" d="M704,317.87c-.24-1.23.6-1.71,1.41-2.36,2.46-1.95,21.11-8.88,24.43-9.23,1.63-.17,7.37-.37,7.83,1.65.59,2.59-6.37,1.54-7.89,1.72-8.95,1.08-17.27,5.59-25.78,8.23Z"/>
  <path class="cls-1" d="M103.33,96.1l-.33,1.35c-10.44-2.19-20.34-6.46-30.58-9.28-2.51-.69-5.43-.79-8.12-1.5-1.32-.35-4.26-1.03-4.96-2.25,15.21,1.6,29.5,7.15,43.98,11.67Z"/>
  <path class="cls-1" d="M253.83,319.93c-2.03-1.61-2.53-5.68-3.11-8.22-1.79-7.84-1.76-15.87-3.26-23.52-.93-4.72-3.45-9.39-3.93-14.26l3.26,7.38c3.04,5.84,2.61,12.28,3.69,18.29,1.21,6.74,3.18,13.48,3.35,20.34Z"/>
  <path class="cls-1" d="M251.09,130.41l-37.8-14.41c7.84.57,14.93,2.79,22.18,5.65,5.13,2.02,12.02,4.66,15.62,8.76Z"/>
  <path class="cls-5" d="M359.68,478.55c3.92,3.88,6.23,9.25,9.07,13.94,2.6,4.31,6.64,8.39,7.42,13.52-6.11-6.72-11.66-16.22-15.72-24.48-.59-1.19-.48-2.27-.77-2.99Z"/>
  <path class="cls-4" d="M61.4,54.2c4.43.15,10,.81,14.1.73,5.03-.1,10.27-2.98,15.46-.39.02.66-5.64,1.5-6.62,1.63-8.77,1.19-14.63-.35-22.94-1.29v-.69Z"/>
  <path class="cls-1" d="M192.66,140.03l-19.99-15.38-9.56-5.21c1.9-.17,3.59.52,5.28,1.24,4.15,1.77,20.83,13.27,23.19,16.65.57.82,1.16,1.62,1.07,2.7Z"/>
  <path class="cls-5" d="M625.65,273.93c-.35,1.4-1.13,1.17-2.2,1.2-3.72.1-7.98-.23-11.81.24-4.13.51-7.84,3.17-12.1,2.67,6.88-6.07,17.6-5.23,26.12-4.11Z"/>
  <path class="cls-1" d="M503.32,350.14l-16.79-2.79-14.14-5.43c6.11.23,11.53,3.39,17.7,4.63,4.15.83,10.15-.49,13.23,3.6Z"/>
  <path class="cls-7" d="M455.9,323.37c6.41,2.49,13.33,4.59,19.49,7.65,1.4.7,4.05,1.38,3.87,3.33-.93.92-21.56-9.03-24.05-10.3l.69-.69Z"/>
  <path class="cls-1" d="M217.4,171.62c.6.6,5.17,14.03,5.72,15.93.62,2.13,1.03,4.51,1.16,6.73-1.08-.56-1.9-2.97-2.39-4.13-1.47-3.49-5.71-14.32-5.86-17.5-.05-1.15.69-1.71,1.38-1.03Z"/>
  <path class="cls-4" d="M465.52,555.45c9.12.48,17.57,2.59,25.44,7.21-.06,1.53-13-3.93-14.3-4.26-3.66-.91-7.43-1.03-11.13-1.58v-1.37Z"/>
  <path class="cls-12" d="M394.03,277.37c.09.07.18,1.16.68,1.7,3.82,4.11,9.24,9.23,10.32,14.78-1.04-.47-2-1.55-2.73-2.42-1.76-2.1-8.41-10.22-9.28-12.02-.74-1.53-.15-3.03,1-2.04Z"/>
  <path class="cls-4" d="M144.9,51.46c.69.11,7.39,2.8,6.53,3.43-5.87-1.11-11.35-2.72-17.52-2.06l-5.16-1.37c4.97.55,11.39-.74,16.15,0Z"/>
  <path class="cls-1" d="M660.02,341.9c-.71.3-1.82.09-1.37-1.02.57-1.39,11.4-10.01,13.05-8.59.3,1.42-.72,1.56-1.56,2.21-1.44,1.12-9.16,6.98-10.12,7.4Z"/>
  <path class="cls-1" d="M393.35,568.49c-.89-.32-1.64-3.1-1.85-3.98-1.18-4.81-2.08-12.03.14-16.61l1.71,20.59Z"/>
  <path class="cls-1" d="M377.12,279.81c4.53,2.86,8.72,7.89,12.85,10.89,2.1,1.52,4.64,1.86,6.13,3.83-1.19.09-2.3.03-3.46-.32-3.64-1.09-8.95-7.81-11.89-10.44-1.1-.98-4.09-1.27-4.5-4.1l.86.14Z"/>
  <path class="cls-12" d="M216.72,69.31c.48.55.81,1.29.68,2.06-.59.56-11.95-3.71-13.72-4.48-1.18-.51-3.58-1.26-4.14-2.37,5.95.98,11.1,3.95,17.18,4.8Z"/>
  <path class="cls-10" d="M703.31,341.22c.29,1.79-.27,1.23-1.49,1.57-3.81,1.06-9.98-1.04-14.31-.21-.05-.44.91-1.37,1.03-1.37h14.78Z"/>
  <path class="cls-1" d="M631.84,368.69v2.05c-.64.67-10.84-1.12-12.51-1.58-.71-.2-2.08-.16-1.92-1.15l14.43.68Z"/>
  <path class="cls-14" d="M418.78,280.8c.05.05.25,1.45-.33,1.35-6.57-2.43-13.41-4.48-19.59-7.89l19.92,6.54Z"/>
  <path class="cls-4" d="M460.01,289.73l-5.75.59c-3.13-1.03-7.82-.67-10.05-3.34l15.8,2.75Z"/>
  <path class="cls-4" d="M272.79,124.54c3.77,2.64,7.63,5.39,10.6,8.97.64.77,1.67,1.11,1.37,2.4-1.29.3-1.63-.73-2.4-1.37-3.55-2.94-6.97-6.83-10.69-9.83-.9-.73-1.91-.38-2.02-.47-.24-.19-.32-1.83,1.01-1.35.48.17,1.54,1.24,2.13,1.65Z"/>
  <path class="cls-5" d="M315,384.48c3.94,1.32,8.43,3.95,12.37,5.84.8.38,1.89.69,2.06,1.71-6.39,1.03-9.45-4.94-14.43-6.86v-.69Z"/>
  <path class="cls-4" d="M459.33,348.77c-1.68,1.58-8.16-8.24-8.93-9.6l2.77,1.01,6.16,8.6Z"/>
  <path class="cls-4" d="M294.38,146.21c-1.29.3-1.63-.73-2.4-1.37-.85-.7-7.28-6.8-6.52-7.55,1.29-.3,1.63.73,2.4,1.37.85.7,7.28,6.8,6.52,7.55Z"/>
  <path class="cls-4" d="M408.47,546.53c.69.68.1,1.44-1.04,1.39-1.48-.07-10.19-3.95-8.58-5.51l9.62,4.13Z"/>
  <path class="cls-14" d="M620.84,376.24c2.42,2.28-4.08.36-4.66.19-2.63-.81-6.66-2.2-8.4-4.31l13.06,4.12Z"/>
  <path class="cls-2" d="M550.05,304.84c.11,1.28-2.23.66-3,.59-2.31-.23-5.9-.87-8.13-1.5-.71-.2-2.08-.16-1.92-1.15,4.44-.23,8.75,1.21,13.05,2.06Z"/>
  <path class="cls-2" d="M199.54,278.05c-3.13-2.55-3.71-7.18-3.42-10.98l2.89,7.74.53,3.24Z"/>
  <polygon class="cls-8" points="253.83 65.2 248.21 68.15 244.22 68.62 250.59 65.73 253.83 65.2"/>
  <path class="cls-12" d="M258.65,346.72c-1.06,2.74-.22,7.02-2.74,8.92.18-2.37.63-5.05,1.28-7.33.33-1.16-.51-1.92,1.46-1.59Z"/>
  <path class="cls-2" d="M299.2,86.48c.82-.12,7.56-1.65,7.57-.34-2.3,1.24-5.04,1.05-7.57,1.03v-.69Z"/>
  <path class="cls-8" d="M150.75,67.94v1.37c-1.82-.55-3.77-.95-5.5-1.72-.11-2.2,4.36.1,5.5.35Z"/>
  <path class="cls-2" d="M367.92,288.35c-2.6-2.1-2.8-6.02-4.11-8.92.96.6,2.08,2.92,2.54,3.97.69,1.55,1.61,3.22,1.57,4.95Z"/>
  <path class="cls-4" d="M297.82,150.33c-.76.75-4.18-2.68-3.43-3.43s4.18,2.68,3.43,3.43Z"/>
  <path class="cls-8" d="M455.9,323.37l-.69.69c-.48-.25-4.72-1.67-3.43-2.74.85-.71,3.45,1.8,4.12,2.06Z"/>
  <path class="cls-10" d="M465.52,555.45v1.37c-1.79-.26-3.68-.79-5.51-1.03,0-.58,4.64-.39,5.51-.34Z"/>
  <path class="cls-6" d="M376.86,687.28c-.13-1.69-.08-3.77,0-5.49,1.15,1.05,1.16,4.41,0,5.49Z"/>
  <path class="cls-4" d="M394.71,536.23c.34.31,2.74,4.55,2.76,5.48-1.36-.52-2.11-2.57-2.82-3.54-.58-.81-1.24-.53-1.29-.58-.72-.91.62-2.02,1.35-1.35Z"/>
  <path class="cls-6" d="M298.51,381.73c-1,1-2.17-1.87-2.73-2.41,1.01-.32,3.53,1.61,2.73,2.41Z"/>
  <path class="cls-8" d="M359.68,478.55c-.46-.46-2.84-1.55-3.42-3.1,1.97.31,2.72,1.34,3.42,3.1Z"/>
  <path class="cls-10" d="M61.4,54.2v.69c-1.31-.15-2.84.17-4.12,0v-.69c1.37.06,2.75-.05,4.12,0Z"/>
  <path class="cls-8" d="M468.27,434.6c-.1-.09-2.82.08-1.37-1.37s1.27,1.28,1.37,1.37c.19.17,1.11.5,2.06,1.37h-.69c-.08-.09-1.29-1.29-1.37-1.37Z"/>
  <path class="cls-10" d="M299.2,86.48v.69c-.78,0-3.44.28-3.44-.34.73-.77,2.42-.2,3.44-.34Z"/>
  <path class="cls-8" d="M475.14,638.53c-.42-.28-1.35.52-2.05-1.72,2.42-.13,1.68.93,2.05,1.72Z"/>
  <path class="cls-6" d="M711.55,389.98c.1.06.88,1.64,1.38,2.04-1.52-.29-3.24-.33-2.74-2.05.42.04,1.15-.12,1.36.01Z"/>
  <path class="cls-9" d="M57.28,54.2v.69c-1.57-.21-3.37-.41-4.82-1.03,1.39-.82,3.26.27,4.82.34Z"/>
  <rect class="cls-9" x="49.03" y="52.84" width="2.74" height=".67"/>
  <path class="cls-2" d="M313.63,383.78c-1.44.2-1.56.07-1.37-1.37l1.37,1.37Z"/>
  <path class="cls-8" d="M472.39,570.55c-1.44.2-1.56.07-1.37-1.37l1.37,1.37Z"/>
  <path class="cls-8" d="M356.24,474.42c-1.44.2-1.56.07-1.37-1.37l1.37,1.37Z"/>
  <path class="cls-2" d="M363.79,278.73h-.67c-.34-2.86,1.01-2.86.67,0Z"/>
  <path class="cls-6" d="M377.55,676.98c0-.69,0-1.37,0-2.06,1.77.52.12,1.7,0,2.06Z"/>
  <path class="cls-11" d="M464.83,429.11c.05.05.26,1.45-.34,1.37-1.87-1.07-.46-2.15.34-1.37Z"/>
  <path class="cls-2" d="M315,384.48v.69c-1.69-2.29-.23-.76,0-.69Z"/>
  <path class="cls-9" d="M330.12,410.57c-.36-.33.65-1.03,1.37-.68.63.31-.84,1.18-1.37.68Z"/>
  <path class="cls-2" d="M295.07,377.61c-.34.36-2.14-2.03-1.72-2.73l1.72,2.73Z"/>
  <path class="cls-4" d="M443.52,286.29c.47.24-.4,1.17-1.37.67-.47-.24.4-1.17,1.37-.67Z"/>
  <path class="cls-11" d="M672.39,405.76c.49.04,2.26-.78,2.06.68-.54.24-1.85-.94-2.06-.68Z"/>
  <path class="cls-4" d="M268.95,122.19c.47.24-.4,1.17-1.37.67-.47-.24.4-1.17,1.37-.67Z"/>
  <path class="cls-8" d="M473.76,571.93h-.69c-1.04-1.35-.33-1.07.69,0Z"/>
  <path class="cls-4" d="M298.51,151.02c1.29-.29,1.63.72,2.4,1.37,3.38,2.82,6.79,6.91,9.55,10.37,3.98,4.98,8.57,11.01,10.39,17.08l-22.34-28.82Z"/>
  <path class="cls-8" d="M321.53,180.55c.45.23.45.46,0,.69v-.69Z"/>
  <path class="cls-8" d="M450.74,320.62c.45.23.45.46,0,.69v-.69Z"/>
  <path class="cls-6" d="M452.8,337.1c.45.23.45.46,0,.69v-.69Z"/>
  <path class="cls-2" d="M473.08,571.93h.69l.35,1.36c-.59-.31-.73-.96-1.04-1.36Z"/>
  <path class="cls-1" d="M265.51,350.83c.29.31,1.82,6.38,2.63,8.02,4.34,8.72,12.42,15.29,14.9,24.93-2.05-1.09-3.01-2.82-4.35-4.58-4.41-5.8-14.61-20.34-14.59-27.33,0-1.1.65-1.83,1.39-1.04Z"/>
  <rect class="cls-6" x="454.64" y="337.61" width=".46" height="2.42" transform="translate(-106.31 421.13) rotate(-45.03)"/>
  <path class="cls-6" d="M295.07,377.61c.32-.32,1.09.64.34.69-.24.02-.5-.53-.34-.69Z"/>
  <path class="cls-1" d="M373.43,313.75l8.12,10.76c5.54,10.69,14.75,19.41,18.34,31.11-5.66-3.46-7.71-10.28-11.06-15.72-2.72-4.42-5.27-8.92-7.97-13.33-2.48-4.04-6.99-7.62-7.43-12.82Z"/>
  <path class="cls-8" d="M466.55,431.85c.45.23.45.46,0,.69v-.69Z"/>
  <path class="cls-8" d="M508.13,391.34c1.11.57,2.45.42,2.06,2.06-1.48-.54-1.94-1.34-2.06-1.37v-.69Z"/>
  <path class="cls-8" d="M513.62,394.1c.47.24-.4,1.17-1.37.67-.47-.24.4-1.17,1.37-.67Z"/>
  <path class="cls-8" d="M510.88,394.09v-.69c.22.08.55-.11.67.34,0,.43-.64.31-.67.34Z"/>
  <path class="cls-11" d="M603.66,433.23l-.51,1.55c-6.41-1.55-9.2,1.25-13.92,3.95-3.02,1.73-5.15,2.62-8.25,4.12-.13-3.07,4.48-5.52,6.87-6.87,5.85-3.29,9.37-3.09,15.81-2.75Z"/>
</svg>