<?xml version="1.0" encoding="UTF-8"?>
<svg id="Calque_1" data-name="Calque 1" xmlns="http://www.w3.org/2000/svg" viewBox="0 0 800 800">
  <defs>
    <style>
      .cls-1 {
        fill: #553533;
      }

      .cls-2 {
        fill: #6e4747;
      }

      .cls-3 {
        fill: #744e4d;
      }

      .cls-4 {
        fill: #cbb7b7;
      }

      .cls-5 {
        fill: #b49a99;
      }

      .cls-6 {
        fill: #c7b1b1;
      }

      .cls-7 {
        fill: #9a7c7b;
      }

      .cls-8 {
        fill: #d41a19;
      }

      .cls-9 {
        fill: #704948;
      }

      .cls-10 {
        fill: #c3adac;
      }

      .cls-11 {
        fill: #c1a9a8;
      }

      .cls-12 {
        fill: #c9b4b4;
      }

      .cls-13 {
        fill: #bba3a2;
      }

      .cls-14 {
        fill: #6f4847;
      }
    </style>
  </defs>
  <path class="cls-2" d="M50.37,594.39c-4.98-1.78-9.65-1.45-14.62-3.76-1.29-.6-2.45-2.21-3.75-2.74-7.46-3.05-18.42,9.03-24.34,17.51-3.42,4.89-6.52,9.71-6.71,18.74-.04,1.81.53,3.67.44,5.79-.85,21.66-4.89,37.72-4.36,60.19.42,17.65,3.43,40.47,8.69,55.1.96,2.67,3.02,4.51,3.48,6.62.49,2.23.23,4.74.61,7.17.35,2.27,1.83,9.06,2.94,9.39,1.77.52,2.74-2.31,5.45-.64,2.21,1.36,4.24,6.34,4.51,6.48.71.34,3.32.15,4.21-.03,1.45-.29,5.5-1.38,6.71-2.02.94-.5,1.87-4.68,3.28-6.14.74-.77,4.75-3.76,5.59-4.18,1.62-.81,5.89-.56,7-2.29.85-1.33-.04-3.96-.04-5.84.01-16.62,9.1-30.14,16.79-33.5,2.65-1.15,10.74-3.98,12.48.04,1.27,2.94-.67,5.58-1.36,8.2-3.73,14.17-3.81,23.32-6.16,37.37-.84,5.03-2.95,10.55-2.77,15.36.2,5.41,3.09,14.03-.23,18.12-1.56,1.92-3.06.64-3.27,6.27-.11,2.85,1.06,4.79-.81,5.88-4.92.89-9.92,1.65-14.81,2.97-4.17,1.13-9.23,4.13-13.43,4.67-1.15.15-4.76-2.75-6.04-3.77-4.1-3.27-7.48-8.58-11.54-11.54-4.19,2.74-7.79,12.81-12.44,11.34-2.08-.66-2.43-5.14-3.69-6.21-2.89-2.47-4.47,2.5-5.1-8.48-1.05-18.23-.03-37.59-.49-55.92-.43-17.37-2.92-34.87-3.46-51.83-.7-22.09,1.31-44.83,1.29-66.92-.02-27.72,1.25-55.11,1.29-82.8.11-78.86,2.04-157.75,1.76-236.77-.21-59.23,1.44-118.81,1.29-178.16-.1-40.61.57-81.49-.45-122.07-.25-9.98-1.11-20.06-1.2-30.12-.03-3.62,1.5-9.17-.95-10.88-.05-3.21,5.42-1.46,6.5-.89,1.21.64,6.24,11.99,2.23,13.68-.48.2-4.24-.36-3.13,1.85.34.67,2.58,1.19,3.46,3.74,1.01,2.96.78,13.49,2.78,13.92,4.24.9,2.18-8.33,4.72-11.81,4.04-3.27,8.19-6.63,11.84-11.27-6.04-.69-9.18-5.72-1.08-7.96.59-.16,1.34-.41.65-1.65-.41-.74-9.2-3.06-10.94-4.23-1.16-.78-2.99-2.15-1.24-3.99,5.2.19,10.69-.75,15.86-.18,3.08.34,6.42,2.06,9.45,2.53,2.03.31,8.92-.96,9.99,1.05,1.92,3.6-2.15,4.86-2.04,8.15,5.8-2.27,1.72,12.19,4.95,13.4,3.01,1.12,2.83-2.19,4.08-5.03.57-.12-.56,8.83.86,5.86.11-.24.49-4.53.92-6.17.66-2.57,1.8-3.78,2.09-6.37-.59-1.14-3.01,4.91-3.44,5.85,2.28-15.06,4.29-10.05,9.16-4.01.74.93,1.74,1.13,2.42,1.98,4.06,5.09-1.94,12.12-.79,15.34.1.28,2.36,1.25,3.2,2.56,2.16,3.36,2.27,11.5,6.9,7.61s3.59-9.01,5.59-15.04c2.34-7.05,7.07-11.96,11.36-12.62-1-6.41-5.89-2.8-5.06-11.95.33-3.66,2.44-3.27,4-3.14,5.69.45,11.47,2.01,17.17,2.59,2.02.92,1.19,4.51,1.1,7.49.28.62,6.35-6.63,7.24,2.3.68,6.76-6.42,7.25-5.97,13.14.23,2.97,4.71,6.13,6.04,9.23.61,1.41,2.16,7.12,1.66,8.69-.3.93-5.26,3.39-6.26,4.13-3.37,2.5-6.17,6-10.24,6-1.6,0-3.75-2.17-4.82-4.4-.5-1.05-.23-3.13-.98-3.11-.48,4.05,2.01,4.51,2.15,8.85.23,7.08-7.29-.06-9.03-.91-2.36-1.16-8.27-3.46-10.56-3.78-.5-.07-1.18-.41-1.53.51-.77,2.04-.7,3.46.48,3.69.43.08.98-.49.86.83-1.15-.71-3.24,3.44-1.5,3.39,2.05-.07,2.75-.37,3.22-4.21,4.95,4.68-2.1,8.37-3.59,10.16-3.32,3.97-1.21,8.22-2.53,13.49-1,3.99-10.03,14.37-12.35,15.29-1.35.54-3.15.65-4.5.3-.91-.24-3.15-2.35-3.49-2.25-.6.18-1.93,10.01-6.77,7.99-1.46-.61-2.71-4.5-3.97.19-1,3.72,2.24,3.26,3.42,5.88,2.76,6.16-3.01,6.25-4.59,6.89-3.07,1.24-15.22,5.52-16.92,8.92-.66,1.32-1.5,7.59-2.17,10-3.44,12.42-14.47,35.79-3.77,45.99,3.81,3.63,6.7-.61,10.45,5.61,4.07,6.73,4.45,20.59,11.41,20.45,6.65-.13,12.89-3.21,19.51.53,2.99,1.69,8.62,7.51,10.4,12.4,1.59,4.37.09,6.68,3.42,8.4,7.12,3.67,21.79,8.44,29.05,8.83,3.5.19,5.42-4.37,6.8,5.1,2.5,17.19,3.31,37.83,11.69,49.2,2.86,3.88,10.44,6.26,13.77,5.02,1.08-.41,3.31-6.83,3.65-9.21l1.5.83c2.78-8.81,2.24-21.9.17-31.25-.38-1.69-2.47-8.93-3.02-10.02-.38-.77-1.12-2.35-1.66-1.37-.27.49,2.34,8.76,2.66,10.3,2.07,10.03,1.72,14.78.78,24.83.24-9.48-.49-19.69-3.08-27.88-.98-3.09-3.6-6.09-2.87-10.84.45-2.95,4.53-4.55,5.97-6,2.83-2.84,10.19-12.04,12.26-16.31,2.22-4.58,3.74-16.07,3.11-22.01-.34-3.21-5.02-13.78-6.67-14.63-2.42-1.24-4.08,1.09-5.78-4.64-1.94-6.53.96-5.71,3.09-8.95-.96,1.78-2.04,11.91.86,11.71-.35-4.07-.61-6.24.86-9.63.85-1.96,2.56-2.61,2.58-5.42-.27-.48-4.11,2.99-4.3,3.34.5-.76,2.97-5.2,3.22-5.87.84-2.2.92-10.99.64-13.77-.33-3.3-3.16-5.41-2.05-12.43.16-1,.75-1.26.77-1.39-.19,2.07-.36,8.21.86,9.2-.54-2.02.62-10.46.43-10.87-.43-.92-1.24,1.1-1.29,1.67.16-.74.22-1.62.43-2.51l.43-.84c.1-.6-.07-1.76,0-2.51.08,0,1.58-.9,1.29-2.08-.5-2.02-3.51-1.77-2.58-7.12-.69-.06-.9,2.95-.86,3.74.09,1.83,1.61,2.8.87,3.78-1.45-1.25-3.19-1.51-2.5-6.09.63-4.24,6.72-5.14,8.69-4.7,5.51,1.24,13.89,6.26,19.63,2.88.81-.48,1.47-2.37,2.43-2.79,1.12-.49,4.32-.48,5.51-.2,2.04.48,4.13,4.55,4.7,4.7,1.12.29,2.21-1.56,3.85.43,1.88,2.29,2.22,9.9,5.69,13.19,3.05,2.89,5.31.75,8.33,2.61-.83.02-5.82,1.24-6.02,1.68-.37.77.08,3.2,1.04,3.31,1.55.19,5.35-3.25,7.56-1.65l-1.72-3.34c1.18.2,2.73-.03,3.01,2.92.8,8.48-3.11,18.84-.21,26.33.16.42,3.5,7.11,3.73,7.37.58.64,2.27-.12,3.38.55,1,.6,1.68,2.96,2.68,3.98,2.21,2.25,8.04,6.28,10.34,4.71.61-.41.79-2.28,1.41-3.1,7.56-9.95,8.06-10.22,13.92-24.36-1.05,2.78-1.89,9.34-3.88,13.78-2.59,5.77-5.55,6.88-7.96,11.29-.8,1.47-2.24,3.24-.84,5.04,2.29-3.19,5.36-6.34,7.48-9.69,3.41-5.39,4.23-11.67,6.56-18.19.22-.62,3.92-7.57,1.87-6.4-.4,1.07-3.12,3.87-3.23,4.17.11-.26.1-1.37.41-2.09,5.62-13,4.82-.92,7.31,5.05,2.88,6.93,8.18,10.64,10.77,15.86,1.77,3.57,3.38,11.89,4.98,16.25,1.45,3.95,5.14,9.9,5.96,13.5,1.15,5.06.34,13.1,2.84,17.89,5.43,1.9,9.5,12.55,14.86,13.77,2.34.53,5.8-1.87,8.07,1.65.95,1.47-.46,7.06-.16,7.61,1.72-.59,5.22-.56,6.61,1.59.77,1.19-.27,5.58.67,7.26.99,1.4,3.19-2.47,4.95,1.23,4.45,9.34,4.5,29.21-2.76,33.04-.81.43-1.45.19-2.16.37,3.13-3.93,7.28-6.89,5.81-15.9.04,8.49-4.27,11.02-7.65,13.61-.67.51-1.39.23-1.17,2.29-1.21.09-2.44-.16-3.65.01-8.87,1.24-14.61,17.43-24.73,17.55-.26-2.5.65-1.45,1.37-1.89,3.07-1.9,10.25-8.36,12.57-12.02.68-1.08,1.8-.28,1.54-4.48-.78-.18-.18,1.46-.7,2.58-.16.34-1.5,1.68-1.87,2.01-5.15,4.63-11.11,7.07-15.91,12.97-4.89-.6-14.15-1.99-18.72-.86-1.43.35-2.49,2.07-3.9,2.46-5.43,1.5-11.1-2.84-17.08,1.91-.42.34-3.55,3.81-3.67,4.16-.73,2.23.19,6.48-2.5,9.77-.45.55-5.38,5.39-5.72,5.6-1.89,1.15-5.58.78-7.22,3.95-.5.97-.88,4.1-1.65,5.57-.91,1.74-2.05,2.2-3.18,4.68-2.37,5.18-4.49,13.31-6.89,18.79.6.99,8.4-8.91,9.44-10.49.94-1.43,1.25-3.56,2.46-5.25,4.09-5.71,9.31-6.94,13.6-10.35,1.77-1.4,3.07-4.51,5.01-5.31,2.25-.93,5.86.57,7.48-.51.77-.51,1.11-3.67,2.01-4.45s2.46-.57,3.44-.43v1.67c-2.2.66-3.26,8.22-6.62,8.29-3.86.08-6.32-.46-9.83,4.24-.41.55-.49,2.06-1.03,2.38-2.32,1.4-5.52.25-8.5,2.74-1.59,1.33-6.43,7.36-7.38,9.91-1.32,3.54-.55,4.48,1.32,2.57,2.37-2.41,4.7-7.11,7.39-9.04s5.18-1.03,7.42-2.34c1.2-.7,1.41-3,2.17-4.09,3.3-4.74,7.71-2.29,10.77-4.17,1.63-1,3.37-7.15,4.59-7.85,2.08-1.19,3.24,2.81,4.85,3.21.16.04.62-.69.86-.84,1.06,5-1.08,11.32-3.75,12.35-1.22.47-7.92.03-8.29,2.29-.3,1.85.97,1.33,1.52,1.29,2.95-.23,6.11-1.89,5.34,7.03-.17,1.99-1.71,5.03-1.25,6.28.06.17,1.26.4,1.9,1.74,1.82,3.8.29,7.31,4.14,12.01,4.61,5.64,10.46,3.52,15.57,6.19,1.55-1.23,3.45-4.53,5.02-5.31,1-.49,3.73-.17,3.87-.43.59-1.11.37-13.42,4.43-16.04,6.61-4.26.78,8.45,1.21,11.35s2.81-.19,2.01,6.63c-.96,8.16-3.63,5.59-6.58,7.27-2.26,1.29-5.33,6.97-6.09,7.39-1.4.78-3.57.2-5.38,1.24-1.43.82-2.67,2.81-4.11,3.71-2.64,1.65-5.74,1.3-8.26,3.17-3.93,2.91-7,19.86-12.05,11.28.68.93.78.03.86-1.23.3-4.78-.57-7.2,1.29-11.72,1.51-3.68,4.14-4.77,6.45-4.62-1.18-3.73-5.68-.87-7.06,1.75-1.47,2.79-3.1,13.7-1.54,15.83-.57-.97-.96-1.07-1.38-2.74-3.54-14.09,6.96-21.81,12.56-17.34-.67-1.39-4.9-6.45-5.45-6.55-.34-.06-4.71,4.58-6.15,5.33-2.08,1.08-4.9,1.06-6.9,2.47-3.9,2.76-5.59,8.38-10.32,9.63l5.72-9.37c4.57-2.8,9.21-4.97,13.62-8.65.65-.54,2.56-1.58,1.73-3.73-.08-.21-1.92,1.9-2.48,2.27-3.86,2.6-8.87,3.43-12.43,6.77-2.67,2.5-4.28,8.21-7.43,9.8-2.26,1.14-3.95-.6-5.95.06s-6.86,4.38-8.97,6.04c-2.39,1.88-5.12,3.87-7.02,7.26,2.35.82,4.61-2.84,6.77-4.41,6.99-5.09,8.81-4.94,16.03-6.05-1.11,6.73-3.7,2.98-5.77,3.35s-4.64,4.96-6.26,5.53c-.98.35-1.69-.67-2.6-.19-.42.22-6.83,8.39-7.3,9.3-.2.39-1.45,3.51-1.52,3.8-.72,3.23,3.56,12.22,3.22,17.85-.25,4.14-3.35,9.83-5.39,10.49-1.66.54-3.63-.22-5.46.26-2.27.59-5.17,3.24-7.63,4.39-2.82,1.32-5.73,2.17-8.61,2.93,8.61,11.54-1.29,22.87-7.73,22.61.14,2.57-.65,4.75-.84,7.14-.3,3.8.67,10.2-2.2,10.85-2.09-2.39-1.59-13.16-2.56-15.12s-3.49-.61-4.09,1.29c-.32,1-1.15,10.52-1.1,12.08.14,4.82,2.37,11.37,2.58,16.02.16,3.46-.78,6.2-.84,9.51.19.4,4-5.15,4.33,2.09.36,7.9-4.61,10.37-4.76,11.77-.08.7,1.45,4.16.86,6.22-.77,1.87-1.33,4.06-2.15,5.85-1.32,2.9-4.26,9-5.87,10.75-1.49,1.62-6.25,2.84-6.6,3.47,1.45-1.68,3.52-3.96,5.3-6.01,2.64-3.04,8.12-9.99,7.6-16.57-1.61-.27-.74,2.2-1.25,3.76-2.39,7.44-13.58,13.5-17.25,21.73-.33.73-.56.92-.42,2.1.82,1.41,5.02-3.85,6.02-5.01-.09.16-.46,2.78-1.01,3.89-.97,1.95-2.68,3.08-3.73,4.87-3.3,5.62-5.37,13.04-9.29,17.07-1.12,1.15-3.12,1.83-4,3.1-.54.78-4.11,8.95-4.24,10.15-.97,8.35.98,10.67,1.53,16.75.36,3.98.02,7.8.65,12.11,2,13.51,7.5,26.98,8.04,42.07.28,7.66-2.58,40.89-7.8,23.54-1.76-5.86-2.9-13.27-4.42-19-1.35-5.06-3.7-10.2-4.85-14.82-3.75-15.07-4.05-32.16-13.99-38.02-4.74-2.79-4.44,5.17-6.98,5.14-.94-.01-2.85-2.56-3.97-3.09-7.1-3.37-19.84-6.25-26.95-4.3-1.71.47-4.11,4.62-4.76,7.46-.53,2.3.01,5.83-.65,8.35-2.07.38-4.41.99-6.45,1.67ZM91.65-41.26c-1.82-.64-2.38,2.82-1.07,5.01l1.07-5.01ZM21.98-32.06c-.95-1.72-2.5,2.92-1.07,4.17.91.79,1.2-3.93,1.07-4.17ZM47.35-30.38c-.28-.57-2.42-.97-3.01-.84-.53,3.26,4.18,3.2,3.01.84ZM90.79-25.37c-2.59-2.9-8.61,8.65-8.17,12.94.41,3.98,2.41-3.77,2.58-4.17.61-1.4,1.86-3.98,2.57-5.04,1.1-1.63,2.3-1.73,3.02-3.73ZM24.56-21.19c-.4-.64-8.31,7.01-9.69,7.5-1.18,3.17-2.63,6.87-2.78,10.89.7,1.53,3.15-7.64,3.64-8.39,1.85-2.82,5.2-2.95,8.02-7.84.18-.31,1.58-.94.8-2.17ZM67.57-7.81c-.47-.91-1.32.75-.86,1.66s1.32-.75.86-1.66ZM103.26,5.59c-.07-.18-1.66-.5-2.27-1.03-.55-.48-2.18-2.85-2.45-2.33-.83,1.59,3.6,7.19,4.73,5.85-.05-.69.1-2.25,0-2.48ZM91.65,7.25c-.98,1.79,4.78,7.27,4.72,3.76-.01-.84-4.04-3.36-4.72-3.76ZM73.16,30.67c-1.3-.27-1,2.44-2.18,3.7-2.83,3.02-7.75,4.24-9,11.34.82.29,1.25-.11,1.94-.81,1.34-1.35,7.97-9.36,8.56-10.95.36-.98.76-1.97.67-3.28ZM179.38,71.65c-3.88-1.07-6.3,7.26-.86,2.04.61-.59,1.08.19.86-2.04ZM171.64,75.84c-5.12-.74-9.93-.42-15.05,0,.46,2.34,1.26,2.34,2.34,2.55,2.73.54,8.37-.25,11.22-.86.64-.14,1.33-.18,1.49-1.7ZM189.7,75.83c-.84.22-3.67-.43-3.44,2.5.96-.11,3.65.68,3.44-2.5ZM215.08,129.36c-.89.1-2.89-.17-2.58,2.5.89-.1,2.89.17,2.58-2.5ZM21.12,140.21c.95,1.33,5.89.68,5.59-2.06-.2-1.8-6.53-2.91-5.59,2.06ZM154.45,172.85c4.93-7.91,3.88-22.38.64-31.78-.37,5.28,1.68,9.97,1.53,15.44s-2.6,10.78-2.17,16.34ZM56.39,160.3h-7.53c-.31,0-3.38,2.52-3.01,4.19,3.1-2.48,6.51-.78,9.54-2.4.74-.4,1.19.61,1-1.79ZM102.4,191.25c-7.05,1.83-14.12-2.71-21.07-5.01.34,1.3,1.87,2.34,2.59,2.91,4.22,3.35,10.64,5.45,15.19,5.13.39-.03,4.46-.94,3.3-3.02ZM296.79,192.92c.05-3.67-3.38-3.23-4.29-1.24-.2,2.03.83,1.18,1.5,1.24.93.08,1.87-.05,2.8,0ZM115.3,237.25c-.49-4.47-2.3-7.57-3.22-11.72-1.4-6.3-1.99-13.97-3.8-20.21l-.72-6.53c.04,2.85-.13,5.73.1,8.58.29,3.49,2.26,13.79,3.02,17.55.89,4.43,2.01,10.76,4.62,12.34ZM303.67,201.3c-.18-.38-4.47-2.45-3.87.82.17-.54,5.25,1.99,3.87-.82ZM309.26,209.66h-2.15c-.43,2.73,1.73,2.2,2.15,0ZM226.69,264.86c-.56-1.09-3.81,6.53-4.58,7.4-.54.62-10.69,6.78-8.75,10.15.75.25,1.34-.19,2.03-.65,1.42-.94,6.69-5.76,7.83-7.35,1.54-2.14,2.86-6.07,3.47-9.56ZM280.02,313.37c-2.79.68-3.94,6.98-3.86,11.71,1.26-1.56,1.32-5.76,2.19-7.87.82-1.99,2.09-.28,1.68-3.83ZM188.42,399.52c1.95,6.19,12.13.01,11.54-6.93-.13-1.53-2.67-9.84-3.8-8.12.75,1.77,2.99,7.61,2.2,9.64-1.54,3.95-7.64,3.19-9.94,5.42ZM168.63,430.45c2.75.62,9.21-10.74,4.94-14.21-1.52-1.23.12,2.82.16,3.12.53,3.8-5.04,6.87-5.1,11.09ZM92.08,581.01c1.68-3.54-5.64-4.51-6.45-5.01-1.09,1.84,6.2,5.53,6.45,5.01ZM52.51,591.88c-.6-4.9-4.54-2.97-6.45-3.33.43,2.22,6.07,3.95,6.45,3.33ZM125.62,647.92c.06-1.73.05-3.35-.2-5.04-.84-5.63-4.73-17.7-6.2-23.92-2.08-8.8-3.39-20.31-6.84-27.68-.42-.9-.46-2.34-1.38-1.9,3.57,9.08,4.74,20.69,7.1,30.94,1.02,4.42,2.76,8.53,3.28,13.7l4.24,13.9ZM127.35,623.25c.51,6.27-.37,14.78,0,21.33,1.19-1.49,1.71-7.92,1.73-10.5.11-9.99-3.11-31.16-5.48-40.29-.04-.16-1.17-3.17-1.42-2.31,2.01,7.7,2.65,15.69,3.65,23.85.29,2.39,1.37,6.1,1.52,7.92ZM.05,626.18c-.53-1.36-.78.02-.86,1.24-.16,2.36.13,5.09,0,7.53-.3,5.45-1.05,10.85-1.28,16.32,2.27-1.2,2.55-24.04,2.14-25.09ZM63.7,726.55c-5.16,1.74-11.79,14.12-11.18,25.08,1.12.4.76-.41,1.06-1.66,1.83-7.69,3.08-12.46,6.47-18.4,1.12-1.95,2.8-2.63,3.65-5.01ZM40.47,765.86l-3.44,5.01c.89.47,1.17-.58,1.73-1.23.44-.51,1.95-2.38,1.71-3.78ZM9.08,812.69l-2.14-7.52c-.72,1.82,1.3,9.24,2.14,7.52Z"/>
  <path class="cls-2" d="M626.22,665.49c.36-4.07,2.24-7.99,2.81-11.68,1.21-7.85,1.41-15.85,4.76-22.53,1.54-3.07,3.94-4.45,5.56-8.42,1.83-4.47,2.05-9.61,4.72-13.4,2.14-3.03,2.94-1.74,4.97-2.88,6.38-3.59,13-20.44,17.44-29.66.82-1.69,3.82-5.13,3.55-7.91-.13-1.31-1.96-3.22-2.32-5.51-2.03-12.87,5.76-29.15,10.36-36.82,7.15-11.94,13.42-13.46,18.21-30.65.87-3.11.71-7.24,2.76-8.9,3.27-2.65,3.69,6.95,5.69,7.72,3.74,1.44,3.95-2.78,6.43-3.34,2.99-.68,7.85,2.56,11.19,2.59,1.17.01,8.89-1.71,9.22-2.63.55-1.52-2.09-7.4,2.17-9.58,2.09-1.07,7.06,1.82,7.33,1.28.08-.15-.03-2.94.19-4.23,1.21-6.94,7.46-9.78,10.76-10.03,2.85-.22,6.58,1.77,9.04.85.77-.29,2.9-3.56,4.52-4.59,2.13-1.35,8.04-3.68,10.16-3.68,3.55,0,4.6,7.34,7.35,7.26.53-.02,2.25-3.2,3.26-4.15,5.41-5.08,13.13-3.26,18.97-2.45.39.54-.22,12.37-.2,14.77.09,9.04.93,18.5.9,27.6-.04,9.93-1.37,20.98-1.73,30.92-1.39,37.7-1,76-1.28,113.78-.41,57.07-.57,116.12.39,173.14.05,2.91,1.38,6.89-1.01,5.28-.63-.42-.35-2.23-1.32-2.46-7.04-1.68-15.04,1.79-21.95,1.8-3.76,0-8.24-1.64-12.02-1.77-39.74-1.3-79.49,2.3-119.14.03-9.41-.54-18.95-2.16-28.37-2.54-1.98-.08-2.73.75-4.53,1.72-.9-8.38.47-18.39,1.49-26.8,2.41-20,9.29-52.66,2.74-71.34-2.78-7.92-7.22-3.45-6.34-16.8.58-8.89,4.34-13.27,5.74-19.79.93-4.32.93-8.09,2.48-12.73.61-1.82,3.3-7.67,4.21-8.11.03-.02-.12,1.11.58.74,1.57-.85,2.79-7.92,3.72-10.36-1.71-1.48-2.42,6.87-3.22,7.1-.26.07-.19-.84-.21-.82ZM773.72,463.92c-2.2,2.25-6.1,2.89-8.05,4.84-.61.61-1.14,1.13-.98,2.68.72,1.19,7.01-3.5,8.04-4.85.55-.73,1.18-.94.99-2.67ZM794.8,464.76c-.38-.66-7.96,3.58-6.45,6.68.2.41,4.94-3.68,5.4-4.13.34-.33,1.64-1.54,1.05-2.56ZM750.07,472.28c-3.07-.52-6.47,4.48-6.02,10.86,1.57-.51,1.69-4.19,2.99-6.3,1.13-1.83,2.94-1.72,3.02-4.57ZM736.31,484.83c-2.55-.28-3.4,1.8-3.01,6.68.73-.33.69-2.46,1.27-3.79.49-1.1,1.51-1.36,1.73-2.89ZM689.87,515.77c-.11.17-.57.04-.84.46-.75,1.15-1.42,2.57-2.17,3.72-1.22,1.29-2.55,2.7-3.44,5.01,1.37-.42,2.43-3.46,3.44-5.01,1.79-1.89,1.66-.05,3.01-4.18,3.11-4.81,6.69-10.01,8.38-17.57.5-2.25.98-5.05,1.08-7.51-1.14-.42-.75.47-1.05,1.67-2.95,11.77-5.37,14.14-8.41,23.41ZM712.66,493.19c-.37-.61-2.88.96-2.58,3.34.38.22,3.39-1.99,2.58-3.34ZM680.41,529.15l2.14-2.09c-.52-.17-2.59,1.66-2.14,2.09ZM676.96,533.33c.81.34,1.16-1.06,1.71-2.09-.45-.52-1.96,1.71-1.71,2.09ZM676.53,535.01c-.1-.19-.44.13-.43.42.03.91.63-.02.43-.42.1.19.44-.13.43-.42-.03-.91-.63.02-.43.42ZM675.89,536.7l-.64,1.25c0,.88,1.08-.5.64-1.25ZM675.03,539.21l-.64,1.25c0,.88,1.08-.5.64-1.25ZM673.74,540.86v.84c.28-.28.28-.56,0-.84ZM672.66,562.61c.04-7.15-1.09-13.21.65-20.05-1.42,1.01-1.81,6.04-1.94,8.77-.05,1.01-.24,14.67,1.28,11.28ZM670.08,576c-1.46-.24-2.75,3.03-3.66,5-3.56,7.64-8.68,25.43-13.95,27.24-3.3,1.13-7.43-1.95-8.19,7.06,1.38.14,1.78-3.38,2.88-4.01s2.74.07,4.1-.39c8.62-2.89,13.14-23.89,18.82-34.9ZM637.83,631.2c-3.65.85-5.58,9.48-5.58,15.89,1.55-1.94,1.4-6.19,2.38-9.16.89-2.69,2.82-3.68,3.2-6.73ZM624.49,677.2c-.61-1.22-3.74,5.74-3.01,7.52.62,1.52.95-1.17,1.11-1.58.34-.9,2.18-5.37,1.9-5.94ZM621.27,685.56v.84c.28-.28.28-.56,0-.84ZM619.33,696.44c-.7-1.47-3.77,7.58-3.97,8.6-1.41,7.34,4.74,19.75,6.12,17.32.98-1.73-3.41-7.52-3.87-8.78-2.64-7.22,1.08-10.47,1.72-17.14ZM624.92,743.28c-.55-1.42-.78.11-.85,1.24-1.19,18.15-3.25,37.14-3.87,55.22-.1,2.91.05,5.87,0,8.78h1.29s3.44-65.24,3.44-65.24Z"/>
  <path class="cls-8" d="M157.88,497.37c3.29-7.98,6.16-16.63,9.67-24.27,16.58-36.08,32.75-54.25,54.28-76.77,17.09-17.87,36.94-30.6,55.59-41.6,31.44-18.54,63.71-24.9,96.07-34.81,18.68-5.72,37.31-12.2,55.76-20.35,23.6-10.43,46.32-22.45,68.52-40.72,18.87-15.53,47.01-35.68,59.13-69.01,10.22-28.12,13.57-67.79,12.82-101.74-.16-7.38-2.48-15.08-3.28-22.3l-3,2.5c.19-4.21-1.06-32.32-.43-33.46,1.28-2.31,2.54,3.54,3.16,4.73,1.67,3.18,8.57,12.6,8.83,15.91.2,2.51-2.5,2.49-2.54,3.23-.08,1.34,1.39,7.79,1.7,10.08,4.94,36.89,1.66,88.68-10.11,119.89l-7.92,20.98,18.08-17.94c21.3-21.78,40.39-50.22,60.49-75.57,12.96-16.35,26.98-29.78,39.85-46.29,6.9-8.86,13.04-20.3,20.1-28.65,4.39-5.2,9.39-9.15,13.87-14.01,2.45-2.66,4.84-7.05,7.6-8.23-1.29-6.63-5.98-12.63.43-13.87,3.58-.7,7.77.27,11.35-.43,2.56-.5,5.99-2.48,8.43-4.09l-11.36,38.53-1.71.73-2.45-6.58c-.49-.68-8.26,8.92-9.39,10.44-8.14,10.89-17.15,19.44-25.97,28.95l-11.47,15.74c5.7.09,11.29-3.54,16.97-4.21,8.16-.96,16.3-.63,24.51-1.67,8.67-1.1,19.75,5.15,28.19,9.63,10.66,5.66,30.8,17.12,39.13,30.55.13.2.46,1.73.86,2.51.52,1.02.52,2.18,1.72,1.67.06-.53-.07-1.25,0-1.67.44-2.71.63-7.79,2.71-6.58.75.43,3.97,10.39,4.6,12.43.83,2.72,3.12,9.64,3.05,12.13-.14,4.8-2.38,1.75-4.2,1.56-2.41-.25-5.22.56-7.66-1.17-3.71-2.64-.49-5.8-1.3-9.16-.38-1.6-4.67-7.2-5.71-8.15-12.06-11.07-22.58-22.13-36.12-26.78-20.71-7.12-56.29-9.77-76.03,4.78-15.88,11.71-27.06,26.4-41.03,44.83-16.98,22.4-34.36,46.36-52.93,63.93-.6.57-1.85.27-1.72,1.66.88.79,1.72-.7,2.15-.83,20.68-5.94,48.74-9.62,68.99.07,6.18,2.96,15.55,8.03,21.32,12.48.08.06.56,1.59,1.25,2.14,1.87,1.48,6.25,6.2,7.78,6.23l20.51,27.47c1.21.8.88-1.42,2.03-2.47,1.77-1.62,2.17.98,2.85,3.83,1.16,4.89,3.71,17.88,4.21,22.81.18,1.83.05,4.71-1.05,5.1-.45.16-4.89-5.93-6.19-6.97-2.18-1.74-5.41-3.35-7.73-3.79.48-7.98,4.36-5.63-.46-12.91-8.32-12.56-28.35-30.45-38.58-35.36-17.2-8.26-32.58-6.18-49.77-7.75-14.8-1.35-33.39,7.72-46.61,19.72-12.28,11.14-24.1,24.87-36.44,36.19-10.04,9.2-20.69,15.26-31.21,22.11-17.64,11.49-33.36,21.93-51.68,29.14-18.89,7.43-37.55,16.34-56.51,23.08-10.38,3.69-20.71,7.65-31.27,9.43-23.14,3.92-46.66,3.86-69.11,16.98-5.71,3.34-12.07,9.7-17.74,14.01-30.16,22.91-52.57,44.46-74.85,91.96-13.41,28.58-20.98,58.87-27.94,94.54-6.34,32.48-6.15,61.1-1.61,94.27.24,1.75-.06,3.76.19,5.48.28,1.89,7.9,17.6,9.16,19.83,15.97,28.31,46.62,37.85,67.58,43.38,6.58,1.74,13.31,1.62,19.88,3.58,1.91,10.75-3.89,6.68-7.02,6.54-9.07-.41-18.54-1.95-27.53-4.16-4.29-1.05-8.47-3.3-12.69-5-.12-.08-.26-.73-.43-.84-7.59-4.76-16.29-6.62-23.99-11.47-3.65-2.3-6.84-6.23-10.42-8.6-1.82-3.93-6.49-7.9-8.99-11.36-4.5-6.21-12.47-18.32-15.03-27.64-.67-2.44-1.17-11.29-1.99-12.01-5.14,16.39-16.65,21.45-25.54,13.7-1.46-1.28-3.56-5.09-4.76-5.79-2.12-1.24-9.73,1.02-11.97,2.71-2.91,2.2-4.76,5.75-4.29,12.17,1.05,14.26,12.58,39.88,18.43,48.64,9.27,13.89,29.59,30.47,41.25,31.44.14.01.29,0,.43,0l10.52,1.71c7.89-.17,15.82.11,23.67-.88,2.92-.37,12.59-4.95,14.46-.5.18.43,1.33,10.15,1.26,10.94-.18,1.97-1.03,2.62-1.98,2.9-5.15,1.5-9.66.08-14.58.02-17.41-.22-31.96,1.7-48.83-8.74-11.6-7.18-28.02-19.29-36.98-35.13-2.2-3.89-10.85-24.3-12.11-29.13-6.8-25.92-2.43-58.47,15.13-49.92.1-6.64-1.8-12.54-2.45-19.07-1.38-13.91.77-15.67-5.28-26.53-4.99-8.95-12.17-11.19-18.84-13.54-17.75-6.26-49.14,8.64-60.47,37.46-7.81,19.86-9.14,39.58-6.6,63.72,1.16,11.05,4.71,23.63,6.25,34.7-1,12.62-5.36.14-6.73-5.34-4.22-16.86-9.05-50.05-7.24-68.23,3.9-39.11,28.63-70.49,47.61-76.78,2.04-.68,4.38-1.29,6.45-1.67,4.85-.9,10.78-.92,15.68-.87,10.8.1,16.27,1.49,25.32,13.57,3.2,4.27,7.08,17.98,8.96,25.22,4.27,16.45,4.24,28.61,12.01,41.88,3.48,5.95,9.08,5.55,11.75-2.08,5.53-15.85,2.1-31.72,3.3-48.78.25-3.48,1.55-8.13,1.99-12.03,3.21-28.66,5.28-48.85,11.8-75.75,2.53-10.43,5.74-20.09,8.11-30.65.82-1.79,1.38-3.99,2.15-5.85Z"/>
  <path class="cls-2" d="M706.64,288.27c-1.67-3.76-1.78-5.64.84-7.15,6.91-4.01,11.64,1.35,17.41-.43,3.07-.94,1.69-8.78,6.59-9.79.7-.14,1.34.64,2,.55,2.09-.3,4.21-1.31,6.41-.73,1.52-4.26,3.17-8.5,5.5-11.23,1.68-1.96,6.13-3.98,6.88-5.89.84-2.15-.6-3.38-.49-5.86.31-6.58,10.02-4.75,12.6-6.51.79-.54,1.51-2.53,2.59-3.33,1.18-.86,5.15-2.43,5.91-3.55s1.09-15.63,5.17-18.41c1.8-1.23,2.35,1.9,4.3.91,1.82-.92.72-7.03,2.72-8.11,5.28-1.73,10.37-5.15,15.74-5.77l2.6,56.42,1.29,93.56c-1.63,2.98-3.88,1.71-5.84,3.03s-4.06,6.16-6.4,7.62c-3.66,2.28-7.32,1.78-11,.37-5.65-2.16-12.54-11.77-16.08,3-1.95,8.13,1.74,17.22.2,21.31-1.66,4.42-14.08,10-17.23,8.72.09,2.93.95,6.32.22,9.21-.57,2.23-2.51,1.75-3.12,2.71-.51.79-1.71,6.96-2.32,8.46s-1.56,2.01-2.11,3.43c-.16.41-1.59,5.75-1.63,6.09-.44,3.83,2.99,6.78,3.31,9.17.43,3.23-3.81,8.09-5.11,10.68-2.64,5.26-4.81,9.56-7.71,14.27-6.88,11.15-16.22,8.34-24.66,9.75-1.33,1.33-1.32,4.23-2.47,6.08-1.94,3.11-8.12,3.57-8.93-1.81-.94-6.32,1.35-8.73-3.87-11.72s-8.9,2.8-13.33,3.79-4.07-13.02-3.45-18.5c.26-2.3,2.71-5.38.6-5.54-1.51-.11-3.62,1.95-4.67-2.79-2.25-10.2,3.96-15.3,5.78-21.78.65-2.3,1.93-11.85,1.25-13.58-.36-.91-1.31-1.41-1.78-2.46-1.8-4.04-.12-6.92-.5-10.68-.19-1.96-1.5-11.32-1.84-13.21s-1.34-2.66-1.53-4.59c-.21-2.21.33-7.02,1.09-8.72.53-1.17,8.28-8.3,9.05-8.39.96-.12,1.83,1.46,2.96,1.7,12.95,2.76,27.15,2.8,40.01,2.41,1.84-.06,4.81,2.6,6.26-.3,2.36-4.73,3.24-14.48,2.94-20.87-.13-2.72-1.38-6.14-.42-8.53.33-.82,1.3-.92,1.34-1.66.02-.52-.83-8.77-1-9.71-1.27-6.8-4.11-1.97-6.6-6.81s-.85-10.95-1.51-12.97c-.13-.39-3.78-3.32-4.38-3.6-5.07-2.36-8.32.15-12.75-7.4.32-3.45,3.48-5.31,4.98-5.79s3.69,1.19,4.48-1.73c-2.49-1.48-4.92-.58-7.3,1.26-1.2.93-3.31,2.19-3.02,5.42ZM754.8,245.62c-1.83-1.54-1.94,4.59-1.28,5.84,1.13,2.14.77-5.36,1.28-5.84ZM747.49,260.68c-1.19-1.3-4.89,5.66-4.3,6.68,1.86.09,3.18-4.26,4.3-6.68ZM732.01,273.22c-2.78-1.84-5.97,7.79-2.14,3.78.59-.61,2.36-2.14,2.14-3.78ZM730.29,313.36c1-2.05-3.35-6.55-3.83-8.02-.53-1.65-.12-4.14-.9-4.51-.33,4.93.33,7.99,2.44,10.72.37.48,2.04,2.32,2.29,1.82ZM736.31,328.42c.74-1.71-1.56-13.91-2.57-11.71.76,3.65,1.04,9.23,2.57,11.71ZM731.15,361.87c1.91,3.46,4.19-13.45,4.26-15.59.12-3.76-.46-8.71-1.47-12-.11,6.39.21,10.48-.77,16.9-.25,1.62-2.31,10.18-2.03,10.69ZM680.4,361.04c-2.85.38-5.3,4.85-6.02,10.03l6.02-10.03ZM674.38,373.58c.31-1.17-.27-2.23-.42-1.66-.31,1.17.27,2.23.42,1.66ZM759.1,388.64c5.65,1.32,4.86-8.21,2.79-15.05-.87,2.46.49,6.32.16,8.6-.42,2.9-3.5,2.77-2.96,6.44ZM673.95,378.6c.42,5.29.53,16.02,1.4,20.27.62,3.01,2.49,3,2.03,1.07-.17-.73-.91-1.28-1.18-2.73-.98-5.26-.85-12.46-1.83-18.6-.15-.95-.35-4.2-.65-4.19-.81,1.13.16,3.51.21,4.19ZM677.82,407.88c-1.12-.37-.77.33-.98,1.81-.36,2.51-.38,4.82-.3,7.38,1.33-1.7.62-6.49,1.28-9.19ZM671.8,439.66c-.58-5.83.85-10.04,1.94-15.03-2.37,2.26-5.52,12.42-1.94,15.03ZM675.67,446.36c-1.12-.4-.76.41-1.06,1.66-1.27,5.31,0,8.74-.23,14.22,2.96-1.87-.17-11.15,1.29-15.88ZM697.17,476.46l-1.71-8.35c-1.01,1.85.33,11.12,1.71,8.35Z"/>
  <path class="cls-14" d="M342.38,32.33c-2.06-4-3.56-8.05-3.44-14.22-5.01,1.46-10.22.06-7.68-12.42l6.38-.98c-.04-8.73-.92-5.76-3.7-5.09s-1.46-.94-2.53-3.21c-.88-1.85-2.14-2.26-2.35-5.89,2.79,0,5.67-2.1,8.39-2.5,39.26-5.84,78.87-6.34,118.24-10.08,10.47-1,23.79.04,33.89-4.36,6.6-2.87,11.4-9.38,18.96-8.93,1.68.1,6.35,2.5,5.03,7.08-4.27,1.61-9.2.84-13.34,3.32-5.76,3.45-11.63,13.12-16.37,20.01-1.58,2.29-4.66,5.5-6.64,5.57-1.08.03-2.26-1.06-2.94-.94-.45.08-3.76,7.79-7.81,8.41s-2.72-2.48-7.09,2.5c-.8-.62.83-3.5-.65-3.37-2.4.21-6.64,3.44-9.03,5.04h-9.25c.17,1.66.88,1.43,1.51,1.67,2.75,1.01,5.58,1.9,8.38,1.68v1.67c-5.28,1.86-8.38-1.37-14.04.79-.81.31-1.72-1.25-2.31.38-.78,4.52-4.19,9.55-4.82,13.28-.66,3.93-.11,7.61-.74,11.94-.89,6.08-3.49,8.62-4.71,13.43-1.51,5.98-1.31,15.76-4.47,18.9-2.66,2.64-5.84-.29-4.51,8.45.23,1.53,1.53,2.66,1.87,4.72,1.01,6.05-2.99,8.47-4.78,11.72-3.02,5.49-3.88,10.28-8.77,12.21-5.68,2.25-3.98-5.63-6.24-8.88-1.75-2.52-5.34-1.27-5.45-7.89-.07-4.18,1.58-6.09-1.91-7.07-5.57-1.56-3.5,4.77-7.38,7.3-2.16,1.41-4.81,1.45-6.68-1.48-.6-.94-.88-3.14-1.62-3.78-1.1-.96-3.52-.61-4.9-1.35-3.43-1.86-4.9-15.84-9.29-17.47.02,0-.1-.71.25-.65.77.13,1.5.91,2.3.59,1.49-5.71-2.67-4.91-4.38-7.46-.96-1.43-1.46-6.27-2.48-4.61-.15,2.5,1.04,5.94,1.73,8.17.19.61.74.64.78.78.08.26-.37.62-.36.66-1.4-1.34-2.84-4.69-3.88-7.1-.44-1.01-.83-3.54-.92-3.65-.59-.71-2.81.59-3.71-1.16-.63-1.23-.88-5.48-.96-7.33,1.2,1.69,1.73,3.35,2.47,5.63,1.19,3.69,1.91.32.63-3.72-.96-3.03-2.86-3.45-2.67-7.77-.76.34-.48,4.69-.43,5.85-.11-.15-.83.1-1.27-.42-2.28-2.7-.6-7.57-.93-8.65-.12-.41-1.68-1.1-2.12-2.4s-.86-4.99-1.27-6.93c.05.1.5-.18.73.22.15.27,3.5,8.6,2.7,3.56-.46-2.93-2.85-6.79-3.51-9.9l-1.64-7.26c-.58,5.74.7,8.59,1.72,13.38ZM481.29-4.46c-1.63.07-3.46.69-5.02,1.55-.72.4-1.2-.63-.99,1.78,2.1.15,4.65.54,6.02-3.33ZM472.25-3.63l-6.87,9.6c.42,2.36,3.3-.99,3.84-1.71.64-.86,3.73-6.38,3.04-7.89ZM333.77,8.92c-1.6-.69-.61,4.08-.86,5.85,1.6.69.61-4.08.86-5.85ZM365.59,74.99c-.06-.11-.87-.31-.86.43.06,3.53,4.34,17.81,6.03,10.87-1.52-2.2-3.08-4.72-4.3-7.53-.55-1.27-.79-3.62-.86-3.77ZM375.49,89.21c-1.1,2.2,4.3,10.22,5.1,4.46.52-3.77-3.71-2.76-5.1-4.46ZM394.84,90.89c-.94-2.31-1.55,5.08-1.22,6.97.25,1.44,3.02,3.23,3.57,3.03.58-.21.95-1.74.22-2.87-1.89-2.94-3.92,2.07-2.57-7.13ZM401.66,106.9c-.1-.31-2.55-2.2-2.94-4.31.1,3.18,1.08,8.03,3,7.52-.06-.98.17-2.45-.07-3.21Z"/>
  <path class="cls-9" d="M154.87,41.53c-3.5,4.78-13.83-2.15-8.13-11.21,3.96-6.29,12.02-2.91,16.94-3.85,10.17-1.94,16.95-18.5,24.2-30.71,1.51-9.82-.16-15.7-4.77-19.61-1.49-1.26-10.71-5.4-8.89-10.71,8.23-.93,16.88-4.22,25.15-3.35,5.27.56,10.18,2.07,15.17,4.78,1.05.57,6.4,3.03,6.73,3.48.62.84.05,3.89.25,4.29.22.44,5.19-.82,5.17,5.01.75-.03.52-2.21,1.27-2.94,1.56-1.52,6.56,1.03,7.91,3.06,1.01,1.52,1.04,3.93,1.14,4.07.33.47,3-2.68,3.85-2.99,1.44-.53,7.37,2.61,8.6,4.28,1.35,1.84,2.46,8.17,3.31,8.65.7.39,2.45-1.29,3.42-1.49,4.19-.84,4.01,1.97,7.03,3.72,1.8,1.04,8.04,1.04,8.54,4.31.78,5.05-2.28,14.37-5.24,10.34-.4-.54-.23-1.68-.27-1.73,2.11,2.24,4.29-1.27,3.87-5.85-2.04,1.13-1.53,5.96-4.3,3.34-.17.33.25,2.32.43,2.51-.6-.79-1.83-1.56-2.58-1.66-.41.63,4.61,4.95.41,12.09-.2.34-2.71,3.59-2.88,3.67-1.12.58-2.96-1.66-4.56-.57-.84.57-1.05,3.19-1.57,4.29-.34.72-.82.51-.87.59.05-.14.06-3.22,0-3.34-.49-1.05-2.39,2.39-3.25,2.5-1.18.16-1.69-1.72-2.76-1.67.17,3.68,2.49,4.65,4.06,4.15.18-.06,1.91-1.47,1.96-1.65-.42.78.18,1.55-1.73,2.89-5.96,4.17-4.05-1.91-6.46-4.94-.81-1.02-2.15-1.18-3.14-2.25-.77-.83-1.24-2.58-2.12-3.41-3.19-2.99-2.15-.62-5.25-5.67-1.96-3.19-4.8-4.78-7.33-5.03-2.92-.29-1.79,1.24-2.76,4.65-1.66,5.88-4.99,1.21-6.4,3.03-1.28,1.67.07,2.95,1.21,3.2v.84l-1.29,1.66c1.99.99,5.17,2.27,6.45-1.65-1.52-.05-3.21,1.47-4.73.83l2.15-1.67c.06,0,.38-.87,1.05-.92,2.29-.2,1.88,2.34,3.03,4.29.99,1.68,2.56,1.76,3.23,4.17-.66-.23-1.35-.19-1.98-.74s-1.58-4.03-2.32-2.6c-1.1,2.12,5.1,9.63,5.85,9.96.87.38,1.15-2.07,1.02-3.27,1.74,1.48,4.66.5,6.88,1.67-1.39,1.27-3.85-.07-4.73,2.5,1.6,1.45,3.05-.37,4.73,0v-2.51c3.06,1.62,1.54,3.74,2.81,6.66.37.84,1.65,1.6,2.35,2.54l-.43.84c-.71-.73-1.34-1.01-2.15-.83-.47.67,4.67,5.16,5.16,5.85.19.51.05,2.47.86,2.51l.43-2.51c.92,2.95-.19,8.15-1.59,9.87-1.48,1.81-2.73-.58-.84,5.31.93,2.89,2.71,4.28,1.78,8.22-.16.66-.99,2.23-1.34,2.36-2.58.95-9.24-9.68-11.62-12.25-1.57-1.7-7.15-5.31-7.92-7.21-.89-2.21.39-3.9-2.67-2.75-4.52,1.7-.43,9.4,1.62,12.34,1.86,2.67,8.85,7.25,9.48,9.21.53,1.67-.63,5.54-1.3,5.65-.25.04-3.35-2.73-4.79-3.04-8.28-1.79-11.68-2.1-19.74-7.61-.92-.63-1.56-2.26-2.6-2.53-2.06-.53-3.77,2.52-5.56,2.52-.67,0-5.95-2.89-6.79-3.54-2.31-1.78-4.07-7.24-2.22-11.51.75-1.72,2.32-1.52,2.78-3.37-1.56-1.04-3.34-.45-4.84-1.04-1.24-.49-6.36-3.98-7.75-5-1.7-1.24-4.31-6.4-5.79-7.16-2.31-1.2-5.06,4.54-7.67,4.78-1.72.16-4.46-3.41-7.06-3.3.2-3.74-.41-4.76-2.26-4.01-.6.24-6.51,5.17-6.77,5.69-.68,1.38,1.52,2.46,1.72,2.5ZM189.98,5.28c7.25-14.89-.82-35.73-9.74-36.5l6.65,8.38c1.76,2.73,4.26,10.12,4.09,14.51-.2,4.92-2.6,10.14-3.01,15.15.37,1.19,1.77-1.05,2-1.54ZM239.16,15.6c-.23-1.66-.92-1.88-1.72-1.66.23,1.66.92,1.88,1.72,1.66ZM263.47,15.62c-.65,1.87-4.51,1.22-4.51,2.91,0,2.35,4.95,1.88,4.51-2.91ZM245.18,23.13c.69-1.33-1.35-3.32-2.15-2.5-.32.45,1.77,3.22,2.15,2.5ZM151,28.99c-.74-1.32-4.35,5.06-3.87,7.52.45,1,4.38-6.61,3.87-7.52ZM170.35,36.53c-.51-1.08-3.81-.85-4.73-.84-.96,1.5,2.4,3.23,2.83,3.3.57.09,2.65-.86,1.89-2.46ZM229.82,52.16c-.3-.36-.37-1.81-.77-2.26-.51.45-.28,1.8.07,2.56.71,1.56,4.15,3.59,5.45,5.1,3.04,3.54,6.2,9.92,9.61,12.26.42.29,1.23,1.68,1.42-.28.13-1.32-9.82-11.4-10.88-13.96-1.26-1.91-3.76-2.02-4.91-3.42ZM194.87,52.41c-1.18-.35-.82.4-.87,2.09-.26,9.19,3.1,8.62,6.89,8.77.55-.86-.02-1.48-.53-1.89-2.89-2.31-6.79,1.27-5.49-8.98ZM209.92,64.94c3.27,2.25,7.1,5.54,10.59,5.79,2.38.17,2.39-1.55.09-2.73s-6.88-3.06-9.3-3.66c-.47-.12-1.48-.94-1.38.6Z"/>
  <path class="cls-9" d="M699.76,125.17c.06-.11-.18-1.36.53-1.96,1.29-1.1,2.39.9,3.5.19.56-.36.6-1.97,1-2.46,2.36-2.84,10.69,1.62,9.98,6.99-.65,4.89-7.56,4.56-5.54,11.46,3.47-5.18,10.59-5.9,13.33,1.25,4.77,12.45-5.99,15.61-6.45,26.35,3.59-2.3,6.55-4.55,9.9.4,2.1,3.1,3.89,8.15,2.14,12.98,3.32.04,6.74,7.73,8.06,13.19.55,2.27,1.23,9.84,1.41,10.24.07.16.98-.69,1.6-.24,3.76,2.75,1.6,11.43,1.85,11.93,3.41-2.03,5.4-7.71,9.03-3.34h-2.58c-.4,2.73,1.83,1.69,2.09,3.85.11.91-.83,4.82-1.14,5.94-.81,2.89-2.73,3.54-.95,6.93-4.62,3.62.87,7.02,1.75,9.56,1.28,3.69-.95,5.85-2.6,6.78-2.97,1.67-15.27,4.5-17.75,2.68-.89-.65-.9-2.24-2.19-2.25-2.56-.02-3.98,3.04-6.31,4.15l.21-3.35-4.72-.84c-.89,2.6,2.52,2.99,3.22,3.37l-3.01.83c-.45-.17-2.07-.99-2.15-.84-.3.62.36,5.67-2.4,7.53s-4.19-2.76-5.53-2.54c-1.21.2-4.43,6.65-6.31,2.2-1.46-3.46.97-7.17,2.19-8.86l-1.31,6.26,1.31,2.1,1.29-10.03c4.88-5.51,9.3-6.3,14.62-9.21-.13-1.24-1.92-2.38-2.4-2.49-1.45-.32-3.3,1.06-5.13.85-1.7-.19-2.95-1.58-4.44-2.08-1.4-.48-4.16,1.1-5.46-2.98-2.19-6.9,6.63-3.32,7.98-10.86.61-3.45-.37-5.49.43-9.2-2.39.39-.74,5.85-1.29,8.36-1.16-2.33-2.01-5.77-.89-8.84,1.3-3.57,5.16-1.01,7.23-2.66,1.11-.88,4.49-6.79,4.23-9.41-.63-6.16-6.85-4.12-3.26-12.54-.39,4.49.55,7.51,3.01,7.52.34-2.46-2.01-3.5-2.15-4.62.36-3.12,2.5-2.96,0-4.58.22-.39.67-.58.85-1.25-4.56-10.27-4.77,1.06-8.18,3.31-2.31,1.52-7.83-.36-6.54-6.04.25-1.11.8-1.4.97-1.87-1.2,5.19,5.31,11.59,4.5,4.18l-3.2-.86.85-4.98c-.27-.42-2.1,1.46-2.15,1.66.35-.97,1.37-2.8,1.28-3.68-.1-1.01-2.53-3.49-2.78-5.52-.23-.25-.79,5.63-3.88,5.92s-2.76-7.42-.63-10.1c-.15,2.47-1.13,6.2.43,7.53l.86-8.36c-.57-.23-.86.29-1.29.83.08-1.44.64-2.92.39-4.48-.16-1.01-.97-1.2-1.25-2.01-.68-1.93-.83-3.45-1.28-5.22.16.45,1.88,3.09,2.15,2.51.35-3.32-1.31-4.84-1.31-7.94,0-2.21,1.62-5.71,1.31-6.27-1.43-2.61-3.77,7.04-2.15,11.71-.14-.57-.95-.97-1.2-3.1-1.21-10.51,4.67-7.91,4.93-15,.08-2.25-.61-3.67.09-6.69.52-2.25,1.14-1.61,1.34-1.98-.52.88-1.1,5.95-.86,7.52l1.68-6.35c.34-1.43-.61-1.53-.82-1.17ZM716.1,140.22c1.68-.85,4.44,2.18,4.61,5.54.02.46-.83,8.51.99,5.79,1.33-1.99.92-7.26-.21-9.68s-4.15-5.11-5.39-1.64ZM702.41,228.7c-.23-.7.17-2.15-.29-2.33-.61,2.7.51,5.17,1.93,5.02.36-2.74-1.28-1.58-1.64-2.69ZM732.87,243.95l-3.87-.83c.7,3.2,4.48,5.63,3.87.83ZM710.94,255.65c1.13-2.19-1.93-4.46-3.01-3.34-.39,2.57,2.63,4.06,3.01,3.34Z"/>
  <path class="cls-9" d="M616.75,1.39c1.45.64,2.9,2.16,4.13,2.44,1.52.35,3.48-1.24,4.46-.37s3.15,6.49,4.79,8.3c2.3,2.54,6.05,2.47,5.54,10.05-.41,6.13-9.38,13.59-12.27,13.89-1.97.2-4.5-1.77-6.36-.88-.49.23-.34,3.53-2.44,5.05-2.69,1.56-1.92-2.61-2.84-3.25-.98-.68-4.93-.4-6.19-.51.03,2.51,2.02,2.13-.43,3.76-2.85.49-4.61,5.34-7.3,7.12-2.95,1.95-9.18,2.36-12.05-.01-1.78-1.48-3.85-5.76-5.85-6.25-2.6-.65-9.33,9.21-10.04-2.03.3-1.92,2.22-.68,2.98-1.34-1.13,1.35-1.57.48-1.29,4.18.53,1.1,3.16-2.35,3.42-3.83.24-1.34-.81-1.5-.84-2.02-.02-.31.87-.73-.26-2.4-3.35-4.96-11.13-5.45-15.23-5.12l1.5-3.36-2.36,3.36c-.19.04-.92,1.46-1.5.84-.92-4.41,3.47-5.69,5.16-5.69,2.69.01,5.74,3.78,7.93-1.54.56-3.66-4.13-4.89-5.39-5.24-3.9-1.09-7.86.11-11.78-.09-.22-1.96.13-1.34.55-1.87,2.35-2.93,7.23-8.35,9.77-9.83l-2.18,3.7c-2.78,1.36-3.96,6.56-.38,4.28,1.38-.88,2.58-4.29,3.43-5.04s3.87.08,3.85-1.69c-.02-2.01-3.01-.46-3.43-2.09,8.2-2.87,7.24,3.46,11.18,12.96,2.06,4.97,1.93,2.14,3.94.98.99-.57,2.25-.43,3.11-1.48.7-.86.95-3.14,1.54-3.7.69-.64,1.82-.09,2.09-.53.36-.58-.13-3.77,2.2-4.56,1.33-.45,2.63,1.05,4.09.5,1.07-.4,1.48-2.74,3.01-2.92,1.21-.14,2.69,1.14,3.89,1.24,3.96.31,8.45-1.15,12.25-3.33l.21,4.18,1.12-2.01,4.26-3.84ZM625.35,4.74l-2.58,3.33c.38.24,3.39-1.99,2.58-3.33ZM595.68,6.41c-.78-.27-1.41,1.13-1.72,2.49.78.27,1.41-1.13,1.72-2.49ZM588.8,8.92c-.86-.81-2.22,1.49-1.72,2.5.23.45,2.36-.92,1.72-2.5ZM584.93,13.94c-.51-.99-1.71,1.66-1.28,3.34.57-.19,1.65-2.64,1.28-3.34ZM627.51,29.83c-2.72-.28-5.41.1-8.03,1.55-.72.4-1.2-.63-.99,1.78,2.66-.42,7.3,1.16,9.03-3.33ZM592.67,46.54c-1.29-2.95-4.21-2.38-6.02-2.49,1.21,3.93,4.05,2.15,6.02,2.49Z"/>
  <path class="cls-9" d="M322.16,272.38c.79-.04,1.52-.78,2.32-.75,2.5,2.24,7.75-2.12,8.37,4.72.44,4.86-1.62,5.14-2.94,7.74,3.59.02,5.18,4.33,3.01,10.46s-7.72,10.92-11.39,11.13c-1.46.08-3.57-1.44-5.15-1.54-6.57-.44-13.85,1.69-20.68.91-3.11-.36-7.37-.05-7.54-8.01-.11-5.1,3.51-6.14,5.62-6.26-1.71-9.24,1.27-6.1,2.79-10.03.94-2.41.59-7.13,1.55-9.54.77-1.95,2-1.43,2.44-2.38.58-1.26,1.11-8.11,1.73-10.42.52-1.93,1.4-2.83,1.99-4.5,1.49-4.22,1.43-7.05,4.66-9.33,1.67-1.18,6.52-2.24,6.36,2.25-.21,5.65-2.35,5.36-4.11,7.99-1.2,1.8-4.52,8.81-3.47,11.75,1.34,3.75,3.97-5.39,6.38-4.11,2.7,1.43-.11,10.52.31,11.59,1.67-2.1,3.35-1.43,5.16-1.67l2.15,1.67c-.5.15-6,2.34-3.22,3.35.75.27,3.15-1.52,4.3-1.66,1.71-.21,6.96,1.8,7.95-.02.36-.66.35-1.64-.54-1.43-2.57.59-5.23-1.45-7.63-1.07l-.43-.84ZM310.98,247.3c-4.28.6-7.97,10.22-7.73,18.39l3.45-11.27c.79-1.43,1.53-3.32,2.35-4.63.68-1.08,1.76-1.12,1.94-2.49ZM313.13,264.86c-1.74-.23-2.83,2.72-2.58,5.85l2.58-5.85ZM300.66,271.55c-.74-1.47-2.49,5.24-2.14,6.69l2.14-6.69ZM295.5,287.44c.08-.15.33-3.42.43-4.18-1.67.66-1.49,6.13-.43,4.18ZM292.06,292.46c-2.27-.71-3.58,7.81-1.93,9.19,2.2,1.84.22-4.07.25-4.48.12-1.38,1.93-2.55,1.68-4.71Z"/>
  <path class="cls-9" d="M671.37,192.09c1.28-5.63,3.81-2.39,4.3-3.35.29-.58-1.42-8.58,1.85-11.1,2.05-1.59,2.77,2.97,4.6,2.74-.12-12.54,3.59-11.43,5.81-1.69.28-.75.72-1.12,1.08-1.66-.06.13-.36,4.05.64,3.34l1.94-5.01c-.44.53-2.48,1.48-2.58,1.67.3-.46.37-1.89,1.15-2.34,3.04-1.73,5.92,3.81,6.18,9.41.51,11.31-3.16,6.41-3.79,11.93-.88,7.62,2.21,12.12.79,19.12-.73,3.59-2.35,3.9-3.9,5.38.62-.54,2.82-5.33,2.15-6.69s-4.68,6.45-6.02,5.86c-1.34,2.66,3.36,1.26,3.87.82-1.54,1.46-3.54,2.53-4.7,3.83-1.46,1.64-1.82,5.55-3.46,6.66-.69.47-2.88,1.14-3.67,1.22s-1.63-1.07-2.55-.85c-1.18.29-2.41,3.39-4.55,3.36-1.53-.02-5.9-4.75-7.78-6.23-.69-.54-1.18-2.08-1.25-2.14.53-5.42,3.18-1.88,5.26-5.01,1.65-2.49,1.92-7.83,2.88-9.69s2.21-.57,3.04-2.45c-1.89-3.93-6.28.34-7.64-2.29-1.13-2.18.39-15.71,1.61-16.99,1.38-1.44,2.32,2.49,3.23,3.84.39.59.85.54,1.07.81.3.36.37,2.26,1.29,1.67-.09-2.08.52-3.37,1.29-4.61l-2.15.43ZM682.99,178.7c.7-.24,1.96-5.26,1.71-5.85-1.2,1.17-1.95,3.12-1.71,5.85ZM677.82,179.54c-1.52-.51-1.24,4.11-1.29,5.85,1.4.6.98-4.41,1.29-5.85ZM668.36,193.76c-1.41-2.62-3.21,7.75-1.5,9.19,0-1.3,1.68-8.86,1.5-9.19ZM671.37,212.16c-1.05-1.85-2.58,4.09-2.15,5.85,1.18.52.73-.76,1.06-1.67.26-.73,1.36-3.69,1.09-4.18ZM663.63,224.71c-.9-.24-.98-.08-.86,1.66l.86-1.66ZM680.4,228.06l-3.87.41c.93,2.2,3.76,3.77,3.87-.41Z"/>
  <path class="cls-9" d="M777.6,90.05c-.16-4.91.46-8.39,1.72-12.54-1.89,1.14-2.25-2.12-2.14-5.35.32-8.86,7.38-18.76,10.52-8.89,1.25-3.93,5.34-11.73,7.75-11.68,1.01.02,2.35,4.95,2.35,6.25v73.18c0,.2-1.76,1.5-1.86,1.5-.83-.03-2.16-2.16-3.3-1.5-.62-2.04-3.85-12-4.6-12.43-2.09-1.21-2.27,3.87-2.71,6.58h-1.72c-.4-.78-.73-2.31-.86-2.51-.48-4.3,2.23-4.99,1.72-9.2-5.18,2.25-2.84-8.52-3.05-9.11-.07-.21-1.33-1.13-2.04-3.16-.86-2.48-1.07-4.98-1.36-7.81l1.29,2.5c-.25-4.9.16-8.78.86-13.38-.47.23-1.02,1.4-1.23,2.19-.58,2.24,0,5.68-1.34,5.33ZM794.8,55.76c-2.06.39-3.99,3.47-4.29,7.52l4.29-7.52ZM784.05,61.62c-1.92-.15-4.81,2.34-4.73,6.68l4.73-6.68ZM782.76,105.1h-.86c-.03,1.78-.18,3.83.64,5.01l.21-5.01ZM784.91,119.32h-.86v2.5h.86v-2.5Z"/>
  <path class="cls-3" d="M166.05,724.87c2.46,5.31-.03,7.15.43,8.36.85,2.2,3.8-2.7,6.04-1.29.24.15,3.96,5.07,4.1,5.47.67,2.04-1.27,4.84-2.2,5-1.3.22-3.44-1.73-5.14-1.72-2.59.03-3.92,2.64-7.21,1.54-3.65-1.21-3.89-6.61-5.93-9.37-2.32-3.12-7.53-3.16-9.42-5.94-.97-1.43-1.32-5.44-3.35-7.7-3.74-4.14-8.03-1.92-11.31-3.93-1.17-.71-2.17-3.91-3.27-5.34-4.82-6.23-15.55-10.53-21.14-7.94-1.56.72-9.26,7.56-5.91-.63,1.16-2.84,2.82-3,4.12-4.12,2.36.13-1.17,2.14-1.3,2.93-.18,1.08-.19,2.4.66,2.11.96-.33,2.63-3.92,4.49-4.66,1.58-.63,3.16-.32,4.75-.38.08-1.23-1.12-1.49-1.54-1.58-1.95-.42-3.68,1.16-5.34-.08,3.47-2.08,10.73-3.11,14.3-1.47,1.33.61,3.05,2.94,4.46,3.11s2.43-1.3,4.15-.62c1.82.71,4.41,6.27,6.23,7.16,1.14.56,2.04-.44,3.13-.28,7.75,1.18,12.59,17.34,17.87,18.78,3.23.88,4.95.33,8.35,2.58ZM132.93,703.12c.75-1.5-2.69-4.81-3.44-4.17l3.44,4.17ZM143.69,707.31l-3.87-.83c.25,1.38,4.28,4.4,3.87.83Z"/>
  <path class="cls-9" d="M97.67,28.15c-.8.9-2.17,1.98-1.93,4.19,2.4-1.48,4.55-2.09,7.09-1.68.31-1.65-.72-2.15-1.29-2.5,4.69-1.15,15.44,10.86,16.27,19.86.31,3.39-.46,4.09-2.09,3.19-3.76-2.08-5.56-9.81-10.91-8.73-6.82,1.37-6.77,13.27-11.56,16.82-1.71,1.26-5.64,1.64-6.24-2.45-.24-1.66.14-3.84-.3-5.28-.48-1.57-3.02-1.83-3.77-5.21-1.07-4.81-1.45-17.53.98-21.1,4.45-6.55,6.56,2.53,9.34,3.61.87.34,3.25-.5,4.41-.7ZM87.35,26.49c-4.49-1.63-5.11,18.19-2.79,19.23,1.93.86.33-6.6.25-8.04-.32-6.05.7-7.03,2.54-11.19ZM89.07,51.57c-1.59-3.43-.54,8.92.86,5.85.1-.23-.76-5.62-.86-5.85Z"/>
  <path class="cls-3" d="M207.77,769.2c-.98.4-2.62-5.05-2.83-5.08-1.08-.15-4.19,7.81-8.15,7.66-2.28-.08-2.75-3.97-3.43-4.06-.31-.04-2.31,2.9-3.31,3.42-4.09,2.09-8.67-1.54-12.39-4.46.1-4.25,1.96-1.48,3.23-1.59,1.8-.16,8.27-1.95,9.05-5.1.49-1.97-.94-6.37-1.83-7.35-2.1-2.33-6.72.82-7.4-1.08-1.97-5.54,10.83-15.99,11.37-4.08,2.84-3.92,5.54-.47,8.37-2.53.17.1.31.76.43.84,2.54,1.67,4.81,3.88,7.2,5.66,4.56,3.39,13.87,5.9,13.88,17.76-1.7.33-3.1-.12-4.73-.84-1.08-1.8,1.29-2.2.43-4.17-.17-.39-4.78-2.25-5.16-1.68-.99,1.5,1.12,1.47.86,2.5-.42.06-.86-.05-1.29,0-.48.07-2.06-.18-2.15,0-.14.27.1,3.99,0,5.03-.52-.16-1.29.24-1.72,0,.91-3.27-.45-5.03-1.72-6.69-.22,2.15.48,4.53,1.29,5.85ZM188.76,745.62c.05-.07.49-1.94.31-2.33-1.95,1.93-5.84.61-5.81,6.67,1.07-2.74,4.79-3.29,5.5-4.35ZM203.9,750.79c-.16-1.67-.91-1.37-1.51-1.66-2.28-1.11-7.74-3.55-8.38,2.5,1.39.45,2.33-1.44,3.64-1.7,2.09-.42,4.13,1.53,6.24.86ZM197.01,769.2c.63-1.1-1.62-3.59-1.71-3.34-.65,1.72,1.03,4.54,1.71,3.34ZM188.84,768.37l-6.44-1.27c1.31,2.43,3.27,2.2,4.94,2.1.52-.03,1.6.62,1.5-.83Z"/>
  <path class="cls-3" d="M332.41,315.16c-.48-.59-3.87,2.84-4.59-2.4-.38-2.77,3.22-12.1,4.51-13.5,2.06-2.23,7.7-2.81,7.46,3.54-.11,2.95-4.05,13.33-5.15,14.33-2.01,1.83-1.84-1.51-2.22-1.97ZM335.49,299.99c-3.18.91-5.66,6.54-6.02,12.53,1.14.46.74-.55,1.07-1.65.66-2.2,1.54-6.56,2.5-8.12.73-1.19,2.15-1.09,2.44-2.77Z"/>
  <path class="cls-1" d="M221.53,355.18c-7.21,1.11-9.03.96-16.03,6.05-2.15,1.57-4.41,5.23-6.77,4.41,1.9-3.39,4.63-5.38,7.02-7.26,2.11-1.66,6.95-5.36,8.97-6.04s3.69,1.08,5.95-.06c3.15-1.6,4.76-7.31,7.43-9.8,3.57-3.34,8.57-4.17,12.43-6.77.56-.38,2.4-2.49,2.48-2.27.84,2.15-1.08,3.19-1.73,3.73-4.41,3.68-9.05,5.85-13.62,8.65l-5.72,9.37c-.14.04-.29-.02-.43,0Z"/>
  <path class="cls-3" d="M153.58,776.73c-.14,0-.29.01-.43,0-1.52-2.5-7.47-4.32-7.29-8.8.11-2.81,2.39-3.81,3.63-3.81,1.53,0,6.06,1.86,7.64,2.77s3.42,2.52,2.41,5.95c-1.38,4.68-3.59,3.93-5.96,3.9ZM150.57,765.86l-2.57,3.33c.66.31.25-1.14.74-1.64.55-.56,1.83-.16,1.84-1.69Z"/>
  <path class="cls-12" d="M139.82,233.07c.94-10.05,1.29-14.79-.78-24.83-.32-1.54-2.93-9.8-2.66-10.3.54-.98,1.27.6,1.66,1.37.55,1.09,2.64,8.33,3.02,10.02,2.08,9.36,2.62,22.44-.17,31.25l-1.5-.83c.32-2.18.24-4.66.43-6.69Z"/>
  <path class="cls-3" d="M237.44,765.02c4.58,1.99,4.68,7.89-.25,9.13-2.3.58-7.81,1.4-7.41-5.16.2-3.29.97-1.83,1.64-2.3l.86.84c-.78.94-1.48,2.91-.21,2.52.46-.14,4.52-2.9,4.94-3.36.37-.4.45-.89.43-1.67Z"/>
  <path class="cls-4" d="M450.32,15.61c-2.8.22-5.63-.67-8.38-1.68-.63-.23-1.34,0-1.51-1.67h9.25c2.39-1.6,6.63-4.83,9.03-5.04,1.48-.13-.16,2.75.65,3.37-.79.9-1.13,1.57-2.15,2.51l-6.88,2.51Z"/>
  <path class="cls-3" d="M120.76,45.05c7.24-4.29,2.17,12.73.36,13.01-2.29.35-2.84-11.53-.36-13.01ZM121.75,46.56c-1.4-.58-1.22,3.4-1.28,5.01.97-.74,1.35-3.13,1.28-5.01Z"/>
  <path class="cls-1" d="M271.42,259c4.8-5.9,10.76-8.34,15.91-12.97.37-.33,1.72-1.67,1.87-2.01.53-1.12-.07-2.76.7-2.58.25,4.2-.86,3.4-1.54,4.48-2.32,3.66-9.5,10.13-12.57,12.02-.72.44-1.63-.61-1.37,1.89-1.29.02-2.16-.73-3.01-.84Z"/>
  <path class="cls-3" d="M140.68,54.92c.54.63.13,3.11,1.06,2.49.75-.5,3.08-3.84,1.09-5,5.75-1.46,5.26,7.24,1.04,8.29-2.13.53-5.36-1.14-3.19-5.78Z"/>
  <path class="cls-1" d="M750.07,212.16c.48.58.55,1,.86,1.67.54,5.73-.77,9.23-1.72,14.22-.67.57-1.31.52-1.72.84-1.78-3.39.14-4.04.95-6.93.31-1.12,1.25-5.03,1.14-5.94-.26-2.16-2.49-1.12-2.09-3.85h2.58Z"/>
  <path class="cls-3" d="M151.43,739.93l-.86,2.93c.4,1.02,3.79-2.62,1.72-3.77,4.67-1.06,5.01,7.9-.22,7.6-3.36-.19-3.86-4.27-.64-6.76Z"/>
  <path class="cls-10" d="M357.43,69.97s.44-.4.36-.66c-.04-.14-.59-.17-.78-.78-.69-2.24-1.88-5.67-1.73-8.17,1.02-1.66,1.51,3.18,2.48,4.61,1.71,2.55,5.86,1.75,4.38,7.46-.8.31-1.52-.46-2.3-.59-.35-.06-.23.65-.25.65-.82-.27-1.85-.79-2.15-2.51Z"/>
  <path class="cls-1" d="M162.18,37.35c-1.68.07-2.83,1.54-4.3,2.51-.49-1.29-2.6-.24-2.15,1.67-.27.03-.59.05-.86,0-.2-.04-2.4-1.12-1.72-2.5.26-.52,6.17-5.45,6.77-5.69,1.85-.76,2.46.26,2.26,4.01Z"/>
  <path class="cls-6" d="M563.86,3.9c.42,1.63,3.42.08,3.43,2.09.01,1.77-3.02.95-3.85,1.69s-2.05,4.16-3.43,5.04c-3.58,2.28-2.4-2.92.38-4.28l2.18-3.7c.42-.24.6-.6,1.29-.84Z"/>
  <path class="cls-1" d="M305.82,242.27c-1.56.39-2.18-.06-3.01,0-.22-2.06.49-1.78,1.17-2.29,3.38-2.59,7.69-5.12,7.65-13.61,1.47,9.01-2.68,11.97-5.81,15.9Z"/>
  <path class="cls-11" d="M605.14,39.86c2.45-1.62.46-1.24.43-3.76,1.26.1,5.21-.17,6.19.51.93.64.15,4.81,2.84,3.25-3.34,2.43-6.3-.55-9.46,0Z"/>
  <path class="cls-3" d="M129.77,72.59c2.65-1.8,3.77,2.34,2.63,6.81-2.21,8.64-5.16-5.09-2.63-6.81ZM131.22,74.16c-1.57-.18-1.35,3.05-1.29,5.01.89-.46.73-3.71,1.29-5.01Z"/>
  <path class="cls-6" d="M204.33,90.88c.28,0,.58-.05.86,0l1.72,3.34c-2.21-1.61-6.01,1.83-7.56,1.65-.95-.12-1.4-2.54-1.04-3.31.21-.43,5.19-1.65,6.02-1.68Z"/>
  <path class="cls-1" d="M232.71,30.66c.13,1.2-.16,3.65-1.02,3.27-.75-.33-6.95-7.84-5.85-9.96.74-1.43,1.69,2.06,2.32,2.6s1.32.51,1.98.74c.14.05.3-.06.43,0,.1.32.25.7.43.84.13.1.33-.11.43,0l.86,1.67c.19.18.32.74.43.84Z"/>
  <path class="cls-11" d="M706.64,288.27c-.29-3.23,1.82-4.49,3.02-5.42,2.38-1.84,4.81-2.75,7.3-1.26-.79,2.92-3.03,1.28-4.48,1.73s-4.66,2.34-4.98,5.79c-.13-.22-.59-.22-.86-.84Z"/>
  <path class="cls-5" d="M107.56,695.6c1.66,1.24,3.39-.33,5.34.08.42.09,1.62.36,1.54,1.58-1.59.06-3.17-.25-4.75.38-1.85.74-3.52,4.33-4.49,4.66-.85.29-.84-1.03-.66-2.11.13-.79,3.66-2.8,1.3-2.93.56-.48,1.03-1.26,1.72-1.67Z"/>
  <path class="cls-10" d="M101.54,28.15c.57.35,1.6.85,1.29,2.5-2.54-.4-4.69.2-7.09,1.68-.24-2.21,1.13-3.29,1.93-4.19,1.38-.23,2-1.17,3.87,0Z"/>
  <path class="cls-10" d="M616.75,1.39l-4.26,3.84-1.12,2.01-.21-4.18c2.71-1.55,1.81-3.33,5.59-1.67Z"/>
  <path class="cls-11" d="M212.07,765.02c.43-.06.86.05,1.29,0,.26-1.03-1.84-1-.86-2.5.37-.57,4.99,1.29,5.16,1.68.86,1.97-1.51,2.37-.43,4.17-1.71-.75-3.44-2.5-5.16-3.35Z"/>
  <path class="cls-9" d="M749.21,228.05c.95-4.99,2.26-8.49,1.72-14.22.31.67.98.74,1.2,2.24.68,4.53-.76,10.15-2.92,11.98Z"/>
  <path class="cls-6" d="M716.1,249.8l3.01-.83c-.7-.37-4.11-.77-3.22-3.37l4.72.84-.21,3.35c-2.29,1.09-2.1.85-4.3,0Z"/>
  <path class="cls-6" d="M715.67,182.89c2.5,1.61.36,1.46,0,4.58.14,1.12,2.49,2.16,2.15,4.62-2.46,0-3.4-3.03-3.01-7.52.34-.79.49-1.03.86-1.67Z"/>
  <path class="cls-5" d="M626.22,665.49s-.05.89.21.82c.81-.23,1.51-8.58,3.22-7.1-.92,2.45-2.14,9.51-3.72,10.36-.7.38-.55-.75-.58-.74-.06-1.4.12-2.87.86-3.35Z"/>
  <path class="cls-11" d="M703.2,245.62l-1.29,10.03-1.31-2.1,1.31-6.26c.48-.66.76-1.07,1.29-1.67Z"/>
  <path class="cls-11" d="M777.6,90.05c1.35.35.76-3.1,1.34-5.33.21-.79.76-1.96,1.23-2.19-.7,4.59-1.11,8.48-.86,13.38l-1.29-2.5c-.1-.95-.42-2.91-.43-3.35Z"/>
  <path class="cls-4" d="M80.47,10.59c-.47,3.85-1.17,4.15-3.22,4.21-1.75.06.34-4.09,1.5-3.39.13-1.32-.42-.74-.86-.83.76-1.88,1.79-.75,2.58,0Z"/>
  <path class="cls-11" d="M574.18,35.68c.04.52,1.08.68.84,2.02-.27,1.47-2.89,4.93-3.42,3.83-.28-3.7.16-2.83,1.29-4.18.39-.46.72-1.5,1.29-1.67Z"/>
  <path class="cls-13" d="M147.99,80.85c.74-.99-.78-1.96-.87-3.78-.04-.79.17-3.8.86-3.74-.93,5.35,2.08,5.1,2.58,7.12.29,1.18-1.2,2.08-1.29,2.08-.51.02-.99-1.41-1.29-1.67Z"/>
  <path class="cls-7" d="M250.34,284.93c-.24.15-.7.88-.86.84-.16-3.42-3.76-6.27-5.16-5.85v-1.67c2.39.34,5.07,2.17,6.02,6.69Z"/>
  <path class="cls-11" d="M707.5,218.01c.55-2.51-1.1-7.97,1.29-8.36-.8,3.71.19,5.75-.43,9.2-.43.08-.59-.3-.86-.84Z"/>
  <path class="cls-5" d="M142.83,52.41c2,1.16-.34,4.5-1.09,5-.93.62-.52-1.87-1.06-2.49.75-1.59.89-2.19,2.15-2.51Z"/>
  <path class="cls-7" d="M457.2,13.1c-2.04,1.88-4.68,3.41-6.88,4.18v-1.67l6.88-2.51Z"/>
  <path class="cls-7" d="M248.62,47.39l-.43,2.51c-.8-.04-.66-2-.86-2.51-.5-1.32-2.37-4.36-3.01-5.02l.43-.84c1.07,1.46,3.24,3.83,3.87,5.85Z"/>
  <path class="cls-13" d="M671.37,192.09l2.15-.43c-.77,1.25-1.38,2.54-1.29,4.61-.92.59-.99-1.32-1.29-1.67-.18-1.2.26-1.78.43-2.51Z"/>
  <path class="cls-7" d="M237.44,765.02c.02.78-.06,1.28-.43,1.67-1.09-1.93-3.64-.48-4.73.84l-.86-.84c2.52-1.76,3.3-2.86,6.02-1.67Z"/>
  <path class="cls-13" d="M208.2,770.04c-.22-.12-.3-.63-.43-.84-.81-1.33-1.51-3.7-1.29-5.85,1.26,1.66,2.63,3.42,1.72,6.69Z"/>
  <path class="cls-13" d="M557.84,28.15l2.36-3.36-1.5,3.36c-.28.02-.58-.06-.86,0Z"/>
  <path class="cls-11" d="M152.29,739.09c2.07,1.15-1.32,4.79-1.72,3.77l.86-2.93c.23-.18.39-.73.86-.84Z"/>
  <path class="cls-7" d="M303.67,645.42c.28,1.54-1.31,4.1-1.72,3.34-.28-1.54,1.31-4.1,1.72-3.34Z"/>
  <path class="cls-9" d="M157.88,39.86c-.66.44-1.1,1.55-2.15,1.67-.45-1.92,1.66-2.97,2.15-1.67Z"/>
  <path class="cls-5" d="M322.16,272.38l.43.84c-.08.01-.48.72-.86.84l-2.15-1.67c.85-.11,1.73.04,2.58,0Z"/>
  <path class="cls-5" d="M222.82,19.79l-2.15,1.67c-.25-.1-.42-.28-.43-.84v-.84c.76.17,1.78.05,2.58,0Z"/>
  <path class="cls-4" d="M570.74,213l.43.84c-.43.12-1.27,1.61-2.15.83-.14-1.39,1.11-1.09,1.72-1.66Z"/>
  <path class="cls-9" d="M230.99,28.15c-.18-.13-.33-.51-.43-.84.2.1.36.45.43.84Z"/>
  <path class="cls-9" d="M232.28,29.82l-.86-1.67c.48.57.81,1.62.86,1.67Z"/>
  <path class="cls-13" d="M148.85,85.86c.09-.38.4-.66.43-.84l-.43.84Z"/>
  <path class="cls-4" d="M249.48,285.76c-1.61-.39-2.77-4.39-4.85-3.21-1.22.7-2.96,6.85-4.59,7.85-3.05,1.88-7.47-.56-10.77,4.17-.76,1.09-.97,3.39-2.17,4.09-2.24,1.3-4.79.46-7.42,2.34s-5.03,6.63-7.39,9.04c-1.87,1.91-2.64.97-1.32-2.57.95-2.54,5.79-8.58,7.38-9.91,2.98-2.49,6.18-1.34,8.5-2.74.54-.32.61-1.83,1.03-2.38,3.51-4.71,5.97-4.17,9.83-4.24,3.36-.07,4.42-7.63,6.62-8.29,1.4-.42,5,2.44,5.16,5.85Z"/>
  <path class="cls-6" d="M125.62,647.92l-4.24-13.9c-.52-5.17-2.26-9.28-3.28-13.7-2.36-10.25-3.53-21.86-7.1-30.94.92-.44.96,1,1.38,1.9,3.45,7.37,4.76,18.88,6.84,27.68,1.47,6.22,5.35,18.29,6.2,23.92.25,1.69.26,3.31.2,5.04Z"/>
  <path class="cls-1" d="M143.26,517.44c-1,1.16-5.2,6.43-6.02,5.01-.14-1.19.09-1.37.42-2.1,3.68-8.23,14.86-14.29,17.25-21.73.5-1.56-.36-4.03,1.25-3.76.52,6.59-4.96,13.53-7.6,16.57-1.78,2.05-3.85,4.32-5.3,6.01Z"/>
  <path class="cls-12" d="M243.46,109.28c.11-.3,2.84-3.1,3.23-4.17,2.05-1.17-1.65,5.78-1.87,6.4-2.33,6.52-3.15,12.8-6.56,18.19-2.12,3.35-5.19,6.5-7.48,9.69-1.39-1.8.04-3.57.84-5.04,2.41-4.42,5.37-5.53,7.96-11.29,1.99-4.45,2.83-11,3.88-13.78Z"/>
  <path class="cls-1" d="M127.35,623.25c-.15-1.82-1.23-5.53-1.52-7.92-1-8.16-1.64-16.15-3.65-23.85.25-.87,1.38,2.15,1.42,2.31,2.37,9.13,5.59,30.3,5.48,40.29-.03,2.59-.54,9.01-1.73,10.5-.37-6.54.51-15.06,0-21.33Z"/>
  <path class="cls-1" d="M188.42,399.52c2.3-2.22,8.4-1.47,9.94-5.42.79-2.03-1.45-7.87-2.2-9.64,1.14-1.72,3.68,6.59,3.8,8.12.58,6.95-9.59,13.13-11.54,6.93Z"/>
  <path class="cls-12" d="M102.4,191.25c1.16,2.08-2.9,2.99-3.3,3.02-4.54.32-10.96-1.78-15.19-5.13-.71-.56-2.24-1.6-2.59-2.91,6.94,2.3,14.02,6.84,21.07,5.01Z"/>
  <path class="cls-1" d="M226.69,264.86c-.61,3.49-1.92,7.42-3.47,9.56-1.14,1.59-6.42,6.41-7.83,7.35-.69.46-1.28.89-2.03.65-1.93-3.37,8.21-9.53,8.75-10.15.76-.87,4.02-8.49,4.58-7.4Z"/>
  <path class="cls-1" d="M115.3,237.25c-2.61-1.57-3.73-7.9-4.62-12.34-.76-3.77-2.73-14.07-3.02-17.55-.23-2.84-.06-5.73-.1-8.58l.72,6.53c1.81,6.24,2.4,13.91,3.8,20.21.92,4.15,2.73,7.25,3.22,11.72Z"/>
  <path class="cls-6" d="M63.7,726.55c-.85,2.38-2.54,3.06-3.65,5.01-3.39,5.94-4.64,10.71-6.47,18.4-.3,1.25.06,2.07-1.06,1.66-.61-10.96,6.01-23.34,11.18-25.08Z"/>
  <path class="cls-6" d="M154.45,172.85c-.44-5.56,2.01-11.01,2.17-16.34s-1.9-10.17-1.53-15.44c3.25,9.4,4.29,23.87-.64,31.78Z"/>
  <path class="cls-12" d="M239.59,364.38c-1.57-2.13.06-13.04,1.54-15.83,1.39-2.62,5.89-5.48,7.06-1.75-2.31-.16-4.93.94-6.45,4.62-1.86,4.52-.99,6.94-1.29,11.72-.08,1.26-.18,2.16-.86,1.23Z"/>
  <path class="cls-1" d="M171.64,75.84c-.16,1.52-.85,1.56-1.49,1.7-2.86.61-8.49,1.39-11.22.86-1.08-.21-1.88-.21-2.34-2.55,5.12-.42,9.93-.74,15.05,0Z"/>
  <path class="cls-1" d="M73.16,30.67c.09,1.32-.31,2.3-.67,3.28-.59,1.59-7.22,9.6-8.56,10.95-.69.7-1.12,1.1-1.94.81,1.25-7.1,6.17-8.32,9-11.34,1.18-1.26.88-3.97,2.18-3.7Z"/>
  <path class="cls-6" d="M145.84,121.83c.19-.35,4.03-3.82,4.3-3.34-.03,2.81-1.74,3.45-2.58,5.42-1.46,3.39-1.2,5.56-.86,9.63-2.9.2-1.82-9.92-.86-11.71Z"/>
  <path class="cls-1" d="M168.63,430.45c.06-4.22,5.64-7.29,5.1-11.09-.04-.3-1.68-4.35-.16-3.12,4.28,3.47-2.18,14.82-4.94,14.21Z"/>
  <path class="cls-1" d="M.05,626.18c.41,1.04.13,23.89-2.14,25.09.23-5.47.99-10.87,1.28-16.32.13-2.45-.15-5.17,0-7.53.08-1.22.33-2.6.86-1.24Z"/>
  <path class="cls-10" d="M56.39,160.3c.2,2.4-.26,1.39-1,1.79-3.02,1.63-6.44-.08-9.54,2.4-.37-1.67,2.7-4.19,3.01-4.19h7.53Z"/>
  <path class="cls-4" d="M21.12,140.21c-.95-4.97,5.39-3.86,5.59-2.06.3,2.75-4.64,3.4-5.59,2.06Z"/>
  <path class="cls-6" d="M92.08,581.01c-.24.51-7.53-3.17-6.45-5.01.8.5,8.13,1.47,6.45,5.01Z"/>
  <path class="cls-6" d="M52.51,591.88c-.38.62-6.02-1.11-6.45-3.33,1.91.36,5.85-1.56,6.45,3.33Z"/>
  <path class="cls-11" d="M280.02,313.37c.42,3.56-.86,1.85-1.68,3.83-.87,2.11-.92,6.32-2.19,7.87-.08-4.73,1.07-11.02,3.86-11.71Z"/>
  <path class="cls-10" d="M103.26,5.59c.1.23-.05,1.8,0,2.48-1.12,1.35-5.55-4.25-4.73-5.85.27-.52,1.91,1.86,2.45,2.33.61.53,2.2.86,2.27,1.03Z"/>
  <path class="cls-10" d="M91.65,7.25c.68.4,4.71,2.92,4.72,3.76.06,3.51-5.7-1.97-4.72-3.76Z"/>
  <path class="cls-4" d="M296.79,192.92c-.93-.04-1.87.08-2.8,0-.66-.06-1.7.79-1.5-1.24.91-2,4.35-2.43,4.29,1.24Z"/>
  <path class="cls-10" d="M179.38,71.65c.22,2.23-.25,1.45-.86,2.04-5.44,5.21-3.02-3.11.86-2.04Z"/>
  <path class="cls-11" d="M148.42,88.37c.05-.56.86-2.59,1.29-1.67.19.41-.97,8.84-.43,10.87-1.22-.99-1.05-7.13-.86-9.2Z"/>
  <path class="cls-13" d="M189.7,75.83c.21,3.18-2.47,2.39-3.44,2.5-.23-2.93,2.6-2.28,3.44-2.5Z"/>
  <path class="cls-6" d="M303.67,201.3c1.38,2.81-3.7.28-3.87.82-.6-3.27,3.68-1.2,3.87-.82Z"/>
  <path class="cls-12" d="M215.08,129.36c.31,2.67-1.69,2.4-2.58,2.5-.31-2.67,1.69-2.4,2.58-2.5Z"/>
  <path class="cls-12" d="M309.26,209.66c-.41,2.2-2.58,2.73-2.15,0h2.15Z"/>
  <path class="cls-5" d="M40.47,765.86c.24,1.4-1.27,3.26-1.71,3.78-.56.65-.84,1.7-1.73,1.23l3.44-5.01Z"/>
  <path class="cls-6" d="M624.92,743.28l-3.44,65.24h-1.29c.06-2.91-.1-5.87,0-8.78.62-18.08,2.68-37.07,3.87-55.22.07-1.14.3-2.66.85-1.24Z"/>
  <path class="cls-6" d="M670.08,576c-5.68,11.02-10.2,32.02-18.82,34.9-1.36.45-2.95-.27-4.1.39s-1.5,4.15-2.88,4.01c.76-9.01,4.89-5.93,8.19-7.06,5.27-1.8,10.39-19.6,13.95-27.24.92-1.97,2.2-5.24,3.66-5Z"/>
  <path class="cls-6" d="M619.33,696.44c-.64,6.68-4.36,9.93-1.72,17.14.46,1.25,4.85,7.05,3.87,8.78-1.38,2.44-7.53-9.97-6.12-17.32.2-1.03,3.27-10.08,3.97-8.6Z"/>
  <path class="cls-13" d="M689.87,515.77c3.04-9.28,5.46-11.65,8.41-23.41.3-1.2-.09-2.1,1.05-1.67-.1,2.46-.58,5.26-1.08,7.51-1.69,7.57-5.27,12.77-8.38,17.57-1.36,4.14-1.22,2.29-3.01,4.18.75-1.16,1.42-2.57,2.17-3.72.27-.41.73-.29.84-.46Z"/>
  <path class="cls-6" d="M773.72,463.92c.19,1.73-.44,1.94-.99,2.67-1.03,1.36-7.32,6.04-8.04,4.85-.16-1.56.37-2.08.98-2.68,1.94-1.95,5.85-2.58,8.05-4.84Z"/>
  <path class="cls-6" d="M750.07,472.28c-.09,2.85-1.89,2.74-3.02,4.57-1.31,2.11-1.42,5.79-2.99,6.3-.46-6.39,2.95-11.39,6.02-10.86Z"/>
  <path class="cls-5" d="M637.83,631.2c-.39,3.05-2.31,4.03-3.2,6.73-.99,2.97-.83,7.22-2.38,9.16,0-6.41,1.93-15.04,5.58-15.89Z"/>
  <path class="cls-11" d="M672.66,562.61c-1.52,3.39-1.33-10.27-1.28-11.28.13-2.74.51-7.76,1.94-8.77-1.74,6.84-.61,12.9-.65,20.05Z"/>
  <path class="cls-6" d="M794.8,464.76c.59,1.02-.7,2.22-1.05,2.56-.46.45-5.2,4.54-5.4,4.13-1.51-3.1,6.07-7.34,6.45-6.68Z"/>
  <path class="cls-13" d="M624.49,677.2c.29.57-1.56,5.04-1.9,5.94-.16.41-.48,3.1-1.11,1.58-.73-1.77,2.4-8.74,3.01-7.52Z"/>
  <path class="cls-6" d="M736.31,484.83c-.22,1.53-1.25,1.79-1.73,2.89-.58,1.32-.54,3.45-1.27,3.79-.39-4.88.45-6.95,3.01-6.68Z"/>
  <path class="cls-5" d="M712.66,493.19c.81,1.35-2.2,3.56-2.58,3.34-.3-2.38,2.21-3.95,2.58-3.34Z"/>
  <path class="cls-5" d="M686.85,519.95c-1.01,1.55-2.07,4.59-3.44,5.01.89-2.31,2.22-3.72,3.44-5.01Z"/>
  <path class="cls-7" d="M676.96,533.33c-.25-.38,1.26-2.61,1.71-2.09-.55,1.03-.9,2.43-1.71,2.09Z"/>
  <path class="cls-7" d="M680.41,529.15c-.46-.43,1.62-2.26,2.14-2.09l-2.14,2.09Z"/>
  <path class="cls-13" d="M621.27,685.56c.28.28.28.56,0,.84v-.84Z"/>
  <path class="cls-11" d="M673.74,540.86c.28.28.28.56,0,.84v-.84Z"/>
  <path class="cls-5" d="M675.03,539.21c.43.75-.65,2.12-.64,1.25l.64-1.25Z"/>
  <path class="cls-5" d="M675.89,536.7c.43.75-.65,2.12-.64,1.25l.64-1.25Z"/>
  <path class="cls-5" d="M676.53,535.01c.2.39-.4,1.33-.43.42-.01-.29.33-.61.43-.42Z"/>
  <path class="cls-7" d="M676.53,535.01c-.2-.39.4-1.33.43-.42.01.29-.33.61-.43.42Z"/>
  <path class="cls-4" d="M785.34,125.17c-.07.42.06,1.14,0,1.67-1.2.51-1.2-.65-1.72-1.67h1.72Z"/>
  <path class="cls-6" d="M731.15,361.87c-.28-.51,1.78-9.06,2.03-10.69.97-6.42.66-10.51.77-16.9,1.01,3.29,1.58,8.24,1.47,12-.07,2.14-2.34,19.05-4.26,15.59Z"/>
  <path class="cls-1" d="M759.1,388.64c-.54-3.68,2.54-3.54,2.96-6.44.33-2.29-1.04-6.14-.16-8.6,2.06,6.84,2.85,16.36-2.79,15.05Z"/>
  <path class="cls-10" d="M674.38,378.6c.98,6.14.85,13.34,1.83,18.6.27,1.45,1.01,2.01,1.18,2.73.45,1.93-1.41,1.94-2.03-1.07-.88-4.25-.98-14.98-1.4-20.27h.43Z"/>
  <path class="cls-10" d="M671.8,439.66c-3.57-2.62-.43-12.77,1.94-15.03-1.09,5-2.52,9.21-1.94,15.03Z"/>
  <path class="cls-10" d="M675.67,446.36c-1.46,4.73,1.67,14.01-1.29,15.88.23-5.48-1.03-8.91.23-14.22.3-1.25-.07-2.07,1.06-1.66Z"/>
  <path class="cls-12" d="M730.29,313.36c-.25.51-1.92-1.34-2.29-1.82-2.1-2.73-2.76-5.79-2.44-10.72.78.38.37,2.86.9,4.51.47,1.48,4.82,5.98,3.83,8.02Z"/>
  <path class="cls-10" d="M680.4,361.04l-6.02,10.03c.71-5.18,3.17-9.65,6.02-10.03Z"/>
  <path class="cls-11" d="M736.31,328.42c-1.53-2.47-1.81-8.06-2.57-11.71,1.01-2.2,3.31,10,2.57,11.71Z"/>
  <path class="cls-6" d="M747.49,260.68c-1.12,2.41-2.44,6.77-4.3,6.68-.59-1.01,3.11-7.98,4.3-6.68Z"/>
  <path class="cls-11" d="M732.01,273.22c.22,1.64-1.55,3.17-2.14,3.78-3.83,4-.64-5.62,2.14-3.78Z"/>
  <path class="cls-6" d="M697.17,476.46c-1.38,2.77-2.73-6.5-1.71-8.35l1.71,8.35Z"/>
  <path class="cls-13" d="M677.82,407.88c-.67,2.7.05,7.49-1.28,9.19-.08-2.57-.05-4.88.3-7.38.21-1.48-.14-2.17.98-1.81Z"/>
  <path class="cls-13" d="M754.8,245.62c-.51.49-.15,7.98-1.28,5.84-.66-1.25-.54-7.38,1.28-5.84Z"/>
  <path class="cls-5" d="M674.38,378.6h-.43c-.05-.68-1.03-3.06-.21-4.19.3,0,.49,3.24.65,4.19Z"/>
  <path class="cls-10" d="M674.38,373.58c-.15.57-.73-.49-.42-1.66.15-.57.73.49.42,1.66Z"/>
  <path class="cls-6" d="M342.38,32.33c-1.01-4.78-2.3-7.64-1.72-13.38l1.64,7.26c.66,3.11,3.05,6.98,3.51,9.9.8,5.04-2.55-3.29-2.7-3.56-.23-.4-.68-.12-.73-.22Z"/>
  <path class="cls-6" d="M365.59,74.99c.08.14.31,2.5.86,3.77,1.22,2.82,2.79,5.33,4.3,7.53-1.68,6.94-5.97-7.34-6.03-10.87-.01-.73.8-.54.86-.43Z"/>
  <path class="cls-12" d="M375.49,89.21c1.38,1.7,5.62.69,5.1,4.46-.8,5.75-6.2-2.26-5.1-4.46Z"/>
  <path class="cls-1" d="M472.25-3.63c.69,1.51-2.4,7.02-3.04,7.89-.54.72-3.42,4.07-3.84,1.71l6.87-9.6Z"/>
  <path class="cls-6" d="M394.84,90.89c-1.35,9.2.68,4.19,2.57,7.13.73,1.13.35,2.66-.22,2.87-.54.2-3.31-1.59-3.57-3.03-.33-1.89.28-9.28,1.22-6.97Z"/>
  <path class="cls-6" d="M347.97,50.73c-.05-1.16-.33-5.51.43-5.85-.19,4.32,1.71,4.73,2.67,7.77,1.28,4.03.56,7.41-.63,3.72-.74-2.29-1.27-3.94-2.47-5.63Z"/>
  <path class="cls-10" d="M401.66,106.9c.24.76,0,2.24.07,3.21-1.92.5-2.9-4.34-3-7.52.38,2.12,2.84,4,2.94,4.31Z"/>
  <path class="cls-12" d="M333.77,8.92c-.24,1.77.74,6.54-.86,5.85.24-1.77-.74-6.54.86-5.85Z"/>
  <path class="cls-12" d="M189.98,5.28c-.24.49-1.64,2.72-2,1.54.41-5.01,2.81-10.23,3.01-15.15.18-4.38-2.33-11.78-4.09-14.51l-6.65-8.38c8.92.77,16.99,21.62,9.74,36.5Z"/>
  <path class="cls-10" d="M229.82,52.16c1.16,1.4,3.65,1.51,4.91,3.42,1.06,2.56,11,12.64,10.88,13.96-.19,1.96-1,.57-1.42.28-3.41-2.33-6.58-8.72-9.61-12.26-1.3-1.51-4.74-3.55-5.45-5.1-.35-.76-.58-2.1-.07-2.56.4.45.47,1.9.77,2.26Z"/>
  <path class="cls-12" d="M209.92,64.94c-.1-1.53.91-.72,1.38-.6,2.42.6,6.92,2.43,9.3,3.66s2.29,2.91-.09,2.73c-3.49-.26-7.32-3.55-10.59-5.79Z"/>
  <path class="cls-10" d="M194.87,52.41c-1.3,10.24,2.6,6.67,5.49,8.98.51.41,1.08,1.03.53,1.89-3.79-.16-7.14.42-6.89-8.77.05-1.69-.31-2.44.87-2.09Z"/>
  <path class="cls-12" d="M254.21,27.32c-.06.18-1.78,1.59-1.96,1.65-1.57.5-3.88-.47-4.06-4.15,1.07-.05,1.59,1.82,2.76,1.67.87-.11,2.76-3.55,3.25-2.5.06.12.05,3.2,0,3.34Z"/>
  <path class="cls-10" d="M266.26,8.91c-.18-.19-.59-2.18-.43-2.51,2.76,2.62,2.25-2.22,4.3-3.34.42,4.58-1.76,8.09-3.87,5.85Z"/>
  <path class="cls-12" d="M170.35,36.53c.76,1.6-1.32,2.55-1.89,2.46-.43-.07-3.8-1.8-2.83-3.3.92,0,4.21-.24,4.73.84Z"/>
  <path class="cls-12" d="M151,28.99c.51.91-3.42,8.52-3.87,7.52-.48-2.45,3.12-8.84,3.87-7.52Z"/>
  <path class="cls-10" d="M220.24,20.62c0,.55.18.73.43.84,1.52.64,3.22-.88,4.73-.83-1.28,3.92-4.46,2.64-6.45,1.65l1.29-1.66Z"/>
  <path class="cls-6" d="M263.47,15.62c.43,4.79-4.51,5.26-4.51,2.91,0-1.69,3.87-1.04,4.51-2.91Z"/>
  <path class="cls-6" d="M239.59,32.33v2.51c-1.67-.38-3.13,1.44-4.73,0,.87-2.57,3.34-1.23,4.73-2.5Z"/>
  <path class="cls-13" d="M244.32,42.37c.64.66,2.51,3.7,3.01,5.02-.49-.69-5.63-5.17-5.16-5.85.81-.18,1.44.1,2.15.83Z"/>
  <path class="cls-5" d="M245.18,23.13c-.37.72-2.47-2.05-2.15-2.5.8-.82,2.84,1.17,2.15,2.5Z"/>
  <path class="cls-5" d="M239.16,15.6c-.8.22-1.49,0-1.72-1.66.8-.22,1.49,0,1.72,1.66Z"/>
  <path class="cls-1" d="M716.1,140.22c1.24-3.46,4.21-.9,5.39,1.64s1.54,7.69.21,9.68c-1.82,2.73-.97-5.32-.99-5.79-.18-3.36-2.93-6.39-4.61-5.54Z"/>
  <path class="cls-6" d="M694.6,151.94c-1.62-4.67.71-14.32,2.15-11.71.31.56-1.31,4.06-1.31,6.27,0,3.1,1.67,4.62,1.31,7.94-.27.58-1.99-2.05-2.15-2.51Z"/>
  <path class="cls-12" d="M702.77,177.03c.05-.21,1.88-2.08,2.15-1.66l-.85,4.98,3.2.86c.8,7.42-5.71,1.01-4.5-4.18Z"/>
  <path class="cls-11" d="M710.94,255.65c-.37.72-3.39-.77-3.01-3.34,1.08-1.12,4.13,1.15,3.01,3.34Z"/>
  <path class="cls-12" d="M732.87,243.95c.61,4.79-3.17,2.36-3.87-.83l3.87.83Z"/>
  <path class="cls-10" d="M696.75,163.65c.43-.54.72-1.06,1.29-.83l-.86,8.36c-1.56-1.33-.57-5.05-.43-7.53Z"/>
  <path class="cls-13" d="M699.76,125.17c.22-.36,1.17-.26.82,1.17l-1.68,6.35c-.25-1.58.34-6.65.86-7.52Z"/>
  <path class="cls-12" d="M702.41,228.7c.36,1.12,2-.05,1.64,2.69-1.42.15-2.55-2.33-1.93-5.02.46.18.07,1.62.29,2.33Z"/>
  <path class="cls-4" d="M627.51,29.83c-1.73,4.5-6.37,2.91-9.03,3.33-.21-2.41.27-1.38.99-1.78,2.62-1.45,5.31-1.83,8.03-1.55Z"/>
  <path class="cls-4" d="M592.67,46.54c-1.97-.35-4.81,1.44-6.02-2.49,1.81.11,4.73-.45,6.02,2.49Z"/>
  <path class="cls-13" d="M625.35,4.74c.81,1.34-2.2,3.57-2.58,3.33l2.58-3.33Z"/>
  <path class="cls-10" d="M588.8,8.92c.64,1.58-1.49,2.95-1.72,2.5-.51-1.01.86-3.31,1.72-2.5Z"/>
  <path class="cls-13" d="M584.93,13.94c.36.7-.72,3.15-1.28,3.34-.42-1.68.77-4.33,1.28-3.34Z"/>
  <path class="cls-12" d="M595.68,6.41c-.31,1.36-.94,2.77-1.72,2.49.31-1.36.94-2.77,1.72-2.49Z"/>
  <path class="cls-12" d="M322.59,273.22c2.4-.38,5.06,1.66,7.63,1.07.9-.21.9.77.54,1.43-.98,1.82-6.24-.19-7.95.02-1.15.14-3.54,1.93-4.3,1.66-2.78-1.01,2.71-3.19,3.22-3.35.38-.12.78-.82.86-.84Z"/>
  <path class="cls-12" d="M310.98,247.3c-.18,1.37-1.26,1.42-1.94,2.49-.82,1.3-1.56,3.2-2.35,4.63l-3.45,11.27c-.24-8.17,3.46-17.79,7.73-18.39Z"/>
  <path class="cls-11" d="M292.06,292.46c.25,2.16-1.56,3.33-1.68,4.71-.03.4,1.94,6.32-.25,4.48-1.65-1.38-.34-9.9,1.93-9.19Z"/>
  <path class="cls-10" d="M313.13,264.86l-2.58,5.85c-.25-3.13.83-6.08,2.58-5.85Z"/>
  <path class="cls-5" d="M300.66,271.55l-2.14,6.69c-.34-1.45,1.4-8.16,2.14-6.69Z"/>
  <path class="cls-5" d="M295.5,287.44c-1.06,1.95-1.24-3.52.43-4.18-.1.76-.35,4.04-.43,4.18Z"/>
  <path class="cls-12" d="M689.44,220.52c-.5.44-5.21,1.84-3.87-.82,1.34.59,5.34-7.23,6.02-5.86s-1.52,6.14-2.15,6.69Z"/>
  <path class="cls-11" d="M668.36,193.76c.18.33-1.49,7.89-1.5,9.19-1.71-1.44.09-11.81,1.5-9.19Z"/>
  <path class="cls-12" d="M680.4,228.06c-.11,4.18-2.94,2.61-3.87.41l3.87-.41Z"/>
  <path class="cls-13" d="M689,177.03c.09-.19,2.13-1.14,2.58-1.67l-1.94,5.01c-1,.71-.7-3.21-.64-3.34Z"/>
  <path class="cls-6" d="M671.37,212.16c.28.49-.83,3.45-1.09,4.18-.32.91.12,2.19-1.06,1.67-.43-1.75,1.1-7.69,2.15-5.85Z"/>
  <path class="cls-11" d="M677.82,179.54c-.3,1.44.12,6.44-1.29,5.85.05-1.73-.23-6.36,1.29-5.85Z"/>
  <path class="cls-6" d="M682.99,178.7c-.23-2.74.51-4.69,1.71-5.85.25.59-1.01,5.61-1.71,5.85Z"/>
  <path class="cls-5" d="M663.63,224.71l-.86,1.66c-.12-1.75-.04-1.9.86-1.66Z"/>
  <path class="cls-11" d="M784.05,61.62l-4.73,6.68c-.09-4.35,2.81-6.83,4.73-6.68Z"/>
  <path class="cls-5" d="M794.8,55.76l-4.29,7.52c.3-4.04,2.24-7.13,4.29-7.52Z"/>
  <path class="cls-12" d="M782.76,105.1l-.21,5.01c-.83-1.18-.68-3.23-.64-5.01h.86Z"/>
  <rect class="cls-5" x="784.05" y="119.32" width=".86" height="2.5"/>
  <path class="cls-11" d="M132.93,703.12l-3.44-4.17c.75-.63,4.19,2.67,3.44,4.17Z"/>
  <path class="cls-12" d="M143.69,707.31c.41,3.57-3.62.54-3.87-.83l3.87.83Z"/>
  <path class="cls-12" d="M87.35,26.49c-1.84,4.16-2.86,5.14-2.54,11.19.08,1.44,1.67,8.89-.25,8.04-2.32-1.03-1.7-20.86,2.79-19.23Z"/>
  <path class="cls-11" d="M89.07,51.57c.1.23.97,5.62.86,5.85-1.41,3.07-2.46-9.28-.86-5.85Z"/>
  <path class="cls-12" d="M203.9,750.79c-2.11.67-4.16-1.29-6.24-.86-1.31.27-2.26,2.15-3.64,1.7.65-6.05,6.11-3.62,8.38-2.5.6.29,1.34-.01,1.51,1.66Z"/>
  <path class="cls-6" d="M188.76,745.62c-.71,1.05-4.43,1.61-5.5,4.35-.04-6.06,3.86-4.74,5.81-6.67.18.39-.26,2.25-.31,2.33Z"/>
  <path class="cls-5" d="M188.84,768.37c.1,1.44-.98.8-1.5.83-1.67.1-3.63.33-4.94-2.1l6.44,1.27Z"/>
  <path class="cls-13" d="M197.01,769.2c-.68,1.2-2.36-1.63-1.71-3.34.09-.25,2.34,2.24,1.71,3.34Z"/>
  <path class="cls-6" d="M335.49,299.99c-.3,1.68-1.71,1.58-2.44,2.77-.96,1.56-1.85,5.92-2.5,8.12-.33,1.09.07,2.1-1.07,1.65.36-5.99,2.84-11.62,6.02-12.53Z"/>
  <path class="cls-6" d="M150.57,765.86c0,1.54-1.28,1.13-1.84,1.69-.49.5-.08,1.95-.74,1.64l2.57-3.33Z"/>
  <path class="cls-12" d="M237.01,766.69c-.42.46-4.48,3.22-4.94,3.36-1.27.38-.57-1.58.21-2.52,1.09-1.32,3.65-2.76,4.73-.84Z"/>
  <path class="cls-13" d="M121.75,46.56c.06,1.88-.31,4.27-1.28,5.01.06-1.61-.11-5.6,1.28-5.01Z"/>
  <path class="cls-11" d="M131.22,74.16c-.55,1.3-.4,4.55-1.29,5.01-.06-1.95-.28-5.19,1.29-5.01Z"/>
</svg>