<?xml version="1.0" encoding="UTF-8"?>
<svg id="Calque_1" xmlns="http://www.w3.org/2000/svg" version="1.1" viewBox="0 0 1117.1 1117.1">
  <!-- Generator: Adobe Illustrator 29.1.0, SVG Export Plug-In . SVG Version: 2.1.0 Build 142)  -->
  <defs>
    <style>
      .st0 {
        fill: #bceeff;
      }

      .st1 {
        fill: #68bafa;
      }

      .st2 {
        fill: #4074b5;
      }

      .st3 {
        fill: #d49fc0;
      }

      .st4 {
        fill: #64b8fa;
      }

      .st5 {
        fill: #e5f4ff;
      }

      .st6 {
        fill: #d69fc3;
      }

      .st7 {
        fill: #e1f3fe;
      }

      .st8 {
        fill: #66b9fa;
      }

      .st9 {
        fill: #e8f5ff;
      }

      .st10 {
        fill: #65b9fa;
      }

      .st11 {
        fill: #6abcfa;
      }

      .st12 {
        fill: #bbedff;
      }

      .st13 {
        fill: #e7f5ff;
      }

      .st14 {
        fill: #68bbfa;
      }

      .st15 {
        fill: #feffff;
      }

      .st16 {
        fill: #65b8fa;
      }
    </style>
  </defs>
  <path class="st2" d="M762.1,387.1c54.7-3.5,115.2,33.8,152.6,71.1,21.9,21.8,24.2,31,21.4,62.1-2.1,23.8-4.1,60-31.9,67s-62,2.9-91.5,8.6c-44.3,8.5-76.9,40.2-120.6,47.7-30.2,5.2-64.2,4.5-95.2,8.1-46.8,5.5-91.3,21-138.4,13.8s-98.3-20-142.8-31c-41.1-10.1-80.3-26.7-108.3-59.9-46.7-55.3,17.7-86.7,60.3-110.1s66.9-36.3,99-50.6c67.4-30,144.7-28.6,216.7-19.4s85.4,21.1,122.3,9.8,32.1-15.7,56.4-17.3Z"/>
  <path class="st2" d="M759.8,633.2c19.5-2.8,46.4,8.7,63,18.9,21.5,13.2,25.3,42.4-4,47.7-18.4,3.4-36,.2-55.4,6.2-35.4,10.8-75.6,38.7-113.6,32.1-45.9-7.9-61.9-45.5-17-71.3s48.1-10.3,78.8-16.8c16.2-3.5,34.4-14.8,48.1-16.8Z"/>
  <path class="st2" d="M223,615.7c28.9-4.5,32.7,8,53.9,16s35.9-3.4,48.5,17.5c13.6,22.5,6.6,52-19.8,60-21.3,6.5-30-9-48.4-13.8-20.8-5.4-41.6,1.4-50.7-25.2-6.5-19-9.6-50.4,16.5-54.4Z"/>
  <path class="st0" d="M440,417.6c72.6-7.4,147.1,4.9,218.3,17.9,16.3,3.3,31.4,3.5,45.7-5.8,3.9-.7,8.3-3.1,12.1-3.3,68.2-19.1,138.3,10.9,188.1,56,.3.4.8.7,1.1,1.1l1.7,4.4c-2.4,30.8-5.8,58.8-38.9,69.1-21.2,5.5-42.5,10.9-64,15.5-8.7,3-17.8,5-26.4,8.3-38.2,14.5-60.2,36.8-104,41.2-52.9,5.3-99.4,8.7-152.3,17.6-27.6-.6-55.1-5.8-82.6-15.6-60.3-9.1-118.1-21.9-174.2-46.6-14.2-6.2-29.8-13.2-41.3-23.5-4-6.7,1.5-17.3,5.4-23.6,8.9-13.8,26.1-24,40.6-31.4,54.3-27.6,110.9-54.9,166.3-80.2.8-.1,2.2-.9,4.4-1.1Z"/>
  <path class="st4" d="M521.4,639.6c-14.2,2.4-27.5,6-42.4,4.4-57-11.4-117.4-21.1-173.4-36.6-31.5-8.7-62.4-26.5-82.3-52.4v-1.1c12.6,6.7,25.9,14.1,38.9,20,56.8,25.9,107,36.6,168.2,46.2,19.8,3.1,43.7,12.9,64.4,15.9,8.5,1.2,19.1-.1,26.6,3.6Z"/>
  <path class="st9" d="M435.6,418.7l.8,1.4c-51.7,26.2-105.2,48.6-156.3,75.7-24.2,12.9-55.1,26.5-56.8,58.1v1.1c-4.4-5.7-10.2-11.6-8.6-20.1s26.4-27,36.2-33.1,25-14.4,37.3-21c42.1-22.7,100.5-56.2,147.4-62.1Z"/>
  <path class="st4" d="M804.1,572.5c19.6-6.8,31.1-9.5,51.1-14.4,19.2-4.7,28.4-6.9,39.6-24.2,7.9-12.2,8.5-36,10.5-50.5,3,3.6,6.1,5.9,7.2,10.9,2.1,10-2.7,55.1-7.5,64.1s-11.4,6.7-17.9,7.4c-16,1.7-33.3.8-49.5,2.2-11.2,1-22.3,3.7-33.6,4.4Z"/>
  <path class="st9" d="M904.2,482.4c-.9,2.6-3-.3-3.9-1.1-36-32.4-99.1-63.5-148.3-58.1s-23.7,2.5-35.9,3.2h1.1l1.1-1.1c23.9-11.5,40.4-16.8,67.5-13,40.9,5.8,91.7,39.2,118.4,70.2Z"/>
  <path class="st4" d="M704,429.7c-11.8,14.3-33.4,10.1-49.8,7.4-27.3-4.6-50-10.3-78.4-12.9-41.2-3.7-95.9-10.6-135.8-6.6l33.5-4.4c34.5-1.6,69,.3,103.3,4.6,44.3,5.5,82.2,19.7,127.2,11.9Z"/>
  <path class="st0" d="M717.2,426.4c.3-.4.7-.9,1.1-1.1l-1.1,1.1Z"/>
  <path class="st4" d="M774.4,663.8c4.7.6,4.4,3.5,3.4,7.4,7.4-1.5,14.7-2.9,21.9-4.1,1.4.5,15.3,7.5,14.3,8.8-19.2,1.9-38.3,1.5-57.2,7.1-33.7,10.1-82.3,43.4-116.6,27.5-4.5-2.1-11.6-6.4-8.8-11.5,1.7-1.9,2.4-1.5,2.2,1.1l3.2-.4c24.7,10.8,51.9,1.9,76-6.4,18.4-8.1,37.2-14.7,56.1-19.7-5.8-5.6-4-8.3,3.3-9.7.2-2.2,1.3-2.1,2.2,0Z"/>
  <path class="st13" d="M796.4,665.9l-2.9,1.9c-5.5,0-14.9-1.4-19.1-4.1-.7,0-1.5,0-2.2,0-7.4,2.9-15.3,5.2-23.5,6.7l-32.5,10.4c-15.4,5.7-30.5,5.7-46,5.3-11.1,3.7-21.8,8.6-32.4,14.2l-4.1-.4c-.5-.3-1.7-.2-2.2-1.1,2.3-4.3,9.1-8.9,13.3-11.5,24.4-14.6,47-8.5,73.6-14.4,15.4-3.4,26.4-10,40.4-14.6s23.6,1.2,37.7,7.4Z"/>
  <path class="st12" d="M796.4,665.9c1.5.1,2.2.7,3.3,1.1.6,3.1-1.5,2.1-3.5,2.5-2.9.7-20.8,4.8-21.8,4.1,1.3-3.5,3.3-6.8,0-9.9,7.4-.2,14.6,1.6,22,2.2Z"/>
  <path class="st4" d="M238.7,639.6c-1.1,1.4-3.6,1.4-7.7,0,9.7,13.2,23.4,21.8,41.2,25.9,9.1,5.3,18.4,9.1,28,11.4,3.6-2,6.1-2.4,7.8-1-.3,3-1.1,4.9-3.4,7-9.5,8.9-16.3-.5-25-4.5-9.4-4.4-19.2-7.5-29.5-9-10.1-1.4-18.2,2.9-21.9-10s-2.7-16-2.3-18.2,10.8-4,12.8-1.6Z"/>
  <path class="st0" d="M281.6,662.7c4.4,4.3,6.3,4.4,5.7.2l2-1.3c2-1.2,9,1.2,11.6,2.4s5.4,2.9,4.4,4.5l1.6-.2c.7,2.8,1.5,4,1.1,7.7-3.9,2.1-6.5,4-11.3,3.1s-19.9-9.2-25.8-11.6c-14.5-6-31.9-9.1-39.9-24.9s-2.5-2,0-2.8c3.9.5,7.8,1.3,11.4,3,11.5,8.9,23.8,14.8,37,17.8l2.2,2.3Z"/>
  <path class="st5" d="M238.7,639.6c13.3,1.1,26,16.8,45.1,18.7,1,.3.9.7,0,1.1,2.3,2.3.8,3.9-2.2,3.3-19.7-.3-33.1-16.9-50.6-23.1,1.1-.3,6.1-.1,7.7,0Z"/>
  <path class="st7" d="M306.9,668.1c1,4.3-4.7-1.3-6.3-2-5.1-2-6.6-1-11.3-4.6-1.8,2.2-4.1-.5-5.5-2.2v-1.1c12.2,1.2,19.5-5,23.1,9.9Z"/>
  <path class="st2" d="M569.6,563c18.8-1.7,53.5-.7,67.9,12.8,14.2,13.4,1.9,30.1-11.2,38.3-22.4,14-60.8,15.2-84.2,3.2-45.4-23.3-5.5-51.2,27.5-54.3Z"/>
  <path class="st2" d="M685.1,503.6c16.6-1.8,45.3,6.7,43.1,27.6-3.4,31.5-73.2,31.5-73.7-2.1-.3-15.3,17.3-24.1,30.6-25.5Z"/>
  <path class="st2" d="M467.3,508c12.3-1,32,5.4,35.8,18.5,9.2,31.8-43.2,43.9-61.4,20.7-15.3-19.4,5.8-37.6,25.6-39.3Z"/>
  <path class="st2" d="M469.5,477.2c15.4-1.5,23.4,11.5,11.2,22.1-10.5,2.8-21.5,4.1-31.8,7.8s-21.9,15.7-30.2,4.8-3.6-9-.8-13.9c5-9,41.2-19.9,51.7-20.9Z"/>
  <path class="st2" d="M682.8,469.5c9-1.9,47.5,6,53.7,12.9s4,15.6-3.5,18.6-18.3-3-26.8-4.9c-8.5-1.9-17.2-2.2-25.6-4.1-10.5-5.1-9-20.3,2.2-22.6Z"/>
  <path class="st4" d="M512.3,439.8c12.3-2.1,15.7,4.2,14.5,15.5s-10.4,19.5-22.3,12.6-5.9-25.8,7.8-28.1Z"/>
  <path class="st4" d="M338.6,514.5c12.7-1,20.2,10.6,12.8,21.7-13.5,20.1-34.5-4.4-27-14.8s11-6.6,14.1-6.8Z"/>
  <path class="st4" d="M615.3,466.7c-3.9-3.4-9-12-6.4-17.2s8.5-6.8,10.4-7.2c25.3-6,16.4,42.2-4,24.4Z"/>
  <path class="st3" d="M418.8,565.1c9.8-1.6,20.3,0,17.9,12.4s-13.2,6.6-18.1,6.1-21.1-6-16.6-12.2,15.1-6,16.8-6.2Z"/>
  <path class="st3" d="M758.7,553c4.6-.7,20.6-1.5,21.2,4.7s-1,6-1.7,7.1c-1.8,2.7-15.5,4.9-19.1,5-11.4.2-19.6-13.9-.4-16.7Z"/>
  <path class="st16" d="M866.5,496.9c15.6-1.8,9,25.6-4.1,17.9-9.4-5.6-6.2-16.7,4.1-17.9Z"/>
  <path class="st16" d="M546.3,432.2c14.7-.9,11,27.1-5.1,16.6-8.3-5.4-4.4-16.1,5.1-16.6Z"/>
  <path class="st8" d="M317.6,550.3c-5.9,6.1-20.4-14.2-3.6-14.1s7,10.6,3.6,14.1Z"/>
  <path class="st8" d="M334.1,503c-6.2,7.3-16.5-12-3.6-11.9,6.2,0,6,9,3.6,11.9Z"/>
  <path class="st8" d="M650.9,470.6c1.3,1.3,1.1,8.7-.4,9.7-5.7,4.2-15.2-4.4-9.5-9s8-2.8,10-.8Z"/>
  <path class="st14" d="M536.5,470.5c1.3-.4,2.5-.5,3.7.3,2.4,1.8.9,10.6-2.8,10.6-6-1.3-6.6-9.3-.9-10.9Z"/>
  <path class="st0" d="M772.2,663.8l-4.5,2.9c-.8,4.5,6.2,6.4,4.5,8.1s-15.7,3.9-18.7,5c-31.8,11.7-87.3,40.1-119.9,20.3,5.3-2.5,10.4-5.5,15.7-7.9s17.5-7.7,21.4-8.3c5.8-.9,10.6.8,15.1.6,30-1.4,56.6-18.4,86.3-20.7Z"/>
  <path class="st1" d="M289.3,661.6c2,9.8-8.2,7.6-7.7,1.1s1.8-2.3,2.2-3.3c3.6-.9,3.9,1,5.5,2.2Z"/>
  <path class="st11" d="M290.6,668.3c.6-1,5.8-2.1,6.3.5s-1.5,6.8-2.7,7.1c-2.8.6-5-5.4-3.7-7.5Z"/>
  <path class="st6" d="M578.3,579.4c7.2-1,22.7-.2,26.5,7,5.2,9.8-12,20.3-20.5,21.1-19.8,1.8-34.9-24.1-6-28.1Z"/>
  <path class="st15" d="M681.7,511.3c7-1.4,21.4-.6,22.9,8.5,2.6,15.8-37.5,16-32.3-1.4.8-2.6,6.8-6.6,9.4-7.1Z"/>
  <path class="st15" d="M462.8,515.7c19.5-3.6,27.8,14.7,10.8,19.6-20.6,5.9-28.8-16.2-10.8-19.6Z"/>
  <path class="st10" d="M675.1,684.9c19.3-4.1,6.7,28.7-7.5,14.7s.7-13.2,7.5-14.7Z"/>
  <path class="st14" d="M700.7,687.9c2.6,8.2-9.1,10.8-9.7,3.6s6.9-3.9,9.7-3.6Z"/>
</svg>