<?xml version="1.0" encoding="UTF-8"?>
<svg id="Calque_1" xmlns="http://www.w3.org/2000/svg" version="1.1" viewBox="0 0 1117.1 1117.1">
  <!-- Generator: Adobe Illustrator 29.1.0, SVG Export Plug-In . SVG Version: 2.1.0 Build 142)  -->
  <defs>
    <style>
      .st0 {
        fill: #bceeff;
      }

      .st1 {
        fill: #4074b5;
      }

      .st2 {
        fill: #d49fc0;
      }

      .st3 {
        fill: #64b8fa;
      }

      .st4 {
        fill: #d69fc3;
      }

      .st5 {
        fill: #fff;
      }

      .st6 {
        fill: #a6ddf7;
      }

      .st7 {
        fill: #8fbfe4;
      }

      .st8 {
        fill: #66b9fa;
      }

      .st9 {
        fill: #e8f5ff;
      }

      .st10 {
        fill: #5498d9;
      }

      .st11 {
        fill: #65b9fa;
      }

      .st12 {
        fill: #579bdb;
      }

      .st13 {
        fill: #80b2dc;
      }

      .st14 {
        fill: #5296d8;
      }

      .st15 {
        fill: #7fb1db;
      }

      .st16 {
        fill: #e7f4ff;
      }

      .st17 {
        fill: #65b8fa;
      }
    </style>
  </defs>
  <path class="st1" d="M932.8,741.8c-.4,11.5.5,23.1,0,34.7-.8,20.2-2.5,45.8-5.7,65.8-2.2,13.6-6.5,24.3-17.5,33.1-17.8,14.3-90.9,40.3-113.9,42.3-9.4.8-20.2-1.3-29.4,1.4s-10.9,7.3-16.6,9.5c-8,56.8-16.5,124.4-81,142.4-27.8,7.7-44.2,6.5-61.4-17.8-15.9-22.5-24.2-53-31.1-79.4-21.4,4.8-39.4-5.2-58.7-12.2-9,29.5-15.5,61.1-32.5,87.4-17.2,26.7-32.2,30.2-62.7,22-77.2-20.9-77.2-112.4-85-177.2l-110.4-58.4c-11.2-6.6-20.6-15.6-26.9-26.9-13.6-24.4-8.3-55.2-13-82.1-25.1,11.8-42.5,23.2-69.2,7.1-72.9-44.1-2.5-171.4,36.2-218.6-1.1-19.4-4.7-38.8-5.5-58.2-1.3-32.9,11.6-89.7,22.5-121.4,13-37.7,65.5-63.7,92.4-93.4,39.2-43.1,49.1-85.5,105.7-115.2,48.4-25.4,101.1-46.5,150.2-70.8,21.7-6.7,44.1-5.5,65.2,2.5,57.4,21.8,114.3,56,171.8,79,38.8,21.6,57.9,78.3,87.8,111.2,32.8,36,100.9,69.6,108.2,120.4,7.3,50.2,7.1,103.8,13.8,154.3,7.2,12.6,17.5,23.6,25.7,35.9,23.9,35.8,64.6,113.7,44,155.7-15.7,32.1-50.1,47.6-84.6,36.4-7.3-2.3-11.9-6.7-18.7-9.3Z"/>
  <path class="st0" d="M948.2,541.8c5.1,9.6,11.1,19,17.9,28.2,8.5,22.4,17.6,44.5,27.2,66.5,9.9,25.7,20.1,56.3,9.9,82.3-.4.4-.7.8-1.1,1.1-7.4.3-12.1.2-18.9-3.6-29.6-16.7-50-55.3-63.3-85.4-4.6-10.5-6.9-18.7-6.7-30.1-.8,1.5-1.6,2-3.5,1.6-2.2-2-2-4.6-1.8-7.2-4.7,13-5.2,47.6-3.8,62.8.3,3.8,2.6,19.3,6.3,9.8l2.6-.5c.4-2.5,1.1-3.3,2.2-2.2l2.7,1.3c2.6,10.3,5.8,20.5,9.6,30.5l-1.2,2.3c-16.6-3.7-18,10.9-17.6,23.7.4,15.5.6,28.8,0,44.5-1.1,25.3-9.4,46.8-25.8,65.5l-2.8.5c-2-1.1-2.7-3.2-2.2-6.5-18.7,4.7-63.3-20-72.8-34.5s-.1-2,.2-2.9l-3.6-.8c-23.1-32.5-32.9-73.2-41.7-111.5.4-9.9-18.9-41.9-7-13.5,13.7,52.2,22.2,108.3,12.7,162-1.2,7.1-5.6,28.8-9.9,32.7s-1.4,1.1-2.2,1.5l-1.3,2.1c-1.3.8-15.1,4.7-16.7,4.6-4.2-.3-25-9.3-28.9-11.1-15.6-7.4-29.1-16.6-41.1-29.1-41.2-42.8-69.6-91.9-97.4-143.5l-3.9-12.8-1.1.8-2-.2c9.7,70.6,5.4,143.6-12.5,212.7-1.6,6.3-7.5,24.9-12.1,29.9s-6.4,6.3-8.6,2.7c-1.4-1.1-1.8-2.9-1.3-5.6-15,2.3-21.9-6.2-30.7-17.2-38.9-50.8-67.5-114.2-78-178.8-6.4-39.4-11.5-78.5-15.7-118.2s-2.2-24.2-.8-36.2l-2.3-1.1c.7-9.8-1.5-13.3-6.5-10.4,4.7,63.5-16.9,136.7-54.1,189.2-19,26.8-63.2,73.7-99.5,55.2-7.7-3.9-19-11.4-21.3-19.6,1.7-2.5,2.5-5.1,2.2-7.9-9.1-40.5-13.4-85.1-7.6-126.5l-1.2-1.9c-1.2-3.5-.8-6.1,1.1-7.7-1.1-17.2-1.8-34.8-2.2-52.7-.9-1-1.3-.6-1.1,1.1,2.3,18.6.8,37.3-4.4,56,1,.3.9.6,0,1.1-1,6.4-6.3,14.8-10.3,20.4-11.5,16.3-43,31.6-62.9,32.1-6.5.1-17.4-.3-20.3-6.4-.8-6.2-2.6-13.5,0-19.8,2,1.9,2.8,4.8,2.2,8.8,13.8-44.9,29.5-90.2,55.4-129.3,13.7-11,17.7-24.9,14-41.8.9-25.2,3.9-53.8,7.2-78.9,5.4-40.3,14.1-62.3,43.2-91.2,38.4-31.4,70.8-65.2,95.8-108.7,13.2-21.7,28.2-36,48.7-50,49.8-34.1,102.9-61.6,156.4-89l10.7-2.7-2.4-2c10.1-3,22.1.8,31.9,3.9,53,26.2,109.4,47.9,162.1,74.3,14.8,7.4,22.4,12.3,32.4,25.9,20.7,28.2,37.8,64.6,62.3,89.4,24.4,24.6,91.2,67.3,97.3,99.5l14.5,161.3c.4,4.6,2.7,8.1,5.4,11.7Z"/>
  <path class="st3" d="M401.5,559.4c-3.4,60.9,3.8,124.3,15.9,184.5,10.9,54.1,39.3,109.2,70.6,154.3,6.8,9.8,26.4,29.8,37.7,17.4h2.4c8.5-1.7,10.8-10.9,13.5-17.9,19.2-50,25-135.9,21.7-189.3-.9-14.2-3.6-28.5-4.1-42.7l3-2.9,1.1,7.7,1.4.5c24.5,74.3,69.7,167.5,147.4,197.6,12.8,5,45.1,13.8,41.5-9,6.5-15.1,9.9-31.7,12-47.9,5.8-46.7-2.2-101.5-14.4-146.8-.9-3.5-6.2-9.5-3.6-13s6.5,1.9,7.8,4.5c7.1,14.4,8.6,30.5,12.7,45.5,7.1,25.6,19.6,67.6,37.3,87.4.6,6,4.3,11,11.1,15.1,14.6,18.5,35,34.2,59.6,30.6,1.2-1.8,2.5-2.3,4.1-1.7,3.6-6.9,7.3-9.4,11.4-15.5,10.2-14.9,13.1-33.2,17.2-50.5-.8,22.9-1,53-5.6,75.2-3.5,16.8-22.9,22.6-37.3,28.6s-51.3,20.4-69.9,22.4c-13.4,1.5-27.7-1.1-40.8,4.3-4.2,1.7-25.4,14.8-27.3,17.8-2.3,3.6-3.4,15.9-3.9,20.8-18,15.5-42.5,26-64.8,34.7-6.7,2.6-13.5,5.2-20.6,6.2,4.8,31.1,30.7,41.1,59.3,40.3.3,1.1.9,1.9,1.9,2.3.3-1,.7-.9,1.1,0-12.2,18.3-35.5,31.7-57.9,31.8-14,0-28.1-35.3-32.3-46.6-6.1-16.3-8.8-34.8-14.6-50.3s-25.8-.3-39.6-4.4l-47.5-17.1c-5.1.3-8.7,3-11.3,7.2-8.6,31.3-15,70.2-33.5,97.4-9.6,14-14,14.6-30.6,11.2-22.1-4.5-37.9-17.3-48.4-36.9l2.5-2.5c28.2-4.5,55-23,66-49.8-31.9-8.5-66.3-20.5-89.5-45.5v1.1c-3.4-10.3,1-30.9-7.1-38.5-34.7-19.6-71.1-36.3-105.8-55.8-27.8-15.6-33.5-20-36.7-52.9,3.2-.2,4.5,1.4,3.3,4.4,27.1,28.1,46.4,28.5,78.4,5.3,61.7-44.7,97.7-148.3,95.4-222.4-.1-3.7-3.5-9.4,1.6-10.4s5.7-.4,6.7,1,1.3,10.9,1.6,13.3Z"/>
  <path class="st9" d="M542.3,75.8c4-.2,8.1.1,12.1,0,2.5,1.8-18.7,6.3-20.1,6.9-14.3,6.1-29.7,16.9-44.4,23.7-35.1,16.2-59.5,31.3-91.6,52.4-15.2,10-33.8,20-45.8,33.4-27.8,31.1-45.2,71.2-75.3,99.5-26.6,25-60.3,47-74.2,81.9-10.7,26.8-11.2,49.8-13.8,77.5s-4.9,31.3-4.3,47.1,3.7,12.3-1.2,25.5c-4.2,11.3-8.5,11.4-14.2,18.8-12.3,15.9-33.2,64.6-40.6,84.7-6.1,16.5-8.8,34-16.8,49.7-1.9.3-1-2.5-1.1-3.8-.1-4-.2-8.7,0-12.6,2.2-37.1,29-85.1,50.2-115.3,3.8-5.4,16.8-19.4,17.6-24.3-1.2-19.9-5.3-40-6.2-59.9-1.4-31,6.5-64.5,14.4-94.4,5.6-21.2,6.5-31.8,23-47.4,30.6-28.9,59.8-46.2,86.2-80.9s41.6-68.6,86.4-91.7c41.2-21.2,87.8-43.5,130.2-62.3s17.5-8,29.3-8.6Z"/>
  <path class="st0" d="M385,1012.1c-.4-.7-.7-1.5-1.1-2.2.5-8.7-1.4-17-5.7-25.1-4.8-23.4-9.5-46.9-14.1-70.5,0-.7-.5-2.2.5-2.2,17.2,18.3,42,30.8,65.7,38.8,3.8,1.3,25.8,6.6,26.1,8-10.3,28.3-41.7,50.3-71.4,53.2Z"/>
  <path class="st0" d="M723.8,936.3c-.3,2.4,1,6.1-1.1,7.7-2.2-.4-.4-4.5-.8-2.6-1.2,4.8-2.4,9.7-3.6,14.5-4.9,21.1-9.7,39.8-18.2,59.9.2,1.4,0,2.8-.5,4.1-12.4-.8-30.5-1.1-41.1-7.9-12.9-8.3-21.2-20.2-21.6-36,30.8-8.7,59.5-23.4,86.8-39.6Z"/>
  <path class="st3" d="M909.7,602.2c.5-1.3,3.6-6.6,5.5-4.4s.5,13.9,1.4,17.8c3.4,14.5,28.4,60.5,38.2,72.8s27.8,27.3,36,28.9c4,.8,9.3-1.5,11.3,2.4-16.7,14.8-39.1,14.9-56.1.6-3.6-3-17.5-18-19.8-21.4s-9-27.2-11-34.1c-1.1-.7-1.8-2.5-2.2-5.5-2.8-1.6-2.8-2.8,0-4.4-2.7-16.1-4.9-33.3-4.5-49.6,0-.7.5-1.4,1.2-2-1-.2-.9-.6,0-1.1Z"/>
  <path class="st3" d="M204.6,634.1c1.9,0,3.8.7,5.5,2.2l2,1.4c-3.2,18.3-6.3,36.6-9.5,54.8l-2.4.9c-2.1-.4-6.7-.1-8.9.5-4,1.2-17.6,12.1-23.4,15.1-15.3,7.9-25.4,13.1-40.7,1.8-10.8-8-14.4-17.7-16.1-30.6,13.3,6.3,25.9,4.7,39.6.6,8.9-2.7,30.5-15,36.9-21.4s10.6-17.7,17-25.3Z"/>
  <path class="st9" d="M1003.2,718.7l2.3-25.8c-2.9-42.5-27.2-80.2-40.6-120-3.4-9.5-11.5-17.4-16-25.8s-2.7-4.5-.7-5.4c27.6,37.3,51.1,67.1,64.1,113.4,6.9,24.6,11,44.2-9.1,63.5Z"/>
  <path class="st9" d="M211.2,636.3c1.1,0,2.2,0,3.3,0,.8,1-2,18.7-2.2,21.4-1.7,25.3,1.8,55.6,4.5,81.2s7,24.5,5.1,30.7-2.3,2.9-4.2,3c-1.4-1.5-2.4-2.5-3.3-4.4-1.9-19.6-2.2-41.5-5.8-60.7-.9-5-2.5-12.8-8.5-14l9.9-57.1c.3-1,.7-1,1.1,0Z"/>
  <path class="st16" d="M364.1,914.3c10,20.5,9,45.7,15.5,67.5,3,10,6.9,12.4,6.5,24.3,0,2.1,1.1,4.4-2.2,3.8-10.8-21.6-20.7-70.5-19.8-94.5s0-.7,0-1.1Z"/>
  <path class="st16" d="M722.7,944c.5,20-10.8,59.1-22,75.8h-1.1c-2.7-2.6-1.8-4-1-7,2.3-9.5,7.1-17.3,10.1-26.2,4.2-12.5,6.8-34.8,12-45.1s.8-1.9,2-1.9c0,1.5,0,2.9,0,4.4Z"/>
  <path class="st1" d="M498.8,375.3c9.2,0,26.5,13,36.6,16.7,17.1,6.4,33.2,5.7,50.1-1.1s41.5-31.4,39.2,7.3c-2.4,39.4-16.9,71.7-58.8,78.6-39.4,6.4-67.1-13.2-78-50.4-3.9-13.2-11.5-51.1,11-51Z"/>
  <path class="st1" d="M699.3,342.1c63.6-8.7,68.6,91.4,10.7,95.3-58.3,3.9-63.5-88.1-10.7-95.3Z"/>
  <path class="st1" d="M433,354.2c44.8,45.7-23.7,116.6-64,66.7-36.7-45.5,23.9-107.5,64-66.7Z"/>
  <path class="st9" d="M528,915.4c-2.3,6.1-10.3,7.2-16,5.6-9.1-2.6-20.7-14.6-26.3-22.2-30.8-41.8-63.1-110.1-71.8-161.2-9.3-54.6-18.7-114.5-14.6-170,.2-2.4.8-6.3,2.2-8.3,1.5,12.7,2,26.1,3.3,39,4.3,43.6,10.1,86.4,17.9,129.4s33.2,100.5,59.7,142.5c5.1,8.2,23.9,34.3,32.3,37s18-4.4,13.3,8.2Z"/>
  <path class="st9" d="M753.5,859.4c7.2.7.4,13.3-4.1,15.1-20.9,8.2-55.3-10.7-72.3-22.8-48.2-34-77.6-87.4-100-140.7-3.8-9.1-13.7-32-13.8-40.6s0-2.9,0-4.4c1.1-1.5,5.3,12.6,6.2,14.2,3.6,6.5,7.1,11.8,10.8,18.9,22,41.7,47.9,84.4,80.3,118.7,19.9,21.1,36.4,33,63.9,41.7,3.6,1.1,6.4,4,9.8,4.5,7.6,1,11.9-5.2,19.3-4.4Z"/>
  <path class="st3" d="M458.4,151.9c12.1-2.5,14.2,1.9,21.2,9.1s3.6,2,5,3.8c7.9,10.4-2.7,35.3-15.7,37.1-15.5,2.2-25.4-17.3-26.4-30.3s8-18.1,15.9-19.7Z"/>
  <path class="st1" d="M416.7,265.1c15.6-1.5,23.2,11.4,11.2,22.1-10,2.5-20.4,3.8-30.2,7.2s-17,9.4-21,9.9c-11.4,1.5-18.5-12.8-9.2-21.3s38-16.8,49.2-17.9Z"/>
  <path class="st1" d="M675.7,276.2c.7-.8,4.8-3.2,5.9-3.4,8.8-2,44.6,5.7,52.1,11.3s7.3,14,.5,19.3-16.8-1.1-24.5-3-27.2-3-32.1-6.4-6.1-13-1.9-17.7Z"/>
  <path class="st3" d="M605.8,177.2c9.2-1.5,17.5-.7,22.1,8.2,12.2,23.4-16.7,44.9-32.2,23.4-3-4.3-6-14.6-4.2-19.3s8.9-11.3,14.3-12.2Z"/>
  <path class="st3" d="M858.8,747.5c8.7-1.5,14.1,7.9,13.4,15.6-.8,9-5.7,23.2-15.9,24.8-20.5,3.2-22.9-21.7-11-32.9,2.2-2.1,10.7-6.9,13.5-7.4Z"/>
  <path class="st3" d="M279.9,355.6c-10.4-7.7-14.7-18.8-2.6-27.5,20.9-14.9,35.7,6.4,22.8,25s-12.3,8.3-20.2,2.5Z"/>
  <path class="st9" d="M880,833c-3,5.7-7.1,5-13.6,4.3-25.9-2.9-35.6-13.6-51.3-31.2-3-3.4-16.5-11.3-9.9-17,13.1,14.7,45.3,34.9,65.6,36.2,6.8.4,10.1-5.2,9.2,7.7Z"/>
  <path class="st3" d="M684,737.7c7.3-.8,15-.3,19.4,6.3,12.8,19.3-22.3,28.4-31.1,17.9-11.2-13.3-4-22.5,11.7-24.3Z"/>
  <path class="st3" d="M495.8,753.1c14-2,24.5,5.6,20.6,20.6s-36.1,11.1-33.6-10.5c.8-6.8,6.8-9.2,13-10.1Z"/>
  <path class="st2" d="M300.6,472.2c-12.7-12.4,21-20.1,28.9-19.6,14,1,8.4,19.5-3.9,22.6s-20.8,1-25-3.1Z"/>
  <path class="st3" d="M262.6,721.2c12.7-2.6,17.7,3.6,16.8,15.7s-8.6,17.2-19.3,11.5c-9.3-4.9-8.8-24.9,2.5-27.3Z"/>
  <path class="st15" d="M909.7,602.2c0,.4,0,.7,0,1.1-2.5,8.5-.4,25.4.9,36.7.6,5,1.4,10,2.4,14.9,0,1.5,0,2.9,0,4.4,1,2.7,1.7,5.3,0,7.7-.9,1.6-1.8,6.8-4.5,6.2-9-2.3-6.4-24.9-6.5-32-.3-17.5-.4-31,4.2-48.4s5.1-18,6.7-15.8c-1.1,8.6-2.8,16.4-3.3,25.3Z"/>
  <path class="st2" d="M775.2,444.3c4.3-.7,24.2-1.4,26.1,1.9s0,8.3-2.8,10.4c-6.4,4.8-34.9,5-33-6.5s6.8-5.3,9.7-5.8Z"/>
  <path class="st3" d="M868.6,555.3c13.8,13.7-26.5,33.6-21.5,2.4,1.4-9.1,17.3-6.6,21.5-2.4Z"/>
  <path class="st3" d="M513.4,137.6c19.2-3.1,13.3,21.6,1.8,22.5-17.9,1.4-18.7-19.7-1.8-22.5Z"/>
  <path class="st17" d="M710.3,657.4c10.4-1,21,7.4,9.7,15.2-17.6,12-23.2-13.9-9.7-15.2Z"/>
  <path class="st13" d="M212.3,628.6l-2.3-1.1c-1,4.2-2.8,6-5.4,5.5-.9-10.1,2.4-22.2,3.3-32.4s0-15.4,1.1-23.6c-.9-1.8-.5-2.3,1.1-1.1,3.5,15.1,3.5,31.3,3.3,46.7s.7,4.9-1.1,6Z"/>
  <path class="st11" d="M650.9,224.4c4.4,4.3-2.7,18.5-10.2,14.1s-7.3-8.2-7.7-9.9c-1.5-6.6,15.1-7.1,17.9-4.2Z"/>
  <path class="st11" d="M300,300.2c13.2-1.2,4.2,25.8-4.6,16.2-5.5-6-4.7-15.4,4.6-16.2Z"/>
  <path class="st8" d="M263.7,360.6c9.9-1.6,8.1,17.5-.2,17.5s-9.3-16,.2-17.5Z"/>
  <path class="st8" d="M487,204.6c12-3.4,8,15.4,1.9,16.3-8.1,1.2-8.9-14.3-1.9-16.3Z"/>
  <path class="st10" d="M204.6,633c3.1-3.8,4.4-9.6,4.4-14.3,2.9-.2,1.8-.1,2.2,1.7s.9,5.8,1.1,8.2,1.8,6.8-1.1,7.7c-.4,0-.8,0-1.1,0-1.6.5-2.4,2.8-4.4,2.2.7-1.8-1-3.5-1.1-4.4s0-.7,0-1.1Z"/>
  <path class="st6" d="M915.2,664.9c-.6.7-1.8,1.4-2.2,2.2,0-2.6,0-5.1,0-7.7,1.7,1.4,1.6,3.6,2.2,5.5Z"/>
  <path class="st7" d="M210.1,575.8c-.5.1-1,.6-1.1,1.1-1.8-.9-1-3.7-1.1-5.5,1.5-.3,1.8,2.7,2.2,4.4Z"/>
  <path class="st14" d="M698.5,916.5c3.5,3.7-10.8,11.8-13.6,13.4-13.2,7.6-48.3,22-62.9,20.7s-13.3-6.3-3.8-10.5l80.3-23.6Z"/>
  <path class="st14" d="M389.9,897.9c.8,0,11,6.7,14.2,7.7s6.4.8,9.2,1.8c15.1,5.3,29.9,11.6,45.2,16.4,5.1,2.2,7.6,8.5,6.2,13.7-1.1,1.5-3.7,1.2-5.3.8-2.6-.5-12.2-4.3-15.4-5.5-12.8-4.9-30.5-13.4-42.3-20.4-1.6-1-12.5-9.3-13-10.1-1.1-1.7,0-4.4,1.1-4.4Z"/>
  <path class="st12" d="M909.7,603.3c-.7,18,2.8,34.1,3.3,51.6-2.4-6-3.8-13.9-4.4-20.3s-1.1-19.3-1.1-27.5c0-2.1-1-4.4,2.2-3.8Z"/>
  <path class="st4" d="M589.2,445.8c-16.2,17.2-56.7,20.8-69.8-1.4-13.6-23.1,33.5-25.5,46.4-24.4s40,8.3,23.4,25.8Z"/>
  <path class="st5" d="M687.9,358.6c16.3-17.3,48.9,5.8,29.2,23.2-17,15-45.2-6.2-29.2-23.2Z"/>
  <path class="st5" d="M395.7,353c25.8-3.5,31.8,29.6,7.2,33.5s-32.9-30-7.2-33.5Z"/>
</svg>