<?xml version="1.0" encoding="UTF-8"?>
<svg id="Calque_1" xmlns="http://www.w3.org/2000/svg" version="1.1" viewBox="0 0 1117.1 1117.1">
  <!-- Generator: Adobe Illustrator 29.1.0, SVG Export Plug-In . SVG Version: 2.1.0 Build 142)  -->
  <defs>
    <style>
      .st0 {
        fill: #bceeff;
      }

      .st1 {
        fill: #4074b5;
      }

      .st2 {
        fill: #64b8fa;
      }

      .st3 {
        fill: #b7ecfd;
      }

      .st4 {
        fill: #d69fc3;
      }

      .st5 {
        fill: #fff;
      }

      .st6 {
        fill: #e8f5ff;
      }

      .st7 {
        fill: #65b9fa;
      }

      .st8 {
        fill: #65b8fa;
      }
    </style>
  </defs>
  <path class="st1" d="M218.2,873.3c-23.1-22.9-19.4-44.5-22.4-73.8-9.7-95.9-37.2-196.4-40.7-291.2-1.2-33.8,11.7-98.9,24.5-130.6s57.3-56.1,79-76.1c43.8-40.4,57.1-94.3,114-124.6,45.9-24.5,96.8-43.6,143-68.1,24.2-11.2,49.5-11.2,74.4-2.1,58.6,21.6,117.7,57.7,176,81.3,32.8,19.6,54.6,72,78.9,102.5,29.9,37.5,103.2,74.1,113,121.2,10.3,49.7,8.9,107.3,17.8,157.8l-36.1,191.5c0,35.9,0,71.8-3.4,107.6-4.1,41.6-5.8,51-44.4,68.9-27.1,12.6-67.3,27.1-96.9,29.5-5.3.4-11.2-.6-16.5,0-10.6,1.1-20.3,10.4-29.5,15.6-22.1,12.4-72.4,35.9-97,36.1-10.9,0-32.6-8-39.4-7.4s-11.5,5.1-15.5,6.3c-29.1,9.3-32.6,7.5-60.6-2.2-102.5-35.7-204.4-73.8-298.3-128.4-6.7-3.9-14.3-8.3-19.8-13.8Z"/>
  <path class="st2" d="M217.8,780.2c.3-1,.7-.9,1.1,0l2.2.6c1.3,11.9,3.6,23.8,5.8,35.5,17,65.4,73.8,36.6,100.5-5.4,41.4-65.1,48-156.4,30.3-230.1-.5-6,16.3-4.9,9.5.8l.2,1.8c4.9,4.8,7.2,17,7.9,24.3,1.2,18.1,1.2,36.8-.2,55.8-3.9,57-7.5,114.5-4.1,170.9s21.5,86.4,52.9,108.2c2.1-1.9,3.7-2.2,5-1l1.1-2.5c25.6-6,38.2-43,44.6-66.2,16.9-62.1,16.9-129.2,4.9-192.7,0-4.3,7.2-4.9,6.6-.2l1.2.8c8.8,65.8,22.5,131.7,39.9,196.2s18.6,58.3,29.1,85c3.3,8.4,13.2,20.3,21.9,23,4.8,1.4,28.5,1.2,30.4-5.6l2.9-.4,1.7-6.5c47.3-74.8,58.8-170.7,42.5-255.5-.1-12,10.1-9.1,11.7,1,6.2,33.2,13,66.6,20.5,100l-.4,3.8c5.7,11.9,10.3,24.3,13.8,37.2,6.2,16.8,13.2,34.9,25.6,48.2,13.9,15,30.7,14.5,49.2,9.6l2.8,1.6,2.8-3c46.3-15.4,91.8-54.6,106.4-101.6-.8-23.5,0-43.7,5.3-67.6,8.9-30.1,15.4-59.9,17.5-91.3,24.8-77,18.1-159.4,0-237.3-21.6-19.2-44.6-37.1-69-53.5-18.7-15.4-37.3-32.4-47.9-54.5-12.3-27.3-24.2-53.1-52.3-67.2-32.8-28.7-67.7-52.2-106.6-71.6-24.4-18.6-49.7-36.3-80.1-42.3l-1.4-2.3c-.2,1-.6.9-1.1,0-2.7-.3-3.4-1.1-2.2-2.2,9-.6,17.6.4,26.2,3,55.4,27.8,117.8,49.5,172.3,78.5,28.8,15.4,49.4,60.5,68.6,87.5,24.2,33.9,58.7,55.9,88.8,83.8,23.7,22,27.2,28.7,31.3,61,5.6,43.4,8.6,87.3,14.3,130.7l-36.2,191.4c-1.3,42,2.1,88.1-5.8,129.4-2.3,12.3-6.5,15.8-17.1,21.4-20.5,10.8-70,29.6-92.4,31.9-7.2.7-14.7-.4-21.9.1-20,1.5-32.5,14.1-49.3,23.3-16.2,8.8-60.9,28.5-78.2,28.4-11.4,0-23.8-5.9-34.4-7.5-14.8-2.2-34.4,15-51.4,12.8-66.9-27.1-140.3-47.2-206-76.6-39.6-17.7-78.1-42.9-117.3-61.9-26.1-17.1-20.8-53.3-23.9-81.1Z"/>
  <path class="st6" d="M552.2,126.4c.4,0,.7,0,1.1,0,3.8.6,2.3,4-.4,5.7l-30.7,14.9c-10.5,9.4-22.3,15.1-35.3,17.2-44,20.7-89.7,43.8-128.8,74.6-9,7.1-15.7,17.8-21.7,27.5-17.9,36.2-42.8,65.5-73.2,92.1-52.8,45.9-57.4,119.9-58.5,185.3-.4,25.2.5,50.6,6.4,75.3l9.3,129.2c.4,6.6,1.5,13,3.4,19.1,1.2,4.4,1.3,15.6-4.9,13h-1.1c-7.5-69-22.7-136.5-31.7-205.1-4.1-31.1-9.8-69-5.5-99.7s8.7-45.3,14.4-65.8,6.2-27.2,18.4-38.8c19.7-18.7,43.9-35.2,63.8-53.8,37.4-35,56.7-91,102.3-116.5,43.3-24.3,93.4-42.2,137.5-65.4l25.1-8.5c3.7-1.4,7.1-1.5,10.1-.3Z"/>
  <path class="st3" d="M550,124.2l2.2,2.2c-10.8,0-23.8,8.4-35.2,8.8,9.9-5.7,21.5-10.2,33-11Z"/>
  <path class="st0" d="M778.8,918.7c-1.8-.4-2.5-1.8-2.2-4-24.1-3.4-44.7-15.5-56.9-37.3-10.5-18.9-21.3-37.4-32.2-55.5-9.2-32-14-61.3-20.1-93.6-.5-2.6-3.5-23.2-9.1-15.2-1.6,2.2,2.1,14.6,2.6,18.4,12,81.9-1.8,179-49.3,247.6-1.4-1.5-3-2.3-4.6-2.4-17.9,3.4-35,2-38.7-18.9-22.1-47.3-37.6-97.4-50.2-148-9.5-40.3-19.4-81.3-29.5-120.9s-1-5.7-1.2-8.5,1.5,1.6-1.1,0c-1,0-4.9-3-4.4.5,11.1,56.9,11.8,118.5-.5,175.3-5.2,24.1-19.3,72-43.2,83.2-3.1,1.4-6.5,1.5-9.1,2.5-1.6-.5-2.2-2.1-1.6-4.8-14.1-17.5-26.4-37.1-36.9-58.8-8.8-13.9-11.6-29.5-11.9-45.6-.9-52.5-.3-105.5,3.3-158,1.2-27.6.6-53.7-7.9-80.1s-4.5-11.8-6.7-10.9c-.3-1.3-1.8-1.7,0-4.4-2,0-7.1-.7-7.6,1.7,2.9,9.3,5.1,19,6.4,28.7,8.7,68.7-1.1,159.8-46,215.2-30.2,37.2-80.5,51.3-95.1-7.1-1.1-4.2-6.6-35.6-6-37.4s2.2-1.2,2.8-3.2c2.2-6.9-2.2-14.8-2.8-21.5-4.3-45.2-6.2-90.8-9.9-136.2-10.4-44.7-6-89-3.3-134.1,1-17.5,7.7-46,12.6-63.2,11.2-38.7,43.6-65,71-91.7,7.8-7.7,16.4-18.7,22.9-27.7,15.7-21.7,25.9-51.7,47-67.4,31.7-23.7,61.9-41.7,97.6-58.5s20.2-11.3,28.7-14.2,10.9-1.7,16.6-4.3,11.6-8.6,17.6-12.1c9.5-5.6,21.1-9.8,31.1-15.1s3-1.4,2.7-4.5c14.8,1,44.8,15.9,57.6,24.4,6.9,4.6,13.4,11,20.6,15.7,18.3,11.8,39.6,20.8,58.1,33.2,17.9,11.9,34.8,27.2,51.9,40.4,6.9,5.3,14.7,9.3,21.3,15,17.3,14.9,26,42.6,37.1,61.8,9.9,17.3,28.8,34.4,44.4,46.9s66.1,45.7,68.5,53.6c.6,2,.1,4.6.7,7,16.7,65.1,21.3,133.6,8,200.2-2,10-6.2,19.2-8.2,29.2s-2.4,28.4-5,42.2c-5.6,29.5-16.8,55.2-18.4,87.1s3.8,28.1-3,43.1c-18.2,40.2-65,82-108,92.7Z"/>
  <path class="st6" d="M429,941.8c-2.7,1-2.7,5.1-8.1,2.1s-9.4-8-11.2-9.7c-15.3-15.1-25.5-40.2-33.3-60.2s-7.5-44.4-8-70.1c-.3-14.2-1.6-29.6-1.1-44,1.7-44,6.5-87.9,6.6-131.8,0-22.4-1-23.6-6.5-44.5.1-5.8,4.3,1.3,4.9,2.3,16.6,28.2,12,85.2,10.6,118.1-1.3,29.5-4.2,52.6-2.2,82.3,1.6,24.8-3.9,60.4,7.5,82.7,8.6,16.8,20.7,36.5,30.1,53.4,2.6,4.7,9.8,10.9,11.2,13.9s.1,4.2-.4,5.5Z"/>
  <path class="st6" d="M486.2,680.2c.2,0,1.2-1.5,2.2-1.1.4,6.4,3.9,12.7,5.2,18.4,21.9,89.9,36.9,174.1,76.4,258.9,1.3,2.8,1.4,6.3,2.9,9.2s8.9,9.5,12.9,10.2c7.3,1.2,17.6-2.1,23-1.1s2.9,1.9,2.8,4.4c-2.4,3.5-3.3,6.4-8.5,7.4s-20.8,1.3-23.8,1c-6-.6-19.5-13-22.1-18.4-9.4-19.5-15-43.9-24-64-21.6-70.6-36.6-143.8-46.9-216.9-.4-2.7,0-5.4-.1-8.1Z"/>
  <path class="st6" d="M687.5,822l13.7,17.7c18,29.6,24.6,58,61.1,69.7,3.2,1,13.8,2.3,15.9,3.7s.4,4.1.6,5.6c-16,4-32.2,6.9-46.6-3.5-23.7-17.1-36.7-65.5-44.7-93.2Z"/>
  <path class="st1" d="M502.4,424.4c10.1-1.6,27.1,12,37.4,16,19.1,7.4,37.2,6.2,55.7-2.1s28.9-21.9,34.3-5.4-3.4,41.6-8,54.7c-17.3,49.6-96.7,53.1-120.6,5.6-7-13.9-22.7-65,1.2-68.9Z"/>
  <path class="st1" d="M407.9,390.4c53.8-1.5,61.8,83.9,10.4,95-63.4,13.7-73.7-93.2-10.4-95Z"/>
  <path class="st1" d="M712.4,390.5c64.1-.6,55.7,108.5-8.7,94.9-50.7-10.7-44.3-94.4,8.7-94.9Z"/>
  <path class="st2" d="M587.1,810.2c19.5-3.3,29.2,15.1,23.4,32.2s-10.7,19.6-19.4,20.2-26-11.1-26.9-21.4c-.9-10.4,5.3-14.3,11.1-20.9s3.3-8.7,11.8-10.2Z"/>
  <path class="st2" d="M816,786c5.7-.6,11.9,1.2,14.8,6.7,10.2,19.5-21.4,53.9-39.9,35.4-4.9-5-9.4-15.9-7.2-22.6s24.4-18.6,32.3-19.5Z"/>
  <path class="st2" d="M484.8,217.9c33-5.7,32.4,52.8-2.2,47.8s-17.2-6.5-18.4-13.5,2.9-12.8,7.1-20.3,2.8-12.2,13.4-14Z"/>
  <path class="st1" d="M436.3,334.8c-3.6,3.4-25.9,6.5-33.2,9.1s-16.5,9.4-21.1,9.7c-9.1.5-15.2-9.7-11.1-17.7s49.4-23.9,60.7-21.3c8.5,1.9,11.2,14.2,4.8,20.3Z"/>
  <path class="st1" d="M742.1,334.5c4.2,4.4,4,13.1-.5,17.2-7.9,7.2-15.8.2-24.2-1.9s-23-2.6-31.1-5.2-9.1-20.8,1.8-22.5c9.6-1.5,47.4,5.4,54,12.4Z"/>
  <path class="st2" d="M296.8,362.9c11.6-1.2,23.6,9.2,20.4,21.5-6.8,25.9-53,22.6-46-4.2,2.9-11,15.2-16.2,25.6-17.3Z"/>
  <path class="st2" d="M445.2,791.5c25.4-5.2,14.1,45.3-6.8,41.5-15.8-2.9-10.4-37.9,6.8-41.5Z"/>
  <path class="st2" d="M857.8,578.3c6.8-1.7,12.6,2.8,12.3,10s-6.3,17.9-11,19.9c-11.8,5-21.2-17-12.7-24.7.9-.8,10-4.8,11.3-5.2Z"/>
  <path class="st2" d="M298.7,777.5c16.6,1.3,6.1,32-2.3,33.5-13.9,2.6-12-14.4-9.9-23.1s4.4-11,12.2-10.4Z"/>
  <path class="st4" d="M307.2,485c5.7-5.1,28.2-7.7,32.1.8s.5,9-1.6,11.6c-6.2,7.6-45.1.9-30.5-12.3Z"/>
  <path class="st2" d="M624.5,692.6c22.3-4,11.1,31.9-2.5,30.6-11.5-1.1-11.2-28.1,2.5-30.6Z"/>
  <path class="st2" d="M524.4,187.1c27.3-4.9,10.5,38.6-5.3,24.5s-4.8-22.7,5.3-24.5Z"/>
  <path class="st4" d="M789.6,490.4c6.6-.2,30.1,2.4,20.1,13.5s-32.7,1.9-34-6.9c-.8-5.7,10-6.5,14-6.6Z"/>
  <path class="st2" d="M614.6,251.9c14.4-2.4,15.4,6.9,10.4,18.1-9.3,20.9-31.8-14.4-10.4-18.1Z"/>
  <path class="st8" d="M309.9,329.9c10.8-2.6,13.1,4.7,8.9,13.3-9.1,18.7-21.7-10.3-8.9-13.3Z"/>
  <path class="st8" d="M260.4,407.9c12.5-2.5,12.6,18.4,4.8,20.2s-16.5-17.8-4.8-20.2Z"/>
  <path class="st7" d="M628.4,289.3c.4-.3,8.4-2.4,9.2-2.4,5,0,3.4,13.2,1.4,16.8-7.4,13.1-16.6-9.4-10.6-14.4Z"/>
  <path class="st7" d="M517.8,288.1c13.9-2.2,7.2,29.7-3,18-4.6-5.4-5.3-16.7,3-18Z"/>
  <path class="st4" d="M549.8,469.5c10.8-1.2,27.3-1,37.6,2.5,33.1,11.3-2.5,34.8-21.4,36.8-13.4,1.4-31.7-2.3-39.5-14.3-10.6-16.3,10.9-23.5,23.4-24.9Z"/>
  <path class="st5" d="M400.1,402.5c12.6-2.2,25.6,3.7,24.5,17.9-1.1,15.9-22.9,19.5-33.6,10.4s-3.8-26.1,9.1-28.3Z"/>
  <path class="st5" d="M703.7,402.5c29.9-6.1,34.8,32.5,6.2,33.4-23.1.7-27.5-29-6.2-33.4Z"/>
</svg>