<?xml version="1.0" encoding="UTF-8"?>
<svg id="Calque_1" xmlns="http://www.w3.org/2000/svg" version="1.1" viewBox="0 0 1117.1 1117.1">
  <!-- Generator: Adobe Illustrator 29.1.0, SVG Export Plug-In . SVG Version: 2.1.0 Build 142)  -->
  <defs>
    <style>
      .st0 {
        fill: #bceeff;
      }

      .st1 {
        fill: #93b7dd;
      }

      .st2 {
        fill: #4074b5;
      }

      .st3 {
        fill: #d49fc0;
      }

      .st4 {
        fill: #64b8fa;
      }

      .st5 {
        fill: #d69fc3;
      }

      .st6 {
        fill: #fff;
      }

      .st7 {
        fill: #66b9fa;
      }

      .st8 {
        fill: #e8f5ff;
      }

      .st9 {
        fill: #65b9fa;
      }

      .st10 {
        fill: #68bbfa;
      }

      .st11 {
        fill: #65b8fa;
      }
    </style>
  </defs>
  <path class="st2" d="M545.4,246.5c11.9-1.3,24.4-.5,35.7,3.3,44,14.5,90,43.1,133.8,59.7,28.5,18.9,40.1,55.6,63.5,79.5,22.2,22.7,70,48.2,78,79.2,3.9,15,5,37.4,7,53.5s7,45.1,6.8,62.5c-.1,12.9-6.3,36.7-9.4,50-13.1,55.8-37.6,120.4-75.9,163.7-55.3,62.6-165.2,105.2-245.2,70.2-49.9-21.8-87.2-45.9-142.6-58.7-58.5-13.4-105.7-1.9-121.8-74-11.9-53.5-14.6-127.6-16.9-183.1s4.5-65.3,14.9-97.3c11.3-34.8,48.7-48.2,72.1-74.2,29.4-32.7,35.5-59.8,78.8-81.7,30.6-15.5,69.2-33.8,100.9-46.5s13.4-5.3,20.3-6.1Z"/>
  <path class="st0" d="M722.7,782.4l-3.7-2.3c-21.6,1.5-37.7-10.9-52.9-24.7-2.6-2.3-24.5-23.8-25.1-25.5s0-.9.2-1.4c-3.7-2-6.2-11.1-6.6-15.6,2.4-8.3.5-11.4-5.9-9.2,8.2,50-50,106.2-95.5,117-7.1,1.7-20.1,4.4-25.1-1,.4-2.4,1.5-4.9,3.5-7.7-17.8-7.8-21.5-15.6-25.9-34.1-2.3-10.9-3.8-21.9-5.3-32.9-1.5-16.1-3-27.3-3.3-4.4-.3,1.5-1.5,1.5-3,1.1l-2.3-1.4c1.8-11.4.2-15.9-4.5-13.7,2.6,30.9-22.1,70.4-57.2,59.4s-.7-.7-.9-1.5c-1-1.5-1.3-3.7-.8-6.6-7.3-9-9.3-20.9-11.1-32.2l-4.2-72.8c.8-3.1.7-5.5-.4-7.1h-2.5c-.6-3.5-7.3-3.1-6.6,1.1,4.6,32.2-40.9,86.3-74,67.9-6.3-3.5-10.4-9.6-12.7-16.3-.7-4.1-1.6-8-2.2-12.1,1.5.5,2.7-.6,3.7-4.2s.8-3.6.8-5.5c-3.8-59.5-6.9-119.8-1.1-180.1s13.1-60.7,37.9-81c14-9.5,26-20.9,35.8-35,21-32.3,45-60.4,79.6-78.7l56.3-30.8c6.8-4.6,13.5-8.3,20.2-11.1-.2-.6-.2-1.2-.1-1.2,15.1-7.3,62,9.4,75,17.8l46.1,25.3c30.8,13.1,52.5,23.1,72.1,51,10.2,17.9,20.7,32.7,35.7,46.8l33.2,28.9c18.7,16.4,31.7,28.7,36.7,53.2,18.2,89-1.3,176.1-56.1,250.4-6.3,8.6-36.1,34.8-46.5,32l-1.4-2Z"/>
  <path class="st4" d="M452.1,801.1l-2.2-1.1c-13.4-4.8-28-9.8-41.8-13.2-2.4-2.1-1.9-3.1,1.1-2.2,31.2,8.9,53.4-20.5,56.1-48.9s-1.8-9.7,1.1-11c11.3-5,7,10.5,7.7,17l2.1,2.3-.5,20.3c0,22,5.6,47.6,30.5,52.8l2.1,2.7c49.9,8.8,122.7-59.6,119.8-109.3-.3-4.5-5.1-9.8,5-9.3s3.6,8,3.9,12.4,3.9,9.6,4.4,15c5.8,13.4,21.6,37.9,36,45.6,3.9,2.1,37.2,9.8,41.1,9.3,1.6-1.5,3-1.8,4.2-1.1,1-.4,3.6,0,5.5-.5,12.9-3.9,32.1-20.2,40.6-30.9,37.5-46.6,63.6-124.9,62.7-184.6-.3-17-5-62.2-10.5-77.5-8.4-23.5-56.6-56.5-75.8-77.1-19.3-20.6-26.1-46.5-49.2-63s-33.9-17.3-51.5-26.6c-26.4-13.9-60.3-36.8-89.9-40.9-4.3-.6-24.4-2.6-26.8-1.2-2.3,1.9-3.4,2.1-3.3-1.1,16.6-7.3,25.7-13,44.9-8,40,18,81.4,33.7,120.9,52.9s9.6,4.2,13.9,7c17.1,11,36.5,51.4,51.9,69s41.9,34.3,61.1,52.2c10.8,10.1,15.1,16.1,17.4,30.9,4.4,27.7,10.2,69,11.1,96.6.4,12.3-4.3,31-7.1,43.4-14,62.4-41.3,133.8-90.2,176.9-47.6,42-134.8,73.1-196,47.4-34.2-14.3-64.2-33.2-100.5-46.3Z"/>
  <path class="st8" d="M528,280.2c-.4.2-1.8,2.8-3.4,3.8-41.8,26.2-96.5,45.5-127.5,85.8-13.3,17.3-24.5,36.3-40.2,52.2-8.4,8.5-18.7,13.6-26.4,21.9-21.4,23.2-26.1,42.8-30.1,73.2-7.7,58.1-1,108.4-.1,165.9.1,7.4,4,18.8-2.7,24.7-2.4,2.1-1.2.3-2.8-1.1-3-20.5-4.9-41.4-6.6-62.1-4-50-10.7-105.9.5-154.4,3.5-15.2,6.8-34.8,18.1-45.6,16.7-15.9,39.5-29.2,55-46.1,30.9-33.6,33.4-58.2,78.8-80.6,26.9-13.3,56.4-26.5,84-38.6l3.3,1.1Z"/>
  <path class="st4" d="M392.7,665.9l1.1,1.1c-6.6,34.3-9.6,72.7.5,106.8,3,4,4.3,7.5,3.9,10.7-19.1-4.1-39.6-4.9-58.3-9.3-34.2-8.1-37.3-25.9-42.9-56.6,6,7.2,10.7,15.1,20.9,17.1,29.9,5.7,61-33.4,63.8-60.5.6-5.5-3.3-15.1,6.9-13.5s3.1,3,4.1,4.2Z"/>
  <path class="st8" d="M392.7,665.9c.1.1,1.9-.5,2.2.7l4.5,78.8c2,6.6,2.6,15.2,4.8,21.5s9.7,9.2,4.9,17.6-1.2,1.2-1.1,2.2c-3.2-.8-6.7-1.5-9.9-2.2-2.3-3.5-4.8-6.7-6.3-10.7-8.7-24-6.5-65.4-3.6-90.9.7-5.9,3.7-11.2,4.4-17Z"/>
  <path class="st1" d="M452.1,801.1c-1-.4-1.8-1-2.2-1.1l2.2,1.1Z"/>
  <path class="st2" d="M603.5,618c10,10,15.8,27,6.5,39.2-24.5,32-110.2,10.3-87.7-31.6,14.8-27.6,60.4-28.4,81.2-7.6Z"/>
  <path class="st2" d="M708.2,548.7c24.6-2.6,51.7,17.6,37.8,43.3s-59.8,22.3-68.9-5.1c-6.7-20.3,12.3-36.2,31.1-38.1Z"/>
  <path class="st2" d="M405.2,558.6c13.7-13.3,40.1-12.7,52.2,2.5,20.8,26-9.7,56.2-38.9,46.6-21.3-7-30.3-32.6-13.3-49.1Z"/>
  <path class="st2" d="M434.1,471.9c14.8.3,18.1,19.4,3.9,23.5s-21,3.6-31.6,8c-7.5,3.1-13.8,10-22.6,7.2s-8.7-14.3-3.3-19.9c7.7-7.9,42.6-19,53.6-18.8Z"/>
  <path class="st2" d="M697.1,479.4c8-1.1,39.1,5.8,46.9,9.8s10.1,8.2,7.5,16.1c-4.6,13.9-20.7,3.9-29.7,1.7s-23.7-2.4-29.1-5c-10.2-4.9-7.5-20.9,4.4-22.6Z"/>
  <path class="st8" d="M508.2,819.8c-37.3-6.5-35.8-47.7-34.1-78,0-.1,1-1.3,1.1-2.7.4-4.4-2.2-18.6,5.3-12,1.3,6.6,1.5,14.1,2.5,20.6,2.2,14.4,5,44.1,15.2,54,6.6,6.4,25,6.8,9.9,18.1Z"/>
  <path class="st4" d="M489.2,365.1c7.7-1,16.1,4.3,15.7,12.3-.8,15.2-25.9,31.7-36.8,17-9.9-13.2,8.5-27.8,21.1-29.3Z"/>
  <path class="st4" d="M725.6,729.3c1.2-1.2,1.3-2.6,3.3-3.9,20.2-13,38.1,7.5,20.2,25.7-14.3,14.6-33.9-3.9-27.8-17.9,1.1-2.4,2.9-2.6,4.3-3.9Z"/>
  <path class="st4" d="M608,395.2c.5-.5,0-2.3,1-3,7.8-5.6,26.3.7,27.9,10.6,1.3,8-6.3,21.4-14.9,22.4s-22.8-11.9-21.3-21.3,4.9-6.3,7.4-8.7Z"/>
  <path class="st8" d="M641.3,728.6l11,9.3c15.6,16.9,33,36.1,56.9,39.9,4.7.8,14.2-2.2,13.5,4.7-1.3.5-1.1,3.4-4.8,3.3s-38.7-7.8-41.3-9.4-13.1-11-15.1-12.9c-5-5-21.2-26.9-21.3-33s1.1-1.6,1.1-1.8Z"/>
  <path class="st4" d="M533.2,743.1c18.7-2.7,22.4,12,12.4,25.6-6.6,9-15.9,13.4-24.2,3.3-10.6-12.8,4.1-20.5,11.8-28.9Z"/>
  <path class="st4" d="M348.4,511.2c7.8-1.2,16.5,7.5,15.6,15.6-2,19-29.7,14.4-27.5-6.5.4-4.1,8-8.5,11.9-9.1Z"/>
  <path class="st3" d="M371.5,611.3c4.1-.6,14,.1,15.5,4.9,4.2,13.6-23.5,22.4-30.4,8.3-3.3-6.8,9.5-12.4,14.9-13.2Z"/>
  <path class="st3" d="M769.2,615.1c-9.7-9.9,29.8-19.2,27-3.8-1.7,9.4-21.7,9.3-27,3.8Z"/>
  <path class="st11" d="M520,351.9c18.3-3,13.4,18.4,2.8,19.3-4.9.4-20.5-16.4-2.8-19.3Z"/>
  <path class="st11" d="M327.5,699.2c10.3-3.1,14,5.1,9.4,13.7-9.3,17.3-20.5-10.4-9.4-13.7Z"/>
  <path class="st11" d="M578.9,701.4c2.3-2.5,11.7-1.5,12.7,1.5,1.5,4.3-1.5,14.2-6.1,15.6-10,3-12-11.2-6.6-17Z"/>
  <path class="st9" d="M779.6,649.7c15.1-3.5,8.3,12.5,4,13.8-11.3,3.5-14.4-11.4-4-13.8Z"/>
  <path class="st7" d="M331.9,560.1c-8.7,7.5-15.2-14.6-.3-11.7s3.3,9.2.3,11.7Z"/>
  <path class="st7" d="M646.5,431c11.4-2.4,6.3,14.1.8,14.1s-10.2-12.2-.8-14.1Z"/>
  <path class="st9" d="M329.6,484.8c1.7-.6,7.7-.6,8.7.9s1.1,10.2-1.7,11.6c-8,4-11.3-11.1-7-12.5Z"/>
  <path class="st10" d="M494.7,411.2c7.6-2.1,7,10.7,2.9,11.9s-8.7-10.2-2.9-11.9Z"/>
  <path class="st5" d="M540.4,637c-5.1-5.6.2-13.1,5.2-16.6,13.8-9.8,36.6-7.4,48.9,3.8,5.6,5.1,9.2,10.1.9,15.2-10.4,6.4-46.7,6.8-55-2.4Z"/>
  <path class="st6" d="M723.4,561.9c4.2,4.4,3.5,11.4-.8,15.4-11.8,11-38.3-.4-26.3-15.3,5.7-7.1,21-6.5,27.1-.1Z"/>
  <path class="st6" d="M424.3,557.4c20.5-3.2,24.6,22.9,5.1,24.9-19.2,2-23.4-22.1-5.1-24.9Z"/>
</svg>