<?xml version="1.0" encoding="UTF-8"?>
<svg id="Calque_1" xmlns="http://www.w3.org/2000/svg" version="1.1" viewBox="0 0 1117.1 1117.1">
  <!-- Generator: Adobe Illustrator 29.1.0, SVG Export Plug-In . SVG Version: 2.1.0 Build 142)  -->
  <defs>
    <style>
      .st0 {
        fill: #bceeff;
      }

      .st1 {
        fill: #68bafa;
      }

      .st2 {
        fill: #4074b5;
      }

      .st3 {
        fill: #d49fc0;
      }

      .st4 {
        fill: #64b8fa;
      }

      .st5 {
        fill: #d69fc3;
      }

      .st6 {
        fill: #67bafa;
      }

      .st7 {
        fill: #fff;
      }

      .st8 {
        fill: #e8f5ff;
      }

      .st9 {
        fill: #65b9fa;
      }

      .st10 {
        fill: #65b8fa;
      }
    </style>
  </defs>
  <path class="st2" d="M543.2,163c13.9-1.4,28.2-.2,41.5,4,51,23.4,105.8,41.9,156.4,65.8,43,20.3,54.1,60,83.9,93.1,29.1,32.3,88.4,58,103.5,98.8,32,86.4-41.1,200.4-47.3,290.2-3.2,46,4.9,63.5-19.2,107.2-39.1,70.8-88.3,69.4-158.8,86.4-47.6,11.5-84,26.3-128.9,43.7-75.7,29.4-159.5-6.5-226.2-43.2-41.9-23-62.6-44.4-95.5-77.1-7.8-7.8-15-11-21.7-21.2-12.9-19.5-11.1-55.3-14.2-79.2-8.6-67-26.6-132.8-32.8-200.2-3.8-40.6,4.9-91.1,20.4-129.1,12.1-29.7,67.4-56.8,90.7-83s44.7-69.1,91.7-91.9c43.7-21.2,90.1-37.5,133.9-58.6,7.4-2.4,15.1-4.9,22.9-5.7Z"/>
  <path class="st0" d="M532.4,192.3c15.2-3.3,33.9,4.3,48.3,10.5,23.9,12.1,48.1,23.6,73.2,33.4,19.7,13.3,40.7,24.7,63,34.4,21.4,11.7,40.7,26.6,53.8,47,26.2,45.1,64.9,83.2,105.2,115.4,24.8,28.3,26.6,60.3,18.1,95.1-3.2,13.2-7.3,27.2-11.3,40.3-20.7,58.9-41.3,118.4-36.9,182l-9.6,49.8-2.4.9-3.9-5.7c-34.5,2.9-64.2-12.4-87.4-36.1l-2.4-1c-18.2-27.7-33-57.2-44.5-88.6.3-4.1-16.2-29-21.1-25.5s1.2,9,1.9,10.5c35,50,53.8,130.7,26.7,188.4-4.2,8.8-10.1,21.2-18.9,25-4.2-1.6-8.8-.8-14,2.5-24.1,4.3-36-6.5-50.3-24.1-17.6-21.8-34.1-45.3-45.6-71.1-5.8-15.8-11.2-29.4-18.6-43.9-.4-.8.6-.9.6-.9-.6.4-1.2.8-1.9,1.2-1.4,1.6-3.7,2.1-6.8,1.6,18.4,35,6.2,81.7-9.3,116.6-5.5,12.3-21.1,41.6-32,48.6-1,.6-2.4.4-3.6.3-2.3-.7-4.7-2-7.2-4-23.4-1.7-32.5-10.9-44.5-29.5-19.6-30.3-38.1-63.1-46.4-98.8-9.4-40.1-6.6-77.6-2.8-117.7.6-4.4.1-7.9-1.3-10.4l-2.1-.8c-2.9-20.6-9.8,4.5-10.7,11.1,1.8,52.5-37.3,129.4-92.4,140.5-18.5,3.7-42.4-3.7-50.9-21.2-.1-1.1.1-2.2,0-3.3l2.1-14.7c-.5-60.7-8.8-122.8-19.3-183.3-1.4-21.8-3.8-43.2-7-64.1,4.7-36.8,17-81.1,45.8-106.5,33.5-23.7,58-55.1,82.6-87.6,25.3-36.5,58.1-54.7,97.3-74.1,28.1-13.9,57.9-27.6,85.5-40.1l1.4-2Z"/>
  <path class="st4" d="M244.2,768.1c19.2,20.9,42.5,26,68.2,12.7,41.4-21.4,67-71.7,72.6-116.5.6-4.8-.3-10,.3-15.1s5.6-27.7,12.4-20.7,3.1,7.9,2.7,9.9l1.1,2.3c-16.7,82.1-22.9,185.4,47.7,243.1,9.3,17.3,34.6,27.6,50.8,14.9l2.7.2c33-28.5,61.5-108.5,49-150.6-2.1-7.1-14.4-20.6,2.7-16.5l2.2,1.5c13.2,48.4,32.3,91.6,68.6,127.2s41.6,27.9,56.1,7.7h2.9c46-52.1,31.8-140.8.2-197.5-2.9-5.2-9.1-11.7-10.7-16.8s-1.7-9.8-1.5-10.3c1.3-4.9,13.1,3.9,14.7,6,10.9,14.8,19.9,42.8,27.9,60,7.7,16.4,17.4,35,27.7,49.8,17.7,17.3,33.7,32.8,58.3,40.2,10.3,3.1,23.4,6,33,1.5l9.9-51.1c-1.9-30.9,1.6-58.9,7.8-88.9s21.9-66.2,31.4-101.6c11.8-43.8,23.9-67.6,1.3-111.6-8.9-17.3-22.9-22-35.6-34.8-20.3-20.3-44.2-41.2-60.4-64.9-22.1-32.3-25.8-46.4-60.8-69-18.8-12.1-37-18.2-55.2-28.3-6-3.3-11.2-8.5-17.7-12-11.3-6-24.2-9.6-35.6-14.9-31.5-14.8-49.6-28.4-86.5-31.7-1.8,2.4-2.6,1.9-2.2-1.1,16.2-5.7,26.4-7.2,43.8-2.5,48,20.3,96.7,39.1,144.3,60.2,7.8,3.5,17,6.7,24.1,11,22.7,13.8,47.3,63.9,68.3,85.7,23.3,24.3,83.7,57.5,94.7,85.6,13.3,34,6.5,71.2-2.6,105.2-14.1,53.1-35.5,106.5-43.3,161.1-5.2,36.3,3.6,63.4-11.5,98.4-32.4,75.3-81.6,72.4-151.4,89.4-29.2,7.1-59.2,15.5-87.4,25.9-44.2,16.3-58.9,30.4-110.3,27.2-57.6-3.6-154.1-52.7-197.4-90.7-12.1-10.6-21.2-22.7-32.4-33.6-4.9-4.8-11.4-8-16-13.7-8.9-11.1-7.4-19.2-8.8-32.4Z"/>
  <path class="st8" d="M530.2,191.2c.7.2,1.6,1,2.2,1.1,1.4,2,1.6,2.9-.8,4.2s-8.5,3-12.5,5.1c-37.8,19.8-78.7,35.5-115.3,57.3-44,26.1-69.9,79.4-106.8,114.2-12.6,12-28.3,21.7-40.2,34.6-15.7,17-34.4,72-34.7,95s2.7,14.1,3.4,20.9c1.6,17.2,1.8,32.9,4.7,50.2,7.3,43.4,14.3,85.8,16.1,130.1.6,14.4,3.4,29.1,2.4,43.9s-1.1,12.3-4.5,17c-7.4-69.4-23.6-135.5-32.8-204-4.2-30.7-7.8-56.5-1.8-87.2s11-51.6,18-65.5,58.9-47.5,74.5-61.9c38.5-35.5,46.2-73.9,98.8-99.1,39-18.7,89-41.6,129.4-55.9Z"/>
  <path class="st2" d="M558.6,486c26.8-2.6,84.7,3.7,69.4,44-14.6,38.7-88.8,42.6-113,9.8-22-29.8,18.2-51.4,43.6-53.9Z"/>
  <path class="st2" d="M711.4,434.3c69.7-10.8,70,94.1,6.3,89.8-52.6-3.6-53.6-82.5-6.3-89.8Z"/>
  <path class="st2" d="M385.4,446.6c20.8-21.2,56.8-15.3,70.6,10.6,13.8,25.8-.2,59-28.9,65.6-44.3,10.2-72.5-44.7-41.6-76.2Z"/>
  <path class="st8" d="M400.4,638.5c1.5-.9,3.1-2.7,3.3.5,1.2,19.7-2.3,36.1-3.3,54.9-2.2,41.4,5.8,87.6,25.6,124,8.7,16,23.6,43.2,34.4,56.8s11.7,13.2,15.7,14c6.1,1.3,14.2,2.3,20.1,4.1s6.7,3.6,6.5,6.1c-.8.7-1.4,2.3-2.7,3.3-10.1,7.4-31,3.9-40.7-3.3-4.8-3.6-8.1-10-12.2-14.2s-5.2-3.3-6.9-5.2c-19-19.9-39.9-51.8-44.9-79.3-9.9-53.6-7.5-105.4,3.3-158.8.2-1.2,1.8-2.4,1.9-3Z"/>
  <path class="st8" d="M554.4,731.9c0-.7,0-1.5,0-2.2,4.3-1,3.4,2.2,5.3,5.1,6.9,10.5,6.5,14.7,10.7,25.6,11.3,29.3,23.4,48.6,42.3,73.1,14.6,19,27.1,39.4,54.4,35.6s8-4.1,13.3-4.4c3.6-.2,4.4-.7,3.9,3.3-4.1,4.6-2.6,7.1-11.3,10.1-16.7,5.8-34.3-1.8-46.5-13.4s-34.6-39.7-40.3-49.8c-8.1-14.3-21.6-49.7-27.3-66.1-1.8-5.2-4.6-11.6-4.4-17.1Z"/>
  <path class="st2" d="M429.9,360.8c10.7-1.2,20.5,2.9,17.6,15.4s-11.8,7.3-17.6,8.8c-6.1,1.5-13.1,3.1-19,5.2-7.6,2.6-17.6,10.2-24.8,8.3s-11.5-14.7-4.3-20.9,36.9-15.5,48.1-16.8Z"/>
  <path class="st4" d="M498,264c8.9-1.2,18.2,2.9,22.3,11.2,5.9,11.9-4.6,35.3-19.3,35.8-27.4.9-30.3-43.2-3-47Z"/>
  <path class="st2" d="M698.3,367.3c8.1-1.1,40.1,6,47.6,10.2s9.7,9.4,6.3,16.3c-5.9,12-20.1,3.4-29.4,1.3s-23.3-2.6-29.1-5c-10.1-4.3-8-21.1,4.6-22.8Z"/>
  <path class="st4" d="M503.3,802.8c3.2.2,8.7,4,10.2,6.9,7.9,16-16.3,43.2-28.8,26.6-4.8-6.4-4.4-11.7-1.1-18.5s10-15.5,19.7-15Z"/>
  <path class="st4" d="M647.6,780.5c2.9-.7,10.7.4,13.4,1.5,13.7,5.2.4,37.5-17.6,31.9-14.4-4.5-5.2-31.2,4.2-33.3Z"/>
  <path class="st8" d="M742.5,759.4c.4-2.1,3.2.6,3.8,1.1,23.7,20.2,37.5,30.2,70.4,32.9s18.8-4.1,17,7.7-7.6,4.6-11.5,4.4c-31.7-1.4-62.2-20.7-79.8-46.2Z"/>
  <path class="st4" d="M292.3,418.9c10.7-2.2,21.3,8,20,18.9s-7.8,16.7-15.3,14.5-15.2-12.3-16.2-16.8c-1.6-7.2,4.7-15.1,11.6-16.5Z"/>
  <path class="st4" d="M808.2,720c3.1-.4,4.8.3,6.7,2.7,11.5,14.3-3.9,44.2-19.5,29.4-11.6-11-2.5-30.1,12.8-32.1Z"/>
  <path class="st3" d="M355,553.5c-3,3.3-13,7.5-17.7,6.9s-13-6-12.4-11.5,8.2-8.7,9.9-9.5c5.3-2.7,14.8-3,19.9.4,4.4,3,3.7,10.2.4,13.8Z"/>
  <path class="st4" d="M286.3,730c1-.9,9.6-3.6,11.2-3.5,13.9.9,10.3,24.9,3.9,28-12.3,6-24-16.2-15.1-24.4Z"/>
  <path class="st4" d="M631.1,301.3c13.1-1.9,18.7,11,10.2,21.2-15.3,18.2-34.1-17.7-10.2-21.2Z"/>
  <path class="st3" d="M806.1,514.5c5.4-.3,8.9,3.9,14.6,3.5,7.6,16.7-31.9,20.4-31.9,6.7,0-6.8,12-9.9,17.3-10.2Z"/>
  <path class="st4" d="M833.5,553c2.6-.4,7.6,3.2,8.5,5.3,2.6,6-3.1,18.4-9.3,20.4-12.1,3.9-16.6-16.3-9.9-22s9.5-3.5,10.7-3.7Z"/>
  <path class="st4" d="M538.7,246.4c4.9-1.1,13.6,1.7,14.6,6.9,2.1,10.8-8.6,20.9-19.1,14.7s-2.4-20.1,4.5-21.6Z"/>
  <path class="st10" d="M653.9,679.6c5.8-8.4,20.4-2.2,16.1,10-6.3,17.6-27.9,7-16.1-10Z"/>
  <path class="st9" d="M318.7,409.6c-12.1,12-19.6-18.3-1.4-15.1s4.5,12,1.4,15.1Z"/>
  <path class="st9" d="M647.5,328.9c8.6-.3,9,17.7,2,18.4s-12.8-18.1-2-18.4Z"/>
  <path class="st6" d="M528.8,322.2c9.6-2.8,9,13.3,0,10.6s-4.2-9.4,0-10.6Z"/>
  <path class="st1" d="M274.7,449.6c8.5-2.5,8.4,9.3,4,10.7s-10-8.9-4-10.7Z"/>
  <path class="st5" d="M559.7,524.5c9.9-1.1,27.4-1,36.2,3.9,14.2,7.8-5.5,19.3-14,21.7s-30.2,3-38.9-6.2c-12.3-12.8,6.4-18.2,16.7-19.3Z"/>
  <path class="st7" d="M713.6,444.2c26.3-4,32.4,28.9,7.4,31.6s-31.7-27.9-7.4-31.6Z"/>
  <path class="st7" d="M410,444.2c29.9-3.7,31.1,35-.3,31.6-21.5-2.3-21.1-29,.3-31.6Z"/>
</svg>