<?xml version="1.0" encoding="UTF-8"?>
<svg id="Calque_1" data-name="Calque 1" xmlns="http://www.w3.org/2000/svg" viewBox="0 0 1010.95 1055.13">
  <defs>
    <style>
      .cls-1 {
        fill: #4376b6;
      }

      .cls-2 {
        fill: #bceeff;
      }

      .cls-3 {
        fill: #d0f0fc;
      }

      .cls-4 {
        fill: #5395d6;
      }

      .cls-5 {
        fill: #d49fc0;
      }

      .cls-6 {
        fill: #64b8fa;
      }

      .cls-7 {
        fill: #e5f4ff;
      }

      .cls-8 {
        fill: #fff;
      }

      .cls-9 {
        fill: #e8f5ff;
      }

      .cls-10 {
        fill: #a7cdf2;
      }

      .cls-11 {
        fill: #7dc5ff;
      }

      .cls-12 {
        fill: #e6f4ff;
      }

      .cls-13 {
        fill: #e7f4ff;
      }

      .cls-14 {
        fill: #e7f5ff;
      }

      .cls-15 {
        fill: #7cc5ff;
      }

      .cls-16 {
        fill: #7dc6ff;
      }
    </style>
  </defs>
  <path class="cls-1" d="M903.54,700.11c-9.49,40.3-5.93,91.77-46.57,115.57l-126.03,66.41c-3.19,22.38-4.68,45.39-9.23,67.7-11.02,54.08-39.65,103.42-101.37,105.32-44.92,1.38-61.12-66.36-71.02-100.05-22.01,10.37-43.7,6.8-65.33-2.28-10.33,27.9-16.58,57.57-34.95,81.77-13.54,17.84-24.98,22.54-47.36,19.11-84.94-13.02-94.27-99.43-100.04-169.85-9.12-3.09-17.66-7.38-26.24-11.69-29.23-14.67-59.24-29.22-87.62-45.44-26.51-15.15-47.79-28.83-53.98-61.46l-6.92-78.26c-18.96,5.81-31.5,22.19-51.65,26.91-38.42,9-71.74-22.04-74.79-59.37-5.78-70.68,45.26-147.2,91.05-196.91l-3.17-47.03c4.06-37.25,10.27-77.96,23.18-113.21,14.15-38.63,53.46-58.39,82.54-84.58,43.35-39.05,62.4-98.96,114.36-128.61,33.61-19.18,75.39-38.76,110.73-55.32C441.22,18.47,475.31,1.37,499.29.1c28.54-1.51,59.13,14.03,84.89,25.07,42.43,18.18,93.43,39.84,133.09,62.65,48.76,28.04,60.24,78.78,95.5,117.79,34.79,38.49,97.42,65.69,111.58,119.3,12.69,48.03,8.1,106.42,18.01,155.64,31.84,45.93,97.17,147.36,54.65,200.31-22.56,28.09-61.53,36.87-93.47,19.25Z"/>
  <path class="cls-2" d="M500.93,27.56c48.17,56.14,93.39,114.79,140.08,172.15,18.91,12.2,38.24,23.83,57.59,35.33,23.16,13.76,55.94,28.8,76.58,44.37,5.29,3.99,7.36,8.19,8.33,14.76,3.28,22.29-.42,45.68-1.03,67.97-.42,15.38,3.1,23.61-3.76,38.01-12.29,25.8-38.47,48.4-24.55,80.48,3.9,9,13.44,17.16,16.5,26.37,7.35,22.12-12.8,55.37-11.24,81.56,2.31,38.68,4.68,73.62,2.19,112.65-3.52,21.9-18.19,39.86-32.51,56.07-6.15,6.96-17.91,18.18-26.07,22.73-4.52,2.52-13.89,7.37-17.32,2.51l-1.21-2.15c3.63-6.38,5.88-16.09-2.2-19.81-14.74-18.03-29.47-36.04-44.18-54.05l-3.31-6.21c-2.29.06-4.02-.37-5.2-1.3l-3.52-3.86c-14.87-43.46-29.98-89.09-19.58-134.24-.69-5.17-10.43,38.91-10.14,40.12-2.91,52.69-12.26,105.15-22.99,157.18l-5.4,37.55c-1.81,20.78-64.13,37.7-73.82,33.16-.73-.34-1.4-.82-2.05-1.34-1.78-.6-2.54-2.28-2.28-5.04-19.12-5.8-30.82-11.38-39.88-31.21-12.62-27.62-12.91-67.24-13.03-97.57,2.14-30.18,1.64-60.11-1.49-89.79-5.5-16.03-8.6-31.97-9.31-47.82-3.01-.55-4-.05-3.48,4-1.27,40.15-6.96,80.35-15.6,119.12-7.42,33.28-24.17,86.39-51.04,108.01-4.53,3.64-14.71,10.73-18.98,5.14-1.15-1.96-.95-4.64.6-8.04-28.98-18.11-33.96-57.56-37.91-89.1l-5.53-66.31c-7.3-47.32-13.63-94.68-15.57-142.19l-4.36-22.38c.42,2.17-.29,3.45-2.13,3.83-1.67.06-2.99-.4-3.13-2.04l-2-17.41c1.88-5.91-9.68-5.18-11.13-3.51-1.26,1.46.24,15.24.52,17.56,9.07,54.63,11.29,111.26,6.34,166.84-3.4,38.18-12.05,95.13-33.44,128-3.7,5.69-10.59,16.13-17.66,14.97.31,1.08.1,1.97-.92,2.08-16.27,1.67-22.84-.12-35.79-10.46-6.04-4.83-16.41-13.28-16.1-21.28l-.4-1.11c12.56-17.83,11.34-39.74,6.92-60.84-9.91-35.92-13.62-71.89-15.44-109.63l-2.6-16.35c-14.5-54.19-14.85-108.85-11.31-164.22,3.22-50.33,11.86-89.53,52.63-122.75,26.32-24.1,51.85-48.68,74.89-76.06,10.17-12.08,16.86-23.86,23-38.05,6.23-12.66,16.85-21.82,29.72-27.99,50.3-23.25,99.46-49.48,147.48-78.68,12.66-7.79,25.06-14.36,37.21-19.71Z"/>
  <path class="cls-6" d="M772.63,786.92c17.5,5.33,34.29,13.09,52.79,14.83l-89.84,48.72-2.55.18c1.35-9.45-1.6-20.15-12.82-20.49-9.27-.28-12.14,8.28-13.43,15.7-2.73,15.66-1.89,34.62-3.45,50.95l-2.49,5.16c-27.74,24.17-58.89,48.17-95.1,56.44-3.58,12.89,17.79,40.74,28.71,44.29,9.72,3.16,28.33,1.27,37.15-4.31l2.04,1.72c-12.35,16.05-28.99,26.93-50.06,28.55-13.8,1.06-18.38-4.5-25.2-15.45-21.34-34.29-23.38-75.23-35.25-112.04-2.9-8.98-11.33-12.55-19.68-7.49-11.57,7.01-.58,26.72-.74,37.18-10.07,1.37-17.44,5.4-28.02,4.41-2.93-.27-23.9-6.75-24.61-7.83-3.38-5.21,12.2-30.92-4.75-35.37-8.53-2.24-12.86.77-16.52,8.39-6.78,14.13-10,40.78-14.4,57.04-5.1,18.83-15.61,55.63-31.56,67.38-13.96,10.29-44.49-3.92-56.14-14.3-2.1-1.87-3.65-4.01-5.49-6.06l2.61-1.61c32.06,3.22,58.81-36.34,69.16-63.16-27.01-1.6-52.6-11.22-74.84-26.47-11.05-7.57-24.56-17.48-29.93-29.64-1.22-12.4-1.54-31.81-4.69-43.12-1.93-6.93-5.99-11.03-13.47-10.82-10.68.3-11.8,10.81-11.54,19.33.05,1.6,2.68,6.99-.53,6.02l-97.37-51.65c.41-2,2.16-2.04,3.81-2.22,8.4-.93,18.39.76,26.99.04-3.76,2.5-8.36,3.56-13.81,3.17,17.09,3.39,34.81,1.93,51.18-4l6.63-.27c12.3,4.67,24.84,13.67,39.03,18.7,18.61,6.6,37.33,7.39,54.47,13.17,15.62,19.32,34.63,31.72,57.03,37.21l2.37,2.35c5.11.39,10.24.39,15.4,0,42.45,10.43,52.43,11.87,94.6-3.3,24.61.46,46.66-6.66,63.64-25.41,2.15-2.38,8.14-9.78,6.76-9.75,14.36-6.45,25.24-4.67,40.14-6.61,18.8-2.44,34.48-7.29,52.26-13.17,2.18.24,4.38.24,6.6,0,16.47-4.26,32.37-10.05,47.71-17.38,5.54-4.23,11.27-7.23,17.19-8.99Z"/>
  <path class="cls-6" d="M211.63,772.64c22.42-12.22,35.46-60.95,40.38-84.39,12.22-58.28,13.16-123.85,8.01-183.19-1.44-16.58-5.63-34.35-6.58-50.57-.15-2.57-.71-9.67,1.06-11,2.13-1.6,11.62-2.26,13.32.17,2.53,3.6,1.35,19.71,4.3,24.57l1.83,7.89c5.78,72.26,11.69,144.2,17.73,215.84,2.28,25.36,6.33,51.07,13.02,75.01,3.97,14.18,17.83,25.31,32.32,25.45,11.17.91,19.69-8.13,26.37-15.97,26.3-30.87,39.9-85.15,46.99-124.49,6.11-33.89,9.69-68.36,11.54-102.76l3.1-1.83c.04,1.6.5,7.95,1.11,8.79-1.33,16.47,0,33.7,1.89,50.45-.05,25.13-1.38,50.31-4,75.52-2.63,49.03-4.35,125,46.16,150.79,9.33,4.76,15.69,7.64,19.4-4.87l2.55-.44c12.85-.7,26.96-3.66,39.34-7.4,15.27-4.62,27.48-9.5,34.42-24.95,5.17-50.51,20.86-103.96,25.1-154.05,1.23-14.55.99-27.83,3.58-42.58.85-4.84,8-38.63,9.72-39.74.9-.58,4.13-.81,4.44-.5.89.87-3.12,20.89-3.34,24.68-2.41,42.3,12.24,77.4,24.25,115.98.92-.09,2.24.06,2.34.72,1.63,10.57,3.27,17.57,7.86,27.67,8.42,18.52,25.81,44.82,44.85,52.8l1.04,2.33c12.83.79,23-8.87,31.92-17.02,19.29-17.64,35.1-39.57,43.98-64.3-.56,8.83-1.32,17.98-2.34,26.79-2.08,17.96-.98,31.35-17.83,41.53-18.84,11.39-83.46,33.67-104.74,33.92-19.62.23-23.19-2.46-41.93,7.46-27.58,14.6-74.18,43.22-105.59,44.06-20.18.54-57.07-13.75-74.41-24.3-7.76-4.72-14.13-11.19-21.52-15.87-20.6-13.02-49.2-13.09-72.21-21.26-14.58-5.18-29.18-16-43.67-20.11-15.7-4.45-31.14,1.02-47.06,1.41-3.19.98-16.72,1.36-18.79-.36-.28-.23-.16-.97.09-1.84Z"/>
  <path class="cls-6" d="M823.23,775.93c-4.78-.9-41.34-11.77-41.85-13.91-.42-13.26,3.29-26.28,4.44-39.39,2.01-22.89,2.55-47.36,2.25-70.37-.27-20.86-3.72-45.26-2.23-65.88,1.99-27.59,17.34-57.16,10.06-84.8-6.96-26.42-30.01-25.77-12.46-59.36,5.08-9.72,26.59-40.7,26.59-49.26v-91.76c7.65,1.9,14.73,5.64,22.26,7.98,14.63,4.56,32.3,8.44,47.59,9.38,3.59.22,12.51-2.45,16.04.96,5.72,5.53,5.41,31.84,6.53,40.46,3.84,29.69,11.17,59.51,9.34,89.57-24.64-25.28-75.69-44.96-89.94,1.37-16.19,52.64,15.76,158.27,43.82,205.15,4.91,8.2,12.56,15.23,14.84,24.83-6.38,25.9-6.89,55.09-14.06,80.51-3.33,11.81-4.09,16.15-16.81,16.72l-.34-4.15c5.44-13.57,14.19-36.73,12.55-51.16-.04-.38-2.28-6.8-2.48-7.12-2.2-3.44-7.71,4.52-6.91,7.4-.92,20.77-12.93,38.17-26.76,52.6l-2.46.24Z"/>
  <path class="cls-6" d="M678.03,97.9c3.46,4.97,6.7,10.21,9.7,15.72,14.84,17.34,36.76,29.53,56.56,40.12l5.23,4.6c21.05,36.04,39.88,62.06,71.48,89.58,16.74,14.58,35.17,27.34,50.62,43.38-19.75-2.2-39.43-8.19-57.25-16.97-51.61-25.44-101.05-66.21-153.42-91.79l-116.03-145.07c45.03,18.62,89.41,38.91,133.1,60.43Z"/>
  <path class="cls-9" d="M500.93,27.56c-.27,2.76-6.71,5.47-9.16,6.78-42.93,23.1-84.59,48.39-127.6,71.43-16.84,9.02-35.23,15.55-51.36,24.51-27.81,15.47-24.31,33.9-41.81,56.04-10.48,13.27-25.57,29.32-37.34,41.82-21.68,23.01-64.65,56.58-77.99,82.53-18.58,36.12-16.81,74.07-18.8,113.09-1.52,29.76-.76,54.61,3.42,84.42,2.97,21.19,9.28,41.68,11.81,62.93,2.32,19.55,2.16,39.55,4.67,59.07,4,31.12,23.01,74.77,8.47,104.34-1.3,2.65-4.12,6.46-6.41,8.43-.38.52-.75.16-1.1-1.1-6.78-76.09-20.66-145.55-31.72-220.52-10.55-71.54-15.53-121.71,3.44-192.91,14.83-55.67,44.79-61.98,83.29-97.01,29.34-26.69,45.24-59.75,69.33-90.08,17.98-22.65,27.92-29.25,53.46-42.2,37.21-18.87,77.04-38.44,115.15-55.3,12.08-5.34,34.17-16.58,46.61-17.34,1.41-.09,2.72-.42,3.63,1.05Z"/>
  <path class="cls-2" d="M879.33,457.24c20.18,30.15,41.27,60.23,63.26,90.24,17.63,24.79,33.63,51.18,39.56,81.11.09-.99.7-1.66,1.68-2.11,1.76,3,1.44,9.42,1.1,13.19-2.37,5.84-11.45,7.4-17.44,8.03-22.38,2.37-41.88-15.24-55.67-30.88-35.99-40.82-54.87-91.65-65.83-144.67l.34-11.61c4.17-14,9.78-14.42,23.08-9.32,4.37,1.67,6.63,4,9.92,6.03Z"/>
  <path class="cls-6" d="M984.93,639.67c-2.72,30.29-32.44,52.53-61.89,40.4-38.05-15.69-65.12-103.6-73.07-141.29-4.97-23.55-10.56-54.99-3.64-78.23,1.99,16.22,6.85,33.69,11.55,49.45,9.18,30.78,23.21,64.55,43.01,90,19.63,25.23,48.85,59.76,84.04,39.68Z"/>
  <path class="cls-2" d="M104.93,547.36c4.77,39.24,6.09,95.03-40.08,108.9-12.55,3.77-34.19,4.94-39.12-9.99-.27-4.91.7-8.15,1.1-12.09,2-1.64,1.36,3.36,1.13,3.57-2.23,2.04,5.62-17.06,8.5-16.97,17.06-33.16,32.39-67.2,45.99-102.12,3.36-9.33,8.29-16.97,14.78-22.95,2.64,14.86,7.86,37.22,7.7,51.65Z"/>
  <path class="cls-2" d="M701.13,911.1l-1.26.73-11.49,46.06c-5.73,12.19-9.18,24.43-10.35,36.73-1.48,2.33-2.96,3.63-4.4,5.49-4.89,1.08-8.79,4.71-13.85,5.4s-23.39.76-27.25-1.15c-11.24-5.58-35.28-34.85-28.25-47.47.35-.63,11.63-3.2,13.82-4.01,32.61-12.07,59.64-33.16,85.23-56.06-.44,4.54-.78,10.39-2.2,14.29Z"/>
  <path class="cls-2" d="M328.23,883.63c26.66,30.74,66.42,53,107.8,53.85-7.02,23.65-25.71,48.4-46.72,61.56-9.36,5.87-16.84,8.62-28.08,5.46-1.52-1.69-3.05-3.65-4.4-5.49l1-3.1c7.41-10.77,8.52-17.74,1.42-29.84-4.75-19.26-12.05-37.15-21.89-53.65-1.53-6.66-4.21-12.6-8.04-17.82-.35-3.43-.74-7.33-1.1-10.99Z"/>
  <path class="cls-6" d="M25.73,646.26c13.81,18.2,46.82,9.44,60.49-4.95,23.44-24.68,18.37-63.38,18.71-93.95l16.61,108.26c-13.28,12.06-43.98,35.65-62.22,34.62-20.5-1.16-32.62-26.03-33.59-43.97Z"/>
  <path class="cls-9" d="M983.83,626.48c.15,2.64.11,5.59,0,8.25-.06,1.33.83,4.09-1.09,3.83-4.65-20-10.48-38.87-20.72-56.78-22.66-39.6-55.84-76.78-79.21-116.47l-3.48-8.07c41.78,25.64,101.7,120.31,104.5,169.23Z"/>
  <path class="cls-9" d="M97.23,494.61c.07.35-.06.74,0,1.1-24.15,39.52-34.54,86-58.52,125.61-3.51,5.8-9.32,10.31-10.8,17.24l-1.09-4.39c3.43-33.42,39.71-123.78,68.2-141.76.9-1.11,1.64-.38,2.2,2.2Z"/>
  <path class="cls-9" d="M329.33,894.62c7.23.77,7.28,10.96,10.03,16.9,2.53,5.43,7.1,11.36,9.48,16.9,6.68,15.49,10.07,34.01,17.68,49.45.61,6.96-3.06,12.81-6.41,18.43-.88,1.47-.9,3.22-3.28,2.71-22.68-30.93-23.73-67.86-27.5-104.4Z"/>
  <path class="cls-9" d="M823.23,775.93c1.66-5.04,7.11-8.04,10.36-12.18,4.75-6.05,12.45-19.89,14.63-27.14,2.05-6.82.46-25.47,10.74-23.36,3.78.78,1.93,2.96,2.87,4.66,2.36,4.26,2.6,3.74,1.96,10.09-1.68,16.52-6.3,35.54-14.16,50.13-8.07.36-18.42-.69-26.4-2.2Z"/>
  <path class="cls-2" d="M693.43,105.59c-1.78,3.06-1.02,5.43,2.27,7.08l7.54,4.86c13.12,6.19,24.91,12.18,34.19,23.22,3.7,5.08,7.26,10.37,11,15.38l1.1,1.1c.15.3-.16.83,0,1.1l-13.53-5.71c-20.76-15.11-51.91-27.24-57.97-54.73,5.2,2.56,10.24,5.03,15.4,7.69Z"/>
  <path class="cls-14" d="M608.73,833.08c3.98-.19,1.5.63.64,2.29-12.42,23.78-37.24,32.74-62.93,34.94-1.75.15-9.03,1.69-8.11-2.06,15.9-5.72,33.14-13.79,48.04-21.79,7.62-4.09,14.21-9.71,22.36-13.38Z"/>
  <path class="cls-13" d="M438.23,870.44c-2.23,1.8-5.53,2.17-9.9,1.1-22.38-.75-43.78-19.86-58.32-35.7-.82-.89-3.69-2.93-1.08-3.86,14.02,4.73,24.16,15.89,36.66,23.27,10.29,6.07,21.79,10.28,32.64,15.2Z"/>
  <path class="cls-13" d="M701.13,911.1c.69,22.51-10.92,64.39-23.1,83.52-1.78-1.13-2.16-3.02-2.27-4.96-.32-5.62,8.33-25.07,10.52-32.4,4.89-16.4,6.88-33.74,13.77-49.44,1.83-.3,1.05,2.08,1.09,3.29Z"/>
  <path class="cls-6" d="M158.83,742.97c.37.83.26,1.76,1.05,2.75,10.06,12.67,34.21,36.48,51.75,26.92,3.57,3.75,13.5,2.32,18.7,2.2-1.14,1.82-4.18,1.1-6.03,1.12-14.05.15-28.86.4-42.78-1.25-3.75-.45-14.83-1.81-17.53-3.36-4.52-2.59-5.73-23.6-6.25-29.47.39.3.9.65,1.1,1.1Z"/>
  <path class="cls-7" d="M275.43,800.11c-22.79,9.8-46.8,10.9-70.39,3.28-.26-1.91,2.5-1.04,3.83-1.08,7.78-.29,15.06-.44,22.56-1.1,13.75-1.2,31.09-6,44-1.1Z"/>
  <path class="cls-12" d="M772.63,786.92c-18.76,15.15-41.17,23.53-64.9,26.37-1.93.39-2.67.03-2.2-1.1,20.58-7.12,40.61-15.95,59.37-27.02,3.23-1.76,5.61,1.1,7.73,1.74Z"/>
  <path class="cls-14" d="M693.43,105.59c24.46,12.61,27.31,12.26,44,35.17-1.83,3.3-2.11-.16-2.83-.98-11.91-13.43-31.29-16.81-42.84-27.57-1.38-1.28-2.4-3.06-2.76-4.93l4.43-1.69Z"/>
  <path class="cls-3" d="M443.73,871.54c-3.91,1.86-11.71,1.83-15.4,0,3.73.12,7.94-1.1,9.9-1.1s3.65.64,5.5,1.1Z"/>
  <path class="cls-10" d="M705.53,812.2l2.2,1.1c-1.25.15-4.8,3-6.6,0,1.42-.47,2.99-.61,4.4-1.1Z"/>
  <path class="cls-2" d="M95.03,492.41c.35-.22.12-1.69,2.19-1.09.14,1.06-.18,2.32,0,3.29l-2.2-2.2Z"/>
  <path class="cls-6" d="M749.53,157.24c-.38-.35-.79-.69-1.1-1.1.37.32.89.67,1.1,1.1Z"/>
  <path class="cls-1" d="M393.91,336.6c13.72-3.14,28.79,10.83,41.04,15.68,17.68,7,38,7.17,55.4-.66,11.54-5.19,36.91-28.39,40.16-1.39,2.09,17.38-8.29,56.6-19.22,70.66-20.52,26.4-71.47,28.51-97.6,9.78-20.63-14.78-36.3-58.44-29.29-82.7,1.24-4.3,4.81-10.29,9.51-11.37Z"/>
  <path class="cls-1" d="M297.24,300.39c61.78-2.77,65.03,99.93,2.96,100.88-61.72.95-62.46-98.22-2.96-100.88Z"/>
  <path class="cls-1" d="M612.92,300.42c55.84-3.06,68.12,85.89,13.45,99.17-67.96,16.51-77.88-95.64-13.45-99.17Z"/>
  <path class="cls-9" d="M426.13,556.15c3.53,4.84,2.28,9.78,3.6,16.73,2.47,12.98,8.43,28.14,9.58,40.98,2.73,30.34-1.03,65.61-.03,96.73.94,29.21,2.7,85.38,30.91,102.09,3.79,2.24,21,7.58,21.76,8.47.39.47.39,5.4.17,6.43-.19.92-4.4,9.29-4.98,9.86-6.68,6.59-27.03-7.51-32.45-12.58-37.13-34.69-34.75-92.82-33.02-139.64.83-22.53,4.25-45.5,4.49-68.04.2-18.58-4.73-37.06-2.25-56.1.25-1.95.28-3.79,2.21-4.94Z"/>
  <path class="cls-9" d="M272.13,468.23c-.13-3.08-.37-7.55,0-10.46.19-1.52.68-3.27,2.19-1.63,1.05,1.14,6.02,26.73,6.48,30.35,2.27,17.67,1.64,35.95,3.44,53.71,3.3,32.59,9.81,65.19,13.17,97.83,4.16,40.34,2.19,111.43,34.69,140.08,1.77,1.56,6.97,3.95,7.67,5.45.6,1.28-1.66,7.61-2.74,8.86-4.28,4.95-14.24-1-18.63-3.92-13.3-8.85-15.05-17.1-18.69-31.88-10.45-42.48-11.63-86.18-15.48-129.6-4.69-52.95-9.8-105.69-12.11-158.78Z"/>
  <path class="cls-15" d="M502.91,679.55c8.43-.94,14.35-1.24,20.62,5.12,21.85,22.19-18.97,72.02-40.01,45.46-9.47-11.96-9.02-22.89-2.07-35.76,4.9-9.08,11.13-13.68,21.46-14.83Z"/>
  <path class="cls-15" d="M707.44,681.69c10.42-1.74,31.72.26,33.31,13.45,2.8,23.19-28.6,56.28-47.9,31.38-11.53-14.88-4.12-41.7,14.59-44.82Z"/>
  <path class="cls-15" d="M388.43,137.71c11.27-2.35,23.62,4.03,25.37,15.96,2.7,18.39-35.43,52.04-47.67,25.6-3.72-8.04-4.32-17.08.78-24.6,2.98-4.39,16.54-15.92,21.52-16.96Z"/>
  <path class="cls-1" d="M312.58,221.29c21.71-2.3,27.31,19.24,9.07,25.53-9.35,3.23-20.52,3.55-30.32,7.08-9.18,3.3-22.47,15.5-30.69,4.37-5.22-7.07-2.94-15.21,3.85-20.19,8.64-6.33,37.29-15.65,48.08-16.8Z"/>
  <path class="cls-1" d="M590.83,228.93c8.75-1.81,43.89,6.39,52.03,11.25,6.52,3.89,8.57,10.26,5.22,17.36-6.26,13.24-25.81,1.91-35.78-.01-10.47-2.03-34.69.29-32.54-16.59.68-5.37,5.79-10.92,11.07-12.01Z"/>
  <path class="cls-9" d="M629.63,699.01c8.13-4.12,7.27,2.42,10.52,6.52,14.25,17.98,29.5,35.44,43.77,53.53.84,1.07,3.02,1.53,4.07,3.07,3.89,5.72,1.46,15.15-2.25,20.39-13.35-.82-29.18-23.68-36.54-34.37-10.04-14.58-13.9-24.59-19.06-41.39-.82-2.68.03-6.08-.49-7.75Z"/>
  <path class="cls-15" d="M385.05,684.01c1.65,1.54,5.72,7.83,5.76,10.04.19,10.07-19.14,28.04-29.6,25.35-19.97-5.13-11.25-41.31,8.27-41.34,4.54,0,12.26,2.87,15.57,5.96Z"/>
  <path class="cls-15" d="M223.34,318.39c-13.01,13.52-30.97,11.21-30.48-10.07.42-18.32,7.19-26.19,25.67-18.96,14.23,5.57,14.87,18.58,4.81,29.03Z"/>
  <path class="cls-5" d="M243.11,405.19c-1.03,1.58-6.55,7.07-8.32,7.61-3.35,1.03-16.72,2-20.32,1.49-6.53-.94-12.65-6.64-11.67-13.58.43-3.04,8.75-11.01,11.78-12.49,6.5-3.19,17.4-3.46,23.86-.06.97.51,7.58,6.89,7.87,7.59.88,2.07-1.89,7.44-3.21,9.45Z"/>
  <path class="cls-15" d="M506.12,164.07c17.82-3.92,33.01,10.75,18.51,26.18-7.48,7.95-19.93,12.47-25.03-.35-3.78-9.5.35-13.72,1.89-22.77.6-1.3,3.21-2.74,4.64-3.06Z"/>
  <path class="cls-5" d="M679.97,405.88c3.8-.52,20.72-1.04,22.92.71,4.67,3.71-1.61,15.81-6.63,17.77-4.1,1.6-14.08,1.44-18.66.9-17.08-2.01-14.85-17.01,2.36-19.37Z"/>
  <path class="cls-15" d="M551.33,587.22c15.78-1.11,14.01,11.15,5.52,19.84-15.88,16.24-34.68-17.79-5.52-19.84Z"/>
  <path class="cls-15" d="M432.46,117.9c6.11-1.13,16.28,2.13,16.75,9.18.34,5.06-8.22,16.21-12.77,16.7-12.99,1.38-18.1-23.26-3.97-25.88Z"/>
  <path class="cls-15" d="M720.62,499.24c4.03-.93,16.1-.97,17.75,3.8s-4.77,18.59-9.43,19.95c-10.64,3.11-19.46-21.19-8.32-23.75Z"/>
  <path class="cls-15" d="M214.64,713.47c3.4-.61,11.46,2.1,12.96,5.35,2.87,6.2-14.43,24.25-19.52,15.07-3.56-6.41-1.62-18.95,6.57-20.42Z"/>
  <path class="cls-15" d="M219.05,260.71c3.54-.62,12.26,2.97,12.36,6.94s-10.2,12.63-13.77,12.69c-4.64.08-7.08-18.15,1.41-19.63Z"/>
  <path class="cls-11" d="M524.71,209.2c7.53-.84,10.27,4.93,5.92,11.23-10.87,15.72-16.16-10.08-5.92-11.23Z"/>
  <path class="cls-16" d="M182.76,326.74c5.7,5.65-9.48,20.7-10.77,6.88-.75-8.02,6.16-11.46,10.77-6.88Z"/>
  <path class="cls-16" d="M412.62,214.04c-4.67,3.94-9.13-1.87-8.02-6.29,3.06-12.19,18.72-2.76,8.02,6.29Z"/>
  <path class="cls-4" d="M450.08,905.87c1.64,1.26.63,8.42-.39,8.6-9.4,1.63-34.88-3.07-44.7-5.87-14.52-4.15-39.88-16.97-51.48-26.6-1.92-1.59-14.18-13.24-5.44-11.08,3.46.86,11.08,6.35,14.93,8.18,7.13,3.39,17.86,9.05,24.83,11.46,19.64,6.77,42.45,8.12,62.23,15.31Z"/>
  <path class="cls-4" d="M679.13,863.85c.39,2.23-.24,2.92-1.62,4.41-2.73,2.96-17.07,10.98-21.56,13.62-11.31,6.64-23.71,13.18-35.94,17.95-6.66,2.6-26.71,9.9-32.83,10.08-4.76.14-12.85-5.73-8.96-9.52,2.37-2.31,34.28-11.36,40.7-13.75,16.1-6,37.26-17.91,52.73-22.05,2.51-.67,4.9-1.02,7.49-.75Z"/>
  <path class="cls-14" d="M774.68,809.05c1.57,2.5-1.57,10.03-3.31,12.32-5.03,6.61-21.55,10.96-24.68.75-4.45-14.54,25.43-17.17,27.99-13.07Z"/>
  <path class="cls-9" d="M825.17,639.95c33.32-3.93,14.29,62.87-11.12,47.9-11.19-6.59-10.31-19.87-6.74-30.58,3.36-10.08,6.57-15.99,17.86-17.32Z"/>
  <path class="cls-9" d="M869.14,363.02c3.71,3.94-1.75,16.92-5.29,19.97-13.43,11.54-24.11-13.46-17.51-19.69,3.61-3.41,19.3-3.99,22.8-.28Z"/>
  <path class="cls-9" d="M706.38,170.73c11.37-.31,25.23,6.91,23.28,19.96-1.95,13.02-13.32,10.31-23,6.64-12.56-4.77-23.48-25.97-.28-26.6Z"/>
  <path class="cls-9" d="M621.64,82.78c14.1-2.55,18.76,9.82,16.3,21.78-.54,2.61-4.4,11.15-6.89,11.88-9.13,2.68-27.32-30.42-9.42-33.66Z"/>
  <path class="cls-13" d="M770.53,215.59c9.07-4.56,9.85,3.83,14.76,8.67,3.1,3.06,8.42,3.31,8.33,9.37s-3.55,4.43-7.01,2.49c-7.26-4.06-16.62-11.35-16.07-20.54Z"/>
  <path class="cls-13" d="M676.6,125.59c12.98-3.91,20.57,17.13,8.71,16.23-9.69-.73-16.48-13.89-8.71-16.23Z"/>
  <path class="cls-5" d="M456.69,381.71c5.99-.11,15.34,1.07,21.37,2.23,39.56,7.6,16.66,32.95-9.01,38.7-15.98,3.58-43.53,2.76-49.58-16.43-6.36-20.19,23.26-24.24,37.22-24.5Z"/>
  <path class="cls-8" d="M288.35,313.55c12.14-2.04,26.78,1.33,27.82,15.69,1.34,18.55-21.97,24.98-34.68,14.81-10.82-8.66-7.36-28.11,6.86-30.5Z"/>
  <path class="cls-8" d="M604.04,313.55c8.21-1.48,20.39-.39,25.41,7.06,13.78,20.45-17.19,36.67-32.75,22.83-10.16-9.04-5.17-27.63,7.34-29.89Z"/>
</svg>