<?xml version="1.0" encoding="UTF-8"?>
<svg id="Calque_1" data-name="Calque 1" xmlns="http://www.w3.org/2000/svg" viewBox="0 0 800 800">
  <defs>
    <style>
      .cls-1 {
        fill: #f8d0e4;
      }

      .cls-2 {
        fill: #fef7f0;
      }

      .cls-3 {
        fill: #c5368c;
      }

      .cls-4 {
        fill: #f6dcdc;
      }

      .cls-5 {
        fill: #91511b;
      }

      .cls-6 {
        fill: #a8655e;
      }

      .cls-7 {
        fill: #832062;
      }

      .cls-8 {
        fill: #4c1919;
      }

      .cls-9 {
        fill: #802c2c;
      }

      .cls-10 {
        fill: #7f2b2c;
      }

      .cls-11 {
        fill: #f9d5e7;
      }

      .cls-12 {
        fill: #411213;
      }

      .cls-13 {
        fill: #f8dede;
      }

      .cls-14 {
        fill: #dc84b5;
      }

      .cls-15 {
        fill: #fbddbd;
      }
    </style>
  </defs>
  <path class="cls-15" d="M782.81,449.01c-1.81-1.24-11.12-6.85-12.65-5.3-.5.5.23,2.61.71,3.44.58,1.03,9.16,8.3,10.5,9.02,2.77,1.47,5.76,2.16,8.89,1.93.95-.87-4.32-6.75-5.21-7.58,7.03,4.08,10.87,2.8,17.87,0v564.06c-6.81.31-13.65.46-20.47.77-36.04,1.6-71.82,2.16-107.97-.02-22.22-1.33-45.61-5.21-67.8-4.57-36.41,1.04-72.95,5.4-109.39,6.13-42.19.84-83.88-3.22-125.9-4.55-75.35-2.38-150.98-6.86-226.36-7.58-41.77-.4-80.01,4.72-121.35,7.54-8.28.57-16.64.83-24.94.77l.33-513.3c.68-2.23,3.84-3.04-.33-5.27v-47.76c2.12-.56,3.86-3.85,5.95-5.7,3.78-3.35,10.9-9.24,16.03-8.78,5.54.5,10.49,12.47,13.02,16.75-5.77-.05-1.78,6.29.02,8.7,4.14,5.55,9.44,7.87,15.62,10.25,9.89,3.81,14.96,3.74,25.34,1.16,12.37-3.06,11.61-9.62,18.61-18.2,2.7-3.3,10.47-10.4,14.56-10.98,7.04-1.01,13.11,8.83,12.97,15.13-1.36-1.07-1.85-.69-3.02.32-5.45,4.73-.55,21.56,7.48,21.66.22-2.44-1-4.54-1.49-6.82,5.94,3.7,11.12,7.46,18.03,9.31,12.05,3.22,22.38-2.44,34.09-4.76-1.69,1.05-9.18,8.57-9.67,10.25-.3,1.02.09,1.41,1.09,1.11,2.6-.79,18.26-9.22,20.46-11.01,2.36-1.92,3.62-5.1-.72-4.9,7.12-3.17,9.75-9,15.95.07,8.54,12.49,6.93,21.91,23.01,28.88,27.97,12.11,28.84-18.09,44.82-31.2,2.02-1.66,10.65-7.46,12.92-5.99,1.81,1.17,4.37,14.6,5.31,17.35-7.9-5.99-2.75,7.47.8,10.17,3.25,2.47,3.68-.05,4.41-.31s6.41,4.02,9.96,3.76c3.82-.27,11.62-5.35,14.24-8.3,1.01-1.14,6.35-8.13,6.71-9.09,3.76-9.9,2.75-26.9,10.38-34.92,2.88-3.03,15.93-9.85,19.76-7.94,3.15,1.57,6.3,15.59,6.7,19.34-5.39,2.65-1.35,13.13,2.21,16.32,2.36,2.12,5.88,4.74,5.24-.4,6.85,6.57,10.35,8.29,19.54,5.11,5.64-1.95,11.18-4.99,12.71-11.32,1.55-6.42-.05-7.74,3.36-14.77,1.61-3.32,11.26-20.03,13.55-21.08,1.07-.49,6.88-.73,7.35-.31.23.2,1.95,5.1,2.12,5.79,2.33,9.11,1.79,13.79,6.51,22.94,5.25,10.19,21.38,37.1,34.2,21.91,7.08-8.39,3.76-19.68,5.98-29.55,1.6-7.11,8.19-15.09,13.46-6.05,3.21,5.51,4.82,16.29,5.56,22.77.02.17-.85,1.34-.7,3.28.34,4.47,3.18,10.34,7,12.68,1.38.84,2.09,1.61,1.9-.8.22.43,3.68,3.07,4.47,3.41,6.16,2.67,19.66-.09,24.84-4.28,2.84-2.3,5.9-10.51,8.36-14.23,1.6-2.41,13.54-17.79,14.96-18.17.44-.12.81-.18,1.26-.05,2.33.68,4.81,14.83,7.17,17.39-8.67-1.74-10.95,7.49-10.42,14.8.08,1.13-.58,2.19,1.11,1.88l9.32-15.91c2.3,1.63,4.16,3.94,5.96,6.07l-6.7-.76c-.63,4.16,2.65,10.12,6.97,9.83,7.73-.52,2.88-5.36.47-8.32,9.04,5.55,17.25,8.78,23.47-2.26s4.36-17.88,16.06-26.86c13.37-10.26,14.54,3.78,22.11,10.93,2.48,2.35,8.4,5.92,11.79,6,6.11.15,9.45-7.02,13.74-10.13,2.03-1.47,7.58-3.25,8.7-4.41,1.22-1.27.59-4.5,4.13-3.48l33.29,27.94c-2.28-1.14-12.82-5.52-14.55-3.07-1.12,1.88.82,3.15,1.89,4.21,5.44,5.36,16.45,8.1,23.83,7.95.28-1.26-.4-1.54-1.12-2.26-.88-.87-5.96-4.68-7.06-5.32,4.18,1.16,5.94,4.24,10.79,4.41,8.63.3,16.19-4.01,22.37-9.69,3.59-3.3,6.69-5.68,6.32-10.99-.29-4.12-.83-5.18-.69-9.88.04-1.28-.71-2.63-.6-3.7.38-3.8,15.62-13.43,19.4-15,2.47-1.03,10.23-3.62,12.06-1.39,3.07,3.73,1.65,21.05,7.06,25.79ZM766.42,431.58c-1.51-.27-1.98.17-2.99,1.12-1.79,1.68-9.59,13.39-10.55,15.79-.81,2.01-2.71,12.74-.23,12.64,1.01-.04,6.08-10.79,6.97-12.6,1.07-2.18,7.65-16.05,6.8-16.95ZM18.85,438.38c-.72-2.16-2.52-1.52-3.75-.18-2,2.17-9.86,19.51-8.9,20.66,1.9.44,1.3-.51,1.93-1.42,1.2-1.74,2.74-4.25,3.69-6.12,2.03-3.99,3.29-11.05,7.04-12.94ZM418.7,441.43c-1.51-1.57-4.98,2.27-5.83,3.53-4.03,6.02-5.78,15.05-5.33,22.23l10.75-22.78c.39-.63.66-2.73.41-2.99ZM616.76,445.98c-8.79-1.07-12.72,9.22-11.91,16.67,1.93.46,1.3-.59,1.92-1.43,2.63-3.6,5.5-7.16,8.06-10.76.96-1.35,2.17-2.61,1.93-4.48ZM105.76,447.63c-6.09.86-14.3,16.37-14.68,22.24-.06.93-.24,4.93,1.11,4.9,1.26-.03,9.57-19.08,12.29-22.35.68-.82,7.43-5.66,1.28-4.8ZM662.93,462.65c1.39,1.6,7-8.17,7.8-9.11,1.14-1.35,5.65-3.44,3.39-4.93-5.3-3.5-13.73,8.6-11.19,14.04ZM345.73,452.05c-9.11.56-11.62,15.25-12.65,22.74.95-.21,1.58-1.25,2.1-2.02,2.87-4.26,7.59-13.24,9.85-18.02.44-.92.96-1.56.69-2.7ZM633.15,459.62c.38-4.5-4.72-7.9-8.93-7.57-.64,6.02,3.5,8.36,8.93,7.57ZM483.48,471.37c.57-2.32,0-9.15,0-12.13,0-.57,1.5-1.39.08-3.09-.87-1.04-2.84-1.41-4.06-1.12-2.57.62-1.15,15.43,2.49,17.11.73.34,1.4-.38,1.49-.77ZM439.54,474.78c.27-1.35-.37-2.18-.87-3.28-1.3-2.83-5.65-10.29-7.44-12.89-.82-1.19-1.92-2.93-3.6-2.78-1.94,2.35,6.71,19.4,11.91,18.95ZM212.44,494.49c1.73-1.77-8.19-12.99-9.55-14.91-.86-1.21-6.11-12.43-6.13-4.44-.02,6.67,8.54,18.86,15.68,19.35ZM280.94,474.79c-1.68-1.72-6.05,5.09-6.86,6.27-2.62,3.79-5.1,7.98-5.79,12.67.9.99,6.64-5.66,7.31-6.57,1.23-1.66,6.8-10.87,5.34-12.38Z"/>
  <path class="cls-11" d="M668.89,236.73c-2.31,2.05-4.48,3.98-6.7,6.07-3.68,3.46-8.03,7.44-11.17,11.37-4.8,6.01-11.34,17.57-11.94,25.37-1.4,18.37,12.95,16.04,21.64,5.35,7.69-9.47,14.3-20.17,22.68-29.22,5.36-5.78,11.79-10.65,17.51-15.91l102.01,6.82v141.01c-4.31.2-8.71-.28-13.02,0-6.57.45-14.31,2.28-20.86,2.33-14.88.12-30.41-2.06-45.41-.81-10.07.84-22.99,4.09-34.06,5.51-7.23.92-14.33,4.77-21.76,5.13-6.8.33-13.76-2.34-20.14-2.37-3.5-.02-6.99,1.11-11.16.81-6.51-.47-13.58-3.24-20.13-3.77-12.08-.98-23.92.26-36.38-1.62-8.71-1.31-16.51-4.76-25.44-4.48-15.69.48-31.87,7.79-47.05,10.46-18.45,3.25-48.28-4.7-67.22-8.53-5.18-1.05-10.92-3.67-16.01-4.17-6.09-.6-13.13.26-19.38.03-38.03-1.41-76.86.85-114.58,6.85-7.55,1.2-15.42,5.13-23.36,6.54-20.31,3.61-41.18,5.21-61.49,8.65-7.62,1.29-14.45,4.94-22.4,5.24-5.23.2-9.93-1.32-14.9-1.58-4.78-.25-9.05.8-13.4.83-24.97.16-50.09-3.49-74.57-6.79-9.01-1.21-18.23-.63-27.13-2.7-3.21-.75-6.91-2.95-10.09-3.37-4.26-.57-8.29.78-12.63.72-3.76-.05-8.82-1.36-12.63-1.54-6.69-.31-12.45.46-18.97,1.52-.03,11.11.02,22.25,0,33.35,0,2.02,0,4.05,0,6.07,0,2.27,0,4.55,0,6.82h-.74v-47.76c1.23-.79.74-2.88.76-4.16.13-12.22-.59-24.59.37-36.77.11-1.38,1.34-2.62-1.13-2.28v-3.03c3.44-.08,2.48-9.39,2.2-11.71-1.81-14.86.44-26.21-1.49-40.18-1.32-9.6,1.07-22.32.03-32.26,2.58-.12,5.23.2,7.81,0,30.45-2.36,61.06-5.36,91.56-6.85,9.76-.48,19.67.42,29.44.03-1.06,1.27-1.66,2.95-2.95,4.2-4.03,3.9-9.08,5.14-10.27,12.28-2.11,12.61,1.69,27.84,17.17,22.03,10.23-3.84,17.89-13.41,22.12-23.35,2.93-4.04,3.36-7.69,5.21-11.37.3-.6,2.36-2.61,2.98-3.79l66.27-.76c-5.23,8.87-14.04,23.71-14.88,33.75-1.45,17.37,7.47,32.63,25.81,22.48,9.71-5.37,22.48-16.14,26.66-26.68,1.63-4.11,1.76-8.6,3.03-12.08,1.57-4.28,9.34-14.58,12.25-18.99l77.44-3.79c-2.88,3.69-12.03,15.98-13.06,19.68-2.17,7.73-1.35,21.2,8.97,21.26,1.8.01,6.96-.53,8.87-.82,8.14-1.22,13.75-13.29,17.88-19.74.48-.74.28-1.96.43-2.18,4.66-7.28,10.91-16.1,16.38-23.5l119.14-13.65c-1.58,1.62-2.95,1.86-4.51,3.37-4.46,4.36-6.64,12.03-8.5,17.88-4.01,12.62.73,25.59,15.52,18.84,11.16-5.1,14.73-19.21,20.18-29.49,2.62-4.94,5.83-9.55,8.58-14.39.74,1.19,2.88.84,4.11.8,35.65-1.16,70.02-.37,105.71,1.49,3.28.17,7.49.97,10.8,1.51ZM788.02,377.75c-.99-1.4-5.53,0-7.04.03-21.96.48-45.36-.48-67.07.69-3.47.19-8.39.72-11.51,1.92,2.31,1.37,6.59,1.66,9.31,1.89,13.55,1.17,27.33.58,40.98.8,6.5-2.19,29.9.12,34.27-3.02.61-.44,1.51-1.69,1.07-2.31ZM457.42,383.06c-.3,1.52.71,1.77,1.7,2.43,9.41,6.2,27.17,8.17,38.16,7.46,3.07-.2,17.68-1.61,16.72-6.46-.47-2.4-10.18.24-12.29.35-14.74.77-29.58-3.24-44.29-3.78ZM59.8,393.67l-50.63-5.31c-.42,2.2.64,1.21,1.64,1.71,11.1,5.59,34.16,7.39,46.42,5.91.94-.11,3.6-.84,2.57-2.3ZM234.04,389.88c-2.99.14-5.31,1.75-8.32,2.51-18.26,4.64-39.45,2.18-58.33,3.55-4.05.29-1.13,2.06,1.09,2.69,14.9,4.25,44.01,3.18,58.31-2.87,2.58-1.09,6.83-2.65,7.25-5.88Z"/>
  <path class="cls-14" d="M802.91,387.6v33.36c-.85-2.05-2.7-2.24-3.61-.26-.41,6.96-2,13.3-1.61,20.36.04.66-.5,3.38.75,2.28,2.35-3.73,4.02-9.66,4.46-14.03v21.23c-7,2.8-10.84,4.08-17.87,0-1.35-1.26-1.4-.95-2.23-1.52-5.41-4.74-3.99-22.06-7.06-25.79-1.83-2.23-9.59.36-12.06,1.39-3.77,1.58-19.01,11.2-19.4,15-.11,1.07.64,2.42.6,3.7-.14,4.7.4,5.76.69,9.88.37,5.31-2.73,7.69-6.32,10.99-6.18,5.68-13.74,10-22.37,9.69-4.85-.17-6.61-3.25-10.79-4.41-.66-.38-2.16-1.11-2.98-1.52l-33.29-27.94c-3.55-1.02-2.92,2.21-4.13,3.48-1.11,1.16-6.66,2.94-8.7,4.41-4.29,3.11-7.64,10.27-13.74,10.13-3.39-.08-9.3-3.65-11.79-6-7.57-7.16-8.74-21.19-22.11-10.93-11.7,8.98-9.89,15.9-16.06,26.86s-14.43,7.81-23.47,2.26c-.22-.27-.52-.49-.74-.76-1.8-2.13-3.66-4.43-5.96-6.07v-.76c-2.35-2.56-4.83-16.71-7.17-17.39-.45-.13-.82-.07-1.26.05-1.42.38-13.37,15.77-14.96,18.17-2.47,3.72-5.52,11.93-8.36,14.23-5.17,4.18-18.68,6.95-24.84,4.28-.78-.34-4.25-2.99-4.47-3.41-1.83-3.59-1.74-14.65-8.19-15.16-.74-6.48-2.36-17.26-5.56-22.77-5.27-9.05-11.87-1.07-13.46,6.05-2.22,9.86,1.11,21.16-5.98,29.55-12.83,15.19-28.95-11.72-34.2-21.91-4.72-9.15-4.18-13.83-6.51-22.94-.18-.69-1.9-5.59-2.12-5.79-.47-.42-6.28-.18-7.35.31-2.29,1.05-11.94,17.77-13.55,21.08-3.41,7.03-1.81,8.35-3.36,14.77-1.53,6.33-7.07,9.37-12.71,11.32-9.19,3.18-12.69,1.45-19.54-5.11-.71-5.66-5.3-9.97-4.54-15.84-1.19-.52-1.71-.66-2.91-.08-.39-3.75-3.54-17.76-6.7-19.34-3.83-1.91-16.88,4.91-19.76,7.94-7.63,8.02-6.62,25.02-10.38,34.92-.36.96-5.7,7.95-6.71,9.09-2.63,2.95-10.43,8.03-14.24,8.3-3.55.25-9.21-4.04-9.96-3.76-.25-3.72-2.27-7.63-5.21-9.86-.93-2.74-3.49-16.17-5.31-17.35-2.27-1.47-10.9,4.33-12.92,5.99-15.99,13.11-16.86,43.31-44.82,31.2-16.09-6.96-14.47-16.39-23.01-28.88-6.2-9.06-8.82-3.24-15.95-.07-3.24,1.44-8.39,2.83-11.17,4.55-11.7,2.32-22.03,7.98-34.09,4.76-6.91-1.85-12.1-5.61-18.03-9.31-.05-.24.04-.51,0-.76-.81-4.45-1.24-9.73-2.98-13.65,0-.25,0-.51,0-.76.14-6.3-5.93-16.13-12.97-15.13-4.08.58-11.86,7.68-14.56,10.98-7,8.58-6.24,15.13-18.61,18.2-10.38,2.57-15.45,2.65-25.34-1.16.3-1.74-.15-2.49-1.07-3.83-3.98-5.79-10.93-8.98-14.56-15.12-2.53-4.28-7.48-16.25-13.02-16.75-5.13-.46-12.25,5.42-16.03,8.78-2.09,1.85-3.82,5.13-5.95,5.7,0-2.27,0-4.55,0-6.82,5.88.61,17.07-18.71,13.39-21.23-2-1.37-5.33,5.45-6.71,7.18-2.15,2.68-4.89,4.92-6.68,7.98.03-11.11-.03-22.25,0-33.35,6.53-1.06,12.29-1.82,18.97-1.52,3.82.18,8.87,1.49,12.63,1.54,4.34.06,8.37-1.29,12.63-.72,3.18.42,6.88,2.62,10.09,3.37,8.9,2.07,18.12,1.49,27.13,2.7,24.48,3.29,49.59,6.95,74.57,6.79,4.35-.03,8.62-1.08,13.4-.83,4.97.26,9.66,1.77,14.9,1.58,7.94-.3,14.77-3.95,22.4-5.24,20.31-3.44,41.18-5.04,61.49-8.65,7.94-1.41,15.81-5.34,23.36-6.54,37.71-6.01,76.54-8.26,114.58-6.85,6.25.23,13.3-.63,19.38-.03,5.09.5,10.83,3.12,16.01,4.17,18.94,3.83,48.77,11.79,67.22,8.53,15.18-2.68,31.36-9.98,47.05-10.46,8.93-.27,16.73,3.17,25.44,4.48,12.47,1.88,24.3.64,36.38,1.62,6.54.53,13.62,3.3,20.13,3.77,4.17.3,7.66-.82,11.16-.81,6.38.03,13.33,2.69,20.14,2.37,7.44-.36,14.54-4.2,21.76-5.13,11.07-1.41,23.98-4.66,34.06-5.51,14.99-1.25,30.53.93,45.41.81,6.55-.05,14.29-1.89,20.86-2.33,4.31-.29,8.71.19,13.02,0ZM790.99,445.98c.62-4.71-1.21-23.24-4.78-25.83-.78-.56-2.96-1.12-3.4-.7-.6.57,2.14,14.32,2.78,16.49,1.01,3.41,2.4,8,5.4,10.04ZM388.18,456.59c7.74-6.18,13.83-15.78,17.48-25.03.67-1.69,3.57-8.26,1.49-9.08-2.44-.96-2.51,3.12-3.48,4.79-5.49,9.45-14.17,18.04-15.5,29.32ZM372.53,429.29c-1.92,1.93,4.97,20.31,6.57,23.26,1.28,2.35,8.92,11.86,8.74,5.57-.32-10.77-7.03-18.36-10.45-28.09-1.19-1.24-3.31-.66-4.87-.74ZM636.86,447.49c.11-2.64.18-4.77-.58-7.37-.18-.62-4.68-9.6-5.03-10.04-.84-1.05-1.36-.86-2.57-.78-1.11,1.16,1.75,10.29,2.6,12.12.44.95,4.35,7.48,5.58,6.06ZM60.54,465.68c.9-1.05-3.76-14.61-4.64-16.87-1.22-3.16-7.66-17.88-10.03-18.6-7.08-2.15-3.88,5.65-2.82,9.7,2.69,10.23,7.56,21.16,17.49,25.78ZM458.17,462.65c10.91-.4,19.63-26.88,7.66-30.17-5.9-1.62.13,4.11.37,4.92,2.17,7.36-6.39,18.11-8.03,25.24ZM452.21,455.83c-1.67-5.86-3.56-11.74-6.85-16.9-.88-1.39-4.35-7.07-6.55-5.07-1,.91,7.07,24.06,13.4,21.97ZM649.69,435.55c-.31.18-.61,1.42-1.37,1.97-2.16,1.58-4.6,2.85-6.54,4.75-1.06,1.04-5.11,5.32-3.45,6.39,4.94,3.2,18.05-6.84,16.32-12.05-.51-1.54-3.85-1.71-4.96-1.05ZM71.72,459.62c1.32-.05,2.75.19,4.05-.04,5.51-.99,16.38-19.71,10.87-23.11-3.49-2.15-2.81,3.46-3.36,4.98-2.62,7.22-10.66,10.25-11.56,18.17ZM722.5,466.44c10.58.81,19.5-18.6,14.78-26.8-.91-1.58-5-5.63-5.84-2.38-.51,1.97,1.84,2.75,2.06,3.86.17.87-.89,5.57-1.27,6.78-.9,2.86-10.51,17.76-9.72,18.53ZM517.73,474.02c-.45-10.79-8.3-18.31-10.83-28.77-.48-1.96,0-4.09-.44-5.61-.64-2.18-3.5-.98-4.03.95-2.08,7.65,4.77,32.68,15.31,33.42ZM598.1,439.97l-2.57-.15-21.2,27.37c6.4,1.08,9.9-2.42,13.78-6.81,2.49-2.82,12.35-17.25,9.99-20.42ZM545.19,440.77c-.76-1.23-4.46-.57-5.02,1.14-4.51,10.74-13.92,19.29-14.99,31.35,8.58,1.33,22.55-28.39,20-32.49ZM572.82,458.11c.37-4.14-1.05-7.58-2.85-11.12-.69-1.35-5-8.85-6.82-7.07,1.12,6.84,3.77,14.17,9.67,18.19ZM688.25,440.67c-4.17-1.05-1.8,4.54-.62,7.06,4.22,9,16.21,17.86,25.92,19.46.49-1.96-.68-1.33-1.39-1.97-5.67-5.11-22.11-15.67-24.3-22.34-.28-.85.08-1.47.38-2.22ZM315.95,470.99c8.03-1.26,11.84-12.42,13.2-19.54.38-2.01,1.84-9.14-.17-10.02-.65-.29-2.09-.34-2.03.96l-10.99,28.6ZM139.47,469.48v-11.75c0-.77-4.77-13.54-5.53-14.08-1.22-.88-2.68-.92-4.09-.62-1.59,1.37.31,12.72.9,15.24,1.05,4.49,3.44,10.89,8.71,11.22ZM187.07,453.62c-3.17-1.54-4.32,1.86-7.17,3.58-7.07,4.26-14.83,7.21-21.57,12.15-.93.68-2.07.8-1.73,2.4,6.04.37,12.22-.84,17.63-3.65,3.22-1.67,15.33-10.18,12.83-14.48ZM298.88,454.39c-.44.3-1.51,7.28-1.5,8.53.02,5.39,2.78,18.92,7.43,22.07,1.35.91,6.85,3.47,6.55.17-1.76-5.8-5.21-11.65-6.8-17.36-.72-2.59-1.67-12.81-3.23-13.4-.52-.2-2.06-.27-2.45-.01ZM245.96,483.88c6.08,0,10.94-7.41,13.53-12.37.64-1.22,4.15-9.42,4.21-10.13.1-1.18-1.06-1.76-1.73-2.5l-16.01,25ZM224.24,464.3c-.5-.79-3.58-.84-4.2.04-.2.29-.76,3.43-.81,4.1-.56,7.86,4.6,18.75,12.15,21.55,1.93.71,8.61,2.9,7.56-.86-1.63-5.84-9.73-11.55-12.5-16.85-1.28-2.45-1.87-7.47-2.2-7.99Z"/>
  <path class="cls-9" d="M802.91,151.06v3.79l-60.31,44.73c.11-.11.29-1.45,1.05-2.31,4.49-5.15,12.84-10.23,17.58-15.69l.73-2.46c-.16-.16-3.82.53-4.46.75-.55,3.4-4.66,3.72-7.14,5.58-9.6,7.18-20.53,15.35-29.36,23.6-2.32,2.17-12.46,13.02-13.39,15.18-.4.93.15,1.39,1.1,1.12,2.08-.62,9.59-6.05,11.8-7.7,6.1-4.56,11.42-10.17,17.22-15.07,1.11-.94,1.7-1.73,3.38-1.48-13.36,13.6-26.2,25.78-40.21,38.67-5.72,5.26-12.15,10.13-17.51,15.91-8.39,9.04-14.99,19.75-22.68,29.22-8.69,10.69-23.04,13.02-21.64-5.35.6-7.8,7.14-19.36,11.94-25.37,1.2,1.43.13,1.8,1.97.89,1.5-.74,3.68-2.17,5.12-3.15,2.81-1.9,20.38-16.17,21.08-17.96,1.56-3.97-4.91.64-5.84,1.26l-.74-.76c15.66-13.53,29.34-26.22,46.91-37.15,1.28,2.7,1.61,1.19,2.98.76,4.98-1.56,10.48-3.83,15.16-6.17,5.7-2.85,15.01-10.37,19.84-12.02.2-1.22.47-2.52-1.11-2.28-1.39.21-6.74,2.94-8.57,3.79l-.74-.76c9.11-5.49,18.02-11.53,27.53-16.32,9.29-4.67,19.21-8.12,28.31-13.25ZM644.38,286.7c8.75,6.47,25.74-20.17,15.03-21.81-3.33-.51-2.03,3.59-3.29,6.23-1.59,3.32-13.97,12.23-11.75,15.58Z"/>
  <path class="cls-7" d="M802.91,429.3c-.44,4.37-2.11,10.3-4.46,14.03-1.25,1.11-.71-1.62-.75-2.28-.39-7.06,1.2-13.39,1.61-20.36.91-1.98,2.76-1.79,3.61.26-.19,2.7.27,5.69,0,8.34Z"/>
  <path class="cls-5" d="M703.14,467.96c.82.41,2.32,1.14,2.98,1.52,1.1.63,6.18,4.45,7.06,5.32.73.72,1.4,1,1.12,2.26-7.38.15-18.39-2.59-23.83-7.95-1.07-1.06-3.01-2.33-1.89-4.21,1.73-2.46,12.27,1.93,14.55,3.07Z"/>
  <path class="cls-2" d="M766.42,431.58c.85.9-5.73,14.77-6.8,16.95-.89,1.81-5.96,12.56-6.97,12.6-2.48.1-.58-10.63.23-12.64.96-2.4,8.76-14.11,10.55-15.79,1.01-.95,1.48-1.39,2.99-1.12Z"/>
  <path class="cls-2" d="M105.76,447.63c6.14-.86-.6,3.97-1.28,4.8-2.72,3.27-11.03,22.32-12.29,22.35-1.35.03-1.18-3.97-1.11-4.9.39-5.87,8.59-21.39,14.68-22.24Z"/>
  <path class="cls-2" d="M187.13,470.24c4.34-.2,3.08,2.98.72,4.9-2.2,1.79-17.86,10.22-20.46,11.01-1,.3-1.39-.09-1.09-1.11.49-1.68,7.98-9.2,9.67-10.25,2.78-1.72,7.93-3.11,11.17-4.55Z"/>
  <path class="cls-5" d="M782.81,449.01c.84.57.88.26,2.23,1.52.89.83,6.15,6.71,5.21,7.58-3.13.22-6.12-.46-8.89-1.93-1.35-.71-9.92-7.99-10.5-9.02-.47-.83-1.21-2.94-.71-3.44,1.54-1.55,10.84,4.07,12.65,5.3Z"/>
  <path class="cls-5" d="M33.74,449.01c3.63,6.14,10.58,9.33,14.56,15.12.92,1.34,1.37,2.1,1.07,3.83-6.18-2.38-11.48-4.71-15.62-10.25-1.8-2.41-5.79-8.75-.02-8.7Z"/>
  <path class="cls-5" d="M212.44,494.49c-7.14-.5-15.7-12.69-15.68-19.35.02-7.99,5.27,3.23,6.13,4.44,1.36,1.92,11.28,13.15,9.55,14.91Z"/>
  <path class="cls-5" d="M120.86,455.07c0,.25,0,.51,0,.76-.05,2.07-1.04,3.31-.57,6.26.36,2.3,2.06,5.56,3.55,7.39.04.24-.05.52,0,.76.49,2.28,1.7,4.38,1.49,6.82-8.03-.1-12.93-16.93-7.48-21.66,1.16-1.01,1.65-1.39,3.02-.32Z"/>
  <path class="cls-5" d="M362.11,452.04c1.2-.59,1.72-.44,2.91.08-.77,5.87,3.83,10.18,4.54,15.84.64,5.14-2.87,2.53-5.24.4-3.56-3.2-7.6-13.67-2.21-16.32Z"/>
  <path class="cls-2" d="M418.7,441.43c.25.26-.02,2.36-.41,2.99l-10.75,22.78c-.45-7.19,1.3-16.22,5.33-22.23.85-1.27,4.32-5.1,5.83-3.53Z"/>
  <path class="cls-2" d="M345.73,452.05c.27,1.14-.26,1.78-.69,2.7-2.26,4.78-6.98,13.76-9.85,18.02-.52.77-1.15,1.81-2.1,2.02,1.02-7.49,3.54-22.18,12.65-22.74Z"/>
  <path class="cls-2" d="M563.15,462.66v.76l-9.32,15.91c-1.69.32-1.02-.75-1.11-1.88-.53-7.3,1.75-16.53,10.42-14.8Z"/>
  <path class="cls-2" d="M616.76,445.98c.25,1.87-.97,3.13-1.93,4.48-2.57,3.61-5.43,7.16-8.06,10.76-.62.85.01,1.89-1.92,1.43-.81-7.45,3.12-17.74,11.91-16.67Z"/>
  <path class="cls-2" d="M280.94,474.79c1.47,1.5-4.1,10.72-5.34,12.38-.68.91-6.42,7.56-7.31,6.57.68-4.69,3.17-8.88,5.79-12.67.82-1.18,5.18-7.99,6.86-6.27Z"/>
  <path class="cls-5" d="M502.1,478.58c.19,2.41-.52,1.64-1.9.8-3.81-2.34-6.66-8.21-7-12.68-.15-1.94.72-3.11.7-3.28,6.45.51,6.36,11.57,8.19,15.16Z"/>
  <path class="cls-5" d="M569.11,469.48c.23.27.52.49.74.76,2.4,2.95,7.25,7.79-.47,8.32-4.32.29-7.61-5.67-6.97-9.83l6.7.76Z"/>
  <path class="cls-2" d="M483.48,471.37c-.09.38-.76,1.1-1.49.77-3.64-1.68-5.06-16.5-2.49-17.11,1.22-.29,3.19.08,4.06,1.12,1.42,1.7-.08,2.52-.08,3.09,0,2.98.57,9.81,0,12.13Z"/>
  <path class="cls-2" d="M662.93,462.65c-2.54-5.45,5.89-17.55,11.19-14.04,2.25,1.49-2.25,3.59-3.39,4.93-.8.94-6.41,10.71-7.8,9.11Z"/>
  <path class="cls-5" d="M439.54,474.78c-5.19.46-13.84-16.6-11.91-18.95,1.67-.16,2.77,1.58,3.6,2.78,1.79,2.61,6.15,10.06,7.44,12.89.5,1.1,1.14,1.93.87,3.28Z"/>
  <path class="cls-5" d="M289.14,479.34c2.94,2.23,4.96,6.14,5.21,9.86-.73.27-1.16,2.79-4.41.31-3.55-2.7-8.71-16.16-.8-10.17Z"/>
  <path class="cls-2" d="M18.85,438.38c-3.75,1.89-5.01,8.95-7.04,12.94-.95,1.87-2.49,4.39-3.69,6.12-.62.91-.03,1.86-1.93,1.42-.96-1.15,6.9-18.49,8.9-20.66,1.24-1.34,3.04-1.98,3.75.18Z"/>
  <path class="cls-5" d="M633.15,459.62c-5.44.78-9.58-1.55-8.93-7.57,4.22-.33,9.32,3.07,8.93,7.57Z"/>
  <path class="cls-10" d="M228.08,260.99c1.26-2.14,4.93-8.64,6.29-9.9,1.78-1.65,3.06-1.06,4.2-1.99,5.15-4.24,15.5-21.64,20.49-28.22,17.96-23.65,35.75-47.3,58.33-66.44,22.05-18.69,47.5-33.67,71.02-50.53,23.9-17.14,45.26-34.36,71.49-48.51,10.29-5.55,21.61-8.67,32.28-13.38s20.22-10.8,30.79-14.89c2.67-1.03,12.89-5.78,9.63-.05-22.32,13.8-44.01,28.54-67.73,39.83,6.52-5.28,12.86-10.96,19.28-16.39.59-2.16-.44-2.22-2.34-1.63-5.94,1.85-32.44,23.55-37.02,29.02-1.41,1.68-3.76,4.1-3.74,6.42-29.65,21.34-57.93,44.41-83.78,70.5-18.68,21.01-33.98,44.44-49.82,67.55-8.71,12.71-18.02,24.22-26.5,37.08-2.91,4.42-10.68,14.72-12.25,18.99-1.27,3.48-1.4,7.97-3.03,12.08-4.18,10.54-16.96,21.31-26.66,26.68-18.34,10.14-27.26-5.11-25.81-22.48.84-10.04,9.65-24.88,14.88-33.75ZM417.95,88.14c-1.54-.42-2.03.53-3,1.1-10.27,6.07-22.65,13.97-32.38,20.86-10.15,7.18-21.52,15.75-25.66,28.07l12.26-9.11c12.14-13.57,28.92-21.55,42.44-33.36.94-.82,7.56-6.41,6.34-7.56ZM300.31,223.08c.81.83,4.56-3.42,5.23-4.14,5.78-6.22,21.65-30.09,24.72-37.76.48-1.2.73-2.28.57-3.58-3.38,2.62-5.87,6.56-8.35,10.07-7.97,11.26-15.56,23.29-22.17,35.41ZM254.14,248.09c.42-.59-.43-2.01-1.19-2.17-5.13-1.14-19.47,17.26-22.49,21.66-6,8.73-10.86,18.14-11.3,29.05,7.69-9.74,12.24-21.8,19.49-32.08,3.92-5.56,8.39-10.62,13.25-15.35.83-.8,2.17-1,2.25-1.11ZM224.36,313.29c7.01,2.44,11.59-.24,17.06-4.23,3.08-2.24,14.54-13.01,11.66-17.04-2.49-3.48-3.84,1.44-4.55,2.28-5.48,6.49-14.02,7.91-20.06,12.95-1.1.91-5.13,4.5-4.11,6.04Z"/>
  <path class="cls-9" d="M680.05,94.96c2.34-2.01,17.81-9.6,20.47-9.87.76-.08,2.46-.36,1.86,1.14-2.14,5.4-27.91,15.66-32.76,20.85,6.17-.95,12.87-2.7,19.1-2.97,2.65-.12,5.54.85,8.81.69,5.57-.26,11.59-2.63,17.11-3.05,2.64-.2,18.43.44,19.05,2.78,1.33,5-8.29,2.96-11.56,3.33-7.56.84-13.34,4.23-20.34,5.83-6,1.38-13.99,2.34-20.26,3.26-17.68,2.6-38.31,3.18-55.87,7.18-5.26,1.2-12.28,3.6-16.36,7.22,10.47-.64,20.92-2.11,31.27-3.78-3.56,3.82-8.1,6.7-11.92,10.22-31.75,29.25-58.89,57.28-80.41,95.16-2.75,4.84-5.96,9.45-8.58,14.39-5.45,10.27-9.02,24.39-20.18,29.49-14.79,6.75-19.53-6.22-15.52-18.84,1.86-5.85,4.04-13.52,8.5-17.88,1.55-1.52,2.92-1.75,4.51-3.37,7.73-7.91,17.16-19.97,24.95-28.8,10.31-11.67,22.93-29.54,35.01-37.89,4.54-3.14,8.79-9.77,12.62-13.68,6.63-6.77,14-12.77,19.74-20.45-26.59,8.36-53.08,18-78.45,29.67-9.69,4.46-31.37,13.99-39.2,19.6-5.73-2.13-12.48.69-18.03,2.49-12.35,4.01-35.98,16.14-44.16,26.31-1,1.24-2.51,2.89-2.59,4.56.48.44,7.09-1.81,8.19-2.27l-26.09,18.55c-2.65,6.41-7.23,10.28-11.14,15.57-5.47,7.4-11.72,16.22-16.38,23.5.74-1.13,3.67-7.6,3.65-8.74-.03-1.33-1.86-4.49-3.26-4.15-.77.19-1.81,3.21-2.61,4.17-1.66,1.99-4.74,5.19-6.69,6.83-3.98,3.35-13.83,7.4-15.28,11.79-1.1,3.32,4.51,5.76,7.62,4.69,3.81-1.32,14.3-11.09,16.59-14.59-.15.23.05,1.44-.43,2.18-4.13,6.44-9.74,18.51-17.88,19.74-1.91.29-7.06.83-8.87.82-10.32-.06-11.14-13.52-8.97-21.26,1.04-3.69,10.18-15.99,13.06-19.68,9.26-11.87,18.55-20.35,31.03-28.67,71.18-47.48,149.16-90.78,232.69-111.07,16.53-4.01,28.33-3.79,43.05-13.4l.74.76c-.72.82-1.25,1.96-2.23,2.66-.12.57.72.49,1.1.37,1.88-.62,11.88-7.53,14.09-9.19,1.16-.87,1.09-2.09,1.19-2.17ZM535.6,153.33l74.46-30.69c-1.03-1.59-1.64-.95-2.99-.82-10.34.98-39.46,12.12-49.85,16.76-7.91,3.53-16.01,7.92-21.62,14.75ZM598.89,159.4c-1.28-1.2-9.08,5.96-10.43,7.19-9.8,8.87-20.62,20.01-26.05,32.23l7.45-5.67c8.15-9.95,18.99-19.55,26.78-29.6.52-.68,2.83-3.61,2.25-4.15ZM517.74,244.31l23.83-26.14c1.83-2.44-.8-3.08-2.96-2.26-2.05.78-10.48,9.51-12.32,11.72-3.99,4.76-7.68,10.32-8.54,16.69ZM388.17,237.49c-12.21,2.38-25.92,13.98-29.03,26.53l29.03-26.53ZM510.29,273.12c4.98.54,8.9-2.95,11.89-6.46,2.05-2.41,10.31-14.67,5.6-17.03l-5.6,9.45c-2.4,2.83-5.41,5.16-7.81,7.97-.58.68-4.63,5.59-4.08,6.07Z"/>
  <path class="cls-9" d="M270.52,137.41c18-11.08,33.09-18.21,52.37-26.67,6.16-2.71,17.96-8.33,24.37-6.35,1.59.49,3.73,2.1,2.25,3.87-.61.73-8.8,3.63-10.98,4.75-9.3,4.8-18,11.61-27.03,16.45-20.29,10.87-37.89,20.43-57.14,33.55-7.16,4.88-13.8,10.6-21.06,15.33,3.11-2.78,6.16-5.66,9.34-8.34,1.33-1.12,3.76-1.15,4.07-4.15-.99-1.37-1.52-1.32-3.02-.83-2.52.84-10.65,7.2-13.29,9.22-8.46,6.46-17.96,14.58-23.47,23.87-.39.66-3.65,5.05-.43,4.49-18.3,17.86-32.88,36.41-44.68,59.13-.61,1.18-2.67,3.19-2.98,3.79.07-2.01.51-2.59-1.9-2.31-1.64.19-1.93,3.02-2.99,4.54-2.96,4.23-7.04,8.45-11.47,11.07-2.28,1.35-14.72,6-14.91,6.81-.39,1.67,5.29,3.87,6.52,4.02,6.17.73,16.08-7.98,19.54-12.75-4.23,9.93-11.89,19.51-22.12,23.35-15.48,5.81-19.27-9.41-17.17-22.03,1.19-7.15,6.24-8.39,10.27-12.28,1.29-1.25,1.9-2.92,2.95-4.2,14.32-17.27,30.23-27.26,46.18-42.07,13.23-12.29,24.67-26.43,37.95-38.69,14.11-13.02,29.49-24.74,45.43-35.24l.74.76c-2.5,1.95-4.82,4.25-6.7,6.82,2.54.11,4.94-1.15,7.2-2.14,8.48-3.7,21.14-12.03,29.22-17.25,2.6-1.68,7.91-4.66,9.76-6.75,1.14-1.3.13-1.82-1.01-1.81-8.16,4.6-16.92,8.18-25.06,12.79l-.74-.76ZM119.38,282.98c8.96-7.21,15.63-19.16,24.54-26.18,1.42-1.12,7.18-2.83,4.51-4.55-3.59-2.33-9.56,2.68-12.29,4.97-7.73,6.49-15.91,15.02-16.77,25.75Z"/>
  <path class="cls-12" d="M681.54,116.94c-.06,2.67-5.07,3.15-7.13,3.73-10.74,3.02-22.79,5.1-33.82,6.88-10.36,1.67-20.8,3.14-31.27,3.78,4.08-3.62,11.1-6.02,16.36-7.22,17.55-4,38.19-4.58,55.87-7.18Z"/>
  <path class="cls-8" d="M206.49,202.61c-3.22.57.04-3.83.43-4.49,5.51-9.28,15.01-17.4,23.47-23.87,2.65-2.02,10.77-8.38,13.29-9.22,1.5-.5,2.03-.54,3.02.83-.31,2.99-2.74,3.03-4.07,4.15-3.18,2.68-6.23,5.56-9.34,8.34-8.94,8.01-18.22,15.87-26.81,24.26Z"/>
  <path class="cls-12" d="M441.04,84.34c-.01-2.32,2.33-4.74,3.74-6.42,4.58-5.48,31.08-27.18,37.02-29.02,1.91-.59,2.93-.53,2.34,1.63-6.42,5.43-12.76,11.11-19.28,16.39-8.01,6.49-15.6,11.51-23.83,17.44Z"/>
  <path class="cls-4" d="M747.81,181.39c1.83-.85,7.18-3.58,8.57-3.79,1.58-.24,1.3,1.06,1.11,2.28-4.83,1.65-14.13,9.18-19.84,12.02-4.68,2.34-10.18,4.61-15.16,6.17-2.45.16-1.53-.44-.26-1.4,3.17-2.4,7.12-4.13,9.94-6.94.5-.28,1.02-.49,1.49-.76l2.98-1.52c1.18-.79-.11-.81,3.72-2.27,3.08-1.18,4.87-2.59,7.45-3.79Z"/>
  <path class="cls-4" d="M680.05,94.96c-.09.08-.03,1.3-1.19,2.17-2.21,1.66-12.21,8.57-14.09,9.19-.38.12-1.22.21-1.1-.37.98-.69,1.51-1.84,2.23-2.66.52-.59,1.57-1.59,2.23-2.27,2.77-2.84,7.53-8.24,11.91-6.07Z"/>
  <path class="cls-6" d="M270.52,137.41l.74.76c-4.43,2.51-9.38,5.21-13.4,8.34l-.74-.76c4.42-2.91,8.87-5.55,13.4-8.34Z"/>
  <path class="cls-6" d="M673.35,235.21c-3.72,2.47-6.85,6.02-11.17,7.58,2.22-2.09,4.39-4.02,6.7-6.07.82-.72,2.65-1.35,3.72-2.27l.74.76Z"/>
  <path class="cls-6" d="M732.18,189.73c-2.82,2.81-6.76,4.54-9.94,6.94-1.27.96-2.19,1.56.26,1.4-1.37.43-1.7,1.94-2.98-.76,4.42-2.75,7.99-4.98,12.66-7.58Z"/>
  <path class="cls-6" d="M747.07,180.63l.74.76c-2.57,1.2-4.36,2.61-7.45,3.79,1.21-2.6,4.54-3.24,6.7-4.55Z"/>
  <path class="cls-6" d="M668.14,101.02c-.67.69-1.72,1.68-2.23,2.27l-.74-.76c.63-.41,1.04-2.14,2.98-1.52Z"/>
  <path class="cls-6" d="M736.64,187.45l-2.98,1.52c.82-.46,2.83-1.42,2.98-1.52Z"/>
  <path class="cls-3" d="M788.02,377.75c.44.62-.46,1.87-1.07,2.31-4.36,3.14-27.77.83-34.27,3.02-13.65-.22-27.43.38-40.98-.8-2.72-.24-7-.52-9.31-1.89,3.11-1.2,8.03-1.74,11.51-1.92,21.72-1.17,45.11-.21,67.07-.69,1.51-.03,6.05-1.43,7.04-.03Z"/>
  <path class="cls-3" d="M234.04,389.88c-.42,3.23-4.67,4.79-7.25,5.88-14.3,6.06-43.42,7.12-58.31,2.87-2.22-.63-5.14-2.4-1.09-2.69,18.88-1.37,40.07,1.09,58.33-3.55,3.01-.76,5.33-2.37,8.32-2.51Z"/>
  <path class="cls-3" d="M457.42,383.06c14.71.54,29.55,4.55,44.29,3.78,2.11-.11,11.82-2.75,12.29-.35.96,4.84-13.66,6.26-16.72,6.46-10.99.72-28.75-1.26-38.16-7.46-.99-.65-2.01-.91-1.7-2.43Z"/>
  <path class="cls-12" d="M153.62,276.91c-3.46,4.77-13.36,13.48-19.54,12.75-1.23-.15-6.91-2.35-6.52-4.02.19-.81,12.64-5.46,14.91-6.81,4.43-2.62,8.5-6.84,11.47-11.07,1.06-1.51,1.36-4.35,2.99-4.54,2.41-.27,1.97.3,1.9,2.31-1.85,3.68-2.28,7.33-5.21,11.37Z"/>
  <path class="cls-3" d="M59.8,393.67c1.03,1.46-1.63,2.19-2.57,2.3-12.26,1.48-35.32-.32-46.42-5.91-.99-.5-2.06.5-1.64-1.71l50.63,5.31Z"/>
  <path class="cls-4" d="M673.35,235.21c.93-.62,7.4-5.23,5.84-1.26-.7,1.79-18.27,16.06-21.08,17.96-1.44.98-3.62,2.4-5.12,3.15-1.84.91-.77.53-1.97-.89,3.14-3.93,7.49-7.91,11.17-11.37,4.32-1.56,7.45-5.11,11.17-7.58Z"/>
  <path class="cls-7" d="M-1.26,433.85c1.78-3.06,4.53-5.31,6.68-7.98,1.39-1.72,4.71-8.55,6.71-7.18,3.67,2.52-7.51,21.83-13.39,21.23,0-2.02,0-4.05,0-6.07Z"/>
  <path class="cls-1" d="M60.54,465.68c-9.93-4.62-14.8-15.55-17.49-25.78-1.06-4.04-4.26-11.85,2.82-9.7,2.37.72,8.81,15.44,10.03,18.6.88,2.27,5.54,15.82,4.64,16.87Z"/>
  <path class="cls-7" d="M545.19,440.77c2.55,4.1-11.42,33.82-20,32.49,1.07-12.06,10.47-20.61,14.99-31.35.56-1.71,4.25-2.37,5.02-1.14Z"/>
  <path class="cls-1" d="M224.24,464.3c.32.51.91,5.54,2.2,7.99,2.77,5.31,10.87,11.02,12.5,16.85,1.05,3.75-5.63,1.57-7.56.86-7.56-2.8-12.71-13.7-12.15-21.55.05-.67.6-3.81.81-4.1.62-.88,3.7-.83,4.2-.04Z"/>
  <path class="cls-1" d="M517.73,474.02c-10.53-.75-17.39-25.77-15.31-33.42.53-1.94,3.4-3.13,4.03-.95.44,1.52-.03,3.65.44,5.61,2.53,10.45,10.38,17.98,10.83,28.77Z"/>
  <path class="cls-1" d="M372.53,429.29c1.55.08,3.67-.5,4.87.74,3.41,9.73,10.13,17.32,10.45,28.09.19,6.29-7.46-3.22-8.74-5.57-1.6-2.95-8.49-21.33-6.57-23.26Z"/>
  <path class="cls-1" d="M298.88,454.39c.39-.26,1.93-.19,2.45.01,1.56.59,2.51,10.8,3.23,13.4,1.59,5.72,5.03,11.57,6.8,17.36.3,3.29-5.21.73-6.55-.17-4.66-3.14-7.42-16.67-7.43-22.07,0-1.25,1.06-8.24,1.5-8.53Z"/>
  <path class="cls-7" d="M598.1,439.97c2.36,3.17-7.5,17.6-9.99,20.42-3.88,4.39-7.38,7.9-13.78,6.81l21.2-27.37,2.57.15Z"/>
  <path class="cls-7" d="M722.5,466.44c-.79-.77,8.82-15.67,9.72-18.53.38-1.21,1.44-5.92,1.27-6.78-.21-1.11-2.57-1.89-2.06-3.86.85-3.26,4.93.79,5.84,2.38,4.72,8.2-4.19,27.61-14.78,26.8Z"/>
  <path class="cls-7" d="M187.07,453.62c2.5,4.3-9.61,12.81-12.83,14.48-5.41,2.81-11.59,4.02-17.63,3.65-.34-1.61.8-1.73,1.73-2.4,6.74-4.94,14.5-7.89,21.57-12.15,2.85-1.72,3.99-5.11,7.17-3.58Z"/>
  <path class="cls-1" d="M139.47,469.48c-5.27-.33-7.66-6.73-8.71-11.22-.59-2.52-2.49-13.87-.9-15.24,1.4-.3,2.87-.25,4.09.62.75.54,5.53,13.32,5.53,14.08v11.75Z"/>
  <path class="cls-7" d="M458.17,462.65c1.64-7.13,10.21-17.88,8.03-25.24-.24-.81-6.27-6.54-.37-4.92,11.97,3.28,3.25,29.76-7.66,30.17Z"/>
  <path class="cls-7" d="M388.18,456.59c1.32-11.28,10.01-19.87,15.5-29.32.97-1.67,1.04-5.75,3.48-4.79,2.07.82-.83,7.39-1.49,9.08-3.65,9.25-9.74,18.85-17.48,25.03Z"/>
  <path class="cls-7" d="M315.95,470.99l10.99-28.6c-.06-1.3,1.38-1.25,2.03-.96,2.01.88.56,8.01.17,10.02-1.35,7.11-5.16,18.27-13.2,19.54Z"/>
  <path class="cls-7" d="M71.72,459.62c.91-7.92,8.94-10.95,11.56-18.17.55-1.52-.13-7.13,3.36-4.98,5.52,3.4-5.35,22.12-10.87,23.11-1.3.23-2.73-.01-4.05.04Z"/>
  <path class="cls-1" d="M688.25,440.67c-.3.74-.66,1.37-.38,2.22,2.19,6.67,18.63,17.23,24.3,22.34.71.64,1.88,0,1.39,1.97-9.71-1.61-21.71-10.47-25.92-19.46-1.18-2.52-3.55-8.12.62-7.06Z"/>
  <path class="cls-7" d="M245.96,483.88l16.01-25c.67.73,1.83,1.32,1.73,2.5-.06.72-3.57,8.91-4.21,10.13-2.59,4.96-7.45,12.38-13.53,12.37Z"/>
  <path class="cls-7" d="M649.69,435.55c1.11-.66,4.45-.49,4.96,1.05,1.72,5.21-11.39,15.25-16.32,12.05-1.65-1.07,2.39-5.34,3.45-6.39,1.94-1.9,4.38-3.17,6.54-4.75.75-.55,1.06-1.79,1.37-1.97Z"/>
  <path class="cls-1" d="M790.99,445.98c-3-2.04-4.39-6.63-5.4-10.04-.65-2.17-3.38-15.92-2.78-16.49.44-.42,2.63.13,3.4.7,3.57,2.6,5.4,21.12,4.78,25.83Z"/>
  <path class="cls-1" d="M452.21,455.83c-6.33,2.09-14.4-21.07-13.4-21.97,2.2-2,5.67,3.69,6.55,5.07,3.28,5.16,5.18,11.04,6.85,16.9Z"/>
  <path class="cls-1" d="M636.86,447.49c-1.22,1.42-5.14-5.11-5.58-6.06-.85-1.83-3.71-10.97-2.6-12.12,1.21-.07,1.73-.27,2.57.78.35.44,4.85,9.42,5.03,10.04.75,2.6.68,4.72.58,7.37Z"/>
  <path class="cls-1" d="M572.82,458.11c-5.9-4.02-8.54-11.35-9.67-18.19,1.82-1.78,6.14,5.72,6.82,7.07,1.8,3.54,3.22,6.98,2.85,11.12Z"/>
  <path class="cls-15" d="M123.84,469.48c-1.49-1.83-3.19-5.08-3.55-7.39-.46-2.95.53-4.19.57-6.26,1.74,3.92,2.17,9.19,2.98,13.65Z"/>
  <path class="cls-12" d="M757.49,179.87c.65-.22,4.3-.91,4.46-.75l-.73,2.46c-4.74,5.46-13.09,10.54-17.58,15.69-.75.87-.94,2.2-1.05,2.31-.5.51-.99,1.01-1.49,1.52-1.68-.24-2.27.55-3.38,1.48-5.81,4.89-11.12,10.51-17.22,15.07-2.21,1.65-9.72,7.08-11.8,7.7-.94.28-1.5-.18-1.1-1.12.93-2.16,11.07-13.02,13.39-15.18,8.82-8.25,19.76-16.42,29.36-23.6,2.48-1.86,6.59-2.18,7.14-5.58Z"/>
  <path class="cls-13" d="M417.95,88.14c1.22,1.15-5.41,6.74-6.34,7.56-13.53,11.81-30.31,19.78-42.44,33.36l-12.26,9.11c4.15-12.32,15.51-20.89,25.66-28.07,9.74-6.89,22.12-14.79,32.38-20.86.97-.58,1.47-1.53,3-1.1Z"/>
  <path class="cls-13" d="M254.14,248.09c-.07.1-1.42.3-2.25,1.11-4.86,4.73-9.33,9.78-13.25,15.35-7.25,10.28-11.8,22.34-19.49,32.08.44-10.91,5.3-20.32,11.3-29.05,3.03-4.4,17.36-22.8,22.49-21.66.76.17,1.61,1.58,1.19,2.17Z"/>
  <path class="cls-12" d="M224.36,313.29c-1.02-1.54,3.01-5.12,4.11-6.04,6.04-5.03,14.58-6.46,20.06-12.95.71-.85,2.06-5.77,4.55-2.28,2.88,4.03-8.58,14.8-11.66,17.04-5.47,3.99-10.05,6.66-17.06,4.23Z"/>
  <path class="cls-12" d="M300.31,223.08c6.62-12.12,14.2-24.15,22.17-35.41,2.48-3.5,4.97-7.45,8.35-10.07.16,1.3-.09,2.38-.57,3.58-3.07,7.67-18.93,31.54-24.72,37.76-.67.72-4.43,4.97-5.23,4.14Z"/>
  <path class="cls-8" d="M491.67,185.18c-4.88,3.51-12.4,6.27-18.63,9.46-12.13,6.22-25.96,16.64-37.96,21.62-1.1.46-7.7,2.71-8.19,2.27.08-1.66,1.59-3.31,2.59-4.56,8.18-10.17,31.81-22.29,44.16-26.31,5.55-1.8,12.3-4.62,18.03-2.49Z"/>
  <path class="cls-4" d="M535.6,153.33c5.61-6.84,13.71-11.22,21.62-14.75,10.39-4.64,39.51-15.78,49.85-16.76,1.34-.13,1.95-.77,2.99.82l-74.46,30.69Z"/>
  <path class="cls-12" d="M381.47,273.88c-2.28,3.5-12.78,13.27-16.59,14.59-3.1,1.08-8.71-1.37-7.62-4.69,1.45-4.39,11.3-8.44,15.28-11.79,1.95-1.64,5.04-4.84,6.69-6.83.8-.96,1.84-3.99,2.61-4.17,1.4-.34,3.23,2.82,3.26,4.15.03,1.14-2.91,7.61-3.65,8.74Z"/>
  <path class="cls-12" d="M598.89,159.4c.58.54-1.73,3.47-2.25,4.15-7.78,10.05-18.63,19.64-26.78,29.6l-7.45,5.67c5.43-12.22,16.24-23.35,26.05-32.23,1.35-1.22,9.15-8.39,10.43-7.19Z"/>
  <path class="cls-13" d="M517.74,244.31c.87-6.37,4.56-11.93,8.54-16.69,1.85-2.2,10.27-10.94,12.32-11.72,2.16-.82,4.8-.18,2.96,2.26l-23.83,26.14Z"/>
  <path class="cls-13" d="M388.17,237.49l-29.03,26.53c3.11-12.55,16.82-24.15,29.03-26.53Z"/>
  <path class="cls-12" d="M510.29,273.12c-.55-.48,3.5-5.39,4.08-6.07,2.4-2.81,5.41-5.14,7.81-7.97l5.6-9.45c4.71,2.36-3.54,14.62-5.6,17.03-2.99,3.52-6.91,7.01-11.89,6.46Z"/>
  <path class="cls-4" d="M271.27,138.17c8.14-4.61,16.9-8.19,25.06-12.79,1.15,0,2.16.51,1.01,1.81-1.84,2.09-7.16,5.07-9.76,6.75-8.08,5.22-20.74,13.55-29.22,17.25-2.26.99-4.66,2.25-7.2,2.14,1.88-2.57,4.2-4.87,6.7-6.82,4.02-3.13,8.97-5.83,13.4-8.34Z"/>
  <path class="cls-13" d="M119.38,282.98c.85-10.73,9.04-19.26,16.77-25.75,2.73-2.29,8.7-7.3,12.29-4.97,2.66,1.72-3.09,3.43-4.51,4.55-8.92,7.02-15.59,18.96-24.54,26.18Z"/>
  <path class="cls-12" d="M644.38,286.7c-2.23-3.34,10.16-12.26,11.75-15.58,1.26-2.64-.04-6.74,3.29-6.23,10.71,1.64-6.28,28.27-15.03,21.81Z"/>
</svg>