<?xml version="1.0" encoding="UTF-8"?>
<svg id="Calque_1" data-name="Calque 1" xmlns="http://www.w3.org/2000/svg" viewBox="0 0 800 800">
  <defs>
    <style>
      .cls-1 {
        fill: #9dcbaa;
      }

      .cls-2 {
        fill: #a5d0b1;
      }

      .cls-3 {
        fill: #a8d2b4;
      }

      .cls-4 {
        fill: #f5f8f5;
      }

      .cls-5 {
        fill: #d2e2d1;
      }

      .cls-6 {
        fill: #00723b;
      }

      .cls-7 {
        fill: #cee9f7;
      }

      .cls-8 {
        fill: #d4e3d5;
      }

      .cls-9 {
        fill: #00713a;
      }

      .cls-10 {
        fill: #009351;
      }

      .cls-11 {
        fill: #d0dfc9;
      }

      .cls-12 {
        fill: #acd4b8;
      }

      .cls-13 {
        fill: #d9ddb1;
      }

      .cls-14 {
        fill: #dae6d7;
      }

      .cls-15 {
        fill: #00703a;
      }
    </style>
  </defs>
  <path class="cls-10" d="M301.06,129.31c1.37-.22,4.09-.12,5.57,0,6.73.56,10.61,5.21,12.87,11.38,3.58,9.79.84,31.33-1.33,41.89-2.49,12.12-6.36,24.22-5.18,36.96,1.18,12.75,7.8,5.1,10.72-2.01,6.17-14.98,7.03-47.9,21.92-57.57,2.62-1.7,4.37-1.54,7.12-2.03h6.36c3.79.89,4.71,1.16,7.58,3.95,11.32,11.02,8.19,27.66,3.76,41.17-4.54,13.84-8.28,25.62-14.41,38.85-20.71,44.69-50.03,85.27-65.54,132.42-8.87,26.95-18.05,66.6-12.3,94.58.22,1.06.94,6.06,2.56,5.38,1.52-1.4,2.84-3.22,3.62-5.13,5.31-12.91,2.91-23.34,5.1-35.44,2.37-13.1,19.43-49.25,31.71-54.94,2.41-1.12,3.68-1.08,6.11-1.45h3.98c6.87,1.66,10.15,4.28,11.05,11.61,2.17,17.83-8.75,32.35-13.67,48.16-3.19,10.24-5.42,21.88-8.51,32.43-6.68,22.86-14.92,40.7-13.51,65.57.66,11.74,5.9,35.87,12.53,45.47.48.7-.13,1.48,1.77,1.03,2.34-21.82-7.45-42.44-7.18-64.02.15-12.51,3.01-34.74,7.19-46.46,2.9-8.14,8.53-11.93,16.7-13.51h7.95c15.69,4.26,15.91,31.1,15.1,44.11-1.19,19.17-2.64,35.62-2.38,55.25.01,1.11-.32,6.37.4,6.37.92-1.93.9-4.29,1.19-6.37,1.71-12.09,4.06-20.78,3.94-32.95-.21-20.7,1.57-41.38.87-62.07-1.53-45.33-10.72-89.82-7.99-135.49l.8-1.59c3.27-43.75,21.9-101.76,37.56-143.29,5.12-13.58,9.96-28.07,26.06-30.79h11.93c4.3.65,8.69,1.07,11.96,4.34,5.95,5.96,12.03,22.64,12.68,31.04,1.86,23.72-12.2,69.42-22.37,91.28-17.93,38.53-41.62,80.16-38.05,124.89.15,1.9.73,6.5,2.36,7.56.7-5.75,2.5-11.34,3.19-17.09,2.17-18.34,3.4-33.17,9.31-51.1,3.41-10.37,19.46-16.04,28.09-9.32,15.34,11.95,8.44,45.4,4.52,61.78-8.15,34.11-21.26,66.11-31.8,99.36-8.21,25.9-9.7,46.32-10.14,73.32-.11,6.57-1.02,30.56.84,35,1.52,3.63,3.83,1.76,5.44-.9,1.48-2.45,5.69-15.21,6.72-18.72,5.27-17.86,2.01-37.47,2.91-55.92.57-11.84,5.52-42.35,17.77-47.42,10.47-4.33,17.04.05,19.64,10.49.93,3.75.77,7.32.8,11.13.05,8.8-2.34,16.32-2.45,24.23-.12,9.33,3.95,10.63,4.82,0,.6-7.28-.27-16.8-.78-24.23-.3-4.35-1.05-8.6-1.59-12.72-2.17-16.48-4.05-35.22-4.8-52.03-.32-7.08.09-29.36,3.33-34.89,2.78-4.73,7.33-7.67,12.61-8.46h3.98c2.54.56,4.34.79,6.4,2.74,4.62,4.38,5.09,17.01,4.77,23.12-.64,11.94-7.04,24.87.37,36.13,2.94-9.19,1.26-19.46,2-29,.79-10.27,3.31-21.6,3.96-31.82,1.49-23.62-8.24-37.61-11.82-59.7-5.07-31.23-3.99-66.66-4.04-98.5-.02-14.03-.35-27.93.77-42.09.69-8.7,1.04-27.79,7.89-33.44,2.02-1.67,3.41-1.44,5.62-1.94l3.18-.79c5.9-.07,8.02,2.21,10.98,6.91,10.97,17.47,12.81,43.24,12.12,63.46-.34,10.06-2.48,18.71-.83,28.98.3,1.88-.98,3.71,1.59,3.17.07-.51-.09-1.11,0-1.58,1.22-6.45,3.22-13.99,3.89-20.35,2.19-20.6.78-53.36,8.24-72.05,3.51-8.78,4.33-8.78,13.32-10.93,1.27-.05,3.3.49,3.98-.79.75-.09,1.61.02,2.39,0h3.18c2.79.78,4.29,1.5,6.4,3.54,29.65,28.82,7.32,62.48-1.24,94.21-5.91,21.93-8.25,46.42-13.37,69.3-1.88,8.4-2.96,17-5.31,25.29.64.53,8.52-6.37,15.67-2.53,11.17,6,8.06,31.21,5.43,41.51-3.36,13.19-11.08,23.73-17.01,35.46-5.93,11.73-8.13,23.32-18.71,32.17-6.21,16.99-17.64,33.41-23.7,50.23-5.32,14.78-4.08,30.75-10.84,46.39-1.8,4.17-6.16,9.65-7.29,13.39-.36,1.21.05,1.3,1.14,1.15,9.51-1.3,18.16-1.28,19.44,10.05,1.01,8.87.48,25.39-5.47,32.52-3,3.6-9.52,5.18-7.96,11.51,2.46-1.26,4.88-2.69,6.77-4.75,11.24-12.27,19.21-34.37,21.64-50.7,4.05-27.25-4.61-55.57-2.2-82.48,1.9-21.31,35.79-21.52,40.24-2.8,3.28,13.8.11,32.18,2.82,47.26.4,2.23.87,5.76,3.09,6.84,1.11-9.54,2.78-18.51,2.39-28.21-.96-23.74-1.02-44.62-.75-68.33.2-17.22-3.34-40.86,3.92-56.49,3.05-6.56,15.69-10.37,21.77-6.62,1.94,1.2,9.55,12.98,10.72,15.51,8.6,18.55,7.62,68.36,6.52,89.72-.26,5.11-1.1,11.31-1.85,16.43-.83,5.62-7.62,32.76-5.76,35.63s5.83-6.36,6.38-7.98c12.48-36.56,15.57-86.25,9.05-124.3-5.53-32.28-24.28-44.11-41.92-68.59-12.79-17.76-14.45-48.58-12.89-69.84.42-5.76,1.32-11.01,6.97-13.71,6.1-2.92,13.84-2,19.26,1.87,7.67,5.47,16.12,34.07,21.52,44.06.38.7.08,2.27,1.58,2.38-.02-.79.06-1.6,0-2.38-.98-13.98-7.36-28.35-11.35-41.51-5.22-17.23-5.16-37.9-6.11-55.89-.52-4.38-.92-13.88.32-17.89,2.14-6.94,16.42-9.99,22.71-11.09h9.54c17.53,4.07,25.89,25.82,28.52,41.84,3.14,19.09,1.81,46.16.94,65.9-1.45,32.68-13.39,81.66,1.42,111.39,3.51,7.04,5.16,7.3,9.22.99,9.48-14.71,9.57-35.73,6.63-52.6-3.51-20.09-13.53-36.88-10.95-58.24.87-7.2,9.09-13.83,16.33-13.95,15.12-.25,20.81,23.74,21.76,35.53,1.06,13.11-1.43,40.1,5.47,50.95,2,3.15,1.93-1.29,2.75-3.19,5.56-12.9,4.61-40.55,2.96-54.95-3.41-29.65-13.94-73.93,1.3-101.36,10.76-19.36,27.53-31.45,48.79-17.86,6.24,3.99,8.11,5.51,10.01,13.04,6.37,25.17-4.61,48.94-10.37,73.1-5.19,21.75-10.9,45.64-10.7,67.98.3,33.2,3.8,55.69-17.19,83.79-12.63,16.91-26.52,31.59-37.84,49.62-14.62,23.3-25.66,49.98-38.42,74.47-2.03,3.9-4.98,7.43-6.77,11.52.76,1.27,1.77-.24,2.39-.79,4.1-3.59,5.33-9.03,8.08-13.39,17.79-28.19,36.84-55.57,53.96-84.37,6.97-11.72,8.44-22.75,22.84-28.05,19.56-7.2,25.48,3.04,23.96,21.57-1.45,17.74-20.16,41.69-29.48,57.18-4.12,6.85-6.45,15.25-10.18,22.01-.23.41-1.08,1.55-1.59,2.38-.98,1.61-4.19,3.69-3.97,6.36,2.16-1.17,3.18-3.82,4.76-5.56.8-.88,1.46-1.61,2.39-2.38,3.39-2.86,2.95-2.36,7.16-3.18h6.36c2.68.76,3.24.58,5.11,3.24,14.59,20.67-1.28,48.24-17.83,62.35-19.55,16.67-42.76,22.31-63.09,36.3-6.09,4.19-11.23,9.82-18.02,13.78-15.35,8.96-35.25,16.66-52.5,21.05-2.46-1.14-6.8.83-9.54,1.59-4.27,1.18-8.4,2.18-12.72,3.18-1.27.05-3.3-.49-3.98.79-.25.06-.54-.06-.8,0-1.27.05-3.3-.49-3.98.79-6.89,1.51-13.74,3.46-20.68,4.77l-1.18-.79-.41.79c-.26.05-.54-.05-.8,0-1.27.05-3.3-.49-3.98.79-3,.51-5.59,1.22-8.75,1.59-1.99.25-4.99-.79-6.36.79-.26.01-.53-.01-.8,0-3.56.14-8.09-.77-11.13.79-.27,0-.53,0-.8,0-3.78.02-8.65-.68-11.93.79-.26,0-.53,0-.8,0-4.48.14-9.31-.38-13.52,1.59-.26.02-.53-.01-.8,0-1.76.07-4.46-.63-5.57.79-1.85.02-3.71-.02-5.57,0-9.95.1-19.85.68-29.83.78-1.34.01-3.54-.51-4.36.81-.27,0-.53,0-.8,0-15.97.15-31.8-.18-47.72-.79-.26-.01-.53,0-.8,0-1.32-1.42-4.37-.78-6.36-.79-1.06-.01-2.12,0-3.18,0-3.85-1.51-9.18-.73-13.52-.79-1.32-.02-2.65.04-3.98,0-4.18-1.36-9.15-1.39-13.52-1.59-.26-.01-.53,0-.8,0-2.11-1.48-5.99-.76-8.75-.79-.27,0-.53,0-.8,0-1.11-1.43-3.81-.71-5.57-.79-.26-.01-.53.02-.8,0-.68-1.29-2.7-.75-3.98-.79-2.67-.44-4.76-1.12-7.16-1.59-1.78-.35-2.62-.59-4.77-.79-1.04-.1-2.14.09-3.18,0-3.03-1.68-7.09-1.27-10.34-1.59-2.8-.27-5.98-.33-8.75-.79.71-2.68-3.21-1.39-5.57-1.59-5.32-.46-7.96-1.9-12.72-3.18-2.82-.76-3.83-.45-6.36-.79-13.67-1.87-12.6-4.91-23.08-9.13-9.91-3.99-21.92-6.69-32.01-10.93-51.79-21.76-98.16-70.21-123.46-119.83-10.55-20.69-25.68-59.34-23.44-82.28.85-8.66,5.16-23.79,11.11-30.23,7.88-8.54,15.08-8.15,24.12-1.81,19.71,13.81,19.77,40.24,25.26,61.39,4.27,16.45,10.62,36.89,20.62,50.53.54.74,2,3.99,2.38,3.18.38-2.04-.94-3.28-1.58-4.76-4.78-10.95-12.32-23.12-13.51-35.38-.69-7.06-.85-27.63,3.59-32.95,1.75-2.09,2.28-1.29,4.35-1.62h2.39c16.79,1.81,32.03,21.74,35.57,37.18,6.8,29.7,4.08,64.24,25.35,89.12l15.84,15.17c1.8.33,1.1-.79,1.18-1.97,1.9-26.14-19.16-74.81-30.07-99.52-10.77-24.4-19.14-38.13-39.11-56.29-18.18-16.54-38.41-31.26-57.28-46.88-33.09-27.39-54.16-87.43-54.86-129.56-.14-8.55-.51-17.59,2.79-25.83s9.37-12.06,17.88-13.52h4.77c16.11,4.15,19.45,23.88,22.02,38.01,4.55,25.07,10.08,83.65,31.67,98.71,1.39.97,2.53,1.87,4.37,1.59,1.23-14.76-8.51-27.12-12.68-40.98-3.77-12.55-9.16-33.32-9.62-46.03-.37-10.16,1.28-20.49,1.18-30.68,3.25-4.88,7.52-6.88,13.16-7.91h6.36c6.65,1.58,19.33,10.28,23.87,15.49,5.33,6.1,13.77,27.65,15.02,35.86s-.5,15.47.08,22.99c.28,3.58,1.73,2.05,3.06-.13,2.08-3.4,5.78-11.7,7.42-15.64,6.01-14.43,4.81-25.36,4.66-40.71-.16-17.05-.85-34.37-.8-51.67.01-4.99-.97-9.36.15-14.89,1.18-5.85,11.71-10.82,17.31-10.91.68,1.29,2.7.75,3.98.79,16.62,2.96,26.5,22.99,30.8,37.97,5.87,20.47-6.49,73.12-12.91,94.77-5.35,18.05-14.17,31.72-21.64,48.32-10.73,23.84-2.93,61.86,9,84.33.78,1.47,3.32,6.33,5.07,4.86.29-.24,1.62-6.43,1.47-7.35-.69-4.04-9.47-17.3-11.62-22.64-4.71-11.71-6.75-40.61,6.71-46.99,1.94-.92,2.62-.59,4.24-.92h7.16c10.03,2.84,13.18,14.49,14.75,23.8,1.99,11.77-.51,23.51-.43,35.4.13,18.86.35,43.93,8.84,61.11,1.95,3.94,6.25,7.8,8.78,11.89,14.86,23.93,13.89,57.32,20.12,84.02,1.73,7.41,3.28,12.31,6.79,19.05.39.75.11,2.26,1.58,2.38.52-1.19-.76-2.02-.79-2.38-.1-1.22.4-2.45.35-3.55-.8-18.6-6.82-41.47-10.48-59.84-3.11-15.63-7.99-30.53-10.73-45.71s-4.61-31.61-6.87-47.18c-7.43-51.03-13.06-100.55-15.24-152.48-.67-15.95-.41-44.86,10.04-57.59,3.19-3.89,4.45-3.94,9.07-4.84h6.36c7.14,1.84,9.47,6.38,12.07,12.97,7.42,18.82,3.8,43.7,3.83,63.72,0,5.51-1.11,10.63,1.01,16.49,1.25,3.45,4.8,7.16,5.94,1.6.92-4.48-.1-10.54.21-15.3l.8-.79c2.92-46.52-2.31-93.57,5.63-139.43.69-3.99,3.93-12.72,6.3-15.96s13.09-11.75,16.7-12.32ZM301.06,141.22c-.58-2.54-3.34-.53-4.72.46-8.64,6.19-17.35,27.17-17.54,37.7l5.98-15.87c3.77-8.13,7.2-18.68,16.28-22.29ZM309.8,183.35c3.39-8.28,5.36-19.27,3.94-28.17-.31-1.93-1.33-3.17-2.75-4.4.95,2.6,2.06,5.5,2.06,8.33-.02,7.86-2.8,13.83-3.97,20.73-.13.78-.7,3.67.72,3.5ZM387.73,227.07c2.31-5.56,5.93-10.37,8.35-15.9,3.8-8.72,6-15.77,10.37-24.61,4.62-9.37,9.25-22.35,20.05-26.06.79-.27,10.84-2.07,6.11-3.31-2.76-.72-10.83,2.41-13.32,4.06-11.31,7.51-20.73,35.7-25.6,48.34-2.03,5.27-5.26,9.13-6.39,15.08-.16.82-1.04,2.61.43,2.42ZM551.57,161.09c-1.38-2.95-7.98.36-10.08,1.45-13.5,7.04-11.04,24.79-13.08,37.8-1.25,7.94-3.74,15.56-4.66,23.55,1.23-.63,2.24-3.48,2.76-4.78,4.93-12.38,3.87-26.29,6.09-39.22,2.03-11.84,6.99-16.75,18.98-18.8ZM496.7,162.7c-9.24-.14-12.68,8.33-14.57,16.03-3.69,15-2.41,31.67.27,46.75,1.38.19.75-1.81.79-2.77.57-14.61-4.35-41.05,4.78-53.26,2.59-3.46,6.02-3.9,8.74-6.75ZM350.36,164.28c-11.53,4.78-15.26,19.83-17.48,30.99,1.32-.81,2.76-3.6,3.34-5,3.74-9.08,3.63-15.88,11.76-23.3,1.66-1.51,2.93.99,2.38-2.69ZM602.48,244.56c2.53-1.91,1.77-8.42,1.62-11.56-.92-18.95-9.32-42.19,4.33-58.4,1.41-1.68,2.94-2.36,4.34-3.62,1.15-1.04.19-1.92-.35-1.92-2.67-.02-8.78,8.08-10.09,10.57-4.18,7.92-4.04,16.82-3.82,25.57l3.98,39.35ZM174.6,208.79c.34-6.28-2.65-13.33-2.39-19.44.31-7.12,4.69-12.89,6.37-19.51-8.5,9.23-9.83,21.53-6.76,33.39.45,1.72,1.03,4.71,2.78,5.56ZM367.81,173.08c-.08-.09-1.92-.68-2.32-.47,5.08,19.18-7.22,37.47-9.55,56.05,3.37-4.02,5.55-11.14,7.16-16.28,2.06-6.57,5.1-17.15,5.58-23.83.13-1.84-.35-14.9-.88-15.47ZM211.98,215.15c.49-6.65-1.58-13.97-4.16-20.08-2.32-5.5-11.54-18.17-16.76-20.61-1.62-.75-3.58-1.05-5.31-1.44l7.97,5.94c12.28,12.45,10.69,20.54,16.32,34.6.51,1.28-.08,1.94,1.95,1.59ZM736.86,173.03c-.64-.64-4.07,2.18-4.78,2.77-12.74,10.44-18.61,18.69-21.23,35.22-2.47,15.62,2.5,27.88,4.55,43.08,1.16.19,1.09-1.4,1.33-2.22,2.62-9.04-4.22-23.03-3.75-33.98,1.05-24.82,8.92-25.97,22.3-42.09.74-.89,1.93-1.29,1.59-2.78ZM556.98,174.78c-.07-.09-1.85-.9-2.21-.57,1.47,1.95,2.12,4.8,2.36,7.17,1.46,14.62-.8,29.92-3.96,44.11,7.77-9.14,7.16-25.46,6.35-36.95-.15-2.18-1.62-12.56-2.53-13.76ZM646.2,235.81c-.36-16.5-1.51-34.48-10.31-48.9-2.96-4.85-8.84-13.99-15.13-13.09-.47,2.43,1.87,1.28,3.62,2.33,4.89,2.94,12.52,17.46,14.28,23.09,3.45,11.01,2.25,21.47,4.73,31.83.35,1.48.58,5.35,2.81,4.74ZM742.44,252.51c2.75-2.33,4.05-6.79,5.36-10.14,7.01-17.95,19.76-51.37,1.39-65.38-2-1.53-6.82-5.14-6.76-.8,5.57.5,12.75,9.68,13.45,14.78,2.83,20.7-12.82,41.16-13.44,61.53ZM508.62,262.84c-1.47-13.05.02-26.21-1.7-39.23-1.37-10.35-4.56-21.04-5.84-31.52l-2.78-7.94c2.05,14.19,6.18,29.91,7.14,44.12.41,6.08-1.18,30.11.9,33.28.63.95.99,1.55,2.28,1.29ZM446.59,225.09c.52-5.59,0-12.51,0-18.28,0-.14-1.07-1.25-1.59-1.19v16.29c0,6.48-10.24,28.41-13.38,35.91-3.4,8.12-9.17,15.39-8.88,24.9,1.14-.19,1.53-1.46,2.02-2.35,6.13-11.18,10.45-24.78,15.08-36.59,2.73-6.96,5.95-9.97,6.75-18.69ZM328.11,228.66c4.41-4.07,5.63-11.79,6.35-17.48l-6.35,17.48ZM310.59,231.05c-1.82-4.57-3.41-11.35-5.51-15.55-.58-1.16-.71-2.27-2.43-1.93,2.82,5.52,2.82,13.47,7.94,17.48ZM40.2,247.73c2.65-7.27,2.09-15.42,4.75-22.68,1.67-4.56,10.05-12.13,1.56-7.18-4.89,4.13-7.35,20.85-7.1,27.09.04.96-.61,2.95.78,2.76ZM71.22,259.66c.26-9.63-2.01-20.73-5.75-29.62-1.53-3.64-2.92-8.99-7.76-7.74-.15,2.56,2.2,1.11,3.87,3.68,5.12,7.87,5.27,21.72,7.63,30.53.31,1.18.61,2.83,2.01,3.15ZM260.49,266.82c-.22-9.33-.79-19.89-4.38-28.6-2.11-5.1-8.2-15.72-13.9-8.77,9.36-2.4,12.95,11.96,14.1,18.91.98,5.9-.48,14.68,4.19,18.46ZM104.62,227.87c-1.22-1.49-3.33,4.17-3.56,4.78-4.32,11.43-6.58,27.65-1.2,38.92,1.36.2.84-1.88.77-2.76-1.04-13.31-1.85-18.6,1.2-32.22.38-1.7,3.08-8.38,2.79-8.73ZM133.25,252.5c.63-6.18-2.06-11.25-6.77-15.08-3.51-2.85-13.76-9.09-17.87-5.97l9.55,3.95c9.75,4.92,8.63,7.3,13.1,15.55.6,1.11-.07,1.96,1.99,1.55ZM227.89,256.88c-.33,4.25,0,9.16,0,13.51,0,.23.84,4.42,1.58,4.37-.87-14.37,1.09-27.39,5.58-40.92-.85-1.27-.94.63-1.18,1.2-1.35,3.3-2.93,7.09-3.81,10.51s-1.91,7.92-2.18,11.34ZM277.99,307.35c.74-5.51,3.44-11.66,3.98-17.09.47-4.82-.31-10.23-.03-15.13.56-9.58,1.78-19.3,1.62-28.98l-1.57,9.14c-.71,9.89-.67,19.58-.78,29.36-.06,5.46-3.33,12.61-3.99,18.33-.1.86-.63,4.39.78,4.36ZM575.42,249.33c-3.21,1.01-5.09,5.51-6.17,8.53-5.54,15.38-2.79,28.69,1,43.94.49,1.96,2.27,10.71,4,11.12,2.63-.24,2.07-3.2,1.9-5.07-1.7-18.24-11.3-27.95-4.65-48.53,1.19-3.67,3.92-6.25,3.92-9.98ZM596.1,297.02c.03-1.69.1-3.38-.09-5.07-.76-6.76-3.53-25.86-7.86-30.29-1.44-1.48-5.68-4.64-5.97-1.19,13.58,7.32,5.12,26.43,13.92,36.56ZM164.28,287.48c6.37-7,7.82-18.63,8.73-27.82l-4.54,16.52-4.2,11.3ZM672.45,266.82c-2.78-.48-2.88,1.05-3.79,2.96-4.75,9.95-2.6,26.26.39,36.6.89,3.09,1.88,6.55,4.99,8.12-.16-9.18-6.38-20.8-6.42-29.81,0-1.34,2.4-18.5,4.03-16.29l.8,3.18v-4.76ZM693.12,309.73c.71-9.02-2.47-19.66-7.29-27.28-1.96-3.09-9.48-13-11.78-6.1,2.78-1.9,4.94,1.04,6.76,3.17,7.94,9.32,7.16,18.17,10.51,28.48.43,1.33-.35,2.1,1.8,1.73ZM148.36,297.02c.67-.75-6.54-16.13-5.81-19.24l-1.34-2.22c-.34,3.74.46,7.35,1.36,10.95.21.85,3.84,12.69,5.79,10.5ZM200.85,280.33c-1.84-2.43-1.76,5.57-1.94,6.4-2.63,11.96-9.23,21.31-13.18,32.13-1.13,3.1-2.7,6.75-1.57,9.95,2.05,1.55,4.33-9.03,4.95-10.54,5.02-12.19,11.54-24.31,11.74-37.94ZM371.85,289.87c-1.55,8.95-7.21,16.02-9.49,25.09-.42,1.68-3.36,13.82-.46,13.83,1.53.01,1.75-14.52,3.37-16.48,1.18-5.8,6-11.94,7.17-17.47.2-.93.95-4.82-.6-4.97ZM255.74,296.23c-.71,9.03,3.4,20.14,11.53,24.62l-8.12-12.54-3.41-12.08ZM539.64,298.62c-2.44-.39-1.27.62-1.56,1.98-5.59,26.32-10.32,52.79-15.37,79.25-1.65,8.62-5.33,17.02-4.53,26.06,1.2.11,1.26-1.94,1.52-2.84,3.55-12.36,4.89-25.32,7.46-37.86,2.21-10.82,5.55-22.31,7.5-33.04s2.32-22.6,4.98-33.56ZM716.18,311.33c-2.32-2.07-1.02,3.05-1.08,3.44-1.31,9.21-5.82,17.67-7.65,26.76l4.11-7.4c1.4-3.09,6.51-21.11,4.62-22.79ZM122.12,336.76c-.56-9.24-3.93-17.08-11.12-23.05,1.78,4.73,5.35,8.11,7.29,12.97,1.34,3.36,1.41,7.68,3.83,10.08ZM479.99,313.72c-.98-1.28-1.47.1-1.61,1.19-.22,1.84.66,10.36,1.02,12.51.8,4.82,3.71,12.81,5.79,17.3.55,1.19-.11,1.96,1.95,1.58-2-11.12-8.57-20.56-7.16-32.58ZM283.55,380.48c3.37-11.81,5.43-26.23,9.73-37.57,2.97-7.82,10.71-13.18,13.33-21.24l-11.46,13.58c-4.93,6.9-12.72,34.02-12.39,42.47.04.96-.6,2.95.78,2.77ZM89.5,323.25c-.53-.52-1.78-.35-1.58,1.17.57,4.13,8.7,14.39,11.92,17.51l11.14,8.33c2.81-3.27-10.8-11.86-13.13-14.29-2.48-2.6-5.07-6.57-7.11-9.6-.66-.98-1.13-3-1.25-3.12ZM428.3,338.36c-2.44-1.95-8.24,7.84-9.16,9.52-5.49,10.03-8.13,23.6-10.49,34.83-.62,2.94-1.32,5.86-1.02,8.9,1.51-.34,1.57-1.99,1.98-3.18,4.74-13.65,4.43-29.06,12.48-41.58l6.2-8.5ZM640.64,339.95c-2.18-.7-2.19,3.86-2.37,5.17-1.6,11.44-2.06,29.9,3.54,40.16.58,1.06,6.29,9.37,7.58,7.92.48-5.74-4.79-8.6-6.74-13.53-2.47-6.24-2.77-14.41-3.66-21.06l1.65-18.66ZM83.15,362.99c1.52-1.6-8.52-8.19-9.54-9.13-1.65-1.52-3.15-3.22-4.74-4.8l-4.78-8.32c-3.5,5.8,18.02,23.36,19.07,22.25ZM235.05,347.89v17.09c0,1.48,1.42,5.49,1.15,7.6l2.05,5.11c-.88-6.85-1.83-13.72-1.61-20.65l-1.58-9.15ZM549.99,386.84c6.03-5.7,4.75-22.58,2.62-30.05-.29-1-4.04-10.73-5.8-8.9-.33.35,3.28,6.29,3.75,7.77,3.24,10.15,1.74,21.03-.57,31.18ZM619.16,383.66c.95-11.43-8.97-24.91-19.07-29.4l8.73,9.15,3.53,5.21,6.82,15.03ZM737.47,357.61c-.08-.08-1.88-.99-2.17-.59,1.45,1.15,1.63,2.11,1.54,3.85-.85,15.69-11.73,28.66-20.83,40.49-1.47,3.08.92,3.66,3.41,1.81,7.3-5.45,16.64-26.09,18.05-35.21.37-2.37,1.49-8.78,0-10.35ZM537.26,366.57c-.48,3.59,0,8.87,0,12.72,0,.48,1.11,1.79.8,2.78h.79s0-12.32,0-12.32c0-2.73,4.41-11.84,3.97-12.32-2.04-2.23-5.43,8.18-5.56,9.14ZM495.9,381.27c-.17-3,.27-6.13,0-9.12-.1-1.08-2.96-16.71-5.55-13.92-.31.33,2.6,6.98,2.96,8.56,1.09,4.77.46,8.95,1.01,13.31.15,1.16.61,2.47,1.59,1.17ZM675.63,358.23c-2.65-.67-1.39,3.7-1.79,5.75-1.57,7.95-4.71,14.66-9.34,21.26,3.86-.99,6.14-5.43,7.54-8.75,2.31-5.49,3.88-12.32,3.59-18.26ZM392.52,360.62c-2.27-.38-1.33.46-1.7,1.83-2.7,9.96-2.53,31.38.31,41.28.41,1.42,1.09,3.26,2.98,2.98-3.07-15.17-5.61-30.87-1.59-46.09ZM218.35,397.97c1.66-1.6-2.04-20.16-3.14-23.49-1.37-4.12-4.34-12.61-9.57-12.28.03,2.32,2.44,2.22,3.86,4.49,5.95,9.52,4.23,19.38,5.9,29.11.27,1.56,1.63,3.46,2.96,2.18ZM429.09,419.42c4.07-8.82,5.78-18.37,8.55-27.63,2.78-9.29,8.45-18.82,6.56-28.8l-1.99,11.12c-4.93,12.69-9.54,25.56-12.88,38.79-.36,1.44-2.12,5.78-.24,6.52ZM195.28,364.59c-5.7,1.93-7.2,11.87-7.22,17.09,0,.97.62,8.01.87,8.34,1.38,1.87,2.2-2.96,2.29-3.66.67-5.6-.99-10.51,1.52-15.97.89-1.93,3.35-2.88,2.54-5.79ZM525.33,408.3c1.84,2.12,3.59-6.27,3.74-6.99,2.2-10.52,2.07-22.08,3.41-32.75-1.36.37-1.81,3.36-2.15,4.59-3.14,11.17-5.62,23.53-4.99,35.14ZM569.85,428.97c-4.32-14.84-3.88-27.12,3.04-41.08,1.81-3.66,4.98-6.1,5.71-9.79-6.61,4.84-10.28,14.52-12.31,22.26-2.52,9.56-2.58,20.48,3.57,28.61ZM298.67,440.1c1.31-9.05,2.64-18.29,6.23-26.77l16.83-28.08c-6.45,5.76-12.36,15.15-16.54,22.81-4.19,7.69-7.26,17.32-8.09,26.09-.08.86-.44,8.41,1.57,5.95ZM319.35,442.48c1.65,1.71,6.07-7.32,6.49-8.21,5.1-10.79,12.82-34.92,6.39-45.61-1.4-2.33-4.54-3.99-2.95-1.03,7.05,13.17,1.33,26.05-3.56,39.36-1.94,5.28-4.93,10.04-6.37,15.48ZM585.75,386.05c-1.13-.06-1.91-.4-1.5,1.1.92,3.34,3.52,7.61,4.7,11.21,10.52,32.1,6.29,66.55,1.59,99.38l.78,7.54c.95-2.81,1.55-5.68,2.14-8.59,2.9-14.34,4.54-31.16,5.06-45.82.81-22.96-2.51-44.2-12.77-64.81ZM190.51,432.14c.03-5.15-4.02-8.01-6.01-11.87-2.47-4.8-4.25-10.43-7.1-15.16l-3.58-14.29c-.3,9.62,3.48,20.7,7.56,29.39.54,1.15,7.23,13.94,9.13,11.93ZM473.63,401.14c-1.78-3.9-10.04,1.13-11.52,3.2-4.42,6.2-1.6,31.27,1.19,38.93,1.5.16.64-1.67.56-2.54-.69-7.49-1.31-15.02-2.15-22.5-1.21-8.55,2.22-17.33,11.92-17.09ZM104.62,447.25c.74-7.83-4.96-14.73-8.09-21.72-2.88-6.43-3.72-17.11-11.96-19.1-2.2-.53-5.09-.39-6.18,1.86,2.26-.1,4.49-.02,6.58.99,4.95,2.38,7.79,16.62,10.24,22.36,2.15,5.05,5.35,12.12,9.42,15.61ZM400.07,410.69v.79c.52-.26.52-.53,0-.79ZM63.27,447.25v-14.7c0-2.05,1.67-8.02,2.37-10.35,1.14-3.75,3.89-7.31,3.6-10.71-6.98,6.86-10.17,24.61-7.32,33.54.27.84.19,2.4,1.35,2.22ZM477.61,459.17c-2.34-13.44.18-27.35-.76-40.96-.08-1.21-.17-4.72-1.61-5.13-.19,9.4.21,18.84.02,28.25-.1,4.85-3.59,15.79,2.35,17.85ZM740.84,421.02l-20.67,15.5c-6.83,11.25-18.06,21.99-19.88,35.36l20.69-32.16c4.3-5.6,10.9-8.89,15.89-13.52.74-.69,4.82-4.32,3.96-5.17ZM748.68,428.28c-.79-.49-2.78.05-3.85-.1-.15,1.48,2.04.51,2.86,1.53,1.99,2.47-9.88,24.97-11.42,29.26-1.28,3.56-2.29,6.63-1.77,10.54l11.94-27.4c.78-2.38,4.5-12.42,2.24-13.82ZM522.14,434.54l-3.94,4.57c-6.2,13.19-17.33,24.13-19.11,39.15l23.05-43.71ZM258.91,505.27c-4.31-14.99-11.18-30.95-12.62-46.59-.34-3.66.04-7.36-.1-11.03-.04-.96.6-2.96-.79-2.77-2.01,9.73-.06,19.82,1.97,29.41,1.48,7.01,5.71,24.09,9.48,29.5.67.96.03,1.94,2.06,1.49ZM215.18,446.46c-2.08,10.35,3.45,26.77,9.67,35.23,2.11,2.87,5.35,4.99,7.35,7.76.89,1.23,7.13,13.74,5.87,4.49-1.09-8-9.03-11.08-12.91-16.53-4.09-5.77-6.53-14.58-9-21.2l-.98-9.74ZM133.25,451.23c-2.16-.37-1.37.4-1.8,1.73-2.23,6.88-2.28,14.95-2.16,22.11,1.17.07,1.4-2.86,1.49-3.67.69-6.76.25-13.42,2.48-20.17ZM169.03,506.06c2.44-12.56-2.11-27.33-8.09-38.4-4.4-8.16-12.5-14.8-22.12-14.84-.18,1.4-.78,1.51.87,1.24,12.67-2.04,22.26,20.29,24.81,29.91,1.57,5.92,1.1,11.8,2.34,17.53.24,1.11.9,4.25,2.18,4.57ZM369.46,495.74c1.58-.32,1.35-1.63,1.57-2.79,1.82-9.5,2.58-19.33,2.39-29l-1.68,14.61c-1.14,5.69-2.83,11.3-2.28,17.19ZM351.96,488.98c.6,6.25,0,14.19,0,20.67,0,.2-2.08,4.82.39,3.57,2.79-1.43,2.27-17.66,2.03-21.09-.48-6.96-2.55-15.39-6.85-20.98-1.48-1.92-3.36-4.06-4.33-.46.04.74,1.51.03,2.45.92,2.71,2.59,5.94,13.53,6.31,17.37ZM526.11,516.4c1.65-10.56-6.23-26.62-3.35-36.34.94-3.16,4.03-5.97,5.1-8.43.46-1.06.35-2.16-.55-2.11-1.39.07-6.73,8.55-7.18,10.29-1.49,5.82.94,21.56,2.25,28,.6,2.95.9,6.83,3.73,8.58ZM327.3,550.58c-.49-15.21-3.17-31.18-2.37-46.49.28-5.26,1.28-13.8,2.61-18.85,1.25-4.72,4.62-8.39,4.53-13.35l-6.14,12.53c-3.99,17.03-4.07,35.6-2.59,53.03.31,3.63,1.46,10.58,3.96,13.13ZM566.68,506.07c.52.06,1.59-1.05,1.59-1.19v-27.82c0-.14-1.07-1.25-1.59-1.19v30.2ZM623.94,478.25l-1.79,1.74-11.72,38.79c3.71-4.13,5.47-10.96,7.17-16.28,2.53-7.94,4.39-16.17,6.34-24.25ZM499.07,480.63c.57-1.12-.5-2.12-.78-1.58-.57,1.12.5,2.12.78,1.58ZM541.96,482.27c-4.11-2.73-.4,5.04-.18,6.15,1.14,5.83,2.02,12.91,2.62,18.85.52,5.09-1.37,12.15,2.39,16.29,1.14-4.68-3.06-40.11-4.83-41.28ZM428.3,506.47c-.46,4.39.34,9.44,0,13.91,1.16.15,1.22-2.15,1.36-3,1.98-11.62.98-25.81,13.75-31.58.4-2.07-2.36-1.18-3.23-.83-6.12,2.42-11.24,15.41-11.89,21.5ZM662.12,487.79c-.8,9.08-7.5,16.08-11.78,23.6-2.91,5.12-5.11,10.59-8.25,15.6-.54.87-6.6,6.89-2.63,7.69s10.98-17.38,12.7-20.68c3.4-6.54,9.02-13.94,10.56-21.23.2-.92.95-4.82-.6-4.98ZM133.81,511.86c-3.27-3.95-10.76-6.44-12.92-12.11l-5.12-11.17c.76,5.45,3.47,13.73,7.15,17.88.89,1,9.42,8.81,10.06,9.02,2.81.96,2.2-1.96.83-3.62ZM216.75,552.17c-.88-12.51-6.72-23.87-11.16-35.33-1.39-3.59-1.93-7.89-3.55-11.55-2.21-4.99-6.59-10.72-9.92-15.11,1.16,5.65,5.63,10.23,7.77,15.68,1.73,4.42,2.34,9.68,4.14,14.14l12.73,32.18ZM147.57,512.42l-9.53-19.86c1.11,5.87,4,13.45,7.48,18.38.34.48.82,2.81,2.06,1.49ZM449.77,501.3v-3.17h-.78v3.17h.78ZM448.19,519.98c-.36-3.91,0-8.68,0-12.72,0-.65,2.29-4.58,0-5.16-.15,3.75-1.45,7.8-1.63,11.49-.2,4.19.26,18.6,4.42,20.3,3.06,1.25-.82-4.74-1-5.36-.63-2.15-1.6-6.44-1.79-8.54ZM658.15,537.86c6.37-5.37,12.03-13.51,16.23-20.74.99-1.71,5.2-7.24,2.44-8.67l-18.67,29.4ZM706.64,520.38c.15-.14.45-3.25.8-3.97-.65-1.53-3.98,6.92-.8,3.97ZM724.76,522.6c.31-.56.55-2.69-.22-3.01-10.46,9.13-18.3,20.96-22.66,34.17,6.09-5.1,7.98-13.36,12.39-19.8,2.21-3.22,5.3-6.59,7.84-9.66.73-.88,2.48-1.4,2.64-1.7ZM705.05,521.18l-22.27,23.43-2.37,5.97c1.39.28,1.96-.72,2.79-1.57,3.03-3.13,5.8-7.74,8.72-11.15,4.48-5.23,10.57-9.98,13.13-16.68ZM309.8,577.61c-2.57-16.56-12.64-31.97-9.92-49.27-.99.76-1.37,1.97-1.64,3.12-1.7,7.22,5.21,34.97,8.56,42.4.67,1.49,1.3,3.14,3,3.75ZM230.28,635.62c-9.04-8.85-23.71-10.77-34.44-16.84-30.22-17.11-63.52-50.2-88.03-74.96-4.09-4.13-7.13-10.4-11.13-14.7,3.26,11.34,13.22,17.82,20.69,25.81,28.71,30.7,63.1,65.4,103.94,78.93,2.89.96,5.86,1.9,8.97,1.76ZM738.45,529.91c-1.41-.05-1.69-.4-1.59,1.19.42,6.74,1.97,13.46-1.42,20.04-3.88,7.52-17.8,12.4-16.86,22.49,1.24,1.44,5.25-5.58,5.95-6.36,4.28-4.78,11.01-9.31,13.28-15.34,2.54-6.75,1.51-14.98.64-22.01ZM396.48,591.12c-1.34-12.12-2.52-24.74-1.61-36.99.52-7.06,3.55-13.27,4-20.23l-2.95,7.77c-3.11,11.26-3.95,31.83-2.61,43.49.26,2.26.84,4.96,3.17,5.96ZM347.98,534.68v12.32c0,1.75,3.23,13.09,4.16,14.92.63,1.23,1.62,2.04,2.6,2.96.61.12.47-.72.4-1.19-1.1-7.55-5.74-15.03-6.44-24.64-.14-1.92,2.25-4.96-.72-4.37ZM699.5,544.22c1.66-.79,3.21-2.89,3.17-4.77-1.43.87-3.07,3.06-3.17,4.77ZM477.61,548.2l-39.76,58.02c9.45-3.86,13.67-15.24,19.22-23.31,1.7-2.48,4.26-4.76,6.08-7.44,5.62-8.27,11-17.93,14.46-27.27ZM689.15,554.55c2.24-.31,5.27-3.36,5.56-5.56l-5.56,5.56ZM177.8,555.35c-3.15,3.64,14.15,21.36,18.52,23.22,2,.85,4.99.6,2.98-2.18-1.58-2.19-8.17-5.81-10.78-8.3-3.73-3.56-5.35-6.93-8.19-10.89-.71-.99-.84-2.21-2.52-1.84ZM270.84,559.32c-.99-1.32-1.45.09-1.59,1.18-.59,4.66.3,16.13,1.56,20.72.3,1.09.09,2.47,1.62,2.74,1.3-7.81-1.44-16.54-1.58-24.64ZM511.8,595.88c7.06-11.74,10.37-22.75,10.34-36.56-1.5.31-1.44,1.57-1.6,2.76-.67,4.88-.66,9.77-2.13,14.57-1.78,5.83-5.8,10.31-7.04,16.81-.16.82-1.04,2.61.43,2.42ZM328.09,583.17c.5-6.12,4.27-14.06,1.2-19.86-.07,4.92-1.62,9.87-1.97,14.71-.08,1.08-.68,4.92.78,5.15ZM488.74,573.63c.46-.49-.14-2.91-1.24-3.14-1.96-.41-10.22,5.49-11.86,7.12-4.34,4.31-13.11,26.24-14.36,32.54-.48,2.41-.44,4.76-.35,7.19,1.2-.19,1.76-2.71,2.18-3.77,4.84-12.3,8.55-33.68,21.42-39.85,2.21-1.06,4.07.07,4.23-.09ZM479.99,621.32c1-4.22.18-9.59,1.18-13.53s6.39-10.42,8.26-14.8c.89-2.09,4.63-13.1,1.3-13.79s-.33,3.19-.33,4.33c.04,7.87-10.18,16.55-11.81,23.26-.65,2.67-2.68,14.4,1.41,14.52ZM452.16,603.84c-5.38,6.76-10.03,12.98-12.72,21.46,9.42-2.27,10.76-13.05,13.52-20.66.33-.9,2.08-2.96,2.37-4.38-1.4-.28-2.28,2.48-3.16,3.59Z"/>
  <path class="cls-7" d="M426.71,670.6c-.83,1.32-3.02.79-4.36.81-10.84.13-22.7.52-33.45.02-2.86-.13-7.16-.8-9.91-1.62,15.91.62,31.75.94,47.72.79Z"/>
  <path class="cls-7" d="M461.7,669.01l-14.68,1.62c-6.5,0-13.02-.1-19.52-.03.83-1.32,3.02-.79,4.36-.81,9.98-.1,19.88-.68,29.83-.78Z"/>
  <path class="cls-7" d="M368.66,669.01c-4.31-.01-9.68.68-13.52-.79,4.34.07,9.66-.72,13.52.79Z"/>
  <path class="cls-13" d="M433.07,150.77h-11.93c5.46-.92,6.59-.8,11.93,0Z"/>
  <path class="cls-7" d="M499.88,665.84c-3.3,1.52-8.12.72-11.93.79,3.28-1.48,8.15-.77,11.93-.79Z"/>
  <path class="cls-7" d="M511.81,665.04c-3,1.47-7.62.79-11.13.79,3.04-1.57,7.57-.66,11.13-.79Z"/>
  <path class="cls-8" d="M359.91,556.94c-.29,2.07-.27,4.44-1.19,6.37-.72,0-.38-5.26-.4-6.37h1.59Z"/>
  <path class="cls-13" d="M621.55,164.28h-9.54c4.52-.78,4.87-1.08,9.54,0Z"/>
  <path class="cls-7" d="M487.15,666.63c-4.15,1.11-9.19,1.3-13.52,1.59,4.21-1.97,9.04-1.45,13.52-1.59Z"/>
  <path class="cls-7" d="M336.85,666.63c-2.79-.09-6.62.73-8.75-.79,2.76.03,6.64-.68,8.75.79Z"/>
  <path class="cls-13" d="M345.59,457.58h-7.95c3.93-.76,3.7-1.15,7.95,0Z"/>
  <path class="cls-7" d="M351.16,668.22c-4.38-.12-9.32-.09-13.52-1.59,4.37.2,9.34.23,13.52,1.59Z"/>
  <path class="cls-13" d="M206.42,354.25h-7.16c3.69-.75,3.15-1.13,7.16,0Z"/>
  <path class="cls-13" d="M113.38,220.71h-6.36c3.56-.65,2.52-.91,6.36,0Z"/>
  <path class="cls-13" d="M248.57,218.33h-6.36c3.53-.69,2.54-.98,6.36,0Z"/>
  <path class="cls-13" d="M732.1,514.02h-6.36c3.44-.67,2.53-1.09,6.36,0Z"/>
  <path class="cls-4" d="M718.58,517.2c-.92.78-1.58,1.5-2.39,2.38l-.8-.79c.51-.83,1.36-1.97,1.59-2.38l1.59.79Z"/>
  <path class="cls-7" d="M518.96,664.25c-2.06.24-3.81.65-6.36.79,1.37-1.59,4.37-.54,6.36-.79Z"/>
  <path class="cls-7" d="M277.2,657.89c2.35.2,6.28-1.09,5.57,1.59-1.65-.28-4.04-.87-5.57-1.59Z"/>
  <path class="cls-7" d="M378.2,669.81c-2-.03-5.04.63-6.36-.79,1.99.02,5.04-.62,6.36.79Z"/>
  <path class="cls-7" d="M264.48,654.71c-1.99-.25-4.99.79-6.36-.79,2.53.35,3.54.04,6.36.79Z"/>
  <path class="cls-13" d="M359.11,157.92h-6.36c3.56-.63,2.51-.9,6.36,0Z"/>
  <path class="cls-11" d="M138.03,510.04c.65,1.48,1.96,2.72,1.58,4.76-.38.81-1.84-2.44-2.38-3.18l.8-1.59Z"/>
  <path class="cls-7" d="M327.3,665.84c-1.74-.01-4.48.59-5.57-.79,1.76.08,4.46-.64,5.57.79Z"/>
  <path class="cls-7" d="M472.84,668.22c-1.08,1.38-3.82.77-5.57.79,1.1-1.42,3.81-.72,5.57-.79Z"/>
  <path class="cls-7" d="M301.85,661.86c-3.28-.3-7.48-.2-10.34-1.59,3.25.32,7.31-.09,10.34,1.59Z"/>
  <path class="cls-13" d="M306.63,129.31c-1.47-.12-4.2-.22-5.57,0,1-1.32,4.56-1.32,5.57,0Z"/>
  <path class="cls-14" d="M514.99,258.07c-.09.48.07,1.07,0,1.58-2.57.54-1.28-1.3-1.59-3.17l1.59,1.59Z"/>
  <path class="cls-13" d="M56.91,208h-4.77c2.82-.48,1.42-.86,4.77,0Z"/>
  <path class="cls-7" d="M309.81,662.66c-1.5-.11-3.88.61-4.77-.79,2.15.21,2.99.44,4.77.79Z"/>
  <path class="cls-13" d="M544.41,153.95c-.68,1.29-2.7.75-3.98.79,1.62-.39,2.14-.56,3.98-.79Z"/>
  <path class="cls-7" d="M531.69,661.86c-1.15.21-2.58.56-3.98.79.68-1.29,2.7-.75,3.98-.79Z"/>
  <path class="cls-14" d="M266.07,589.53c.03.36,1.3,1.19.79,2.38-1.47-.12-1.19-1.64-1.58-2.38h.8Z"/>
  <path class="cls-7" d="M585.77,650.73c-3.1.79-6.31,1.61-9.54,1.59,2.74-.76,7.08-2.73,9.54-1.59Z"/>
  <path class="cls-13" d="M188.13,161.89c-1.27-.05-3.3.49-3.98-.79,2.25-.04,2.66.56,3.98.79Z"/>
  <path class="cls-7" d="M563.5,655.5c-1.43.33-2.72.51-3.98.79.68-1.29,2.7-.75,3.98-.79Z"/>
  <path class="cls-7" d="M558.73,656.3c-1.18.27-2.7.51-3.98.79.68-1.29,2.7-.75,3.98-.79Z"/>
  <path class="cls-13" d="M472.04,392.4h-3.98c.24-.04.84-.87,1.99-.88s1.67.8,1.98.88Z"/>
  <path class="cls-13" d="M331.28,377.3h-3.98c2.38-.36.93-.74,3.98,0Z"/>
  <path class="cls-7" d="M320.94,665.04c-1.92-.16-2.71-.58-3.98-.79,1.27.05,3.3-.49,3.98.79Z"/>
  <path class="cls-5" d="M606.44,290.66c.05.79-.02,1.6,0,2.38-1.5-.11-1.2-1.68-1.58-2.38h1.59Z"/>
  <path class="cls-13" d="M549.98,153.95h-3.18c1.12-.03.18-.84,3.18,0Z"/>
  <path class="cls-13" d="M491.13,157.13l-3.18.79c.9-.2,1.2-.77,3.18-.79Z"/>
  <path class="cls-13" d="M134.85,440.1h-2.39c.18-.03.55-.74,1.2-.74s1.04.72,1.19.74Z"/>
  <path class="cls-14" d="M356.73,326.43c.08-1.42.79-1.5.8-1.59l-.8,1.59Z"/>
  <path class="cls-7" d="M534.07,661.86c-.49.09-1.1-.09-1.59,0l.41-.79,1.18.79Z"/>
  <path class="cls-3" d="M271.63,297.82c.04-.58.79-.74.8-.79l-.8.79Z"/>
  <path class="cls-12" d="M230.28,635.62c-3.11.14-6.07-.8-8.97-1.76-40.84-13.54-75.23-48.23-103.94-78.93-7.47-7.99-17.43-14.47-20.69-25.81,4,4.3,7.04,10.57,11.13,14.7,24.51,24.76,57.81,57.85,88.03,74.96,10.72,6.07,25.39,8,34.44,16.84Z"/>
  <path class="cls-15" d="M585.75,386.05c10.26,20.61,13.58,41.85,12.77,64.81-.52,14.65-2.16,31.47-5.06,45.82-.59,2.92-1.2,5.78-2.14,8.59l-.78-7.54c4.7-32.83,8.93-67.28-1.59-99.38-1.18-3.6-3.79-7.87-4.7-11.21-.41-1.49.36-1.16,1.5-1.1Z"/>
  <path class="cls-15" d="M742.44,252.51c.62-20.37,16.27-40.83,13.44-61.53-.7-5.1-7.88-14.28-13.45-14.78-.06-4.34,4.76-.73,6.76.8,18.36,14,5.62,47.43-1.39,65.38-1.31,3.35-2.61,7.8-5.36,10.14Z"/>
  <path class="cls-12" d="M736.86,173.03c.34,1.49-.84,1.88-1.59,2.78-13.38,16.12-21.25,17.27-22.3,42.09-.46,10.95,6.38,24.94,3.75,33.98-.24.82-.17,2.41-1.33,2.22-2.04-15.2-7.02-27.46-4.55-43.08,2.62-16.52,8.49-24.78,21.23-35.22.71-.58,4.14-3.41,4.78-2.77Z"/>
  <path class="cls-12" d="M387.73,227.07c-1.48.19-.59-1.6-.43-2.42,1.13-5.95,4.37-9.81,6.39-15.08,4.86-12.64,14.28-40.83,25.6-48.34,2.49-1.65,10.56-4.79,13.32-4.06,4.73,1.24-5.32,3.04-6.11,3.31-10.8,3.71-15.43,16.7-20.05,26.06-4.36,8.85-6.56,15.9-10.37,24.61-2.41,5.53-6.04,10.34-8.35,15.9Z"/>
  <path class="cls-9" d="M539.64,298.62c-2.66,10.96-2.98,22.59-4.98,33.56s-5.29,22.22-7.5,33.04c-2.57,12.54-3.91,25.5-7.46,37.86-.26.9-.32,2.95-1.52,2.84-.8-9.04,2.88-17.44,4.53-26.06,5.05-26.46,9.78-52.93,15.37-79.25.29-1.36-.88-2.37,1.56-1.98Z"/>
  <path class="cls-12" d="M575.42,249.33c0,3.73-2.73,6.31-3.92,9.98-6.66,20.58,2.95,30.29,4.65,48.53.17,1.87.73,4.83-1.9,5.07-1.73-.4-3.51-9.16-4-11.12-3.79-15.25-6.55-28.56-1-43.94,1.09-3.02,2.97-7.51,6.17-8.53Z"/>
  <path class="cls-15" d="M446.59,225.09c-.8,8.72-4.02,11.72-6.75,18.69-4.64,11.81-8.95,25.41-15.08,36.59-.48.88-.88,2.16-2.02,2.35-.3-9.51,5.48-16.78,8.88-24.9,3.14-7.5,13.38-29.42,13.38-35.91v-16.29c.52-.06,1.59,1.05,1.59,1.19,0,5.77.52,12.69,0,18.28Z"/>
  <path class="cls-15" d="M646.2,235.81c-2.24.61-2.46-3.26-2.81-4.74-2.48-10.36-1.28-20.82-4.73-31.83-1.76-5.63-9.4-20.15-14.28-23.09-1.75-1.05-4.09.1-3.62-2.33,6.28-.9,12.17,8.24,15.13,13.09,8.8,14.43,9.95,32.4,10.31,48.9Z"/>
  <path class="cls-12" d="M602.48,244.56l-3.98-39.35c-.21-8.75-.35-17.65,3.82-25.57,1.31-2.49,7.42-10.58,10.09-10.57.54,0,1.49.88.35,1.92-1.39,1.26-2.92,1.94-4.34,3.62-13.66,16.2-5.25,39.44-4.33,58.4.15,3.13.91,9.65-1.62,11.56Z"/>
  <path class="cls-12" d="M327.3,550.58c-2.5-2.55-3.65-9.5-3.96-13.13-1.48-17.42-1.4-35.99,2.59-53.03l6.14-12.53c.09,4.95-3.28,8.63-4.53,13.35-1.34,5.04-2.34,13.59-2.61,18.85-.8,15.31,1.88,31.29,2.37,46.49Z"/>
  <path class="cls-9" d="M477.61,548.2c-3.46,9.34-8.84,19-14.46,27.27-1.82,2.67-4.38,4.96-6.08,7.44-5.55,8.07-9.77,19.45-19.22,23.31l39.76-58.02Z"/>
  <path class="cls-15" d="M104.62,447.25c-4.07-3.49-7.27-10.57-9.42-15.61-2.45-5.73-5.29-19.98-10.24-22.36-2.09-1.01-4.31-1.09-6.58-.99,1.1-2.25,3.98-2.39,6.18-1.86,8.24,1.99,9.08,12.67,11.96,19.1,3.13,6.99,8.82,13.88,8.09,21.72Z"/>
  <path class="cls-12" d="M740.84,421.02c.86.85-3.22,4.49-3.96,5.17-5,4.64-11.59,7.92-15.89,13.52l-20.69,32.16c1.82-13.37,13.05-24.11,19.88-35.36l20.67-15.5Z"/>
  <path class="cls-15" d="M169.03,506.06c-1.27-.32-1.94-3.45-2.18-4.57-1.24-5.73-.77-11.6-2.34-17.53-2.56-9.63-12.14-31.96-24.81-29.91-1.65.27-1.05.16-.87-1.24,9.62.04,17.72,6.69,22.12,14.84,5.97,11.07,10.52,25.84,8.09,38.4Z"/>
  <path class="cls-12" d="M216.75,552.17l-12.73-32.18c-1.81-4.46-2.41-9.72-4.14-14.14-2.14-5.45-6.6-10.03-7.77-15.68,3.33,4.39,7.71,10.12,9.92,15.11,1.62,3.66,2.16,7.96,3.55,11.55,4.44,11.46,10.28,22.82,11.16,35.33Z"/>
  <path class="cls-15" d="M737.47,357.61c1.48,1.57.36,7.97,0,10.35-1.42,9.12-10.75,29.76-18.05,35.21-2.48,1.85-4.87,1.27-3.41-1.81,9.1-11.83,19.98-24.79,20.83-40.49.09-1.74-.09-2.7-1.54-3.85.3-.4,2.1.51,2.17.59Z"/>
  <path class="cls-15" d="M508.62,262.84c-1.29.27-1.65-.34-2.28-1.29-2.08-3.16-.49-27.2-.9-33.28-.96-14.21-5.09-29.93-7.14-44.12l2.78,7.94c1.29,10.47,4.47,21.16,5.84,31.52,1.72,13.02.23,26.18,1.7,39.23Z"/>
  <path class="cls-3" d="M551.57,161.09c-11.99,2.05-16.95,6.95-18.98,18.8-2.22,12.94-1.16,26.84-6.09,39.22-.52,1.3-1.53,4.15-2.76,4.78.92-7.99,3.41-15.6,4.66-23.55,2.04-13.01-.42-30.75,13.08-37.8,2.1-1.1,8.7-4.4,10.08-1.45Z"/>
  <path class="cls-3" d="M496.7,162.7c-2.73,2.86-6.15,3.29-8.74,6.75-9.13,12.2-4.21,38.65-4.78,53.26-.04.96.6,2.96-.79,2.77-2.68-15.09-3.96-31.75-.27-46.75,1.89-7.7,5.34-16.16,14.57-16.03Z"/>
  <path class="cls-9" d="M319.35,442.48c1.45-5.44,4.43-10.21,6.37-15.48,4.89-13.31,10.62-26.19,3.56-39.36-1.59-2.96,1.55-1.3,2.95,1.03,6.43,10.68-1.29,34.82-6.39,45.61-.42.89-4.85,9.91-6.49,8.21Z"/>
  <path class="cls-12" d="M488.74,573.63c-.15.16-2.02-.96-4.23.09-12.86,6.17-16.57,27.55-21.42,39.85-.42,1.06-.98,3.59-2.18,3.77-.09-2.43-.12-4.77.35-7.19,1.25-6.3,10.02-28.23,14.36-32.54,1.64-1.63,9.9-7.53,11.86-7.12,1.11.23,1.7,2.65,1.24,3.14Z"/>
  <path class="cls-15" d="M662.12,487.79c1.55.15.8,4.05.6,4.98-1.55,7.29-7.17,14.69-10.56,21.23-1.71,3.3-8.73,21.47-12.7,20.68s2.09-6.82,2.63-7.69c3.14-5.02,5.34-10.49,8.25-15.6,4.28-7.52,10.98-14.52,11.78-23.6Z"/>
  <path class="cls-15" d="M640.64,339.95l-1.65,18.66c.89,6.65,1.19,14.82,3.66,21.06,1.94,4.92,7.22,7.79,6.74,13.53-1.29,1.45-7-6.86-7.58-7.92-5.6-10.25-5.15-28.72-3.54-40.16.18-1.31.19-5.87,2.37-5.17Z"/>
  <path class="cls-9" d="M215.18,446.46l.98,9.74c2.48,6.63,4.91,15.44,9,21.2,3.87,5.45,11.82,8.53,12.91,16.53,1.26,9.25-4.98-3.26-5.87-4.49-2-2.76-5.24-4.88-7.35-7.76-6.22-8.46-11.75-24.88-9.67-35.23Z"/>
  <path class="cls-15" d="M367.81,173.08c.52.57,1.01,13.63.88,15.47-.48,6.68-3.53,17.27-5.58,23.83-1.61,5.14-3.79,12.26-7.16,16.28,2.33-18.57,14.63-36.87,9.55-56.05.39-.21,2.24.38,2.32.47Z"/>
  <path class="cls-15" d="M738.45,529.91c.86,7.03,1.89,15.26-.64,22.01-2.27,6.03-9,10.56-13.28,15.34-.7.78-4.71,7.81-5.95,6.36-.94-10.08,12.98-14.97,16.86-22.49,3.4-6.58,1.84-13.3,1.42-20.04-.1-1.59.18-1.24,1.59-1.19Z"/>
  <path class="cls-12" d="M526.11,516.4c-2.83-1.76-3.13-5.63-3.73-8.58-1.31-6.44-3.73-22.18-2.25-28,.45-1.74,5.79-10.22,7.18-10.29.9-.05,1.01,1.05.55,2.11-1.08,2.46-4.16,5.27-5.1,8.43-2.88,9.73,5,25.79,3.35,36.34Z"/>
  <path class="cls-9" d="M283.55,380.48c-1.39.19-.75-1.8-.78-2.77-.32-8.45,7.46-35.56,12.39-42.47l11.46-13.58c-2.62,8.05-10.37,13.42-13.33,21.24-4.3,11.35-6.37,25.76-9.73,37.57Z"/>
  <path class="cls-9" d="M211.98,215.15c-2.02.36-1.43-.31-1.95-1.59-5.63-14.06-4.04-22.15-16.32-34.6l-7.97-5.94c1.73.39,3.7.68,5.31,1.44,5.22,2.44,14.44,15.1,16.76,20.61,2.58,6.11,4.65,13.43,4.16,20.08Z"/>
  <path class="cls-3" d="M298.67,440.1c-2.02,2.46-1.65-5.1-1.57-5.95.83-8.77,3.9-18.4,8.09-26.09,4.17-7.66,10.08-17.05,16.54-22.81l-16.83,28.08c-3.6,8.47-4.92,17.72-6.23,26.77Z"/>
  <path class="cls-12" d="M672.45,266.82v4.76s-.8-3.18-.8-3.18c-1.63-2.21-4.04,14.95-4.03,16.29.03,9.01,6.26,20.63,6.42,29.81-3.11-1.57-4.09-5.04-4.99-8.12-2.99-10.34-5.14-26.65-.39-36.6.91-1.91,1.01-3.44,3.79-2.96Z"/>
  <path class="cls-3" d="M428.3,338.36l-6.2,8.5c-8.05,12.51-7.74,27.92-12.48,41.58-.41,1.18-.47,2.83-1.98,3.18-.29-3.05.41-5.97,1.02-8.9,2.36-11.23,5-24.8,10.49-34.83.92-1.68,6.72-11.47,9.16-9.52Z"/>
  <path class="cls-9" d="M200.85,280.33c-.2,13.63-6.72,25.75-11.74,37.94-.62,1.51-2.91,12.09-4.95,10.54-1.13-3.19.44-6.84,1.57-9.95,3.95-10.83,10.55-20.18,13.18-32.13.18-.82.11-8.82,1.94-6.4Z"/>
  <path class="cls-15" d="M556.98,174.78c.91,1.2,2.38,11.58,2.53,13.76.81,11.49,1.42,27.82-6.35,36.95,3.16-14.19,5.41-29.49,3.96-44.11-.24-2.38-.89-5.23-2.36-7.17.37-.33,2.14.48,2.21.57Z"/>
  <path class="cls-3" d="M258.91,505.27c-2.03.46-1.39-.53-2.06-1.49-3.77-5.41-8-22.49-9.48-29.5-2.03-9.6-3.98-19.68-1.97-29.41,1.39-.19.75,1.81.79,2.77.14,3.67-.23,7.37.1,11.03,1.44,15.64,8.31,31.6,12.62,46.59Z"/>
  <path class="cls-9" d="M260.49,266.82c-4.67-3.78-3.21-12.56-4.19-18.46-1.15-6.95-4.74-21.31-14.1-18.91,5.7-6.95,11.79,3.67,13.9,8.77,3.6,8.7,4.16,19.27,4.38,28.6Z"/>
  <path class="cls-9" d="M479.99,621.32c-4.08-.12-2.06-11.86-1.41-14.52,1.63-6.72,11.85-15.39,11.81-23.26,0-1.14-2.9-5,.33-4.33s-.41,11.7-1.3,13.79c-1.87,4.37-7.26,10.86-8.26,14.8s-.17,9.31-1.18,13.53Z"/>
  <path class="cls-9" d="M596.1,297.02c-8.8-10.13-.34-29.24-13.92-36.56.29-3.45,4.53-.28,5.97,1.19,4.33,4.44,7.1,23.53,7.86,30.29.19,1.69.12,3.38.09,5.07Z"/>
  <path class="cls-6" d="M429.09,419.42c-1.88-.74-.12-5.08.24-6.52,3.35-13.23,7.95-26.09,12.88-38.79l1.99-11.12c1.89,9.98-3.78,19.51-6.56,28.8-2.77,9.26-4.48,18.81-8.55,27.63Z"/>
  <path class="cls-9" d="M351.96,488.98c-.37-3.84-3.59-14.78-6.31-17.37-.94-.9-2.41-.18-2.45-.92.97-3.6,2.85-1.46,4.33.46,4.3,5.59,6.37,14.02,6.85,20.98.24,3.43.76,19.66-2.03,21.09-2.46,1.26-.39-3.37-.39-3.57,0-6.48.6-14.41,0-20.67Z"/>
  <path class="cls-2" d="M569.85,428.97c-6.15-8.13-6.08-19.05-3.57-28.61,2.04-7.74,5.71-17.43,12.31-22.26-.72,3.69-3.89,6.13-5.71,9.79-6.92,13.96-7.36,26.25-3.04,41.08Z"/>
  <path class="cls-9" d="M693.12,309.73c-2.16.37-1.37-.4-1.8-1.73-3.35-10.31-2.57-19.16-10.51-28.48-1.82-2.13-3.98-5.08-6.76-3.17,2.3-6.89,9.82,3.01,11.78,6.1,4.82,7.62,8.01,18.25,7.29,27.28Z"/>
  <path class="cls-15" d="M177.8,555.35c1.68-.36,1.81.85,2.52,1.84,2.84,3.96,4.46,7.33,8.19,10.89,2.61,2.5,9.2,6.12,10.78,8.3,2.01,2.78-.98,3.03-2.98,2.18-4.37-1.86-21.67-19.58-18.52-23.22Z"/>
  <path class="cls-9" d="M218.35,397.97c-1.33,1.28-2.69-.62-2.96-2.18-1.67-9.73.05-19.59-5.9-29.11-1.42-2.27-3.83-2.16-3.86-4.49,5.24-.32,8.21,8.17,9.57,12.28,1.11,3.33,4.81,21.89,3.14,23.49Z"/>
  <path class="cls-9" d="M748.68,428.28c2.25,1.4-1.46,11.44-2.24,13.82l-11.94,27.4c-.52-3.9.49-6.97,1.77-10.54,1.54-4.29,13.41-26.79,11.42-29.26-.82-1.01-3.01-.05-2.86-1.53,1.08.15,3.06-.39,3.85.1Z"/>
  <path class="cls-9" d="M190.51,432.14c-1.9,2.01-8.59-10.78-9.13-11.93-4.08-8.69-7.86-19.77-7.56-29.39l3.58,14.29c2.86,4.72,4.63,10.36,7.1,15.16,1.99,3.86,6.03,6.73,6.01,11.87Z"/>
  <path class="cls-15" d="M396.48,591.12c-2.33-1-2.91-3.71-3.17-5.96-1.34-11.66-.5-32.23,2.61-43.49l2.95-7.77c-.45,6.96-3.48,13.18-4,20.23-.9,12.25.27,24.88,1.61,36.99Z"/>
  <path class="cls-6" d="M309.8,577.61c-1.7-.61-2.33-2.26-3-3.75-3.35-7.43-10.27-35.18-8.56-42.4.27-1.14.65-2.36,1.64-3.12-2.71,17.29,7.35,32.7,9.92,49.27Z"/>
  <path class="cls-3" d="M473.63,401.14c-9.7-.24-13.12,8.54-11.92,17.09.84,7.47,1.46,15.01,2.15,22.5.08.88.94,2.71-.56,2.54-2.8-7.66-5.62-32.73-1.19-38.93,1.48-2.07,9.74-7.1,11.52-3.2Z"/>
  <path class="cls-3" d="M104.62,227.87c.29.35-2.41,7.03-2.79,8.73-3.04,13.62-2.24,18.91-1.2,32.22.07.88.59,2.96-.77,2.76-5.38-11.28-3.12-27.5,1.2-38.92.23-.62,2.34-6.27,3.56-4.78Z"/>
  <path class="cls-9" d="M133.25,252.5c-2.06.41-1.39-.44-1.99-1.55-4.47-8.25-3.35-10.63-13.1-15.55l-9.55-3.95c4.1-3.13,14.36,3.12,17.87,5.97,4.72,3.83,7.41,8.9,6.77,15.08Z"/>
  <path class="cls-9" d="M89.5,323.25c.12.12.59,2.14,1.25,3.12,2.04,3.03,4.63,7.01,7.11,9.6,2.33,2.44,15.94,11.02,13.13,14.29l-11.14-8.33c-3.21-3.12-11.35-13.38-11.92-17.51-.21-1.53,1.05-1.69,1.58-1.17Z"/>
  <path class="cls-15" d="M71.22,259.66c-1.4-.32-1.7-1.97-2.01-3.15-2.35-8.81-2.51-22.66-7.63-30.53-1.67-2.56-4.02-1.12-3.87-3.68,4.84-1.26,6.23,4.1,7.76,7.74,3.74,8.89,6.01,19.99,5.75,29.62Z"/>
  <path class="cls-6" d="M522.14,434.54l-23.05,43.71c1.79-15.01,12.91-25.96,19.11-39.15l3.94-4.57Z"/>
  <path class="cls-3" d="M724.76,522.6c-.17.3-1.92.82-2.64,1.7-2.55,3.08-5.64,6.45-7.84,9.66-4.41,6.44-6.3,14.7-12.39,19.8,4.36-13.21,12.2-25.04,22.66-34.17.77.33.53,2.45.22,3.01Z"/>
  <path class="cls-2" d="M301.06,141.22c-9.08,3.61-12.51,14.17-16.28,22.29l-5.98,15.87c.18-10.54,8.9-31.52,17.54-37.7,1.39-.99,4.14-3,4.72-.46Z"/>
  <path class="cls-6" d="M705.05,521.18c-2.56,6.7-8.65,11.45-13.13,16.68-2.92,3.41-5.7,8.02-8.72,11.15-.83.86-1.4,1.86-2.79,1.57l2.37-5.97,22.27-23.43Z"/>
  <path class="cls-6" d="M477.61,459.17c-5.94-2.06-2.44-13-2.35-17.85.18-9.4-.21-18.85-.02-28.25,1.44.41,1.53,3.92,1.61,5.13.94,13.62-1.58,27.52.76,40.96Z"/>
  <path class="cls-3" d="M428.3,506.47c.64-6.1,5.77-19.08,11.89-21.5.87-.35,3.63-1.24,3.23.83-12.77,5.77-11.77,19.96-13.75,31.58-.14.85-.2,3.16-1.36,3,.34-4.47-.46-9.52,0-13.91Z"/>
  <path class="cls-2" d="M277.99,307.35c-1.41.03-.88-3.5-.78-4.36.67-5.72,3.94-12.87,3.99-18.33.11-9.78.07-19.47.78-29.36l1.57-9.14c.16,9.67-1.05,19.4-1.62,28.98-.29,4.9.5,10.31.03,15.13-.53,5.43-3.24,11.58-3.98,17.09Z"/>
  <path class="cls-3" d="M174.6,208.79c-1.75-.84-2.33-3.83-2.78-5.56-3.08-11.85-1.74-24.16,6.76-33.39-1.68,6.62-6.06,12.39-6.37,19.51-.26,6.11,2.73,13.16,2.39,19.44Z"/>
  <path class="cls-9" d="M541.96,482.27c1.77,1.18,5.97,36.61,4.83,41.28-3.75-4.13-1.87-11.19-2.39-16.29-.6-5.94-1.48-13.02-2.62-18.85-.22-1.12-3.94-8.88.18-6.15Z"/>
  <path class="cls-3" d="M371.85,289.87c1.55.15.79,4.05.6,4.97-1.18,5.53-5.99,11.67-7.17,17.47-1.62,1.97-1.85,16.49-3.37,16.48-2.91-.02.04-12.16.46-13.83,2.28-9.07,7.95-16.14,9.49-25.09Z"/>
  <path class="cls-9" d="M392.52,360.62c-4.03,15.22-1.49,30.92,1.59,46.09-1.88.28-2.57-1.55-2.98-2.98-2.85-9.9-3.01-31.32-.31-41.28.37-1.37-.56-2.21,1.7-1.83Z"/>
  <path class="cls-3" d="M63.27,447.25c-1.16.18-1.08-1.38-1.35-2.22-2.85-8.93.34-26.69,7.32-33.54.3,3.4-2.46,6.97-3.6,10.71-.71,2.32-2.37,8.3-2.37,10.35v14.7Z"/>
  <path class="cls-2" d="M623.94,478.25c-1.96,8.09-3.81,16.32-6.34,24.25-1.69,5.32-3.46,12.15-7.17,16.28l11.72-38.79,1.79-1.74Z"/>
  <path class="cls-3" d="M40.2,247.73c-1.39.19-.74-1.8-.78-2.76-.25-6.24,2.21-22.96,7.1-27.09,8.49-4.95.11,2.62-1.56,7.18-2.66,7.26-2.1,15.4-4.75,22.68Z"/>
  <path class="cls-2" d="M619.16,383.66l-6.82-15.03-3.53-5.21-8.73-9.15c10.11,4.49,20.02,17.97,19.07,29.4Z"/>
  <path class="cls-2" d="M350.36,164.28c.55,3.67-.72,1.18-2.38,2.69-8.13,7.43-8.02,14.22-11.76,23.3-.58,1.4-2.02,4.19-3.34,5,2.22-11.16,5.96-26.21,17.48-30.99Z"/>
  <path class="cls-9" d="M549.99,386.84c2.31-10.14,3.8-21.03.57-31.18-.47-1.47-4.09-7.42-3.75-7.77,1.76-1.83,5.52,7.9,5.8,8.9,2.13,7.47,3.41,24.34-2.62,30.05Z"/>
  <path class="cls-6" d="M133.81,511.86c1.38,1.66,1.98,4.58-.83,3.62-.64-.22-9.17-8.02-10.06-9.02-3.68-4.15-6.39-12.43-7.15-17.88l5.12,11.17c2.16,5.67,9.65,8.16,12.92,12.11Z"/>
  <path class="cls-3" d="M511.8,595.88c-1.48.19-.59-1.6-.43-2.42,1.24-6.5,5.26-10.98,7.04-16.81,1.46-4.79,1.46-9.69,2.13-14.57.16-1.19.11-2.45,1.6-2.76.03,13.8-3.28,24.81-10.34,36.56Z"/>
  <path class="cls-12" d="M195.28,364.59c.81,2.91-1.66,3.86-2.54,5.79-2.51,5.47-.85,10.38-1.52,15.97-.08.7-.9,5.53-2.29,3.66-.25-.34-.87-7.37-.87-8.34.02-5.22,1.52-15.16,7.22-17.09Z"/>
  <path class="cls-2" d="M658.15,537.86l18.67-29.4c2.75,1.42-1.45,6.95-2.44,8.67-4.19,7.23-9.86,15.37-16.23,20.74Z"/>
  <path class="cls-2" d="M227.89,256.88c.27-3.42,1.3-7.94,2.18-11.34s2.46-7.21,3.81-10.51c.23-.57.33-2.47,1.18-1.2-4.5,13.54-6.46,26.56-5.58,40.92-.74.05-1.58-4.14-1.58-4.37,0-4.35-.33-9.26,0-13.51Z"/>
  <path class="cls-2" d="M479.99,313.72c-1.41,12.02,5.16,21.46,7.16,32.58-2.07.38-1.4-.39-1.95-1.58-2.08-4.49-4.99-12.48-5.79-17.3-.36-2.15-1.24-10.67-1.02-12.51.13-1.09.62-2.47,1.61-1.19Z"/>
  <path class="cls-12" d="M270.84,559.32c.14,8.1,2.89,16.84,1.58,24.64-1.52-.28-1.32-1.65-1.62-2.74-1.25-4.59-2.15-16.06-1.56-20.72.14-1.09.6-2.5,1.59-1.18Z"/>
  <path class="cls-2" d="M675.63,358.23c.29,5.94-1.28,12.77-3.59,18.26-1.4,3.32-3.68,7.76-7.54,8.75,4.63-6.6,7.77-13.31,9.34-21.26.4-2.05-.86-6.42,1.79-5.75Z"/>
  <path class="cls-6" d="M448.19,519.98c.2,2.1,1.17,6.39,1.79,8.54.18.62,4.06,6.62,1,5.36-4.15-1.7-4.62-16.11-4.42-20.3.18-3.69,1.48-7.74,1.63-11.49,2.28.59,0,4.51,0,5.16,0,4.04-.36,8.81,0,12.72Z"/>
  <path class="cls-2" d="M716.18,311.33c1.89,1.68-3.22,19.7-4.62,22.79l-4.11,7.4c1.84-9.08,6.35-17.55,7.65-26.76.06-.39-1.25-5.51,1.08-3.44Z"/>
  <path class="cls-9" d="M347.98,534.68c2.97-.6.58,2.44.72,4.37.71,9.61,5.34,17.1,6.44,24.64.07.47.21,1.31-.4,1.19-.98-.92-1.97-1.73-2.6-2.96-.94-1.83-4.16-13.17-4.16-14.92v-12.32Z"/>
  <path class="cls-2" d="M83.15,362.99c-1.05,1.11-22.57-16.45-19.07-22.25l4.78,8.32c1.59,1.58,3.1,3.28,4.74,4.8,1.02.94,11.06,7.53,9.54,9.13Z"/>
  <path class="cls-1" d="M566.68,506.07v-30.2c.52-.06,1.59,1.05,1.59,1.19v27.82c0,.14-1.07,1.25-1.59,1.19Z"/>
  <path class="cls-6" d="M309.8,183.35c-1.42.17-.85-2.72-.72-3.5,1.17-6.9,3.95-12.88,3.97-20.73,0-2.83-1.11-5.74-2.06-8.33,1.42,1.23,2.44,2.47,2.75,4.4,1.41,8.9-.55,19.89-3.94,28.17Z"/>
  <path class="cls-3" d="M537.26,366.57c.13-.96,3.53-11.37,5.56-9.14.44.48-3.97,9.59-3.97,12.32v12.32h-.79c.3-.99-.8-2.3-.8-2.78,0-3.85-.48-9.13,0-12.72Z"/>
  <path class="cls-1" d="M369.46,495.74c-.55-5.89,1.14-11.49,2.28-17.19l1.68-14.61c.19,9.67-.57,19.5-2.39,29-.22,1.16,0,2.47-1.57,2.79Z"/>
  <path class="cls-6" d="M148.36,297.02c-1.95,2.19-5.58-9.65-5.79-10.5-.9-3.6-1.7-7.21-1.36-10.95l1.34,2.22c-.73,3.1,6.47,18.49,5.81,19.24Z"/>
  <path class="cls-1" d="M164.28,287.48l4.2-11.3,4.54-16.52c-.92,9.18-2.36,20.81-8.73,27.82Z"/>
  <path class="cls-6" d="M255.74,296.23l3.41,12.08,8.12,12.54c-8.14-4.48-12.24-15.6-11.53-24.62Z"/>
  <path class="cls-1" d="M122.12,336.76c-2.41-2.4-2.48-6.72-3.83-10.08-1.95-4.86-5.51-8.24-7.29-12.97,7.19,5.97,10.56,13.81,11.12,23.05Z"/>
  <path class="cls-2" d="M495.9,381.27c-.98,1.29-1.44-.01-1.59-1.17-.56-4.36.07-8.53-1.01-13.31-.36-1.58-3.26-8.23-2.96-8.56,2.59-2.79,5.45,12.84,5.55,13.92.27,2.99-.16,6.12,0,9.12Z"/>
  <path class="cls-1" d="M235.05,347.89l1.58,9.15c-.22,6.93.73,13.79,1.61,20.65l-2.05-5.11c.27-2.11-1.15-6.11-1.15-7.6v-17.09Z"/>
  <path class="cls-2" d="M133.25,451.23c-2.23,6.75-1.79,13.41-2.48,20.17-.08.81-.32,3.74-1.49,3.67-.11-7.16-.07-15.23,2.16-22.11.43-1.33-.35-2.1,1.8-1.73Z"/>
  <path class="cls-1" d="M147.57,512.42c-1.24,1.32-1.72-1.01-2.06-1.49-3.47-4.92-6.36-12.51-7.48-18.38l9.53,19.86Z"/>
  <path class="cls-2" d="M328.09,583.17c-1.46-.23-.86-4.08-.78-5.15.36-4.84,1.91-9.79,1.97-14.71,3.07,5.81-.69,13.75-1.2,19.86Z"/>
  <path class="cls-6" d="M310.59,231.05c-5.12-4.01-5.12-11.96-7.94-17.48,1.72-.34,1.85.77,2.43,1.93,2.1,4.2,3.69,10.97,5.51,15.55Z"/>
  <path class="cls-1" d="M328.11,228.66l6.35-17.48c-.72,5.69-1.93,13.42-6.35,17.48Z"/>
  <path class="cls-11" d="M716.19,519.58c-1.59,1.75-2.61,4.39-4.76,5.56-.23-2.67,2.99-4.75,3.97-6.36l.8.79Z"/>
  <path class="cls-1" d="M689.15,554.55l5.56-5.56c-.29,2.19-3.32,5.24-5.56,5.56Z"/>
  <path class="cls-1" d="M699.5,544.22c.09-1.7,1.74-3.9,3.17-4.77.04,1.88-1.51,3.98-3.17,4.77Z"/>
  <path class="cls-1" d="M452.96,604.63l-.8-.79c.88-1.11,1.76-3.86,3.16-3.59-.29,1.42-2.04,3.48-2.37,4.38Z"/>
  <path class="cls-6" d="M706.64,520.38c-3.18,2.95.15-5.5.8-3.97-.35.72-.65,3.83-.8,3.97Z"/>
  <rect class="cls-6" x="448.99" y="498.12" width=".78" height="3.17"/>
  <path class="cls-6" d="M499.07,480.63c-.28.54-1.35-.47-.78-1.58.28-.54,1.35.47.78,1.58Z"/>
  <path class="cls-11" d="M400.07,410.69c.52.26.52.53,0,.79v-.79Z"/>
</svg>