<?xml version="1.0" encoding="UTF-8"?>
<svg id="Calque_1" data-name="Calque 1" xmlns="http://www.w3.org/2000/svg" viewBox="0 0 800 800">
  <defs>
    <style>
      .cls-1 {
        fill: #54a56f;
      }

      .cls-2 {
        fill: #94c7a5;
      }

      .cls-3 {
        fill: #acd4b7;
      }

      .cls-4 {
        fill: #00733b;
      }

      .cls-5 {
        fill: #069453;
      }

      .cls-6 {
        fill: #a5d0b0;
      }

      .cls-7 {
        fill: #00763d;
      }

      .cls-8 {
        fill: #00713a;
      }

      .cls-9 {
        fill: #9eccab;
      }

      .cls-10 {
        fill: #47a067;
      }

      .cls-11 {
        fill: #7fb686;
      }

      .cls-12 {
        fill: #127a41;
      }

      .cls-13 {
        fill: #9bc9a5;
      }

      .cls-14 {
        fill: #91c49f;
      }
    </style>
  </defs>
  <path class="cls-5" d="M403.94,45.36c1.27.03,2.55-.03,3.81,0l-1.52,1.51c4.78,1.48,12.43.7,16.03-3.04-3.32-.12-7.18,1.61-10.37,1.6-1.46,0-2.38-.83-2.62-.85l24.85-5.4,1.77.16c.53.33,1.72,11.77,1.55,12.37-.54,1.97-5.22,2.07-5.88,2.95s-3.53,18.29-3.88,20.92c-2.59,19.31-4.17,39.31-6.19,58.69-3.39,32.58-1.46,57.69,1.51,90.06,1.26,13.71,1.04,27.49,4.02,41.01.44,1.98,1.52,6.7,2.51,8.17,1.83,2.73,14.89,7.53,18.63,9.62,8.09,4.54,15.55,10.5,22.59,16.34.73.61,3.95,3.22,4.54,3.08l21.38-26.74c31.86-30.06,55.73-14.67,86.94,4.75,9.66,6.01,20.91,19.39,27.99,28.5,26.83,34.55,52.91,77.33,71.7,116.86,7.31,15.39,12.1,30.98,19.6,46.81,11.91,25.14,24.42,52.63,33.21,79,10.35,31.06,16.19,83.48,9.09,115.2-1.91,8.54-2.71,17.04-4.74,25.03-9.09,35.86-50.07,73.57-88.65,67.68-22.3-3.41-38.92-29.44-57.51-40.98-10.63-6.6-24.79-12.6-36.89-15.79-37.92-9.99-63.24-7.64-87.81-43.13,4.02,3.39,9.92,5.8,14.11,9.18,5.01,4.03,8.58,10,14.53,12.95.86-1.27-1.89-4.22-3.02-5.37-7.36-7.48-14.53-11.85-22.5-17.96-8.91-6.83-12.73-17.09-21.44-23.98-2.42-7.94-4.46-5.04,0,.76,5.29,6.87,12.19,19.25,18.33,24.42-.18-.27-4.19-1.67-5.72-3.06-17.27-15.58-33.24-55.99-39.72-78.6-19.82-69.17-9.74-143.22,15.85-209.33,5.04-13.02,11.67-25.45,17.25-38.23-2.46-4.06-5.59-6.33-9.57-8.74-16.28-9.88-43.81-19.92-62.7-14.88-6.19,1.65-10.37,4.52-15.66,7.25-9.96,5.14-19.78,10.35-28.77,17.08,9.25,18.21,18.48,36.43,25.01,55.84,16.53,49.15,23.13,107.04,15.34,158.47-4.23,27.93-14.51,73.85-28.78,97.93-2.63,4.44-6.5,7.6-9.6,11.77-2.33,3.12-3.72,7.38-6.53,10.27-1.81,1.87-8.68,6.93-11.11,8.74-30.45,22.62-75.42,24.75-109.32,41.86-20.7,10.45-32.74,35.78-55.59,43.66-33.05,11.4-73.4-9.62-89.12-39.21-22.95-43.19-24.01-95.2-10.2-140.96,4.86-16.09,7.34-33.99,12.81-49.02,9.86-27.09,24.09-53.2,34.54-79.97,2.98-7.62,4.35-16.09,7.66-23.64,18.65-42.51,48.6-84.78,78.65-119.83,7.57-8.83,12.84-14.14,22.16-21.36,18.42-14.26,32.56-24.46,57.24-22.15,14.77,1.38,31.19,16.17,41.27,26.68,4.91,5.12,6.63,11.21,11.54,16,7.46-6.15,14.47-13.11,22.49-18.57,7.34-4.99,15.55-8.27,23.19-12.69,2.73-10.61,5.01-21.61,6.43-32.5,5.1-39.17,4.29-75.03,1.61-114.39-1.69-24.9-2.97-49.76-9.93-73.83-.76-1.43-4.58-2.08-5.19-4.16-.31-1.04-1.1-10.21-.91-11.3s.49-1.92,1.77-1.81c1.49.13,6.81,4,8.92,4.85,7.78,3.12,20.45,3.26,29.01,3.44ZM368.05,46.89c2.38-.96,1.36-4.13,1.51-6.11-2.38.96-1.36,4.13-1.51,6.11ZM386.37,140c.44-9.34-2.59-18.36-3.26-27.65l-2.84-8.98c2.03,11.33,2.08,23.16,4.97,34.33.23.87-.05,2.48,1.12,2.29ZM413.86,164.43v-3.81h-.75v3.81h.75ZM417.69,239.99c1.62-.43,1.56-2.1,1.59-3.43.26-10.28-3.11-23.7-3.18-34.34-.05-6.74,1.66-14.38.85-21.41l-3.08-15.61c-.17,5.12,1.31,10.58,1.55,15.61.79,16.34-1.09,31.9.74,48.87.37,3.42,1.09,6.9,1.53,10.31ZM378.73,267.46c2.35-7.32,1.95-15.28,3.06-22.89-1.11-.15-1.16,2.07-1.3,2.88-.98,5.76-.73,11.76-2.42,17.44l.66,2.57ZM559.72,272.04c.8-.72-2.05-3.32-2.67-3.81-4.32-3.41-17.47-5.91-23.03-6.06-2.16-.06-6.44,1.23-2.97,2.26,4.26,1.28,9.65,1.46,14.16,2.65,5.04,1.32,9.45,3.83,14.5,4.96ZM513.14,268.98c-.17-.82-.63-1.42-1.57-1.2-1.36.33-12.83,11.85-14.47,13.8-.72.86-1.85,1.24-1.52,2.67.96,1.07,15.17-15.2,17.56-15.28ZM242.81,274.33c-.58-1.64-.75-1.34-2.03-.9-9.67,3.31-19.37,12.34-28.1,17.73l-4.99,5.31c1.24.16,2.04-.63,2.98-1.21,7.54-4.58,15.34-11.88,23.04-16.66,2.72-1.69,6.05-3.28,9.1-4.27ZM273.35,274.34c-3.8.41-7.87.45-11.64.98-1.21.17-3.44.16-2.87,2.07,3.89-.62,8.7-.3,12.42-.97,1.32-.24,2.52-.33,2.08-2.08ZM568.12,286.55c-6.94-3.77-13.7-9.6-21.85-10.6-19.19-2.36-31.54,4.66-45.36,17.08-3.07,2.76-16.33,17.29-16.05,20.56.14,1.62,6.92,10.25,8.44,12.24,4.1,5.38,8.65,9.27,11.43,15.67-4.34-5.16-9.07-10.11-12.99-15.67l-3.8-3.41,17.17,23.67,1.54.76c-.79-1.66-1.2-3.72-1.91-5.35.05.06.91-.24,1.57.5,2.35,2.64,6.64,12.65,9.52,13.22,10.4-.53,20.92.58,31.33.05,5.14-.26,11.46-1.08,16.76-1.57,3.23-.3,10.75-3.55,11.08.77l-29.77,9.16c4.74,2.48,9.69,5.37,13.99,8.54,1.83,1.34,3.05,3.11,4.74,4.43,5.86,4.6,14.45,9.17,16.39,16.81-.87.91-11.17-8.63-12.74-9.78-15.62-11.48-28.09-19.36-47.52-21.97-3.76-.51-.2,1.84.57,3.25,6.02,11.06,11.11,22.63,16.27,34.11,4.44,5.69,25.84,12.14,33.12,12.69,8.18.63,19.42-1.88,27.86-3.04,2.39,2.8,11.52.86,14.9.01,1.62-.41,2.58.04,2.66-2.3,6.2-.91,13.63-3.11,20.22-3.41,2.52-.11,9.45-.12,9.56,3.41-9.91-1.32-17.97,3.36-26.67,6.54-1.24.45-2.84.09-4.07.51-2.18.74-4.54,4.02-8.2,2.87,1.57-.47,3.33-1.76,5.34-1.54-.08-1.6-3.52-.33-4.35-.11-1.93.51-2.02-.34-1.76,2.41-5.18,1.33-13.29,2.09-18.61,2.39l-11.94,1.43c-.62-.25-2.7-1.04-3.05-.76,2.11,3.22,5.66,5.04,9.16,6.1.79.24,1.74,2.15,1.53-.76,9.62,4.74,20.28,8.23,30.68,10.93,3.7.96,12.45.32,10.97,5.13-2.27,3.14-18.77-3.38-22.4-4.4s-7.71-1.92-11.62-2.5l14.82,17.6c.86,1.07,1.93,3.49,2.74,4.53-.23-.5-2.92-1.82-3.57-2.55-.47-.53-.4-1.8-.98-2.42-1.82-1.95-5.31-4.87-7.66-6.11l11.82,13.36c.65,0,.47-2.09.38-2.29,5.02,6.4,10.88,12.35,14.51,19.84-.39-.39-1.85-.84-2.67-1.5-1.46-1.17-1.52-4.37-4.2-2.31-5.65-7.48-33.55-39.84-40.07-42.75-2.91-1.3-6.49-1.97-9.56-3.04,1.51-1.77-1.06-2.84-2.26-3.47-4.51-2.39-10.38-3.05-14.17-7.21-1.27,1.36,1.12,2.45,1.91,3.05l-.76.76c-1.28-.73-3.11-1.78-4.56-1.92,2.46,7.81,5.79,15.29,8.16,23.13,1.07,3.54,1.23,8.82,2.68,11.82,1.79,3.72,14.85,12.06,18.92,15.05-2.58-.13-1.52.38-.25,1.39,2,1.58,5.13,2.79,5.6,5.47,2.37-1.28-2.91-3.43-2.3-5.34,5.02,3.71,9.9,7.99,14.51,12.21-1.36-.57-4.33-1.76-5.35-.76-.8-.56-1.99-.72-2.68-1.52l-.37,1.13c4.65,7.21,10.31,13.7,15.17,20.75.6.87.6,2.16.86,2.54l-.76,1.53c-11.13-16.32-25.12-29.99-40.1-42.74,1.01,8.32,4.64,16.23,5.13,24.64,3.2,3.49,5.65,7.3,8.24,11.23.27.42.28,1.64.88,2.52,3.61,5.34,7.8,10.98,12.87,15.03,2.94,4.91,3.31,6.83,8.63,10.07,7.25,4.41,29.97,7.02,39.1,7.48,7.78.39,16.7-1.33,23.7-.78,1.01.08,6.95,1.31,7.22,1.56,1.15,1.06-.08,1.39-1.13,1.52-3.53.45-7.78-.3-11.46.01-9.38.8-17.72,2.26-27.53,1.54-7.24-.53-14.49-3.2-21.73-3.84l22.08,15.7c6.31,4.81,12.15,10.35,18.46,15.13,5.65,4.28,12.98,6.27,15.96,13.81.16.52-.63.53-1.13.37-3.47-1.13-7.6-6.53-11.13-8.72-20.07-12.47-42.04-23.52-59.15-40.11l-16.41-19.86-2.28-3.05c-.55,1.5,1.22,2.27,1.52,3.05,1.13,2.98,1.8,6.85,3.05,9.92-2.45-.2-1.55.42-.79,1.93,1.14,2.24,2.84,6.75,5.37,7.23,11.52,26.59,25.65,57.91,39.04,83.48,2.01,3.84,5.74,6.74,6.01,11.16-1.79-.62-2.93-1.71-4.13-3.11-10.11-11.71-18.44-29.04-26.25-42.45-3.5-6.01-7.93-11.61-11.24-17.77-5.84-10.88-9.53-22.84-15.65-33.59-1.36-.13-.81,2.58-.74,3.41.82,9.93,2.99,20.01,3.8,30.16.11,1.36.76,1.44.76,1.53.05,1,.03,2.05,0,3.05l-1.54-6.1c-1.33,0-.84,3.34-.79,4.23.24,4.63,1.38,9.29.81,14.08,1.33.18.72-1.74.76-2.66.07-2.05-.16-4.13-.03-6.18.06-1,.79-1.74.8-1.85l-.78,30.14c-1.33,5.05-1.34,11.73-3.45,16.43-.53,1.17.09,1.88-1.88,1.51,4.61-22.22,2.72-44.89,1.33-67.35l-7.44-36.44c-2.72,16.7,2.09,33.77-1.11,50.41-.89,4.63-3.01,8.95-4.06,13.5-.66,2.85-.26,6.21-1.16,9.52-.25.92-.93,3.52-2.06,3.65,1.17-16.98,1.89-33.76,1.56-50.78-.46-23.41-3.56-56.25-11.67-78.41-1.17-3.19-7.03-14.38-6.69-16.59,1.86,1.88,3.92,3.3,4.98,6.09l6.47,16.04c-.5-5.75-2.79-11.88-5.71-16.8-.37-.62-5.23-8.69-5.74-5.33-.09-.09-.89.18-1.32-.18-1.27-1.09-2.23-5.05-4.02-5.92,1.46,7.61-2.37,14.76-3.06,21.75-2.33,23.74,4.24,50.32,11.83,72.88,2.66,7.9,7.95,16.01,8.78,24.42-1.15-.18-1.42-1.44-1.92-2.27-5.45-9.11-14.45-25.65-17.11-35.56-1.9-7.07-2.65-14.62-4.65-21.7-.09-.1-1.43.82-1.52.77-.15-.09.61-2.29-1.52-1.52l-.79,11.05,2.32-2.66c0,20.92-1.63,33.29,3.82,54.19-.09,1.17.49,2.56-.75,2.28-.34-1.58-.37-3.52-2.3-3.05-4.15-16.2-5.95-37.11-5.38-53.84.08-2.35.76-4.46.84-6.81.03-.85.48-2.9-.79-2.7-.12,3.32-1.23,6.45-2.29,9.55-5.02,14.74-11.89,32.46-18.21,46.68-2.99,6.74-6.38,13.97-12.35,18.56.35-3.67,2.58-6.7,4.24-9.88,16.05-30.91,34.66-93.87,32.4-128.64-.91-13.97-5.56-22.09-13.11-33.46-1.13-1.71-2.73-3.96-4.44-5.09-.83,6.94,1.02,14.23.74,20.98-.32,7.73-3.87,17.31-3.88,24.43s3.49,16.02,3.92,23.63c.61,10.88-1.33,36.35-4.78,46.42-.36,1.06-4.99,11.47-6.7,9.7.14-4.15,3.06-6.89,4.37-10.51,4.15-11.46,5.01-43.2,1.83-54.84-.26-.95-.39-3.32-1.62-3.33-.77,6.4-.55,12.87-1.76,19.23-.57,2.97-6.28,23.38-7.42,24.27-.85.66-2.17-.71-2.31-1.91-.17-1.54,2.94-9.87,3.49-12.56,2-9.75,1.6-19.43,2.74-29.32.96-8.36,3.72-16.67,2.95-24.9l-6.24,10.92c-1.31,7.05-6.06,12.62-8.63,18.86-1.23,3-5.18,21.32-6.89,21.34-.72-.59-1.07-.88-1.16-1.87-.13-1.37,2.82-12.6,3.45-14.91,2.16-7.93,5.63-17.66,9.42-24.93,2.65-5.08,8.81-12.32,9.89-17.59,1.18-5.71-.71-33.26-2.16-39.48-1.25-5.34-15.01-20.05-19.03-25.25-2.29-2.96-3.45-6.84-6.88-8.76-.93,2.81-1.46,5.81-2.48,8.59-15.19,41.31-27.97,66.2-32.66,111.61-7.08,68.49-2.02,147.63,52.69,196.17,18.23,16.18,34.49,18.41,57.4,24.29,6.7,1.72,14.27,2.04,20.5,5.08-4.88.53-10.17-1.48-14.87-1.56-1.57-.03-2.24-.43-1.93,1.55,5.01,1.5,12.18,1.4,16.81,3.43,2.18.96,4.05,3.15,6.35,4.34,5.32,2.75,12,3.68,17.34,6.33,6.59,3.26,13.49,10.69,20.38,13.21.55.2,1.64.56,1.73-.2-4.62-5.47-10.84-10.87-16.8-14.89,7.25,2.29,13.58,6.8,19.44,11.48,11.69,9.34,27.63,30.69,41.6,33.98,25.62,6.03,54.76-11,66.78-33.33,20.43-37.94,18.78-91.53,10.91-132.86-5.37-28.25-21.35-60.99-32.59-87.63l.65-.48c.14-.55-.62-.88-.65-1.05-2.84-15.89-9.99-29.02-16.8-43.5-.52-1.1-.97-2.68-2.28-3.05,1.12,1.67-.04,3.61,0,3.82-15.51-30.55-29.71-61.25-48.7-89.85-11.59-17.45-23.96-34.8-38.73-49.06-5.8-5.6-11.75-11.25-17.18-16.79-.62-.63-2.1-.97-3.82-3.05l.76-.76c1.11.45,2,1.97,3.05,2.29.08.42-.12,1.43,0,1.53.17.14,1.48-.16,2.25.39,1.87,1.34,3.25,3.5,5.4,4.56l30.53,30.92-7.61-10.32c-9.42-9.63-18.46-18.73-29.04-27.07-1.56-1.23-3.46-2.17-4.58-3.05-.51-.4-3.72-4.67-4.58-3.81,1.49,1.15,2.25,3.51,3.05,4.57ZM248.16,356c-6.42-1.08-15.44-2.6-21.38-5-1.22-.49-1.87.08-1.52-1.87,15.41,1.27,30.7,3.06,46.23,2.32,6.41-.31,13.02-2.36,19.7-1.68l24.98-33.11c.14-1.53-6.54-11.51-8.05-13.33-4.13-5-20.6-20.13-26.07-22.79-1.56-.76-7.57-3.01-8.95-2.93-4.31.24-11.75,3.39-16.2,4.32-2.77.58-5.58-.08-9.08.85s-17.12,7.78-20.68,9.86c-8.02,4.69-11.71,13.58-17.18,20.23-3.62,4.4-9.18,9.1-12.54,13.4-4.53,5.8-8.43,14.01-13.08,19.77-2.54,3.14-6.23,5.74-8.71,8.85-5.26,6.57-13.05,21.49-18.34,25.55,1.46-2.74,2.45-5.5,4.26-8.33,2.19-3.41,4.9-5.65,6.43-9.21-1.5-1.51-7.33,7.5-7.95,8.45-1.5,2.3-5.06,7.94-5.78,10.25-.12.39-.21,1.25.37,1.13.73-.98,1.74-1.57,2.68-2.29-13.87,26.01-26.89,53.3-39.08,80.39-24.5,54.41-53.22,117.29-52.59,178,.09,8.24-.38,22.04.99,29.54,1.29,7.07,7.95,35.13,10.93,40.21,3.96,6.74,17.56,21.17,24.07,25.56,5.07,3.42,10.33,6.42,15.41,9.78,7.74,5.13,24.98,6.74,33.62,3.48,3.48-1.31,5.83-4.73,8.68-6.59,8.06-5.24,13.78-7.29,21.65-14.24,8.21-7.24,16.53-14.56,25.72-20.85,15.32-10.49,38.55-16.97,56.59-21.29,15.66-3.75,23.97-4.41,38.57-12.58,19.38-10.84,33.17-26.65,42.95-46.37,33.03-66.62,34.6-145.13,11.02-214.87-6.37-18.84-11.4-39.78-18.3-58.04-.7-1.85-5.43-13.32-6.5-13.33-3.9,4.54-7.49,9.35-10.93,14.25-10.89,15.48-14.7,21.17-13.88,41.07.9,21.77,10.03,27.76,16.63,45.96,2.01,5.53,5.04,16.43,6.08,22.16.38,2.09.15,4.21.18,6.3l-12.84-34.09-7.76-15.51,3.8,64.87-4.33-15.12-4.07-25.32c-1.13-.06-1.34,2.72-1.43,3.52-2.42,20.64-.78,41.9,5.24,61.75l-1.51.37c-7.39-20.68-14.4-41.09-7.67-62.99.68-2.21,3.47-6.95,3.62-8.46.9-8.77-3.64-26.63-4.35-36.55-.28-3.91.5-7.97-.39-11.82-3.35,5.05-6.75,10.21-9.68,15.51-6.15,11.11-5.35,12.54-5.25,25.35.07,8.46,1.13,16.78,1.55,25.16.39,7.79-.39,15.6,1.54,23.27l-3.44-7.62c.67,3.61.72,10.89,4.97,12.2,2.62,7.07,5.5,14.13,7.64,21.37-.53-.71-1.44-2.19-1.54-2.28-.5-.43-1.88-.27-1.48,1.09.42,1.44,4.01,7.36,6.07,7.29,7.07,16.97,10,35.81,19.09,51.89-1.4.24-2.27-.96-3.05-1.9-6.76-8.19-13.17-26.68-17.57-37.01-.15-.46.43-.8.76-.76.04,0,.57,1.49.77.37-2.54-7.27-5.52-15.53-8.84-22.49-.69-1.44.22-2.18-1.86-.78l-2.28-5.34c.05,3.32-.74,7.06-.84,10.3-.52,17.07-2.76,33.89-6.81,50.75-1.54,1.15-1.08,3.21-1.53,4.58-.08.23.08.54,0,.76-2.02,2.07-2.14.69-2.29.76,1.61-7.08,1.35-14.61,2.37-21.68.61-4.24,2.18-8.93,2.77-13.26,1.77-13.08,3.73-25.88,1.73-39.09-1.1-.18-1.03,1.32-1.29,2.12-6.07,18.86-11.02,36.67-18.94,55.11-.64,1.49-2.83,6.64-4.97,5.72,2.08-4.4,2.95-9.23,4.56-13.76,7.51-21.12,20.05-44.87,18.34-67.89-.29-3.95-1.57-8.24-1.93-12.39-.68-7.83-.95-15.64-1.88-23.51-.13-1.08-.43-2.19-1.52-1.13-12.8,24.55-20.65,51.29-22.91,79-.63,7.79-.22,15.9-.78,23.64-.55,7.54-3.12,16.91-3.04,24.43.05,4.62,4.05,12.55,0,16.41l-6.5-54.19c-2.41,6.78-3.85,13.96-4.85,21.09-1.35,9.66-2.13,20.53-2.4,30.04-2.24-.44-1.55,1.19-1.54,2.65.03,3.06.19,6.77,1.54,9.57.12,6.55.83,12.91,1.54,19.43l-1.53,5.75c-2-17.62-3.96-35.27-3.1-53.08.5-10.26,2.71-20.5,3.64-30.72.08-.84.91-2.6-.54-2.44-8.71,20.16-19.54,39.25-31,57.94-3.53,5.75-8.1,10.86-11.63,16.62-3.2,5.22-5.77,11.94-9,16.96-.8,1.24-1.54,3.34-3.37,3.11,1.14-5.99,4.28-11.18,6.78-16.5,7.32-15.57,16.95-30.17,24.42-45.81,7.13-14.91,18.76-38.31,23.77-53.33.24-.73.08-1.69-.75-.75-6.26,6.87-12.5,13.67-19.09,20.23l-.4-.77c-1.41.32-5.4,3.58-3.42,4.58-2.82,2.63-4.82,3.61-6.87,5.34,1.71-.87,4.15-3.71,5.35-5.33-1.15-.03-8.08,4.22-8.39,4.59-1.74,2.06,2.16,1.21,3.05.75-7.85,6.62-11.75,9.48-20.62,15.26.56-3.44-3.9.29-5.64.98-.93.37-1.18-.23-1.24-.21l19.09-16.78-19.47,2.35c-11.5-2.23-23.87.8-35.27-2.25-1.32-.35-2.12.54-1.76-1.63,3.56-.74,7.79.73,10.99.68,9.44-.14,19.76-1.06,29.1-1.6,6.83-.4,19.52-3.22,25.62-6.3,4.6-2.32,16.4-17.89,20.94-22.6.62-.64,1.79-.57,1.93-.71-.09,5.58,5.15-4.43,5.62-5.07.42-.56,1.39-.82,1.88-1.52,1.67-2.4,5.8-7.34,4.71-10.21,4.8-7.68,4.18-15.95,6.27-24.64.14-.56,1.39-1.97-.53-1.3-8.18,2.89-24.93,22.57-30.94,29.76l-2.29-.76c1.47-1.82,2.89-5.94,5.35-8.4.17-.17,1.33.19,1.52,0,3.13-3.19-6.5,1.11-6.87.76l1.52-4.58c.96-.73,1.59-1.03,2.29-1.53.48,1.33,2.43.15,3.25-.18,5.68-2.33,12.52-7.13,17.01-11.29.6-.56,1.8-.65,1.89-.76.41-.46.19-2-1.13-1.5-1.63.62-6.53,5.01-8.86,6.41-1.97,1.18-2.68,1.53-4.52,1.97,3.23-3.25,7.43-6.43,11.21-9.02,2.26-1.54,11.73-6.62,12.45-7.4.48-.52,3.8-11.19,4.59-13.35h.76c-.11.4.06,1.03,0,1.53-.03.24-.01.52,0,.76.05.76-.04,1.53,0,2.29,1.46,1.74,5.63-19.72,8.39-20.23l-2.29-.38c1.4-3.8,2.8-7.69,4.58-11.44-1.06-.89-12.62,6.6-14.51,7.62-.75-1.6-2.35-.29-3.33.11-3.03,1.22-8.08,2.15-8.89,5.24-5.1,2.28-10.83,4.25-15.27,7.63-1.07-1.17-1.94-.07-2.84.57-3.49,2.49-7.35,6.73-8.61,10.87-13.2,14.59-33.09,40.35-42.76,57.24l-.76-.76c5.67-12.06,14.79-22.47,20.75-34.6l25.07-31.43-17.24,5.67c-4.68-.42-9.85,1.66-14.45.82-1.31-.24-2.14-.81-1.91-2.28,8.72-1.43,16.93-5.32,25.2-8.4,1.7.6-1.13,1.72-1.51,1.93-1.21.67-6.27,2.34-4.99,4.17,3.32-2.22,9.39-3.77,11.08-7.62,8.04-3.1,18.03-5.85,24.44-11.44-6.87.38-13.86,2.36-20.82,1.34-5.26-.77-13.03-4.91-18.7-6.5-10.47-2.94-21.71-4.11-32.31-6.63-.6-.14-5.37-1.43-3.77-2.71,15.71-.48,30.82,4.25,46.28,6.03,9.98,1.15,24.13,2.34,34.27,1.59,13.89-1.03,23.19-6.54,33.58-15.28l18.72-35.48c.38-1.18.02-1.19-.99-1-6.65,1.21-13.25,2.99-19.61,5.21.52-3.09-5.38-.22-6.86.4-1.26.52-7.63,2.8-3.83,4.18-7.34,3.47-14.5,6.6-21.31,11.14-5.27,3.51-10.15,9.18-16.11,10.99,7.45-8.79,16.33-16.13,25.72-22.75,3.44-2.42,7.76-4.33,10.9-6.66,1.2-.89.83-.51.03-1.11-1.13-.86-2.38-.37-2.29-1.52,3.76-.35,8.1.95,11.46-1.15-.01-1.31-12.41-.41-13.95-.19-2.98.44-3.1,1.78.19,1.34l-3.05.76ZM365.75,284.25c.06-.06.28-1.61-.37-1.51-11.18,6.38-24.5,13.26-29.4,25.94,8.72-9.08,17.07-16.19,27.23-23.56.78-.56,2.44-.78,2.54-.88ZM465.79,303.33c2.39-2.89-13.44-11.97-15.53-13.09-1.14-.61-2.2-1.55-3.56-1.4l19.09,14.49ZM374.92,307.16c-5.85,0-10.44,4.55-15.25,7.29l-2.31,3.38c2.98-.32,4.71-3.04,7.23-4.59,3.41-2.1,7.35-3.58,10.33-6.08ZM300.07,347.6l12.98-22.13c-4.58,5.13-11.03,13.33-13.39,19.82-.26.72-1.01,2.48.4,2.31ZM474.69,346.34c-.62-.65-1.82-.96-2.41-1.78l-.37,1.13,18.31,21c-1.86-7.11-8.65-12.02-13.48-17.04-.9-.94-1.15-2.36-2.05-3.3ZM312.29,362.1c2.4-6.01,9.04-10.26,9.93-16.78l-9.02,11.96c-.35.62-2.58,4.64-.91,4.82ZM640.66,358.29c.23-1.05-.41-2.03-1.52-2.29v2.29s1.52,0,1.52,0ZM438.29,386.53c3.19-10.29,7.55-20.08,12.22-29.76-5.34,6.77-9.34,16.16-11.83,24.42-.29.96-1.97,5.06-.39,5.34ZM552.08,356.77c-3.7.71-8.03.95-11.64,1.72-.74.16-2.29.27-2.1,1.31,4.25-.06,10.56.25,13.74-3.04ZM642.18,359.06l-1.5,1.13c3.41,5.15,7.89,10.53,10.81,15.91,3.73,6.86,4.42,15.05,9.79,20.36-2.59-14.82-11.09-25.36-19.1-37.39ZM284.81,366.69c-3.94,5.07-6.92,11.85-9.18,17.92.8,1.22.9-.57,1.17-1.11,2.68-5.34,5.42-10.68,8.01-16.05.41-.85,2-1.71,1.54-3.42-.87-1.38-1.25,1.6-1.54,2.66ZM347.43,375.08l9.92,31.29c-2.13-10.67-4.98-21.56-9.92-31.29-.13-1.53-.69-4.63-2.28-5.34-.47,2.41,1.48,3.76,2.28,5.34ZM520.77,372.79c.51-.96-1.22-2.66-1.51-2.29-.51.96,1.22,2.66,1.51,2.29ZM522.29,373.56c-2.89-2.82-.08,3.78.41,4.59.26.43.71,2.95,1.89,1.5.21-.25-2.07-5.87-2.3-6.1ZM526.11,380.43c-.3-.3-2.08-.27-1.44,1.06l5.26,12.68c.38-1.95-3.05-12.96-3.82-13.73ZM305.43,385.78c-2.12-.32-1.44.36-1.53,1.89-.22,3.6,1.11,6.74.78,10.31,1.33.18.72-1.73.75-2.66.13-3.35-.9-6.47,0-9.54ZM496.34,400.27v-14.5h-.76v14.5h.76ZM286.05,403.81l7.92-14.23c-1.24-1.41-10.31,15.06-10.57,16.54.15,2.39.19,1.21.81.02.87-1.67,1.45-1.74,1.84-2.33ZM300.84,405.61c.02-3.62-.33-7.38-.86-10.96-.18-1.21-.33-4.6-1.41-5.06l.09,6.39,2.19,9.63ZM256.55,404.84c.06-.06.28-1.61-.37-1.51l-15.66,6.09c2.79.24,14.6-3.07,16.03-4.58ZM212.26,407.91c-3.56-.19-6.65-1.05-10.31-.77-.88.07-3.42.23-3.42,1.52,3.47-.69,7.11.78,10.28.81.77,0,3.49-.33,3.46-1.56ZM500.91,421.64l.76-13.73-1.51,10.31.75,3.42ZM552.84,448.35c-.91-4.65-1.98-9.34-3.26-13.9-.39-1.39-.87-4.47-2.07-5.17l2.64,12.99,2.69,6.08ZM378.73,465.91v-9.53s-3.8-24.05-3.8-24.05v7.24s3.8,26.34,3.8,26.34ZM595.61,444.53l-1.52-1.52c-.22,1.59-.08,1.74,1.52,1.52ZM258.07,461.32l5.35-16.02-4.93,11.47-.41,4.55ZM520,462.85c1.01-5.55,2.75-11.06,2.29-16.78l-2.84,14.33.55,2.46ZM189.36,461.33c2.87-2.4,5.38-6.45,6.86-9.92-2.78,2.43-5.51,6.61-6.86,9.92ZM426.07,484.22c.89-10.2.69-20.41,2.29-30.52l-2.28,7.25c.19,6.95-1.06,13.66-.77,20.61.04.93-.58,2.84.76,2.66ZM75.58,546.05c1.87-1.15,2.82-3.96,3.63-5.91,6.99-16.77,14.16-37.43,20.05-54.76,2.6-7.65,4.11-15.68,6.85-23.29-5.08,5.46-5.86,13.49-8.38,20.24-7.81,20.9-17.57,41.93-22.15,63.72ZM245.1,475.07v-12.21c-2.42,1.79-2.46,10.32,0,12.21ZM523.82,475.83l.76-11.44-1.51,7.25.75,4.19ZM558.57,468.96v.76c.5-.25.5-.51,0-.76ZM583.38,481.17l-3.8-4.97c-1.63-.24-8.15-8.3-9.17-7.24-.82.85,1.1,2.11,1.6,2.6,3.52,3.41,7.62,6.47,11.38,9.61ZM562.77,485.75c-.56-4.26-1.37-9-2.52-13.13-.22-.78-.19-2.31-1.29-2.13.98,3.23,1.17,6.67,1.87,9.94.29,1.37.7,4.65,1.93,5.31ZM582.63,476.59l2.27.4c-.78-1.17-2.41-1.9-2.27-.4ZM585.3,478.12v.76c.5-.25.5-.51,0-.76ZM552.07,495.67l-.19-4-3.61-12.02.34,3.85,3.47,12.17ZM246.63,498.35c-.97,8.41.72,18.49,0,27.09,1.63-.87,1.6-4.86,1.58-6.49-.13-7.67-1.87-15.39-.06-23.27-.81-.29-1.48,2.36-1.52,2.67ZM573.46,519.33l-4.57-7.62c.02,1.36.7,2.52,1.23,3.72.47,1.05,1.72,4.36,3.34,3.91ZM213.79,519.34c-1.6-.22-1.74-.08-1.52,1.52l1.52-1.52ZM376.44,519.34c-2.33-.36-1.25.56-1.49,1.92-2.01,11.45-3.63,23.11-4.61,34.7l2.05-8.25,4.05-28.38ZM416.92,519.33c-1.3-.01-1.65-.44-1.47,1.08,1.26,10.25,4.72,20.06,6.43,30.22,1.51-1.01.92-1.73.83-3.04-.63-9.02-5.71-18.89-5.79-28.25ZM554.37,553.68c.19-9.66,1.61-19.34.39-29.01.09,8.66-1.51,17.82-1.15,26.35.04.93-.58,2.84.76,2.66ZM607.83,542.23c-5.78-5.58-12.9-9.88-18.32-16.02,1.4,3.88,7.31,9.12,10.67,11.84,1.04.84,6.79,4.93,7.64,4.18ZM242.8,542.23v-7.24s-1.51-5.73-1.51-5.73v6.48s1.51,6.49,1.51,6.49ZM179.42,530.03c-2.8.24-6.07-.36-8.79,0-1.11.14-2.37.58-1.13,1.52,2.38-.08,4.8.19,7.18-.07.74-.08,2.87-.33,2.74-1.45ZM212.27,552.92c1.36-.43,1.88-2.12,2.42-3.29,2.72-5.86,5.24-12.73,7.49-18.84-1.38.82-2.48,3.36-3.19,4.81-2.66,5.41-5,11.53-6.72,17.32ZM182.48,542.99l9.17-6.47,2.27-3.44c-3.94,3.14-8.53,5.68-11.45,9.91ZM246.63,546.81v-13.74h-.76v13.74h.76ZM623.86,551.39c.61-.64-.83-2.24-1.58-2.61l-6.8-4.65c.86.55,7.65,8.03,8.38,7.25ZM626.92,553.68c.78-.77-1.49-3.06-2.28-2.28s1.49,3.06,2.28,2.28ZM585.67,559.78c-.06-1.52-.72-4.66-2.28-5.33.06,1.52.72,4.66,2.28,5.33ZM739.93,582.68c-1.32.05-1.61-.51-1.35.96,1.28,7.37,3.33,15.16,4.32,22.41,1.73,12.68.7,22.52.06,34.99-.13,2.59-.16,5.52.41,8.04,4.98-12.62,3.95-28.8,1.69-42.13-1.38-8.13-4.46-15.98-5.13-24.27ZM62.58,632.29c3.99-9.94,2.89-20.88,4.58-31.28-1.17-.19-.89,1.42-1.12,2.29-1.4,5.33-1.3,10.32-2.02,15.54-.49,3.56-1.73,7.42-2.11,10.88-.09.84-.68,2.75.66,2.57ZM356.58,628.47l1.53-5.33c-.74.16-3.02,5.2-1.53,5.33ZM355.45,629.24v.76c.5-.25.5-.51,0-.76ZM333.69,657.48c1.43.33,1.81-.8,2.67-1.52,7.17-5.99,15.42-16.35,18.33-25.17l-21,26.69ZM714.74,722.36c9.8-9.87,14.98-26.06,16.78-39.68l-16.78,39.68ZM83.97,728.46c-2.95-9.07-10.35-16.88-14.64-25.43-2.1-4.18-2.87-9.49-5.96-12.73,3.69,13.91,11.5,27.22,20.6,38.16ZM245.1,691.07c-3.01-.48-5.45,1.22-8.15,2.15l-26.97,13.1,11.2-3.68,23.92-11.57ZM620.04,736.86l-1.51-2.68c-5.77-3.99-10.62-10.25-16.03-14.5-1.12-.88-2.26-2.06-3.83-1.89,7.21,6.31,13.26,13.85,21.37,19.07ZM185.92,736.1v.76c.5-.25.5-.51,0-.76ZM184,740.67c.12-.11,1.2-2.52,1.16-3.03-1.6.29-2.36,4.2-1.16,3.03ZM181.72,742.21c-3.33.37-5.97,3.54-8.93,5.19-2.15,1.2-4.41,2.19-6.59,3.34l-13.5,5.2c10.71-.03,21.69-6.19,29.01-13.72Z"/>
  <path class="cls-5" d="M581.86,425.46c.14.49-.47.99-.76.76-.11-.09-.41-1.22-.76-1.53.49.26,1.03.51,1.53.76Z"/>
  <path class="cls-6" d="M409.28,44.6c.23.02,1.15.84,2.62.85,3.19.01,7.05-1.73,10.37-1.6-3.6,3.73-11.25,4.51-16.03,3.04l1.52-1.51c-1.27-.04-2.55.02-3.81,0,.96-1.23,3.77-.88,5.35-.76Z"/>
  <path class="cls-8" d="M561.25,686.49c.42.2,1.26.6,1.53.76,9.03,5.31,11.96,5.2,21.38,8.4,2.49.84,3.94,1.59,6.11,3.05,5.96,4.02,12.17,9.42,16.8,14.89-.09.76-1.18.4-1.73.2-6.9-2.52-13.8-9.96-20.38-13.21-5.35-2.64-12.02-3.57-17.34-6.33-2.3-1.19-4.17-3.38-6.35-4.34-4.63-2.03-11.8-1.94-16.81-3.43-.31-1.98.36-1.58,1.93-1.55,4.7.08,9.99,2.09,14.87,1.56Z"/>
  <path class="cls-3" d="M75.58,546.05c4.58-21.79,14.34-42.82,22.15-63.72,2.52-6.75,3.3-14.78,8.38-20.24-2.74,7.62-4.25,15.64-6.85,23.29-5.88,17.33-13.06,37.99-20.05,54.76-.81,1.95-1.76,4.75-3.63,5.91Z"/>
  <path class="cls-8" d="M739.93,582.68c.66,8.28,3.75,16.14,5.13,24.27,2.26,13.33,3.29,29.52-1.69,42.13-.57-2.52-.54-5.46-.41-8.04.64-12.46,1.67-22.31-.06-34.99-.99-7.25-3.04-15.04-4.32-22.41-.26-1.48.04-.91,1.35-.96Z"/>
  <path class="cls-3" d="M451.28,634.58c8.71,6.89,12.54,17.15,21.44,23.98,7.97,6.11,15.14,10.48,22.5,17.96,1.13,1.15,3.88,4.1,3.02,5.37-5.95-2.96-9.52-8.92-14.53-12.95-4.19-3.38-10.09-5.78-14.11-9.18-6.14-5.18-13.04-17.55-18.33-24.42v-.76Z"/>
  <path class="cls-8" d="M417.69,239.99c-.44-3.41-1.16-6.89-1.53-10.31-1.83-16.98.05-32.54-.74-48.87-.24-5.03-1.72-10.49-1.55-15.61l3.08,15.61c.81,7.02-.89,14.67-.85,21.41.07,10.65,3.44,24.06,3.18,34.34-.03,1.33.02,3-1.59,3.43Z"/>
  <path class="cls-1" d="M622.34,476.59c2.99,2.96,14.14,24.76,14.94,28.97.74,3.95-1.28,3.51-2.87.57-6.53-12.09-10.28-21.9-18.94-33.36,2.68-2.06,2.74,1.15,4.2,2.31.83.66,2.28,1.11,2.67,1.5Z"/>
  <path class="cls-10" d="M209.97,484.99l2.29.76c-8.3,9.93-16.13,19.97-22.52,31.29-1.57-1.16-1.04-1.38-.56-2.82,3.11-9.22,13.08-21,19.26-28.69.56-.7,1.48-.49,1.53-.55Z"/>
  <path class="cls-8" d="M559.72,272.04c-5.05-1.13-9.46-3.64-14.5-4.96-4.52-1.19-9.9-1.37-14.16-2.65-3.47-1.04.81-2.32,2.97-2.26,5.56.15,18.7,2.65,23.03,6.06.62.49,3.47,3.09,2.67,3.81Z"/>
  <path class="cls-3" d="M714.74,722.36l16.78-39.68c-1.81,13.62-6.99,29.81-16.78,39.68Z"/>
  <path class="cls-9" d="M574.23,288.84c10.58,8.35,19.62,17.45,29.04,27.07l7.61,10.32-30.53-30.92c-2.15-1.06-3.53-3.22-5.4-4.56-.77-.55-2.08-.25-2.25-.39-.12-.1.08-1.11,0-1.53.39.12,1.05-.08,1.53,0Z"/>
  <path class="cls-4" d="M642.18,359.06c8,12.04,16.5,22.58,19.1,37.39-5.37-5.3-6.06-13.5-9.79-20.36-2.93-5.39-7.4-10.76-10.81-15.91l1.5-1.13Z"/>
  <path class="cls-6" d="M365.75,284.25c-.1.1-1.76.31-2.54.88-10.16,7.37-18.51,14.48-27.23,23.56,4.9-12.69,18.22-19.56,29.4-25.94.66-.1.43,1.45.37,1.51Z"/>
  <path class="cls-6" d="M83.97,728.46c-9.1-10.94-16.92-24.25-20.6-38.16,3.09,3.24,3.86,8.55,5.96,12.73,4.29,8.55,11.7,16.36,14.64,25.43Z"/>
  <path class="cls-6" d="M242.81,274.33c-3.05.99-6.38,2.58-9.1,4.27-7.7,4.78-15.49,12.08-23.04,16.66-.95.58-1.74,1.37-2.98,1.21l4.99-5.31c8.73-5.39,18.44-14.41,28.1-17.73,1.28-.44,1.45-.74,2.03.9Z"/>
  <path class="cls-10" d="M679.61,445.3c-1.59.72-.27,2.36.1,3.33,4.3,11.49,11.66,22.35,14.65,34.23.34,1.35,1.04,2.43-.24,3.65-1.37-3.22-2.02-7.32-3.45-10.67-3.24-7.56-12.19-22.49-13.35-29.78-.03-.2,1.13-2.15,0-3.82,1.32.37,1.77,1.95,2.28,3.05Z"/>
  <path class="cls-1" d="M593.32,481.94c2.93,1.23,12.49,8.25,12.99,11.06.19,1.05-.05,1.47-1.14,1.14-2.92-.87-13.71-10.55-17.2-12.96,1.01-1,3.99.19,5.35.76Z"/>
  <path class="cls-14" d="M696.41,488.81h-.76c-.21-.49-1.08-1.24-1.53-2.29,1.29-1.22.58-2.3.24-3.65-2.99-11.88-10.35-22.74-14.65-34.23-.37-.98-1.69-2.61-.1-3.33,6.81,14.49,13.96,27.62,16.8,43.5Z"/>
  <path class="cls-1" d="M211.5,472.78l-1.52,4.58c.36.35,10-3.95,6.87-.76-.19.2-1.36-.16-1.52,0-2.87,1.22-6.79,2.46-9.41,3.95-1.57.9-11.96,9.02-12.73,8.26-1-.98,1.34-2.04,1.75-2.44,5.14-5.01,10.92-9.32,16.57-13.59Z"/>
  <path class="cls-4" d="M333.69,657.48l21-26.69c-2.91,8.82-11.17,19.19-18.33,25.17-.86.72-1.24,1.85-2.67,1.52Z"/>
  <path class="cls-4" d="M181.72,742.21c-7.32,7.53-18.3,13.7-29.01,13.72l13.5-5.2c2.18-1.15,4.44-2.14,6.59-3.34,2.96-1.65,5.6-4.81,8.93-5.19Z"/>
  <path class="cls-6" d="M386.37,140c-1.17.19-.9-1.43-1.12-2.29-2.89-11.17-2.94-23-4.97-34.33l2.84,8.98c.67,9.28,3.69,18.31,3.26,27.65Z"/>
  <path class="cls-9" d="M245.1,691.07l-23.92,11.57-11.2,3.68,26.97-13.1c2.7-.92,5.14-2.63,8.15-2.15Z"/>
  <path class="cls-1" d="M521.54,556.73c1.93-.47,1.96,1.47,2.3,3.05,1.25.28.66-1.12.75-2.28,1.01,3.87,5.1,10.8,4.59,14.84-.11.89-.55,1.82-1.53,1.95-2.87-5.52-4.58-11.53-6.12-17.55Z"/>
  <path class="cls-11" d="M600.96,504.07c2.95,4.31,6.54,7.39,9.07,12.69,1.92,4.03,2.26,7.87-1.77,2.53-2.79-3.7-5.38-9.75-8.07-13.69l.76-1.53Z"/>
  <path class="cls-4" d="M504.74,341.5c.71,1.63,1.12,3.69,1.91,5.35l-1.54-.76-17.17-23.67,3.8,3.41c3.93,5.55,8.65,10.5,12.99,15.67Z"/>
  <path class="cls-13" d="M221.43,465.91c1.84-.44,2.55-.79,4.52-1.97,2.33-1.4,7.23-5.79,8.86-6.41,1.32-.5,1.54,1.04,1.13,1.5-.09.1-1.28.2-1.89.76-4.49,4.16-11.32,8.96-17.01,11.29-.82.34-2.77,1.51-3.25.18,1.37-.97,2.49-2.59,4.58-3.82.15,1.52,1.98.49,2.28-.39.14-.43-.76-.34-.75-.38.11-.6,1.04-.65,1.53-.76Z"/>
  <path class="cls-4" d="M62.58,632.29c-1.35.18-.76-1.73-.66-2.57.38-3.45,1.61-7.31,2.11-10.88.72-5.23.62-10.21,2.02-15.54.23-.87-.05-2.48,1.12-2.29-1.7,10.4-.59,21.34-4.58,31.28Z"/>
  <path class="cls-6" d="M416.92,519.33c.08,9.36,5.16,19.23,5.79,28.25.09,1.31.68,2.03-.83,3.04-1.71-10.15-5.18-19.96-6.43-30.22-.19-1.51.16-1.09,1.47-1.08Z"/>
  <path class="cls-9" d="M376.44,519.34l-4.05,28.38-2.05,8.25c.98-11.59,2.59-23.26,4.61-34.7.24-1.36-.84-2.28,1.49-1.92Z"/>
  <path class="cls-9" d="M287.1,500.25c2.09-1.4,1.18-.66,1.86.78,3.32,6.96,6.3,15.23,8.84,22.49-.2,1.12-.73-.37-.77-.37-2.17-3.99-3.94-8.14-5.57-12.38-.2-.53-.53-3.28-1.3-1.36-1.08-2.97-2.97-5.82-3.05-9.16Z"/>
  <path class="cls-4" d="M157.28,380.43c-.94.72-1.95,1.3-2.68,2.29-.58.12-.49-.74-.37-1.13.73-2.31,4.28-7.95,5.78-10.25.62-.96,6.45-9.96,7.95-8.45-1.53,3.56-4.24,5.81-6.43,9.21-1.82,2.84-2.8,5.59-4.26,8.33Z"/>
  <path class="cls-4" d="M465.79,303.33l-19.09-14.49c1.36-.15,2.42.79,3.56,1.4,2.09,1.12,17.93,10.2,15.53,13.09Z"/>
  <path class="cls-14" d="M347.43,375.08c4.94,9.73,7.79,20.62,9.92,31.29l-9.92-31.29Z"/>
  <path class="cls-6" d="M513.14,268.98c-2.38.07-16.6,16.35-17.56,15.28-.33-1.43.8-1.82,1.52-2.67,1.64-1.95,13.11-13.48,14.47-13.8.94-.23,1.4.38,1.57,1.2Z"/>
  <path class="cls-14" d="M620.04,736.86c-8.12-5.22-14.17-12.77-21.37-19.07,1.58-.17,2.71,1,3.83,1.89,5.41,4.25,10.27,10.52,16.03,14.5l1.51,2.68Z"/>
  <path class="cls-12" d="M587.21,516.28c-5.07-4.05-9.25-9.7-12.87-15.03-.6-.88-.6-2.11-.88-2.52,3.82,4.28,10.06,10.24,12.88,15.02.55.93.59,2.08.86,2.54Z"/>
  <path class="cls-14" d="M438.29,386.53c-1.58-.28.1-4.37.39-5.34,2.49-8.26,6.49-17.66,11.83-24.42-4.67,9.68-9.03,19.47-12.22,29.76Z"/>
  <polygon class="cls-4" points="378.73 465.91 374.93 439.57 374.93 432.33 378.73 456.38 378.73 465.91"/>
  <path class="cls-4" d="M426.07,484.22c-1.33.18-.72-1.73-.76-2.66-.29-6.95.96-13.66.77-20.61l2.28-7.25c-1.6,10.12-1.4,20.33-2.29,30.52Z"/>
  <path class="cls-13" d="M256.56,420.11l2.29.38c-2.76.51-6.93,21.96-8.39,20.23-.05-.76.04-1.53,0-2.29l.75-.38-.75-.38c.06-.49-.11-1.12,0-1.53.79-2.92,3.35-8.71,4.58-12.21.54-1.53,1.11-2.67,1.53-3.82Z"/>
  <path class="cls-2" d="M607.83,542.23c-.85.74-6.6-3.34-7.64-4.18-3.37-2.72-9.28-7.96-10.67-11.84,5.42,6.14,12.54,10.44,18.32,16.02Z"/>
  <path class="cls-4" d="M374.92,307.16c-2.98,2.5-6.92,3.98-10.33,6.08-2.52,1.55-4.25,4.28-7.23,4.59l2.31-3.38c4.81-2.75,9.4-7.3,15.25-7.29Z"/>
  <path class="cls-2" d="M474.69,346.34c.9.94,1.15,2.36,2.05,3.3,4.83,5.02,11.62,9.93,13.48,17.04l-18.31-21,.37-1.13c.59.82,1.79,1.13,2.41,1.78Z"/>
  <path class="cls-9" d="M248.16,356l3.05-.76c-3.29.43-3.17-.9-.19-1.34,1.54-.23,13.94-1.12,13.95.19-3.35,2.1-7.7.81-11.46,1.15-.09,1.15,1.16.66,2.29,1.52-2.85.53-5.25-.36-7.64-.76Z"/>
  <path class="cls-2" d="M212.27,552.92c1.72-5.79,4.06-11.91,6.72-17.32.71-1.45,1.81-3.99,3.19-4.81-2.24,6.1-4.76,12.97-7.49,18.84-.54,1.17-1.06,2.86-2.42,3.29Z"/>
  <path class="cls-12" d="M615.46,406.38c-.08,2.34-1.04,1.9-2.66,2.3-3.38.85-12.52,2.78-14.9-.01,4.04-.56,8.16-.95,12.22-1.53,1.48-.21,2.8-.62,3.82-.76.49-.07,1.04.07,1.53,0Z"/>
  <path class="cls-8" d="M246.63,498.35c.04-.31.71-2.95,1.52-2.67-1.82,7.89-.07,15.61.06,23.27.03,1.62.05,5.62-1.58,6.49.72-8.6-.97-18.68,0-27.09Z"/>
  <path class="cls-14" d="M300.07,347.6c-1.41.17-.66-1.59-.4-2.31,2.36-6.48,8.81-14.68,13.39-19.82l-12.98,22.13Z"/>
  <path class="cls-2" d="M565.83,426.98c-.75-.26-1.53-.5-2.29-.76l.57-.94c-4.37-1.64-9.02-3.09-12.79-5.93-.79-.6-3.18-1.69-1.91-3.05,3.79,4.16,9.66,4.82,14.17,7.21,1.2.64,3.76,1.7,2.26,3.47Z"/>
  <path class="cls-14" d="M533.76,442.25c.51-3.37,5.37,4.71,5.74,5.33,2.91,4.93,5.2,11.05,5.71,16.8l-6.47-16.04c-1.06-2.79-3.12-4.21-4.98-6.09Z"/>
  <path class="cls-12" d="M219.14,429.27c-3.64,2.78-8.62,8.32-11.45,11.45,1.26-4.14,5.12-8.38,8.61-10.87.9-.65,1.78-1.75,2.84-.57Z"/>
  <path class="cls-7" d="M273.35,274.34c.44,1.75-.76,1.84-2.08,2.08-3.72.67-8.53.35-12.42.97-.57-1.91,1.65-1.9,2.87-2.07,3.77-.53,7.83-.56,11.64-.98Z"/>
  <path class="cls-12" d="M174.08,547.58c.06-.02.3.58,1.24.21,1.74-.69,6.2-4.41,5.64-.98-2.57,1.68-5.19,3.01-7.64,4.58-.28-1.12-2.03-.7-2.69-.02l.4-1.5c.97-.63.39-1.42,3.05-2.29Z"/>
  <path class="cls-9" d="M378.73,267.46l-.66-2.57c1.69-5.67,1.44-11.67,2.42-17.44.14-.81.2-3.03,1.3-2.88-1.11,7.61-.7,15.57-3.06,22.89Z"/>
  <path class="cls-13" d="M237.46,481.94c1.08,2.87-3.04,7.8-4.71,10.21-.49.7-1.47.96-1.88,1.52-.48.64-5.72,10.65-5.62,5.07,3.4-3.5,4.35-5.32,6.87-9.16,1.67-2.55,3.94-5.38,5.35-7.63Z"/>
  <path class="cls-13" d="M554.37,553.68c-1.33.18-.72-1.73-.76-2.66-.36-8.53,1.24-17.68,1.15-26.35,1.22,9.67-.2,19.35-.39,29.01Z"/>
  <path class="cls-7" d="M286.05,403.81c-.39.6-.96.66-1.84,2.33-.62,1.19-.66,2.37-.81-.02.26-1.48,9.33-17.95,10.57-16.54l-7.92,14.23Z"/>
  <path class="cls-12" d="M256.56,365.16c-3.79-1.38,2.57-3.66,3.83-4.18,1.48-.61,7.38-3.48,6.86-.4-.39.14-.91.54-1.53.76-.65-1.91-2.32.36-3.05.76-2.05,1.14-4.01,2.06-6.11,3.05Z"/>
  <path class="cls-7" d="M312.29,362.1c-1.67-.18.56-4.2.91-4.82l9.02-11.96c-.89,6.52-7.53,10.77-9.93,16.78Z"/>
  <path class="cls-12" d="M246.63,416.3c-4.69,2.54-7.78,3.35-12.22,5.34.81-3.09,5.86-4.01,8.89-5.24.98-.39,2.58-1.71,3.33-.11Z"/>
  <path class="cls-2" d="M583.38,481.17c-3.76-3.14-7.86-6.2-11.38-9.61-.5-.48-2.41-1.75-1.6-2.6,1.02-1.06,7.54,7,9.17,7.24l3.8,4.97Z"/>
  <path class="cls-14" d="M256.55,404.84c-1.43,1.51-13.24,4.82-16.03,4.58l15.66-6.09c.66-.1.43,1.44.37,1.51Z"/>
  <path class="cls-2" d="M212.26,407.91c.03,1.23-2.69,1.57-3.46,1.56-3.17-.03-6.81-1.5-10.28-.81,0-1.29,2.54-1.45,3.42-1.52,3.67-.27,6.76.58,10.31.77Z"/>
  <path class="cls-10" d="M551.32,419.35c3.76,2.84,8.42,4.29,12.79,5.93l-.57.94c-6.14-2.14-7.46-2.97-12.98-6.11l.76-.76Z"/>
  <path class="cls-2" d="M284.81,367.45c-2.58,5.38-5.33,10.71-8.01,16.05-.27.54-.37,2.33-1.17,1.11,2.25-6.08,5.24-12.85,9.18-17.92v.76Z"/>
  <path class="cls-14" d="M206.16,425.46c-1.69,3.86-7.76,5.4-11.08,7.62-1.28-1.83,3.78-3.5,4.99-4.17.38-.21,3.2-1.33,1.51-1.93,1.57-.59,3.17-.98,4.58-1.53Z"/>
  <path class="cls-1" d="M297.03,523.15c-.34-.04-.91.3-.76.76-2.22-5.21-4.09-8.94-6.11-14.5.77-1.92,1.1.83,1.3,1.36,1.63,4.24,3.4,8.39,5.57,12.38Z"/>
  <path class="cls-7" d="M552.08,356.77c-3.19,3.29-9.49,2.98-13.74,3.04-.19-1.04,1.36-1.16,2.1-1.31,3.61-.77,7.94-1.02,11.64-1.72Z"/>
  <path class="cls-7" d="M526.11,380.43c.77.78,4.2,11.79,3.82,13.73l-5.26-12.68c-.64-1.32,1.14-1.36,1.44-1.06Z"/>
  <path class="cls-12" d="M285.57,478.88c1.5,1.18,1.05,3.28,1.53,4.58-4.25-1.31-4.3-8.59-4.97-12.2l3.44,7.62Z"/>
  <path class="cls-2" d="M182.48,542.99c2.92-4.23,7.51-6.78,11.45-9.91l-2.27,3.44-9.17,6.47Z"/>
  <path class="cls-12" d="M574.99,420.88c2.43.98,3.96,3.09,5.35,3.82.35.3.65,1.44.76,1.53-3.5-1.06-7.05-2.87-9.16-6.1.36-.29,2.43.51,3.05.76Z"/>
  <path class="cls-12" d="M582.63,425.46c.21,2.91-.74,1-1.53.76.3.23.91-.27.76-.76.2.1.56-.1.76,0Z"/>
  <path class="cls-9" d="M300.84,405.61l-2.19-9.63-.09-6.39c1.08.47,1.23,3.85,1.41,5.06.53,3.58.88,7.33.86,10.96Z"/>
  <path class="cls-11" d="M245.1,475.07c-2.46-1.89-2.42-10.43,0-12.21v12.21Z"/>
  <path class="cls-4" d="M520.77,503.31l-2.32,2.66.79-11.05c2.13-.77,1.38,1.44,1.52,1.52v6.87Z"/>
  <path class="cls-12" d="M297.79,510.94c-2.07.07-5.65-5.86-6.07-7.29s.98-1.53,1.48-1.09c.1.09,1.01,1.58,1.54,2.28,1.67,2.22,2.04,3.68,3.05,6.11Z"/>
  <polygon class="cls-14" points="552.07 495.67 548.61 483.5 548.27 479.65 551.89 491.67 552.07 495.67"/>
  <path class="cls-7" d="M552.84,448.35l-2.69-6.08-2.64-12.99c1.2.7,1.68,3.78,2.07,5.17,1.28,4.56,2.36,9.25,3.26,13.9Z"/>
  <path class="cls-14" d="M571.17,566.66c0,.1-.74.84-.8,1.85-.12,2.05.1,4.12.03,6.18-.03.92.57,2.84-.76,2.66.57-4.79-.57-9.45-.81-14.08-.05-.89-.53-4.23.79-4.23l1.54,6.1c-.02.51,0,1.02,0,1.53Z"/>
  <path class="cls-12" d="M574.99,520.1c1.18,2.88,3.29,6.19,4.58,9.16-2.53-.48-4.23-4.99-5.37-7.23-.77-1.51-1.67-2.13.79-1.93Z"/>
  <path class="cls-14" d="M520,462.85l-.55-2.46,2.84-14.33c.46,5.72-1.28,11.24-2.29,16.78Z"/>
  <path class="cls-4" d="M201.57,531.55c-.89.46-4.79,1.31-3.05-.75.31-.37,7.24-4.62,8.39-4.59-1.2,1.62-3.64,4.46-5.35,5.33Z"/>
  <path class="cls-12" d="M232.12,572.76c-.11,4.04-.07,8.17,0,12.21-1.34-2.8-1.51-6.5-1.54-9.57-.01-1.46-.71-3.08,1.54-2.65Z"/>
  <path class="cls-1" d="M250.45,436.14h-.76c1.49-4.11,2.46-8.76,5.35-12.21-1.23,3.5-3.79,9.29-4.58,12.21Z"/>
  <path class="cls-7" d="M179.42,530.03c.14,1.11-2,1.37-2.74,1.45-2.38.26-4.8-.01-7.18.07-1.24-.94.01-1.38,1.13-1.52,2.72-.35,5.99.25,8.79,0Z"/>
  <polygon class="cls-13" points="242.8 542.23 241.29 535.74 241.29 529.26 242.8 534.99 242.8 542.23"/>
  <path class="cls-7" d="M305.43,385.78c-.9,3.07.13,6.19,0,9.54-.04.93.58,2.83-.75,2.66.33-3.57-1-6.71-.78-10.31.1-1.53-.58-2.21,1.53-1.89Z"/>
  <polygon class="cls-4" points="500.91 421.64 500.16 418.22 501.67 407.91 500.91 421.64"/>
  <polygon class="cls-4" points="523.82 475.83 523.07 471.64 524.58 464.39 523.82 475.83"/>
  <path class="cls-11" d="M275.65,561.31c-.72,2.01-2.89,4.38-3.07,6.87-3.53.5-.23-5.64.78-6.1.15-.07.27,1.31,2.29-.76Z"/>
  <rect class="cls-14" x="495.57" y="385.77" width=".76" height="14.5"/>
  <rect class="cls-4" x="245.86" y="533.07" width=".76" height="13.74"/>
  <path class="cls-4" d="M212.26,522.39c-1.3,1.3-2.45,2.54-3.82,3.82-1.98-1,2.01-4.27,3.42-4.58l.4.77Z"/>
  <path class="cls-7" d="M522.29,373.56c.23.23,2.51,5.85,2.3,6.1-1.19,1.44-1.64-1.08-1.89-1.5-.49-.81-3.3-7.42-.41-4.59Z"/>
  <path class="cls-7" d="M562.77,485.75c-1.23-.66-1.64-3.94-1.93-5.31-.71-3.28-.9-6.71-1.87-9.94,1.1-.18,1.07,1.34,1.29,2.13,1.15,4.13,1.95,8.86,2.52,13.13Z"/>
  <path class="cls-12" d="M575.76,468.2c.55.41,1.99.74,3.05,1.53-.61,1.9,4.68,4.06,2.3,5.34-.48-2.68-3.61-3.89-5.6-5.47-1.27-1.01-2.33-1.52.25-1.39Z"/>
  <path class="cls-12" d="M607.83,456.75c.09.2.27,2.28-.38,2.29l-11.82-13.36c2.35,1.24,5.84,4.16,7.66,6.11.58.62.5,1.89.98,2.42.64.72,3.33,2.05,3.57,2.55Z"/>
  <path class="cls-9" d="M368.05,46.89c.15-1.97-.87-5.14,1.51-6.11-.15,1.97.87,5.14-1.51,6.11Z"/>
  <path class="cls-11" d="M164.92,497.97c-.75,1.3-.72,3.95-3.05,4.58-.53-2.32,1.59-3.86,2.28-5.34l.76.76Z"/>
  <path class="cls-14" d="M189.36,461.33c1.35-3.32,4.08-7.49,6.86-9.92-1.48,3.48-3.99,7.52-6.86,9.92Z"/>
  <polygon class="cls-7" points="258.07 461.32 258.49 456.77 263.42 445.31 258.07 461.32"/>
  <path class="cls-3" d="M605.54,417.06c-.26-2.75-.18-1.89,1.76-2.41.83-.22,4.26-1.49,4.35.11-2.01-.23-3.77,1.06-5.34,1.54-.19.06-.47.69-.76.76Z"/>
  <path class="cls-2" d="M451.28,635.35c-4.46-5.8-2.42-8.7,0-.76v.76Z"/>
  <path class="cls-7" d="M623.86,551.39c-.73.78-7.53-6.7-8.38-7.25l6.8,4.65c.76.37,2.19,1.96,1.58,2.61Z"/>
  <path class="cls-14" d="M568.12,286.55c-.81-1.06-1.57-3.42-3.05-4.57.86-.86,4.07,3.41,4.58,3.81v.76l-.76.76c-.22-.27-.55-.48-.76-.76Z"/>
  <path class="cls-11" d="M585.67,559.78c-1.55-.68-2.22-3.82-2.28-5.33,1.55.68,2.22,3.82,2.28,5.33Z"/>
  <path class="cls-13" d="M574.23,288.84c-.48-.08-1.13.12-1.53,0-1.05-.32-1.95-1.84-3.05-2.29v-.76c1.12.88,3.02,1.82,4.58,3.05Z"/>
  <path class="cls-11" d="M347.43,375.08c-.8-1.58-2.75-2.93-2.28-5.34,1.59.7,2.16,3.81,2.28,5.34Z"/>
  <path class="cls-7" d="M626.92,553.68c-.79.78-3.06-1.52-2.28-2.28s3.06,1.52,2.28,2.28Z"/>
  <path class="cls-12" d="M573.46,519.33c-1.62.45-2.87-2.86-3.34-3.91-.53-1.2-1.21-2.36-1.23-3.72l4.57,7.62Z"/>
  <path class="cls-9" d="M572.7,510.18h-.76c-.3-.78-2.07-1.56-1.52-3.05l2.28,3.05Z"/>
  <path class="cls-11" d="M284.81,367.45v-.76c.29-1.06.66-4.04,1.54-2.66.46,1.71-1.13,2.58-1.54,3.42Z"/>
  <rect class="cls-8" x="413.11" y="160.62" width=".75" height="3.81"/>
  <path class="cls-4" d="M640.66,358.29h-1.52s0-2.29,0-2.29c1.1.26,1.75,1.23,1.52,2.29Z"/>
  <path class="cls-11" d="M696.41,490.33c-.19-.44-.51-.94-.76-1.53h.76c.03.17.79.5.65,1.05l-.65.48Z"/>
  <path class="cls-7" d="M520.77,372.79c-.29.37-2.02-1.33-1.51-2.29.29-.37,2.02,1.33,1.51,2.29Z"/>
  <path class="cls-12" d="M595.61,444.53c-1.6.22-1.74.08-1.52-1.52l1.52,1.52Z"/>
  <path class="cls-11" d="M275.65,560.55c.45-1.37-.01-3.43,1.53-4.58-.37,1.54-.07,3.39-1.53,4.58Z"/>
  <path class="cls-4" d="M356.58,628.47c-1.49-.14.79-5.18,1.53-5.33l-1.53,5.33Z"/>
  <path class="cls-4" d="M213.79,519.34l-1.52,1.52c-.22-1.59-.08-1.74,1.52-1.52Z"/>
  <path class="cls-4" d="M184,740.67c-1.19,1.17-.44-2.74,1.16-3.03.04.52-1.05,2.92-1.16,3.03Z"/>
  <path class="cls-12" d="M582.63,476.59c-.14-1.5,1.49-.77,2.27.4l-2.27-.4Z"/>
  <path class="cls-14" d="M571.17,562.08c0-.09-.65-.16-.76-1.53l.76,1.53Z"/>
  <path class="cls-7" d="M558.57,468.96c.5.25.5.51,0,.76v-.76Z"/>
  <path class="cls-4" d="M355.45,629.24c.5.25.5.51,0,.76v-.76Z"/>
  <path class="cls-1" d="M250.45,438.43c-.01-.24-.03-.53,0-.76l.75.38-.75.38Z"/>
  <path class="cls-4" d="M185.92,736.1c.5.25.5.51,0,.76v-.76Z"/>
  <path class="cls-12" d="M585.3,478.12c.5.25.5.51,0,.76v-.76Z"/>
  <path class="cls-10" d="M171.03,549.87l-.4,1.5c.66-.68,2.4-1.1,2.69.02-9.63,6.21-19.08,12.78-28.46,19.26-2.92,2.02-6.87,3.27-2.86-.57,8.28-7.92,19.24-13.88,29.03-20.21Z"/>
  <path class="cls-1" d="M225.25,498.73c.06-3.69,1.79-2.66,2.81-4.07,1.13-1.57,1.42-4.17,4.07-5.09-2.52,3.84-3.47,5.66-6.87,9.16Z"/>
  <path class="cls-5" d="M265.72,361.35c-1.01.37-1.89.91-3.05.76.73-.41,2.41-2.67,3.05-.76Z"/>
  <path class="cls-1" d="M218.37,467.44c.49-.29,1.03-.49,1.53-.76,0,.04.89-.05.75.38-.29.87-2.13,1.91-2.28.39Z"/>
  <path class="cls-5" d="M584.16,695.64c-9.42-3.19-12.35-3.08-21.38-8.4,2.65.08,6.05,1.53,8.59,2.48,4.28,1.61,9.06,3.26,12.79,5.91Z"/>
  <path class="cls-5" d="M613.94,406.38c-1.02.15-2.34.55-3.82.76.65-1.24,2.59-.72,3.82-.76Z"/>
</svg>