<?xml version="1.0" encoding="UTF-8"?>
<svg id="Calque_1" data-name="Calque 1" xmlns="http://www.w3.org/2000/svg" xmlns:xlink="http://www.w3.org/1999/xlink" viewBox="0 0 1920 1080">
  <defs>
    <style>
      .cls-1 {
        fill: url(#Dégradé_sans_nom_8);
      }

      .cls-2 {
        fill: url(#Dégradé_sans_nom_8-2);
      }

      .cls-3 {
        fill: url(#Dégradé_sans_nom_8-5);
      }

      .cls-4 {
        fill: url(#Dégradé_sans_nom_8-3);
      }

      .cls-5 {
        fill: url(#Dégradé_sans_nom_8-4);
      }

      .cls-6 {
        fill: #fff;
      }

      .cls-7 {
        fill: #3076bb;
      }
    </style>
    <linearGradient id="Dégradé_sans_nom_8" data-name="Dégradé sans nom 8" x1="2576.11" y1="121.41" x2="2576.61" y2="121.41" gradientUnits="userSpaceOnUse">
      <stop offset="0" stop-color="#9fe3fe"/>
      <stop offset="1" stop-color="#498ed0"/>
    </linearGradient>
    <linearGradient id="Dégradé_sans_nom_8-2" data-name="Dégradé sans nom 8" x1="2576.11" y1="112.76" x2="2576.61" y2="112.76" xlink:href="#Dégradé_sans_nom_8"/>
    <linearGradient id="Dégradé_sans_nom_8-3" data-name="Dégradé sans nom 8" x1="954.5" y1="-228.28" x2="964.78" y2="1270.19" xlink:href="#Dégradé_sans_nom_8"/>
    <linearGradient id="Dégradé_sans_nom_8-4" data-name="Dégradé sans nom 8" y1="82.5" y2="82.5" xlink:href="#Dégradé_sans_nom_8"/>
    <linearGradient id="Dégradé_sans_nom_8-5" data-name="Dégradé sans nom 8" y1="102.26" y2="102.26" xlink:href="#Dégradé_sans_nom_8"/>
  </defs>
  <g>
    <path class="cls-7" d="M1048.55-10.05c4.39-.21,9.53-.22,13.92,0,18.59.91,47.68,10.12,63.5,21.39,11.61,8.27,1.05,18.02-3.7,26.67-10.72,19.5-18.05,40.63-1.97,59.44,2.1,2.46,14.64,13.84,16.89,14.05.82.08,2.28-1.16,3.39-1.38,9.12-1.83,18.43-2.82,27.57-4.67,59.4-12,117.07-34.74,170.3-66.66,7.59-4.55,15.15-10.27,22.7-14.57,4.02-2.28,6.7-3.38,10.85-.14,5.12,3.99,12.78,14.29,18.26,19.62,4.07,3.96,18.57,17.92,22.85,18.77,33.06,6.55,74.73-6.53,102.68-26.68,4.17-3.01,12.86-11.7,17.24-11.49,4.62.23,10.85,8.29,14.71,11.69,27.1,23.86,61.1,39.83,95.7,41.79,6.12.35,13.31-.74,19.19,0,1.63.21,3.36,1.63,4.57,1.42,2.29-.39,8.05-3.64,10.77-4.71,25.29-9.85,52.11-18.58,78.39-24.37,31.9-7.03,65.5-4.31,97.76-1.26,8.5.81,18.61,1.35,26.88,2.73,5.56.93,8.64,5.23,7.93,11.74s-7.64,8-11.67,10.74c-22.21,15.06-41.71,40.79-15.44,65.35,12.92,12.08,31.94,17.03,48.46,15.83,7.98-.58,19.35-6.87,22.8,4.92v4.37c-.97,3.4-2.81,6.09-5.86,7.26-10.24,3.92-28.69,3.41-39.35,1.3-34.37-6.8-70.8-41.32-49.43-83.68,4.1-8.12,9.86-14.21,15.44-20.91-5.04-.39-10.09-1.2-15.12-1.64-23.99-2.09-51.43-3.42-75.12,1.34-26.83,5.39-58.1,15.25-83.61,26.08-35.12,14.9-64.67,38.41-100.78,51.3-78.6,28.05-168.06,36.59-250.16,32.57-58.17-2.85-124.94-11.57-178.78-37.37-41.1-19.7-72.17-48.56-47.78-102.85,2.12-4.73,5.03-9.11,6.96-13.86-12.05-6.8-25.78-11.86-39.17-13.88-49.11-7.43-77.28,24.09-116.95,48.58-29.67,18.32-61.28,32.96-93.91,43.02-.96,1.23,4.72,9.31,5.75,10.65,26.24,34.29,96.33,48.37,134.7,54.2,56.61,8.6,114.63,10.11,171.77,9.38,2.22-.03,4.05-.86,6.65-.51,10.68,1.45,10.49,18.09,0,19.52-4.39.6-9.81-.11-14.36.04-63.33,2.11-132.79-1.62-195.17-14.34-44.89-9.15-133.62-32.79-130.93-100.49.04-.97,1.48-10.67.71-10.65-114.18,56.05-237.15,89.33-361.8,96.66-1.53,2.67-2.05,5.47-4.76,7.13-4.77,2.93-17.02,6.15-22.79,7.92-52.8,16.22-110.03,21.05-164.42,13.17-37.58-5.44-67.56-21.76-99.14-44.44-21.89-15.72-42.74-33.83-62.26-53.11-19.45,19.74-40.1,42.3-64.16,54.62-13.7,7.02-49.9,22.51-63.94,21.2-4.74-.44-6.48-3.82-8.38-8.2v-3.27c1.45-1.4,1.61-3.95,3.11-5.46,2.89-2.92,9.41-2.59,13.29-3.44,38.88-8.47,68.95-28.8,97.83-58.48,4.87-5.01,11.26-13.74,16.07-17.74,3.19-2.65,6.83-3.09,10.29-.79,14.13,14.28,28.81,27.86,44.21,40.35,38.8-2.17,76.43-14.21,113.01-28.09,24.55-9.31,48.54-20.26,71.91-32.83,4.46-2.4,19.54-12.31,23.1-12.37,5.61-.09,7.76,5.82,11.04,9.72,20.88,24.83,40.39,36.94,69.64,45.78,13.38,4.04,28.03,8.02,41.32,1.77,16.27-7.65,34.52-20.28,49.36-31.18,4.7-3.45,10.65-9.42,15.25-12.13,7.84-4.62,12.34,3.94,17.87,8.83,33.65,29.75,72.4,42.83,115.13,39.8,37.08-11.71,73.58-25.85,109.22-42.26,13.21-6.08,26.41-13.66,39.53-19.45,4.07-1.79,7.87-3.35,11.6.65,5.47,5.85,1.2,11.42-.6,17.31-2.11,6.89-4.18,14.03-3.95,21.43.71.78,16.71-5.16,18.97-5.99,25.05-9.29,49.45-21.6,72.54-35.93,33.03-20.5,62.46-48.94,101.9-50.84ZM1543.85,136.18c-44.09-3.54-86.52-19.64-124.45-44.85-16.78-11.15-32.36-24.66-46.89-39.45-1.58-1.6-5.75-7.44-7.43-7.43-62.11,40.12-130.23,67.99-200.86,81.63,39.13,16.56,81.53,25.14,123.11,29.73,82.08,9.07,173.37,3.89,253.56-18.37.78-.22,2.7-.38,2.96-1.26ZM1633.59,95.8c-37.11-3.86-72.79-21.82-101.09-49.03-27,20.79-58.05,33.98-90.88,35.94,2.31,2.21,5.67,3.86,8.47,5.37,36.9,19.97,80.35,30.94,121.38,30.11,6.57-.13,13.55-1.65,20.16-1.14,1.68.13,3.24,1.28,4.65,1.02,3.76-.71,16.36-8.63,20.53-11.08,3.97-2.33,12.9-6.98,15.99-9.65.54-.47.98-.57.8-1.55ZM462.06,118.18c-28.81-6.84-55.45-21.41-76.8-44.47-1.34-1.45-7.02-8.98-7.9-9-1.13-.03-15.2,8.58-17.69,9.91-25.06,13.36-50.99,24.61-77.35,34.29-28.78,10.57-57.98,19.81-88.08,24.27,25.59,18.34,53.09,34.97,83.35,40.56,42.65,7.88,87.32,6.21,129.83-1.72l17.19-4.19c-27.5.29-54.88-1.37-82.3-3.28-7.77-1.97-18.35-.55-25.81-2.85s-8.39-14.02-1.65-17.98c1.88-1.1,3.81-1.08,5.88-1,8.18.29,17.12,2.15,25.42,2.74,35.79,2.55,73.18-8.35,106.42-22.5,2.58-1.1,5.91-2.29,8.29-3.67.45-.26,1.14-.29,1.19-1.1ZM646.84,119.81c-23.39-5.28-45.52-16.77-64.94-32.3-1.64-1.31-11.26-10.3-12-10.18-28.05,22.81-59.16,39.97-91.05,54.73l-37.9,16.11c64.72-1.25,129.73-9.48,193.03-24.72,3.79-.91,7.67-1.76,11.42-2.84.54-.16,1.56.03,1.44-.8Z"/>
    <g>
      <path class="cls-1" d="M342.32,164.54c-7.77-1.97-18.35-.55-25.81-2.85-7.36-2.28-8.39-14.02-1.65-17.98,1.88-1.11,3.81-1.08,5.88-1,8.18.29,17.12,2.15,25.42,2.74,35.79,2.55,73.18-8.35,106.42-22.5,2.58-1.1,5.91-2.29,8.29-3.67.45-.26,1.14-.29,1.19-1.1-28.81-6.84-59.26-24.24-76.8-44.47-13.45-15.51-3.39-10.48-25.59.91-25.27,12.96-50.99,24.61-77.35,34.29-28.78,10.57-57.98,19.81-88.08,24.27,25.59,18.34,53.09,34.97,83.35,40.56,42.65,7.88,87.32,6.21,129.83-1.72l17.19-4.19c-27.5.29-54.88-1.37-82.3-3.28Z"/>
      <path class="cls-2" d="M569.9,77.34c-28.05,22.81-59.16,39.97-91.05,54.73l-37.9,16.11c64.72-1.25,129.73-9.48,193.03-24.72,3.79-.91,7.67-1.76,11.42-2.84.54-.16,1.56.03,1.44-.8-23.39-5.28-45.52-16.77-64.94-32.3-1.64-1.31-11.26-10.3-12-10.18Z"/>
      <path class="cls-4" d="M1887.88,173.11c-34.37-6.8-70.8-41.32-49.43-83.68,4.1-8.12,9.86-14.21,15.44-20.91-5.04-.39-10.09-1.2-15.12-1.64-23.99-2.09-51.43-3.42-75.12,1.34-26.83,5.39-58.1,15.25-83.61,26.08-35.12,14.9-64.67,38.41-100.78,51.3-78.6,28.05-168.06,36.59-250.16,32.57-58.17-2.85-124.94-11.57-178.78-37.37-41.1-19.7-72.17-48.56-47.78-102.85,2.12-4.73,5.03-9.11,6.96-13.86-12.05-6.8-25.78-11.86-39.17-13.88-49.11-7.43-77.28,24.09-116.95,48.58-29.67,18.32-61.28,32.96-93.91,43.02-.96,1.23,4.72,9.31,5.75,10.65,26.24,34.29,96.33,48.37,134.7,54.2,56.61,8.6,114.63,10.11,171.77,9.38,2.22-.03,4.05-.86,6.65-.51,10.68,1.45,10.49,18.09,0,19.52-4.39.6-9.81-.11-14.36.04-63.33,2.11-132.79-1.62-195.16-14.34-44.89-9.15-133.62-32.79-130.93-100.49.04-.97,1.48-10.67.71-10.65-114.18,56.05-237.15,89.33-361.8,96.66-1.53,2.67-2.05,5.47-4.76,7.13-4.77,2.93-17.02,6.15-22.79,7.92-52.8,16.22-110.03,21.05-164.42,13.17-37.58-5.44-67.56-21.76-99.14-44.44-21.89-15.72-42.74-33.83-62.26-53.11-19.45,19.74-40.1,42.3-64.16,54.62-13.7,7.02-49.9,22.51-63.94,21.2-1.35-.13-2.45-.5-3.39-1.06v918.52h1936.97V170.93c-.51.34-1.05.65-1.65.88-10.24,3.92-28.69,3.41-39.35,1.3Z"/>
      <path class="cls-5" d="M1532.5,46.77c-27,20.79-58.05,33.98-90.88,35.94,2.31,2.21,5.67,3.86,8.47,5.37,36.9,19.97,80.35,30.94,121.38,30.11,6.57-.13,13.55-1.65,20.16-1.14,1.68.13,3.24,1.28,4.65,1.02,3.76-.71,16.36-8.63,20.53-11.08,3.97-2.33,12.9-6.98,15.99-9.65.54-.47.98-.57.8-1.55-37.11-3.86-72.79-21.82-101.09-49.03Z"/>
      <path class="cls-3" d="M1372.5,51.88c-1.58-1.6-5.75-7.44-7.43-7.43-62.11,40.12-130.23,67.99-200.86,81.63,39.13,16.56,81.53,25.14,123.11,29.73,82.08,9.07,173.37,3.89,253.56-18.37.78-.22,2.7-.38,2.96-1.26-44.09-3.54-86.52-19.64-124.45-44.85-16.78-11.15-32.36-24.66-46.89-39.45Z"/>
    </g>
  </g>
  <path class="cls-6" d="M101.85,132.5c-8.11,6.09-16.16,12.25-24.32,18.26-3.68,2.71-7.3,5.16-11.68,6.56-4.02,1.29-7.44,2.38-10.64,5.25-5.71,5.13,2.73,13.53,8.42,8.42,2.8-2.52,7.97-2.84,11.37-4.5s6.73-4.11,9.9-6.47c7.67-5.72,15.31-11.5,22.97-17.24,6.05-4.55.13-14.89-6.01-10.28h0Z"/>
  <path class="cls-6" d="M357.98,88.31c-13.7-.1-24.34,9.28-36.87,13.35s-26.71,5.95-39.41,11.48c-7.01,3.05-.95,13.31,6.01,10.28,11.66-5.08,24.52-6.39,36.56-10.28,5.88-1.9,11.35-4.56,16.81-7.42s10.68-5.55,16.89-5.51c7.66.05,7.67-11.85,0-11.91h0Z"/>
  <path class="cls-6" d="M552.38,97.86c-9.8,7.71-19.99,14.9-30.47,21.65-6.42,4.14-.46,14.45,6.01,10.28,11.34-7.3,22.27-15.17,32.88-23.51,6.02-4.73-2.46-13.11-8.42-8.42h0Z"/>
  <path class="cls-6" d="M800.81,96.63c-17.09,9.61-34.92,17.77-53.44,24.19-17.29,6-36.54,8.91-51.95,19.29-6.32,4.26-.37,14.58,6.01,10.28,15.45-10.4,35.25-13.09,52.55-19.3,18.26-6.56,35.93-14.67,52.84-24.18,6.68-3.76.68-14.04-6.01-10.28h0Z"/>
  <path class="cls-6" d="M1068.07,18.48c-9.21-3.7-19.35-1.85-28.65.56s-18.4,5.95-26.98,10.33c-16.96,8.66-31.99,21.07-43.72,36.05-4.67,5.97,3.7,14.45,8.42,8.42,10.53-13.45,23.51-24.59,38.54-32.73,7.37-3.99,15.1-7.18,23.14-9.54s17.61-5.01,26.09-1.6c7.11,2.85,10.2-8.66,3.17-11.48h0Z"/>
  <path class="cls-6" d="M1342.97,64.29c-12.03,8.66-25.31,15.16-38.76,21.3-14.53,6.64-29.1,13.21-43.65,19.81-6.97,3.16-.92,13.43,6.01,10.28,14.55-6.6,29.12-13.17,43.65-19.81,13.44-6.15,26.73-12.64,38.76-21.3,6.16-4.44.22-14.77-6.01-10.28h0Z"/>
  <path class="cls-6" d="M1527.44,64.95c-10.93,8.19-24.13,11.01-37.25,13.69-7.5,1.53-4.33,13.01,3.17,11.48,14.05-2.87,28.41-6.13,40.1-14.89,6.06-4.54.13-14.88-6.01-10.28h0Z"/>
  <path class="cls-6" d="M1776.59,74.63c-25.93,5.63-51.95,11.79-77.21,19.93-21.69,6.99-42.94,16.6-59.08,33.13-5.36,5.49,3.05,13.91,8.42,8.42,15.49-15.86,36.07-24.54,56.9-31.04,24.33-7.59,49.24-13.56,74.13-18.96,7.48-1.62,4.32-13.1-3.17-11.48h0Z"/>
  <g>
    <path d="M1687.27,276.04l14.5,6.32c3.74-11.89,5.84-24.4,4.66-36.85-.24-2.53-2.61-12.91-1.68-14.2,4.08-5.65,8.65,8.09,9.38,10.78,3.94,14.44,1.22,30.21-3.19,44.27l14.01,6.11c3.23-9.07,4.86-18.62,5.09-28.21.07-2.7-2.13-14.11,3.71-11.1,2.34,1.21,3.75,9.32,4.13,12.03,1.48,10.51-.23,21.3-3.76,31.29l14.01,6.11c1.43-3.27,2.32-6.78,3.13-10.23.5-2.15,1.4-10.05,2.35-10.92,1.17-1.07,3.11-.83,4.16.36,2.61,2.94,1.01,20.64-.36,24.76l5.41,2.33c9.88-4.11,19.29-9.32,29.06-13.66,3.07-1.36,20.42-9.06,22.28-8.57,1.51.4,2.24,1.77,1.69,3.22-.68,1.79-10.14,9.86-12.39,12.4-13.63,15.39-20.57,31.92-22.25,52.38-.25,3.08.3,14.19-.52,15.86-.78,1.58-2.52,1.81-3.82.69-1.49-1.28-7.46-18.65-8.57-21.89-3.46-10.11-6.02-20.56-9.77-30.59l-5.39-2.38c-3.92,5.5-8.31,11.09-13.96,14.91-2.14,1.45-4.87,3.72-6.91.67-1.26-1.88,4.9-8.39,6.28-10.42,1.99-2.94,3.94-5.99,5.37-9.26l-14.01-6.11c-5.5,10.42-13.57,20.41-23.88,26.31-1.82,1.04-6.23,3.57-8.11,2.89-6.19-2.24,3.68-8.38,5.61-10.27,6.93-6.81,12.7-14.28,17.21-22.93l-13.29-5.79c-.1-.04-.24-.91-.51-.8-7.7,13.8-19.69,29.21-34.86,35.08-3.57,1.38-12.36,3.8-8.85-3.14,10.82-6.38,20.52-14.73,27.78-25.08,2.36-3.37,4.27-6.96,6.53-10.37l-14.5-6.32c-5.99,11.97-15.77,23.85-27.33,30.78-2.62,1.57-12.52,6.48-15.15,5.27-1.59-.73-1.44-3.16-.55-4.4.81-1.13,8.18-5.42,10.11-6.91,9.83-7.59,18.28-17.51,23.73-28.74l-14.01-6.11c-5.84,10.77-14.37,21.54-24.73,28.24-2.39,1.55-11.92,6.66-14.32,5.31-1.3-.73-1.63-2.78-.8-3.96.94-1.33,7.18-5.05,9.05-6.61,8.89-7.42,16.19-16.74,21.62-26.98l-13.29-5.79c-.1-.04-.24-.91-.51-.8-6.22,10.67-15.16,21.7-26.18,27.61-2.34,1.26-5.97,3.76-7.78.72s4.44-6.21,6.46-8.16c7.26-7.04,13.18-14.84,18.11-23.69l-14.01-6.11c-5.45,9.86-13.37,17.69-23.1,23.2-7.63,4.32-11.84,6.68-18.05-1.26-7.58-9.7-20.78-37.02-22.95-49.03-.92-5.13.3-8.39,4.85-11.09,11.36-6.73,38.43-15.45,51.54-16.57,10.93-.93,11.82,5.55,13.6,14.61,2.04,10.37,1.69,20.35-1.68,30.47l14.01,6.11c3.19-9.8,4.82-19.52,5.04-29.79.06-2.75-1.75-9.17,1.58-9.88,3.6-.77,4.11,3.64,4.77,6.19,3.09,11.99,1.2,25.74-2.21,37.48l14.01,6.11c3.69-10.65,5.64-22.15,5.11-33.42-.12-2.51-1.76-10.32-1.35-11.92.36-1.41,1.97-2.57,3.44-2.1,2.97.95,5.44,12.21,5.92,15.28,1.86,12.01,0,24.69-3.93,36.16l13.29,5.79c.11.05.24,1.2.62.56,4.67-11.7,6.13-25.1,4.98-37.57-.24-2.63-2.04-10.05-1.77-11.71.65-4.04,3.8-3.19,5.69-.23,4.81,7.53,5.98,21.1,5.42,29.89-.5,7.84-2.11,16.09-5.03,23.38ZM1594.98,216.98c-11.06-2.61-14.2,16.33-1.29,16.06,9.33-.19,10.53-13.88,1.29-16.06Z"/>
    <path class="cls-6" d="M1594.98,216.98c9.25,2.18,8.05,15.87-1.29,16.06-12.92.26-9.78-18.67,1.29-16.06Z"/>
  </g>
  <g>
    <path d="M1184.36,333.38l-15.51,3.07c-1.11-12.41-.48-25.09,3.33-36.99.78-2.42,5.31-12.05,4.68-13.51-2.77-6.39-10.18,6.05-11.47,8.52-6.95,13.26-7.66,29.25-6.37,43.93l-15,2.97c-1.21-9.55-.76-19.23,1.07-28.65.51-2.66,5.1-13.32-1.25-11.64-2.54.68-5.66,8.3-6.61,10.86-3.7,9.94-4.33,20.86-3.03,31.37l-15,2.97c-.7-3.5-.82-7.12-.87-10.67-.03-2.21.79-10.11.04-11.17-.91-1.29-2.86-1.47-4.14-.54-3.18,2.32-5.41,19.95-4.95,24.26l-5.78,1.12c-8.77-6.13-16.85-13.24-25.46-19.57-2.71-1.99-18.01-13.22-19.92-13.14-1.56.06-2.57,1.25-2.34,2.79.28,1.89,7.79,11.8,9.44,14.76,10.02,17.96,13.26,35.58,10.52,55.93-.41,3.06-3.34,13.8-2.89,15.6.43,1.71,2.07,2.31,3.58,1.49,1.73-.93,11.28-16.62,13.06-19.54,5.55-9.13,10.28-18.8,16.09-27.79l5.77-1.17c2.66,6.21,5.74,12.61,10.44,17.55,1.78,1.87,3.96,4.68,6.6,2.13,1.63-1.57-2.99-9.24-3.9-11.52-1.31-3.3-2.57-6.69-3.26-10.19l15-2.97c3.14,11.36,8.88,22.84,17.7,30.81,1.56,1.41,5.32,4.82,7.3,4.56,6.52-.86-1.8-8.98-3.28-11.23-5.31-8.13-9.34-16.66-11.9-26.08l14.22-2.81c.11-.02.43-.84.67-.67,4.57,15.12,12.98,32.75,26.54,41.73,3.19,2.12,11.27,6.35,9.31-1.17-9.2-8.55-16.89-18.78-21.76-30.45-1.58-3.79-2.68-7.71-4.16-11.53l15.51-3.07c3.29,12.97,10.3,26.67,20.1,35.92,2.22,2.1,10.84,9.01,13.67,8.39,1.71-.38,2.09-2.77,1.48-4.18-.55-1.28-6.83-7.05-8.4-8.92-7.98-9.52-14.11-21.01-17.03-33.15l15-2.97c3.39,11.77,9.43,24.12,18.11,32.88,2.01,2.03,10.21,9.06,12.85,8.26,1.42-.44,2.19-2.37,1.63-3.7-.63-1.5-5.93-6.47-7.42-8.4-7.09-9.15-12.23-19.82-15.34-30.98l14.22-2.81c.11-.02.43-.84.67-.67,3.79,11.75,10.17,24.45,19.66,32.58,2.02,1.73,5.02,4.95,7.45,2.37s-3.01-7.01-4.56-9.35c-5.58-8.43-9.7-17.32-12.62-27.01l15-2.97c3.21,10.8,9.27,20.14,17.6,27.61,6.53,5.85,10.13,9.06,17.9,2.64,9.48-7.85,28.23-31.71,32.91-42.98,2-4.81,1.5-8.26-2.36-11.87-9.65-9.01-34.23-23.32-46.79-27.22-10.48-3.25-12.74,2.89-16.42,11.36-4.21,9.69-6.01,19.51-4.88,30.13l-15,2.97c-1.02-10.26-.53-20.1,1.46-30.18.53-2.69,3.67-8.58.57-9.99-3.35-1.53-4.79,2.67-5.98,5.03-5.58,11.05-6.68,24.88-5.87,37.09l-15,2.97c-1.32-11.19-.77-22.85,2.17-33.74.65-2.42,3.93-9.7,3.87-11.35-.05-1.45-1.37-2.94-2.91-2.79-3.1.29-7.93,10.76-9.05,13.66-4.39,11.34-5.29,24.12-3.9,36.16l-14.22,2.81c-.12.02-.49,1.12-.73.41-2.05-12.43-.61-25.83,3.18-37.77.8-2.52,4.14-9.38,4.23-11.06.23-4.09-3.03-3.93-5.51-1.44-6.31,6.32-10.36,19.33-11.69,28.04-1.19,7.77-1.38,16.17-.09,23.92ZM1287.16,295.45c11.37-.18,10.38,18.99-2.18,15.97-9.08-2.18-7.32-15.82,2.18-15.97Z"/>
    <path class="cls-6" d="M1287.16,295.45c-9.5.15-11.26,13.78-2.18,15.97,12.56,3.02,13.55-16.15,2.18-15.97Z"/>
  </g>
  <g>
    <path d="M748.53,242.55l12.52.31c-.81-9.36-3.02-18.7-7.6-27.06-.93-1.7-5.77-8.28-5.48-9.44,1.3-5.1,8.76,3.21,10.1,4.87,7.21,8.97,9.93,20.76,10.91,31.83l12.1.3c-.35-7.25-2.01-14.39-4.7-21.15-.76-1.91-5.78-9.25-.6-8.8,2.08.18,5.54,5.45,6.63,7.23,4.23,6.92,6.2,14.95,6.61,22.92l12.1.3c.07-2.69-.32-5.39-.77-8.03-.27-1.64-1.98-7.41-1.54-8.29.54-1.08,2.03-1.46,3.15-.93,2.79,1.32,6.92,14.13,7.14,17.4l4.66.1c6.01-5.67,11.36-11.97,17.22-17.77,1.84-1.82,12.26-12.11,13.77-12.29,1.23-.15,2.17.6,2.2,1.77.03,1.44-4.48,9.76-5.37,12.17-5.39,14.61-5.53,28.12-.64,42.89.74,2.22,4.47,9.83,4.36,11.23-.1,1.32-1.3,1.98-2.59,1.56-1.47-.47-11.05-10.92-12.83-12.86-5.56-6.08-10.56-12.66-16.31-18.6l-4.66-.14c-1.23,4.95-2.77,10.1-5.77,14.36-1.14,1.62-2.46,3.98-4.86,2.42-1.48-.96,1.09-7.25,1.48-9.05.58-2.62,1.1-5.3,1.17-7.99l-12.1-.3c-.91,8.84-3.84,18.1-9.64,25.14-1.02,1.24-3.5,4.26-5.08,4.32-5.2.19.19-6.9,1.04-8.76,3.05-6.72,5.04-13.57,5.75-20.89l-11.47-.29c-.08,0-.45-.57-.61-.42-1.52,11.82-5.7,25.98-15.06,34.37-2.21,1.98-7.93,6.15-7.42.31,6.02-7.52,10.64-16.1,12.86-25.39.72-3.02,1.04-6.07,1.68-9.09l-12.52-.31c-.81,10.06-4.43,21.13-10.83,29.24-1.45,1.84-7.24,8.07-9.53,7.97-1.38-.06-2-1.8-1.72-2.92.26-1.02,4.37-6.1,5.35-7.69,4.94-8.08,8.17-17.4,8.8-26.79l-12.1-.3c-1.06,9.18-4.09,19.11-9.68,26.73-1.29,1.76-6.74,8.03-8.91,7.76-1.17-.14-2.03-1.48-1.77-2.54.29-1.19,3.75-5.56,4.65-7.18,4.3-7.7,6.86-16.28,7.78-24.97l-11.47-.29c-.08,0-.45-.57-.61-.42-1.37,9.21-4.62,19.45-10.93,26.7-1.34,1.54-3.25,4.32-5.49,2.7s1.4-5.59,2.29-7.53c3.22-6.97,5.23-14.1,6.19-21.67l-12.1-.3c-1.05,8.43-4.51,16.14-10,22.75-4.3,5.18-6.68,8.02-13.6,4.23-8.46-4.63-26.31-19.98-31.49-27.76-2.21-3.32-2.29-5.95.24-9.12,6.31-7.92,23.55-21.67,32.82-26.16,7.74-3.75,10.33.53,14.34,6.36,4.59,6.67,7.32,13.73,7.88,21.76l12.1.3c-.59-7.75-2.31-15-5.22-22.24-.78-1.93-4.02-5.91-1.8-7.35,2.41-1.56,4.1,1.38,5.35,2.98,5.85,7.5,8.58,17.64,9.6,26.81l12.1.3c-.48-8.48-2.49-17.07-6.25-24.79-.84-1.72-4.37-6.71-4.56-7.94-.16-1.09.67-2.35,1.89-2.44,2.46-.18,7.64,6.99,8.91,9,4.96,7.87,7.39,17.25,7.94,26.37l11.47.29c.1,0,.54.77.62.21-.08-9.49-3.01-19.27-7.59-27.66-.96-1.77-4.5-6.44-4.8-7.68-.73-3.01,1.83-3.3,4.1-1.77,5.78,3.9,10.69,13.04,12.91,19.35,1.98,5.62,3.26,11.84,3.31,17.76ZM663.21,227.41c-8.89,1.31-5.53,15.43,3.86,11.59,6.78-2.77,3.57-12.68-3.86-11.59Z"/>
    <path class="cls-6" d="M663.21,227.41c7.43-1.09,10.65,8.81,3.86,11.59-9.39,3.84-12.75-10.28-3.86-11.59Z"/>
  </g>
  <g>
    <path d="M235.61,288.34l14.5,6.32c3.74-11.89,5.84-24.4,4.66-36.85-.24-2.53-2.61-12.91-1.68-14.2,4.08-5.65,8.65,8.09,9.38,10.78,3.94,14.44,1.22,30.21-3.19,44.27l14.01,6.11c3.23-9.07,4.86-18.62,5.09-28.21.07-2.7-2.13-14.11,3.71-11.1,2.34,1.21,3.75,9.32,4.13,12.03,1.48,10.51-.23,21.3-3.76,31.29l14.01,6.11c1.43-3.27,2.32-6.78,3.13-10.23.5-2.15,1.4-10.05,2.35-10.92,1.17-1.07,3.11-.83,4.16.36,2.61,2.94,1.01,20.64-.36,24.76l5.41,2.33c9.88-4.11,19.29-9.32,29.06-13.66,3.07-1.36,20.42-9.06,22.28-8.57,1.51.4,2.24,1.77,1.69,3.22-.68,1.79-10.14,9.86-12.39,12.4-13.63,15.39-20.57,31.92-22.25,52.38-.25,3.08.3,14.19-.52,15.86-.78,1.58-2.52,1.81-3.82.69-1.49-1.28-7.46-18.65-8.57-21.89-3.46-10.11-6.02-20.56-9.77-30.59l-5.39-2.38c-3.92,5.5-8.31,11.09-13.96,14.91-2.14,1.45-4.87,3.72-6.91.67-1.26-1.88,4.9-8.39,6.28-10.42,1.99-2.94,3.94-5.99,5.37-9.26l-14.01-6.11c-5.5,10.42-13.57,20.41-23.88,26.31-1.82,1.04-6.23,3.57-8.11,2.89-6.19-2.24,3.68-8.38,5.61-10.27,6.93-6.81,12.7-14.28,17.21-22.93l-13.29-5.79c-.1-.04-.24-.91-.51-.8-7.7,13.8-19.69,29.21-34.86,35.08-3.57,1.38-12.36,3.8-8.85-3.14,10.82-6.38,20.52-14.73,27.78-25.08,2.36-3.37,4.27-6.96,6.53-10.37l-14.5-6.32c-5.99,11.97-15.77,23.85-27.33,30.78-2.62,1.57-12.52,6.48-15.15,5.27-1.59-.73-1.44-3.16-.55-4.4.81-1.13,8.18-5.42,10.11-6.91,9.83-7.59,18.28-17.51,23.73-28.74l-14.01-6.11c-5.84,10.77-14.37,21.54-24.73,28.24-2.39,1.55-11.92,6.66-14.32,5.31-1.3-.73-1.63-2.78-.8-3.96.94-1.33,7.18-5.05,9.05-6.61,8.89-7.42,16.19-16.74,21.62-26.98l-13.29-5.79c-.1-.04-.24-.91-.51-.8-6.22,10.67-15.16,21.7-26.18,27.61-2.34,1.26-5.97,3.76-7.78.72s4.44-6.21,6.46-8.16c7.26-7.04,13.18-14.84,18.11-23.69l-14.01-6.11c-5.45,9.86-13.37,17.69-23.1,23.2-7.63,4.32-11.84,6.68-18.05-1.26-7.58-9.7-20.78-37.02-22.95-49.03-.92-5.13.3-8.39,4.85-11.09,11.36-6.73,38.43-15.45,51.54-16.57,10.93-.93,11.82,5.55,13.6,14.61,2.04,10.37,1.69,20.35-1.68,30.47l14.01,6.11c3.19-9.8,4.82-19.52,5.04-29.79.06-2.75-1.75-9.17,1.58-9.88,3.6-.77,4.11,3.64,4.77,6.19,3.09,11.99,1.2,25.74-2.21,37.48l14.01,6.11c3.69-10.65,5.64-22.15,5.11-33.42-.12-2.51-1.76-10.32-1.35-11.92.36-1.41,1.97-2.57,3.44-2.1,2.97.95,5.44,12.21,5.92,15.28,1.86,12.01,0,24.69-3.93,36.16l13.29,5.79c.11.05.24,1.2.62.56,4.67-11.7,6.13-25.1,4.98-37.57-.24-2.63-2.04-10.05-1.77-11.71.65-4.04,3.8-3.19,5.69-.23,4.81,7.53,5.98,21.1,5.42,29.89-.5,7.84-2.11,16.09-5.03,23.38ZM143.32,229.27c-11.06-2.61-14.2,16.33-1.29,16.06,9.33-.19,10.53-13.88,1.29-16.06Z"/>
    <path class="cls-6" d="M143.32,229.27c9.25,2.18,8.05,15.87-1.29,16.06-12.92.26-9.78-18.67,1.29-16.06Z"/>
  </g>
  <g>
    <path d="M683.08,504.56l-13.88-7.58c7.09-10.24,15.7-19.57,26.25-26.27,2.15-1.36,11.8-5.86,12.25-7.38,1.97-6.69-11.7-1.87-14.27-.8-13.83,5.74-24.61,17.56-33.02,29.66l-13.42-7.32c5.19-8.11,11.74-15.26,19.17-21.32,2.1-1.71,12.45-6.97,6.5-9.74-2.39-1.11-9.66,2.75-12.04,4.11-9.21,5.27-16.69,13.24-22.42,22.15l-13.42-7.32c1.71-3.13,3.93-5.99,6.17-8.75,1.39-1.71,7.08-7.26,7.19-8.55.13-1.57-1.25-2.96-2.83-3.06-3.93-.26-16.93,11.85-19.34,15.46l-5.16-2.85c-2.81-10.32-4.46-20.96-7.02-31.33-.8-3.26-5.36-21.69-6.88-22.85-1.24-.95-2.77-.69-3.58.64-.99,1.63-1.57,14.06-2.2,17.38-3.81,20.21-12.6,35.82-27.74,49.69-2.28,2.09-11.4,8.46-12.21,10.13-.77,1.58.11,3.1,1.8,3.44,1.92.39,19.31-5.54,22.54-6.65,10.11-3.46,19.94-7.85,30.15-11.04l5.18,2.8c-1.94,6.47-3.67,13.36-3.22,20.16.17,2.58.04,6.13,3.7,5.87,2.26-.16,3.62-9.02,4.38-11.34,1.1-3.37,2.32-6.79,4.02-9.92l13.42,7.32c-4.87,10.73-7.81,23.23-6.14,35,.29,2.08.99,7.11,2.69,8.18,5.56,3.52,4.36-8.05,4.68-10.73,1.13-9.65,3.5-18.78,7.57-27.65l12.72,6.95c.09.05.87-.37.94-.09-6.18,14.54-11.01,33.47-6.34,49.04,1.1,3.67,4.58,12.1,7.9,5.07-1.59-12.46-.95-25.24,2.79-37.32,1.21-3.93,2.89-7.64,4.19-11.52l13.88,7.58c-5.78,12.07-9.17,27.08-7.56,40.46.36,3.03,2.55,13.86,5.12,15.19,1.55.8,3.38-.79,3.82-2.26.4-1.34-.73-9.78-.74-12.23-.03-12.42,2.62-25.18,8.15-36.36l13.42,7.32c-4.93,11.22-8.21,24.56-7.15,36.85.24,2.84,2.04,13.5,4.58,14.57,1.37.58,3.2-.41,3.62-1.8.48-1.56-.41-8.77-.32-11.2.41-11.57,3.3-23.06,8.06-33.62l12.72,6.95c.09.05.87-.37.94-.09-4.61,11.45-7.85,25.29-5.76,37.61.44,2.62.69,7.02,4.21,6.59s2.18-7.31,2.49-10.1c1.11-10.05,3.64-19.51,7.61-28.83l13.42,7.32c-4.45,10.35-5.78,21.4-4.16,32.48,1.26,8.68,1.98,13.45,12.06,13.49,12.31.04,41.99-6.28,52.8-11.93,4.62-2.41,6.44-5.38,5.79-10.63-1.64-13.1-11.35-39.83-18.51-50.87-5.97-9.21-11.63-5.94-19.88-1.79-9.44,4.75-17.11,11.14-23.05,20.01l-13.42-7.32c5.79-8.53,12.47-15.77,20.45-22.24,2.13-1.73,8.31-4.24,6.84-7.31-1.6-3.32-5.39-1.02-7.81.03-11.37,4.91-21.07,14.83-28.26,24.72l-13.42-7.32c6.15-9.44,14.04-18.04,23.27-24.53,2.05-1.44,9.23-4.94,10.24-6.24.89-1.15.83-3.13-.44-4-2.57-1.76-12.98,3.19-15.7,4.7-10.63,5.9-19.51,15.14-26.16,25.27l-12.72-6.95c-.11-.06-1.09.54-.82-.15,6.38-10.86,16.07-20.23,26.63-26.97,2.23-1.42,9.19-4.55,10.34-5.78,2.79-2.99.19-4.96-3.31-4.64-8.89.82-20.33,8.21-26.94,14.05-5.89,5.2-11.42,11.54-15.39,18.31ZM786.32,541.26c8.85,7.14-4.19,21.23-11.9,10.87-5.57-7.49,4.51-16.83,11.9-10.87Z"/>
    <path class="cls-6" d="M786.32,541.26c-7.39-5.97-17.47,3.38-11.9,10.87,7.71,10.36,20.75-3.72,11.9-10.87Z"/>
  </g>
  <g>
    <path d="M1566.4,540.1l14.06-7.23c-6.84-10.42-15.21-19.96-25.59-26.92-2.11-1.42-11.65-6.15-12.06-7.68-1.8-6.73,11.74-1.58,14.28-.45,13.68,6.08,24.17,18.16,32.27,30.47l13.6-6.99c-4.98-8.24-11.35-15.54-18.63-21.79-2.05-1.76-12.27-7.27-6.25-9.89,2.41-1.05,9.59,2.99,11.93,4.4,9.07,5.5,16.35,13.65,21.86,22.7l13.6-6.99c-1.63-3.17-3.78-6.08-5.95-8.9-1.35-1.75-6.9-7.44-6.97-8.72-.09-1.58,1.33-2.93,2.91-2.99,3.93-.16,16.63,12.27,18.95,15.94l5.23-2.72c3.06-10.25,4.98-20.84,7.8-31.15.89-3.24,5.9-21.55,7.45-22.68,1.26-.92,2.79-.62,3.56.73.95,1.66,1.22,14.09,1.77,17.43,3.3,20.29,11.71,36.12,26.5,50.37,2.23,2.14,11.19,8.74,11.95,10.43.73,1.6-.19,3.09-1.88,3.39-1.93.34-19.17-6.02-22.37-7.21-10.02-3.71-19.73-8.35-29.87-11.78l-5.25,2.67c1.78,6.52,3.33,13.45,2.72,20.24-.23,2.57-.2,6.12-3.85,5.77-2.25-.22-3.4-9.1-4.1-11.45-1.02-3.4-2.15-6.84-3.77-10.01l-13.6,6.99c4.6,10.85,7.23,23.42,5.27,35.14-.35,2.07-1.17,7.08-2.89,8.11-5.64,3.38-4.16-8.15-4.41-10.84-.89-9.68-3.03-18.86-6.88-27.83l-12.89,6.63c-.1.05-.86-.4-.94-.11,5.82,14.69,10.17,33.73,5.12,49.19-1.19,3.64-4.88,11.98-8.03,4.87,1.9-12.42,1.57-25.21-1.86-37.38-1.12-3.96-2.69-7.71-3.9-11.62l-14.06,7.23c5.48,12.21,8.5,27.3,6.56,40.64-.44,3.02-2.9,13.8-5.5,15.06-1.57.76-3.36-.88-3.76-2.36-.36-1.35.98-9.76,1.04-12.21.34-12.41-1.99-25.23-7.25-36.56l-13.6,6.99c4.65,11.33,7.59,24.76,6.23,37.01-.31,2.83-2.38,13.45-4.94,14.45-1.39.54-3.19-.49-3.58-1.89-.44-1.57.63-8.76.6-11.19-.13-11.58-2.72-23.13-7.22-33.81l-12.89,6.63c-.1.05-.86-.4-.94-.11,4.33,11.56,7.22,25.47,4.83,37.74-.51,2.61-.86,7-4.37,6.48s-2-7.37-2.24-10.16c-.86-10.08-3.15-19.6-6.89-29.01l-13.6,6.99c4.19,10.46,5.25,21.54,3.36,32.57-1.48,8.64-2.31,13.4-12.39,13.18-12.31-.26-41.82-7.32-52.49-13.24-4.55-2.53-6.31-5.54-5.52-10.77,1.97-13.06,12.34-39.54,19.77-50.4,6.19-9.06,11.78-5.65,19.92-1.3,9.32,4.98,16.83,11.56,22.54,20.58l13.6-6.99c-5.57-8.67-12.07-16.08-19.89-22.75-2.09-1.78-8.21-4.45-6.66-7.47,1.68-3.28,5.42-.88,7.81.22,11.24,5.19,20.69,15.35,27.64,25.42l13.6-6.99c-5.91-9.59-13.59-18.38-22.65-25.1-2.02-1.49-9.1-5.17-10.08-6.49-.87-1.17-.75-3.15.54-3.99,2.61-1.7,12.9,3.51,15.58,5.08,10.48,6.16,19.13,15.62,25.52,25.91l12.89-6.63c.11-.05,1.08.57.82-.13-6.11-11.02-15.56-20.62-25.95-27.62-2.19-1.47-9.07-4.78-10.19-6.04-2.72-3.06-.06-4.96,3.42-4.55,8.87,1.04,20.12,8.71,26.58,14.71,5.76,5.35,11.13,11.82,14.93,18.69ZM1462.28,574.22c-9.02,6.92,3.66,21.33,11.63,11.16,5.76-7.35-4.09-16.94-11.63-11.16Z"/>
    <path class="cls-6" d="M1462.28,574.22c7.54-5.78,17.38,3.81,11.63,11.16-7.97,10.17-20.65-4.24-11.63-11.16Z"/>
  </g>
</svg>