<?xml version="1.0" encoding="UTF-8"?>
<svg id="Calque_1" data-name="Calque 1" xmlns="http://www.w3.org/2000/svg" xmlns:xlink="http://www.w3.org/1999/xlink" viewBox="0 0 1946.16 1100.42">
  <defs>
    <style>
      .cls-1 {
        fill: url(#Dégradé_sans_nom_8);
      }

      .cls-2 {
        fill: url(#Dégradé_sans_nom_8-2);
      }

      .cls-3 {
        fill: url(#Dégradé_sans_nom_8-5);
      }

      .cls-4 {
        fill: url(#Dégradé_sans_nom_8-3);
      }

      .cls-5 {
        fill: url(#Dégradé_sans_nom_8-4);
      }

      .cls-6 {
        fill: #fff;
      }

      .cls-7 {
        fill: #3076bb;
      }
    </style>
    <linearGradient id="Dégradé_sans_nom_8" data-name="Dégradé sans nom 8" x1="2589.19" y1="131.63" x2="2589.69" y2="131.63" gradientUnits="userSpaceOnUse">
      <stop offset="0" stop-color="#9fe3fe"/>
      <stop offset="1" stop-color="#498ed0"/>
    </linearGradient>
    <linearGradient id="Dégradé_sans_nom_8-2" data-name="Dégradé sans nom 8" x1="2589.19" y1="122.97" x2="2589.69" y2="122.97" xlink:href="#Dégradé_sans_nom_8"/>
    <linearGradient id="Dégradé_sans_nom_8-3" data-name="Dégradé sans nom 8" x1="967.58" y1="-218.07" x2="977.86" y2="1280.4" xlink:href="#Dégradé_sans_nom_8"/>
    <linearGradient id="Dégradé_sans_nom_8-4" data-name="Dégradé sans nom 8" y1="92.72" y2="92.72" xlink:href="#Dégradé_sans_nom_8"/>
    <linearGradient id="Dégradé_sans_nom_8-5" data-name="Dégradé sans nom 8" y1="112.47" y2="112.47" xlink:href="#Dégradé_sans_nom_8"/>
  </defs>
  <g>
    <path class="cls-7" d="M1061.63.16c4.39-.21,9.53-.22,13.92,0,18.59.91,47.68,10.12,63.5,21.39,11.61,8.27,1.05,18.02-3.7,26.67-10.72,19.5-18.05,40.63-1.97,59.44,2.1,2.46,14.64,13.84,16.89,14.05.82.08,2.28-1.16,3.39-1.38,9.12-1.83,18.43-2.82,27.57-4.67,59.4-12,117.07-34.74,170.3-66.66,7.59-4.55,15.15-10.27,22.7-14.57,4.02-2.28,6.7-3.38,10.85-.14,5.12,3.99,12.78,14.29,18.26,19.62,4.07,3.96,18.57,17.92,22.85,18.77,33.06,6.55,74.73-6.53,102.68-26.68,4.17-3.01,12.86-11.7,17.24-11.49,4.62.23,10.85,8.29,14.71,11.69,27.1,23.86,61.1,39.83,95.7,41.79,6.12.35,13.31-.74,19.19,0,1.63.21,3.36,1.63,4.57,1.42,2.29-.39,8.05-3.64,10.77-4.71,25.29-9.85,52.11-18.58,78.39-24.37,31.9-7.03,65.5-4.31,97.76-1.26,8.5.81,18.61,1.35,26.88,2.73,5.56.93,8.64,5.23,7.93,11.74s-7.64,8-11.67,10.74c-22.21,15.06-41.71,40.79-15.44,65.35,12.92,12.08,31.94,17.03,48.46,15.83,7.98-.58,19.35-6.87,22.8,4.92v4.37c-.97,3.4-2.81,6.09-5.86,7.26-10.24,3.92-28.69,3.41-39.35,1.3-34.37-6.8-70.8-41.32-49.43-83.68,4.1-8.12,9.86-14.21,15.44-20.91-5.04-.39-10.09-1.2-15.12-1.64-23.99-2.09-51.43-3.42-75.12,1.34-26.83,5.39-58.1,15.25-83.61,26.08-35.12,14.9-64.67,38.41-100.78,51.3-78.6,28.05-168.06,36.59-250.16,32.57-58.17-2.85-124.94-11.57-178.78-37.37-41.1-19.7-72.17-48.56-47.78-102.85,2.12-4.73,5.03-9.11,6.96-13.86-12.05-6.8-25.78-11.86-39.17-13.88-49.11-7.43-77.28,24.09-116.95,48.58-29.67,18.32-61.28,32.96-93.91,43.02-.96,1.23,4.72,9.31,5.75,10.65,26.24,34.29,96.33,48.37,134.7,54.2,56.61,8.6,114.63,10.11,171.77,9.38,2.22-.03,4.05-.86,6.65-.51,10.68,1.45,10.49,18.09,0,19.52-4.39.6-9.81-.11-14.36.04-63.33,2.11-132.79-1.62-195.17-14.34-44.89-9.15-133.62-32.79-130.93-100.49.04-.97,1.48-10.67.71-10.65-114.18,56.05-237.15,89.33-361.8,96.66-1.53,2.67-2.05,5.47-4.76,7.13-4.77,2.93-17.02,6.15-22.79,7.92-52.8,16.22-110.03,21.05-164.42,13.17-37.58-5.44-67.56-21.76-99.14-44.44-21.89-15.72-42.74-33.83-62.26-53.11-19.45,19.74-40.1,42.3-64.16,54.62-13.7,7.02-49.9,22.51-63.94,21.2-4.74-.44-6.48-3.82-8.38-8.2v-3.27c1.45-1.4,1.61-3.95,3.11-5.46,2.89-2.92,9.41-2.59,13.29-3.44,38.88-8.47,68.95-28.8,97.83-58.48,4.87-5.01,11.26-13.74,16.07-17.74,3.19-2.65,6.83-3.09,10.29-.79,14.13,14.28,28.81,27.86,44.21,40.35,38.8-2.17,76.43-14.21,113.01-28.09,24.55-9.31,48.54-20.26,71.91-32.83,4.46-2.4,19.54-12.31,23.1-12.37,5.61-.09,7.76,5.82,11.04,9.72,20.88,24.83,40.39,36.94,69.64,45.78,13.38,4.04,28.03,8.02,41.32,1.77,16.27-7.65,34.52-20.28,49.36-31.18,4.7-3.45,10.65-9.42,15.25-12.13,7.84-4.62,12.34,3.94,17.87,8.83,33.65,29.75,72.4,42.83,115.13,39.8,37.08-11.71,73.58-25.85,109.22-42.26,13.21-6.08,26.41-13.66,39.53-19.45,4.07-1.79,7.87-3.35,11.6.65,5.47,5.85,1.2,11.42-.6,17.31-2.11,6.89-4.18,14.03-3.95,21.43.71.78,16.71-5.16,18.97-5.99,25.05-9.29,49.45-21.6,72.54-35.93,33.03-20.5,62.46-48.94,101.9-50.84ZM1556.93,146.39c-44.09-3.54-86.52-19.64-124.45-44.85-16.78-11.15-32.36-24.66-46.89-39.45-1.58-1.6-5.75-7.44-7.43-7.43-62.11,40.12-130.23,67.99-200.86,81.63,39.13,16.56,81.53,25.14,123.11,29.73,82.08,9.07,173.37,3.89,253.56-18.37.78-.22,2.7-.38,2.96-1.26ZM1646.67,106.02c-37.11-3.86-72.79-21.82-101.09-49.03-27,20.79-58.05,33.98-90.88,35.94,2.31,2.21,5.67,3.86,8.47,5.37,36.9,19.97,80.35,30.94,121.38,30.11,6.57-.13,13.55-1.65,20.16-1.14,1.68.13,3.24,1.28,4.65,1.02,3.76-.71,16.36-8.63,20.53-11.08,3.97-2.33,12.9-6.98,15.99-9.65.54-.47.98-.57.8-1.55ZM475.14,128.39c-28.81-6.84-55.45-21.41-76.8-44.47-1.34-1.45-7.02-8.98-7.9-9-1.13-.03-15.2,8.58-17.69,9.91-25.06,13.36-50.99,24.61-77.35,34.29-28.78,10.57-57.98,19.81-88.08,24.27,25.59,18.34,53.09,34.97,83.35,40.56,42.65,7.88,87.32,6.21,129.83-1.72l17.19-4.19c-27.5.29-54.88-1.37-82.3-3.28-7.77-1.97-18.35-.55-25.81-2.85s-8.39-14.02-1.65-17.98c1.88-1.1,3.81-1.08,5.88-1,8.18.29,17.12,2.15,25.42,2.74,35.79,2.55,73.18-8.35,106.42-22.5,2.58-1.1,5.91-2.29,8.29-3.67.45-.26,1.14-.29,1.19-1.1ZM659.92,130.03c-23.39-5.28-45.52-16.77-64.94-32.3-1.64-1.31-11.26-10.3-12-10.18-28.05,22.81-59.16,39.97-91.05,54.73l-37.9,16.11c64.72-1.25,129.73-9.48,193.03-24.72,3.79-.91,7.67-1.76,11.42-2.84.54-.16,1.56.03,1.44-.8Z"/>
    <g>
      <path class="cls-1" d="M355.4,174.76c-7.77-1.97-18.35-.55-25.81-2.85-7.36-2.28-8.39-14.02-1.65-17.98,1.88-1.11,3.81-1.08,5.88-1,8.18.29,17.12,2.15,25.42,2.74,35.79,2.55,73.18-8.35,106.42-22.5,2.58-1.1,5.91-2.29,8.29-3.67.45-.26,1.14-.29,1.19-1.1-28.81-6.84-59.26-24.24-76.8-44.47-13.45-15.51-3.39-10.48-25.59.91-25.27,12.96-50.99,24.61-77.35,34.29-28.78,10.57-57.98,19.81-88.08,24.27,25.59,18.34,53.09,34.97,83.35,40.56,42.65,7.88,87.32,6.21,129.83-1.72l17.19-4.19c-27.5.29-54.88-1.37-82.3-3.28Z"/>
      <path class="cls-2" d="M582.98,87.55c-28.05,22.81-59.16,39.97-91.05,54.73l-37.9,16.11c64.72-1.25,129.73-9.48,193.03-24.72,3.79-.91,7.67-1.76,11.42-2.84.54-.16,1.56.03,1.44-.8-23.39-5.28-45.52-16.77-64.94-32.3-1.64-1.31-11.26-10.3-12-10.18Z"/>
      <path class="cls-4" d="M1900.96,183.32c-34.37-6.8-70.8-41.32-49.43-83.68,4.1-8.12,9.86-14.21,15.44-20.91-5.04-.39-10.09-1.2-15.12-1.64-23.99-2.09-51.43-3.42-75.12,1.34-26.83,5.39-58.1,15.25-83.61,26.08-35.12,14.9-64.67,38.41-100.78,51.3-78.6,28.05-168.06,36.59-250.16,32.57-58.17-2.85-124.94-11.57-178.78-37.37-41.1-19.7-72.17-48.56-47.78-102.85,2.12-4.73,5.03-9.11,6.96-13.86-12.05-6.8-25.78-11.86-39.17-13.88-49.11-7.43-77.28,24.09-116.95,48.58-29.67,18.32-61.28,32.96-93.91,43.02-.96,1.23,4.72,9.31,5.75,10.65,26.24,34.29,96.33,48.37,134.7,54.2,56.61,8.6,114.63,10.11,171.77,9.38,2.22-.03,4.05-.86,6.65-.51,10.68,1.45,10.49,18.09,0,19.52-4.39.6-9.81-.11-14.36.04-63.33,2.11-132.79-1.62-195.16-14.34-44.89-9.15-133.62-32.79-130.93-100.49.04-.97,1.48-10.67.71-10.65-114.18,56.05-237.15,89.33-361.8,96.66-1.53,2.67-2.05,5.47-4.76,7.13-4.77,2.93-17.02,6.15-22.79,7.92-52.8,16.22-110.03,21.05-164.42,13.17-37.58-5.44-67.56-21.76-99.14-44.44-21.89-15.72-42.74-33.83-62.26-53.11-19.45,19.74-40.1,42.3-64.16,54.62-13.7,7.02-49.9,22.51-63.94,21.2-1.35-.13-2.45-.5-3.39-1.06v918.52h1936.97V181.14c-.51.34-1.05.65-1.65.88-10.24,3.92-28.69,3.41-39.35,1.3Z"/>
      <path class="cls-5" d="M1545.58,56.98c-27,20.79-58.05,33.98-90.88,35.94,2.31,2.21,5.67,3.86,8.47,5.37,36.9,19.97,80.35,30.94,121.38,30.11,6.57-.13,13.55-1.65,20.16-1.14,1.68.13,3.24,1.28,4.65,1.02,3.76-.71,16.36-8.63,20.53-11.08,3.97-2.33,12.9-6.98,15.99-9.65.54-.47.98-.57.8-1.55-37.11-3.86-72.79-21.82-101.09-49.03Z"/>
      <path class="cls-3" d="M1385.58,62.1c-1.58-1.6-5.75-7.44-7.43-7.43-62.11,40.12-130.23,67.99-200.86,81.63,39.13,16.56,81.53,25.14,123.11,29.73,82.08,9.07,173.37,3.89,253.56-18.37.78-.22,2.7-.38,2.96-1.26-44.09-3.54-86.52-19.64-124.45-44.85-16.78-11.15-32.36-24.66-46.89-39.45Z"/>
    </g>
  </g>
  <path class="cls-6" d="M114.93,142.71c-8.11,6.09-16.16,12.25-24.32,18.26-3.68,2.71-7.3,5.16-11.68,6.56-4.02,1.29-7.44,2.38-10.64,5.25-5.71,5.13,2.73,13.53,8.42,8.42,2.8-2.52,7.97-2.84,11.37-4.5s6.73-4.11,9.9-6.47c7.67-5.72,15.31-11.5,22.97-17.24,6.05-4.55.13-14.89-6.01-10.28h0Z"/>
  <path class="cls-6" d="M371.06,98.52c-13.7-.1-24.34,9.28-36.87,13.35s-26.71,5.95-39.41,11.48c-7.01,3.05-.95,13.31,6.01,10.28,11.66-5.08,24.52-6.39,36.56-10.28,5.88-1.9,11.35-4.56,16.81-7.42s10.68-5.55,16.89-5.51c7.66.05,7.67-11.85,0-11.91h0Z"/>
  <path class="cls-6" d="M565.46,108.07c-9.8,7.71-19.99,14.9-30.47,21.65-6.42,4.14-.46,14.45,6.01,10.28,11.34-7.3,22.27-15.17,32.88-23.51,6.02-4.73-2.46-13.11-8.42-8.42h0Z"/>
  <path class="cls-6" d="M813.89,106.84c-17.09,9.61-34.92,17.77-53.44,24.19-17.29,6-36.54,8.91-51.95,19.29-6.32,4.26-.37,14.58,6.01,10.28,15.45-10.4,35.25-13.09,52.55-19.3,18.26-6.56,35.93-14.67,52.84-24.18,6.68-3.76.68-14.04-6.01-10.28h0Z"/>
  <path class="cls-6" d="M1081.15,28.69c-9.21-3.7-19.35-1.85-28.65.56s-18.4,5.95-26.98,10.33c-16.96,8.66-31.99,21.07-43.72,36.05-4.67,5.97,3.7,14.45,8.42,8.42,10.53-13.45,23.51-24.59,38.54-32.73,7.37-3.99,15.1-7.18,23.14-9.54s17.61-5.01,26.09-1.6c7.11,2.85,10.2-8.66,3.17-11.48h0Z"/>
  <path class="cls-6" d="M1356.05,74.5c-12.03,8.66-25.31,15.16-38.76,21.3-14.53,6.64-29.1,13.21-43.65,19.81-6.97,3.16-.92,13.43,6.01,10.28,14.55-6.6,29.12-13.17,43.65-19.81,13.44-6.15,26.73-12.64,38.76-21.3,6.16-4.44.22-14.77-6.01-10.28h0Z"/>
  <path class="cls-6" d="M1540.52,75.16c-10.93,8.19-24.13,11.01-37.25,13.69-7.5,1.53-4.33,13.01,3.17,11.48,14.05-2.87,28.41-6.13,40.1-14.89,6.06-4.54.13-14.88-6.01-10.28h0Z"/>
  <path class="cls-6" d="M1789.67,84.84c-25.93,5.63-51.95,11.79-77.21,19.93-21.69,6.99-42.94,16.6-59.08,33.13-5.36,5.49,3.05,13.91,8.42,8.42,15.49-15.86,36.07-24.54,56.9-31.04,24.33-7.59,49.24-13.56,74.13-18.96,7.48-1.62,4.32-13.1-3.17-11.48h0Z"/>
</svg>